<?xml version="1.0" encoding="utf-8"?>
<!-- Generator: Adobe Illustrator 23.0.3, SVG Export Plug-In . SVG Version: 6.00 Build 0)  -->
<svg version="1.1" id="Слой_1" xmlns="http://www.w3.org/2000/svg" xmlns:xlink="http://www.w3.org/1999/xlink" x="0px" y="0px"
	 width="313.8476562px" height="244px" viewBox="0 0 313.8476562 244" style="enable-background:new 0 0 313.8476562 244;"
	 xml:space="preserve">
<style type="text/css">
	.st0{fill:#8CD3AC;}
	.st1{fill:#71D3AC;}
	.st2{fill:#FFFFFF;}
	.st3{fill:url(#SVGID_1_);}
	.st4{fill:#B3F3AC;}
	.st5{opacity:0.7;fill:url(#SVGID_2_);enable-background:new    ;}
	.st6{fill:#582E00;}
	.st7{fill:url(#SVGID_3_);}
	.st8{fill:#F2DDCC;}
	.st9{opacity:0.7;fill:#2ED3AC;enable-background:new    ;}
</style>
<g>
	<path class="st0" d="M157.0823364,61.9753304c81.2929077-24.174572,189.7355042,8.1709785,108.9028015,135.3107605
		c-15.8380737,24.911377-68.1793671,41.0203705-82.0712738,29.6613922
		c-9.0991211-7.4400482-9.6175537-10.9954681-21.5638123-11.0031281
		c-15.1609955-0.0097351-32.0470123,12.8644257-46.3594055,18.192688
		c-26.3072815,9.7937317-46.4154587,6.6823425-61.1188889-22.2433777
		c-13.5937271-26.7426605-0.4905663-68.9403839-18.9240761-90.8708572
		C-19.6433411,54.8858566,68.9638596,88.1796722,157.0823364,61.9753304z"/>
	<g>
		<path class="st1" d="M305.7076721,67.7590332c-3.6425171,4.4391708-10.9277039,7.7830505-24.3839417,7.5408554
			c-16.0719299-0.2892838-42.7832642-1.9407654-52.6342773-2.0076523c-2.2207336-0.0150909-4.3929443,0.6476059-6.2329254,1.9010162
			l-18.6121521,12.6790237c-2.5373688,1.5662079-1.5890198-0.2847748-1.2238312-1.0600433l7.7045746-16.3564301
			c1.8455505-3.3800507,3.2658997-8.4968719,3.1237793-12.3523331c-0.3561096-9.6614609,0.1941833-27.1933784,3.25354-34.0716476
			c1.7104492-3.8455238,8.0748901-11.8961926,19.7884827-11.8961926c17.8087769,0,43.6590118-2.2064104,60.9201508,2.2122574
			C320.1207581,20.1613369,315.6529846,55.6386642,305.7076721,67.7590332z"/>
		<path class="st2" d="M289.4806824,40.5084457h-50.8264923c-2.9862671,0-5.407074-2.4401016-5.407074-5.4501152
			c0-3.010025,2.4208069-5.4501114,5.407074-5.4501114h50.8264923c2.9862671,0,5.407074,2.4400864,5.407074,5.4501114
			C294.8877563,38.0683441,292.4669495,40.5084457,289.4806824,40.5084457z"/>
		<path class="st2" d="M253.0312347,59.9205284h-14.8993073c-2.6977997,0-4.8848114-2.204422-4.8848114-4.9237137v-1.0527992
			c0-2.7193031,2.1870117-4.9237289,4.8848419-4.9237289h14.8992767c2.6977997,0,4.8848419,2.2044258,4.8848419,4.9237289v1.0527802
			C257.9160767,57.7160988,255.7290344,59.9205284,253.0312347,59.9205284z"/>
		<path class="st2" d="M299.266449,59.9205284h-32.9891663c-2.6978149,0-4.8848572-2.2044296-4.8848572-4.9237328v-1.0527802
			c0-2.7193031,2.1870422-4.9237289,4.8848572-4.9237289h32.9891663c2.6978149,0,4.8848572,2.2044258,4.8848572,4.9237289v1.0527802
			C304.1513062,57.7160988,301.9642639,59.9205284,299.266449,59.9205284z"/>
	</g>
	<g>
		
			<linearGradient id="SVGID_1_" gradientUnits="userSpaceOnUse" x1="102.8722916" y1="69.5097427" x2="144.8324738" y2="69.5097427" gradientTransform="matrix(1 0 0 -1 0 243)">
			<stop  offset="0" style="stop-color:#F4ECD8"/>
			<stop  offset="0.584983" style="stop-color:#CF91BC"/>
			<stop  offset="0.9771491" style="stop-color:#D18098"/>
		</linearGradient>
		<path class="st3" d="M144.8324738,176.9224701l-32.3162842,22.0904541l-9.643898-25.5361938l21.6582031-25.50914
			C132.4580383,153.9002838,143.6884003,162.2468567,144.8324738,176.9224701z"/>
		<path class="st1" d="M101.8245087,170.7006378l20.6295929-24.2983093
			c-3.3236771-2.5449982-5.6883316-4.6535797-5.7847137-6.7081757c-0.5614471-11.96698-0.5989227-34.9557419-17.4345245-40.9676132
			c-8.5086517-3.0379639-12.2824783-11.7809219-14.9163971-21.0914383L74.3002319,97.8144608L101.8245087,170.7006378z"/>
		<path class="st1" d="M84.4215927,131.947052l25.894371,68.56987l-21.9103546,14.9772949
			c-13.5656433-2.2504425-25.1731682-10.0539703-24.8631668-20.9701385
			c0.9050598-31.8396606,23.4885559-41.107254,1.5998077-50.1780853
			c-11.9298477-4.9441681-15.0617752-11.2276917-15.0849953-18.5176392L84.4215927,131.947052z"/>
		<path class="st1" d="M83.3056259,73.8477936c-2.0182343-7.9070892-3.5700912-15.7248611-6.8153152-20.3662109
			C65.6647415,37.9987221,56.9821472,33.873764,51.4153442,37.2137642l21.6349792,57.2908287L83.3056259,73.8477936z"/>
		<path class="st1" d="M49.3157997,38.9848671c-5.4632339,6.1644287-6.5357513,21.7022057-1.6856956,40.5043297
			c2.5362778,9.8321533,7.5750656,11.6839218,5.5653839,26.185524c-0.866848,6.2551804-2.5717697,12.1382065-3.0256386,17.5260391
			l33.179287,5.9067688L49.3157997,38.9848671z"/>
		<path class="st2" d="M73.0507812,94.5048599l-1.318222,2.6546707l2.3134766,1.1663589l0.2546463-0.511261l27.523941,72.885231
			l-1.416748,1.6695862l1.96595,1.6953583l0.4984665-0.5880737l9.643898,25.5361938l-2.2002258,1.5039978l-25.894371-68.56987
			l0.72258,0.1284485l0.4494934-2.5681763l-2.2449951-0.4001465L49.3157463,38.9854813
			c0.6405067-0.7229881,1.3412666-1.3170509,2.099411-1.7722473L73.0507812,94.5048599z"/>
		<path class="st2" d="M71.7322159,97.1595993l2.3137665,1.1669998l0.2542496-0.5121384l10.0182343-20.1793594
			c-0.3554153-1.2563477-0.6901321-2.5228958-1.0128403-3.7873077L73.0503235,94.5045929L71.7322159,97.1595993z"/>
		<path class="st2" d="M85.1440582,132.0753326l0.4500961-2.5681915l-2.245018-0.3996124l-33.179287-5.9067688
			c-0.0749664,0.8897552-0.1154861,1.7659912-0.1127968,2.6281891l34.3642273,6.1177216L85.1440582,132.0753326z"/>
		<path class="st2" d="M100.4077682,172.369278l1.9657516,1.6956482l0.4993591-0.5881195l21.6574097-25.5089264
			c-0.7228699-0.5408936-1.418335-1.0618439-2.0761871-1.5655518l-20.6295929,24.2983093L100.4077682,172.369278z"/>
	</g>
	<path class="st4" d="M127.6049423,187.9805603L62.4535751,222.197464
		c-6.6049919-26.7233887,6.0580215-36.4542542-14.5995941-38.5882874
		c-20.8796043-2.1571808-14.0652313-19.2823792-16.1807842-33.4718475
		c-1.9144669-12.8437805-6.6634903-13.1388855-11.277441-20.8567657
		C2.9476564,100.0958405,8.3809195,75.8824768,38.440918,99.8345337
		c9.1918526,7.3235474,14.8296852,31.8656158,30.6510239,32.7034302
		c15.8202591,0.8384552,21.5980377,20.3798218,25.0658875,30.4154968
		C96.1816177,168.8100739,120.6461716,168.5418396,127.6049423,187.9805603z"/>
	<path class="st1" d="M102.2355118,236.8914642c0,0-3.6394424,1.1899109-8.2859726,2.6871796
		c-8.1097488,0.0563965-13.3046112,0.0549927-13.3046112,0.0549927c-6.8704605,0-11.7799759-2.1302948-14.6389236-6.2992249
		c-0.1468811-0.2312164-0.2951584-0.4624329-0.4461746-0.6936493c-0.0014267-0.0042267-0.0042038-0.0084686-0.0070114-0.011261
		c-4.5975914-7.1155243-10.0469742-14.0181274-14.9998207-11.6425323
		c-9.2483177,4.4353943-33.044632,26.1329498-37.5149231,12.3770599
		c-2.7526817-8.4675598,30.9661293-26.0948944,28.9254036-29.1246643
		c-2.040699-3.0283356-27.7742767,8.0840454-37.6254234,2.3530273
		c-13.5675392-7.8937378,7.5111098-22.5209198,24.4537354-22.4927368
		c13.5171719,0.0211792-11.5855713-19.4530792-13.5955153-26.6997223
		c-1.6560984-5.9692993-3.0506144-11.9710236,7.5110826-17.4369965
		c8.3769207-4.3367004,19.4477539,19.7378845,20.6002922,30.4597778c0.125885,1.1673584,1.7721596-1.8906097,2.177803-2.9916992
		c1.5735512-4.2676086,3.8786392-11.2703247,5.3165092-19.0386047c1.6616745-8.9891815,7.8215981-11.4324493,12.2443619-9.6447906
		c1.8252945,0.7359619,3.354126,2.192337,4.1485825,4.2084351c1.6686707,4.2323303-1.4420853,17.5441437-4.1485825,28.19133
		c-1.7050514,6.7080536-3.2506256,12.3601379-3.3387375,14.0209503c-0.0391693,0.7359314-0.086731,1.4041901-0.1370697,2.0061951
		c-0.0657463,0.7867279,0.993084,1.0898285,1.3483696,0.3877106c0.5972137-1.1786346,1.3147774-2.5644836,2.1274376-4.0744476
		c5.3318787-9.9070129,14.7396469-25.1263275,20.7583237-22.0105591c8.7909393,4.5509949-1.8742752,30.6134491-7.5768585,40.9053497
		C71.5854645,210.7599182,102.7012787,236.3571472,102.2355118,236.8914642z"/>
	<g>
		<path class="st2" d="M225.8357849,229.1457977c-8.1531067,10.6292725-46.0924988,10.3541107-57.8278351,10.9361877
			c-1.1427307,0.0564575-2.4849396,0.356308-3.3634186-0.2928162c-0.7437286-0.5503235-1.0867462-1.9649658-1.4262238-2.8786774
			c-0.822525-2.2066345-1.7954712-5.401062-2.3362274-9.234024c-0.0804901-0.5662231-0.1837616-1.3334961-0.3009949-2.203125
			l-53.6996536,16.2667084c-9.1436157,2.4588928-20.0004425,3.2843933-27.3503113-0.8237457
			c-9.806839-5.483963-8.9248581-26.4567719-7.0873947-54.5027924c1.8374863-28.044281,15.224762-49.6044922,18.2136993-54.1200714
			c9.6913834-14.6421432,36.5376892-12.5678024,40.3298798-16.9775543c1.1007385-1.2806015,4.065155-5.880867,7.2326202-7.0961914
			c0.8574829-0.329834,2.0195007,0.8625336,3.6749573,1.333519c3.393219,0.9666138,8.1513824,2.6140823,11.1998138,2.7640305
			c3.5226746,0.1728668,7.2291412-0.1975708,9.7420807-0.5291672c2.9662628-0.3915863,4.4396973-1.3476334,5.3654327-0.2346115
			c1.7412262,2.0902328,4.0231781,5.7150574,6.4171448,6.3500443c11.0825806,2.9386902,23.1818848,4.6708298,26.4245758,6.7610321
			c16.3937531,10.567543,17.8497162,18.8755417,25.7246094,40.040596
			C234.6434021,185.870224,233.959198,218.5535583,225.8357849,229.1457977z"/>
		
			<linearGradient id="SVGID_2_" gradientUnits="userSpaceOnUse" x1="71.282753" y1="67.0231781" x2="232.3168182" y2="67.0231781" gradientTransform="matrix(1 0 0 -1 0 243)">
			<stop  offset="0" style="stop-color:#F6C7AF"/>
			<stop  offset="0.365079" style="stop-color:#D14548"/>
			<stop  offset="0.946429" style="stop-color:#B34779"/>
		</linearGradient>
		<path class="st5" d="M225.8357849,229.1457977c-8.1531067,10.6292725-46.0924988,10.3541107-57.8278351,10.9361877
			c-1.1427307,0.0564575-2.4849396,0.356308-3.3634186-0.2928162c-0.7437286-0.5503235-1.0867462-1.9649658-1.4262238-2.8786774
			c-0.822525-2.2066345-1.7954712-5.401062-2.3362274-9.234024c-0.0804901-0.5662231-0.1837616-1.3334961-0.3009949-2.203125
			l-53.6996536,16.2667084c-9.1436157,2.4588928-20.0004425,3.2843933-27.3503113-0.8237457
			c-9.806839-5.483963-8.9248581-26.4567719-7.0873947-54.5027924c1.8374863-28.044281,15.224762-49.6044922,18.2136993-54.1200714
			c9.6913834-14.6421432,36.5376892-12.5678024,40.3298798-16.9775543c1.1007385-1.2806015,4.065155-5.880867,7.2326202-7.0961914
			c0.8574829-0.329834,2.0195007,0.8625336,3.6749573,1.333519c3.393219,0.9666138,8.1513824,2.6140823,11.1998138,2.7640305
			c3.5226746,0.1728668,7.2291412-0.1975708,9.7420807-0.5291672c2.9662628-0.3915863,4.4396973-1.3476334,5.3654327-0.2346115
			c1.7412262,2.0902328,4.0231781,5.7150574,6.4171448,6.3500443c11.0825806,2.9386902,23.1818848,4.6708298,26.4245758,6.7610321
			c16.3937531,10.567543,17.8497162,18.8755417,25.7246094,40.040596
			C234.6434021,185.870224,233.959198,218.5535583,225.8357849,229.1457977z"/>
		<path class="st6" d="M127.9300995,42.4931641c-0.1032486,0.7655411-0.1977463,1.4728775-0.3237381,2.0619888
			c-0.1242523,0.5821114-1.0044861,1.4605255-1.9932175,0.3722076c-0.2747574-0.3016357-0.5564957-0.7532043-0.8329926-1.4023056
			c-0.9799728-2.301899-2.2224655-7.9375801-0.1224976-15.4341545c3.7397003-13.3509741,8.6816101-15.4517908,10.7623444-15.7869234
			c3.4229279-0.5521069,4.1544189-1.5222511,4.7826843-2.3512888c2.2959442-3.0286226,5.9498749-6.7028389,10.149826-7.0556059
			c2.0177307-0.1693225,5.263916,0.0970278,7.8661041,0.1181893c3.2759705,0.0282154,4.3259277-3.7641749,12.9008026-2.8822184
			c4.5271912,0.4656744,8.3998718,2.4694629,11.024826,5.8208823c2.6249542,3.3514042,3.3249359,3.9687662,5.0749207,4.7625351
			c1.4454803,0.6561584,6.4521484,7.7611713,7.5406342,12.9858532c1.5592194,7.4754028,0.1592255,18.9407883-0.3657379,20.5282784
			c-0.2362671,0.7143936-0.5197754,2.3848038-1.3562622,3.307312c-1.0236969,1.1289139-2.6056824,1.4552383-2.6056824,1.4552383
			l-62.4985123-6.5264435c0.1120224-1.0160103,0.248497-1.7162666,0.248497-1.7162666L127.9300995,42.4931641z"/>
		
			<linearGradient id="SVGID_3_" gradientUnits="userSpaceOnUse" x1="138.8160095" y1="140.4963837" x2="167.8357697" y2="140.4963837" gradientTransform="matrix(1 0 0 -1 0 243)">
			<stop  offset="0.0684856" style="stop-color:#F6DED2"/>
			<stop  offset="0.996032" style="stop-color:#EFC2B0"/>
		</linearGradient>
		<path class="st7" d="M138.8160095,108.08535c0,0,1.2823486-1.3856583,2.2038879-6.1751251
			c1.3999786-7.2760925,0.4342804-10.4669189,0.4342804-10.4669189s7.3530884,7.3800735,15.7092133,5.5279694
			c8.3561096-1.8520737,10.6723785-2.8528595,10.6723785-2.8528595s-0.5856628,6.8503189-0.5711975,9.5866394
			c0.0248566,4.7051086,0.5711975,7.5275116,0.5711975,7.5275116s-10.7161407,3.9951019-18.2410126,1.5256424
			C142.06987,110.2887421,138.8160095,108.08535,138.8160095,108.08535z"/>
		<path class="st2" d="M189.4941254,61.4586449c-1.1847229,3.337307-3.674942,4.467968-3.674942,4.467968
			s-1.7499695,4.4097672-4.5499115,11.2889786c-2.7999725,6.8792191-11.8998413,17.8153992-20.1246948,21.5196075
			c-8.2248535,3.7042007-19.2496948-5.4681015-22.574646-10.9361954s-7.7943726-24.4565048-8.282608-24.6505394
			c-1.0779877-0.430378-2.9172058-1.4552116-3.8691788-6.7839584c-0.7647781-4.2845268-0.0175171-6.1066551,1.1479797-7.3043251
			c0.5862198-0.6014977,0.5319595-0.8731461,0.3289948-2.358326c-0.1925201-1.4164314-0.096283-3.0215836,0.0349808-4.2086906
			c0-0.0088234,0.0017395-0.0176315,0.0035019-0.0264549c0.0735245-0.5503387,0.1522598-1.1306458,0.2485123-1.7162666
			c0.2187653-1.3176422,0.5336914-2.661747,1.1129608-3.7518387c2.1034698-3.9581642,9.1260986-3.4625397,11.724823-2.4694481
			c5.0749207,1.9402885,12.4248199,1.7638855,15.4400024-1.0583458c3.0169525-2.822258,17.7516937-5.9972725,24.2843781-0.3527985
			c4.2506866,3.6724625,2.7789154,4.9001465,6.037384,8.4667511c3.062439,3.3514061,1.6624756,7.2619743,3.6504211,7.40839
			c0,0-1.711441,2.6088142-0.8119507,4.1310387C190.682373,54.9233856,191.7253265,55.16679,189.4941254,61.4586449z"/>
		<path class="st8" d="M189.4941254,61.4586449c-1.1847229,3.337307-3.674942,4.467968-3.674942,4.467968
			s-1.7499695,4.4097672-4.5499115,11.2889786c-2.7999725,6.8792191-11.8998413,17.8153992-20.1246948,21.5196075
			c-8.2248535,3.7042007-19.2496948-5.4681015-22.574646-10.9361954s-7.7943726-24.4565048-8.282608-24.6505394
			c-1.0779877-0.430378-2.9172058-1.4552116-3.8691788-6.7839584c-0.7647781-4.2845268-0.0175171-6.1066551,1.1479797-7.3043251
			c0.5862198-0.6014977,0.5319595-0.8731461,0.3289948-2.358326c-0.1925201-1.4164314-0.096283-3.0215836,0.0349808-4.2086906
			c0-0.0088234,0.0017395-0.0176315,0.0035019-0.0264549c0.0735245-0.5503387,0.1522598-1.1306458,0.2485123-1.7162666
			c0.2187653-1.3176422,0.5336914-2.661747,1.1129608-3.7518387c2.1034698-3.9581642,9.1260986-3.4625397,11.724823-2.4694481
			c5.0749207,1.9402885,12.4248199,1.7638855,15.4400024-1.0583458c3.0169525-2.822258,17.7516937-5.9972725,24.2843781-0.3527985
			c4.2506866,3.6724625,2.7789154,4.9001465,6.037384,8.4667511c3.062439,3.3514061,1.6624756,7.2619743,3.6504211,7.40839
			c0,0-1.711441,2.6088142-0.8119507,4.1310387C190.682373,54.9233856,191.7253265,55.16679,189.4941254,61.4586449z"/>
		<g>
			<path class="st2" d="M99.0531769,199.84375c-0.7435989,0-1.2150955-0.3420868-1.4912949-0.6564178
				c-1.8642578-2.1222076-0.014801-8.9693451,0.2022171-9.742981l0.9346313,0.2661743
				c-0.549263,1.9600677-1.6935196,7.3666534-0.4095612,8.8278503c0.1546173,0.1759033,0.4297638,0.3994293,1.0330963,0.3042145
				c3.2342606-0.5067139,26.4067459-20.0148163,35.0625305-27.4889526l0.6318817,0.7434235
				c-1.2792206,1.104599-31.377655,27.0600586-35.545311,27.713028
				C99.3233185,199.8332367,99.1839752,199.84375,99.0531769,199.84375z"/>
		</g>
		<g>
			<path class="st2" d="M165.0987854,219.2222443l-0.2435608-0.9476166
				c0.0924683-0.0243073,9.3613739-2.4541626,18.6006775-5.6209564c16.0385437-5.4970093,18.7100525-8.5951385,18.8748779-9.9525299
				c1.8983002-15.6237335-5.6835022-28.4082489-5.7603302-28.5355988l0.8297272-0.5090027
				c0.078537,0.1300354,7.8352661,13.1919861,5.8946533,29.1635437c-0.1986084,1.6344299-2.325119,3.4453583-6.5009308,5.5367889
				c-3.1893921,1.5971527-7.5732727,3.3551025-13.0299225,5.2253265
				C174.4909973,216.7600708,165.1916504,219.1979523,165.0987854,219.2222443z"/>
		</g>
		<path class="st2" d="M225.8357849,229.1457977c-8.1531067,10.6292725-46.0924988,10.3541107-57.8278351,10.9361877
			c-1.1427307,0.0564575-2.4849396,0.356308-3.3634186-0.2928162c-0.7437286-0.5503235-1.0867462-1.9649658-1.4262238-2.8786774
			c-0.822525-2.2066345-1.7954712-5.401062-2.3362274-9.234024c-0.0804901-0.5662231-0.1837616-1.3334961-0.3009949-2.203125
			l-53.6996536,16.2667084c-9.1436157,2.4588928-20.0004425,3.2843933-27.3503113-0.8237457
			c-9.806839-5.483963-8.9248581-26.4567719-7.0873947-54.5027924c1.8374863-28.044281,15.224762-49.6044922,18.2136993-54.1200714
			c9.6913834-14.6421432,36.5376892-12.5678024,40.3298798-16.9775543c1.1007385-1.2806015,4.065155-5.880867,7.2326202-7.0961914
			c0.8574829-0.329834,2.0195007,0.8625336,3.6749573,1.333519c3.393219,0.9666138,8.1513824,2.6140823,11.1998138,2.7640305
			c3.5226746,0.1728668,7.2291412-0.1975708,9.7420807-0.5291672c2.9662628-0.3915863,4.4396973-1.3476334,5.3654327-0.2346115
			c1.7412262,2.0902328,4.0231781,5.7150574,6.4171448,6.3500443c11.0825806,2.9386902,23.1818848,4.6708298,26.4245758,6.7610321
			c16.3937531,10.567543,17.8497162,18.8755417,25.7246094,40.040596
			C234.6434021,185.870224,233.959198,218.5535583,225.8357849,229.1457977z"/>
		<path class="st9" d="M225.8357849,229.1457977c-8.1531067,10.6292725-46.0924988,10.3541107-57.8278351,10.9361877
			c-1.1427307,0.0564575-2.4849396,0.356308-3.3634186-0.2928162c-0.7437286-0.5503235-1.0867462-1.9649658-1.4262238-2.8786774
			c-0.822525-2.2066345-1.7954712-5.401062-2.3362274-9.234024c-0.0804901-0.5662231-0.1837616-1.3334961-0.3009949-2.203125
			l-53.6996536,16.2667084c-9.1436157,2.4588928-20.0004425,3.2843933-27.3503113-0.8237457
			c-9.806839-5.483963-8.9248581-26.4567719-7.0873947-54.5027924c1.8374863-28.044281,15.224762-49.6044922,18.2136993-54.1200714
			c9.6913834-14.6421432,36.5376892-12.5678024,40.3298798-16.9775543c1.1007385-1.2806015,4.065155-5.880867,7.2326202-7.0961914
			c0.8574829-0.329834,2.0195007,0.8625336,3.6749573,1.333519c3.393219,0.9666138,8.1513824,2.6140823,11.1998138,2.7640305
			c3.5226746,0.1728668,7.2291412-0.1975708,9.7420807-0.5291672c2.9662628-0.3915863,4.4396973-1.3476334,5.3654327-0.2346115
			c1.7412262,2.0902328,4.0231781,5.7150574,6.4171448,6.3500443c11.0825806,2.9386902,23.1818848,4.6708298,26.4245758,6.7610321
			c16.3937531,10.567543,17.8497162,18.8755417,25.7246094,40.040596
			C234.6434021,185.870224,233.959198,218.5535583,225.8357849,229.1457977z"/>
		<path class="st2" d="M189.4941254,61.4586449c-1.1847229,3.337307-3.674942,4.467968-3.674942,4.467968
			s-1.7499695,4.4097672-4.5499115,11.2889786c-2.7999725,6.8792191-11.8998413,17.8153992-20.1246948,21.5196075
			c-8.2248535,3.7042007-19.2496948-5.4681015-22.574646-10.9361954s-7.7943726-24.4565048-8.282608-24.6505394
			c-1.0779877-0.430378-2.9172058-1.4552116-3.8691788-6.7839584c-0.7647781-4.2845268-0.0175171-6.1066551,1.1479797-7.3043251
			c0.5862198-0.6014977,0.5319595-0.8731461,0.3289948-2.358326c-0.1925201-1.4164314-0.096283-3.0215836,0.0349808-4.2086906
			c0-0.0088234,0.0017395-0.0176315,0.0035019-0.0264549c0.0735245-0.5503387,0.1522598-1.1306458,0.2485123-1.7162666
			c0.2187653-1.3176422,0.5336914-2.661747,1.1129608-3.7518387c2.1034698-3.9581642,9.1260986-3.4625397,11.724823-2.4694481
			c5.0749207,1.9402885,12.4248199,1.7638855,15.4400024-1.0583458c3.0169525-2.822258,17.7516937-5.9972725,24.2843781-0.3527985
			c4.2506866,3.6724625,2.7789154,4.9001465,6.037384,8.4667511c3.062439,3.3514061,1.6624756,7.2619743,3.6504211,7.40839
			c0,0-1.711441,2.6088142-0.8119507,4.1310387C190.682373,54.9233856,191.7253265,55.16679,189.4941254,61.4586449z"/>
		<path class="st8" d="M189.4941254,61.4586449c-1.1847229,3.337307-3.674942,4.467968-3.674942,4.467968
			s-1.7499695,4.4097672-4.5499115,11.2889786c-2.7999725,6.8792191-11.8998413,17.8153992-20.1246948,21.5196075
			c-8.2248535,3.7042007-19.2496948-5.4681015-22.574646-10.9361954s-7.7943726-24.4565048-8.282608-24.6505394
			c-1.0779877-0.430378-2.9172058-1.4552116-3.8691788-6.7839584c-0.7647781-4.2845268-0.0175171-6.1066551,1.1479797-7.3043251
			c0.5862198-0.6014977,0.5319595-0.8731461,0.3289948-2.358326c-0.1925201-1.4164314-0.096283-3.0215836,0.0349808-4.2086906
			c0-0.0088234,0.0017395-0.0176315,0.0035019-0.0264549c0.0735245-0.5503387,0.1522598-1.1306458,0.2485123-1.7162666
			c0.2187653-1.3176422,0.5336914-2.661747,1.1129608-3.7518387c2.1034698-3.9581642,9.1260986-3.4625397,11.724823-2.4694481
			c5.0749207,1.9402885,12.4248199,1.7638855,15.4400024-1.0583458c3.0169525-2.822258,17.7516937-5.9972725,24.2843781-0.3527985
			c4.2506866,3.6724625,2.7789154,4.9001465,6.037384,8.4667511c3.062439,3.3514061,1.6624756,7.2619743,3.6504211,7.40839
			c0,0-1.711441,2.6088142-0.8119507,4.1310387C190.682373,54.9233856,191.7253265,55.16679,189.4941254,61.4586449z"/>
		<g>
			<path class="st2" d="M99.0531769,199.84375c-0.7435989,0-1.2150955-0.3420868-1.4912949-0.6564178
				c-1.8642578-2.1222076-0.014801-8.9693451,0.2022171-9.742981l0.9346313,0.2661743
				c-0.549263,1.9600677-1.6935196,7.3666534-0.4095612,8.8278503c0.1546173,0.1759033,0.4297638,0.3994293,1.0330963,0.3042145
				c3.2342606-0.5067139,26.4067459-20.0148163,35.0625305-27.4889526l0.6318817,0.7434235
				c-1.2792206,1.104599-31.377655,27.0600586-35.545311,27.713028
				C99.3233185,199.8332367,99.1839752,199.84375,99.0531769,199.84375z"/>
		</g>
		<g>
			<path class="st2" d="M165.0987854,219.2222443l-0.2435608-0.9476166
				c0.0924683-0.0243073,9.3613739-2.4541626,18.6006775-5.6209564c16.0385437-5.4970093,18.7100525-8.5951385,18.8748779-9.9525299
				c1.8983002-15.6237335-5.6835022-28.4082489-5.7603302-28.5355988l0.8297272-0.5090027
				c0.078537,0.1300354,7.8352661,13.1919861,5.8946533,29.1635437c-0.1986084,1.6344299-2.325119,3.4453583-6.5009308,5.5367889
				c-3.1893921,1.5971527-7.5732727,3.3551025-13.0299225,5.2253265
				C174.4909973,216.7600708,165.1916504,219.1979523,165.0987854,219.2222443z"/>
		</g>
		<path class="st8" d="M136.6431427,173.9235687c-0.8864288-0.9954681-0.764267-2.5359802,0.2691498-3.3752289
			c4.4818726-3.6398315,15.6692963-12.592041,19.8663025-14.721283c5.3023071-2.6900177,17.9373779-6.4169769,10.2226105-0.6180725
			c-4.2979889,3.2306366-4.2979889,3.2306366,7.9397583,1.3370514c6.348938-0.9823914,15.4685211-1.0622711,20.5888977-1.2964935
			c1.713974-0.0783997,3.7654419,1.8016815,3.0772705,3.3858643c-0.8425446,1.9394531-5.244751,9.5287781-14.3763275,12.2046661
			c-9.0339508,2.6472473-19.0812225,3.5406036-20.1663818,4.0978546
			c-1.5140991,0.7774811-9.5593719,8.1669312-13.1402893,11.4876251c-0.9491882,0.8802185-2.4284973,0.808197-3.2900238-0.1592712
			L136.6431427,173.9235687z"/>
		<path class="st8" d="M164.8205414,237.5491943l-2.8263245-16.3392181
			c-0.2214661-1.2805023-17.9875793,2.4963989-19.6872711,2.5277405c-0.4758911,0.007843-1.0314636,0.0783081-1.6511078,0.1997223
			c0,0-0.003891,0-0.0116577,0.0019379c-0.0097198,0.0019684-0.021347,0.0039368-0.0368958,0.007843
			c-0.0097351,0-0.0175171,0.0019531-0.0272217,0.0039062c-1.0294952,0.187973-12.1153564,2.2908325-15.8974152,6.3398895
			c-8.9743423,4.3721313-17.8496399,9.4373627-18.7975922,10.089386c-1.4160767,0.9750671,0.8100052,3.4107666,2.5252609,3.4107666
			c7.9642563,0,17.3465347,0.3896179,23.5042496-1.4527893c11.0722656-3.3128815,25.1864624-1.3803864,30.9013367-2.0715637
			C164.1348419,240.1082458,165.0478363,238.8668976,164.8205414,237.5491943z M123.122818,236.4821014
			C122.9965668,236.9363403,122.9207916,236.7973175,123.122818,236.4821014L123.122818,236.4821014z"/>
		<path class="st8" d="M123.122818,236.4821014C122.9965668,236.9363403,122.9207916,236.7973175,123.122818,236.4821014
			L123.122818,236.4821014z"/>
		<path class="st8" d="M123.122818,236.4821014C122.9965668,236.9363403,122.9207916,236.7973175,123.122818,236.4821014
			L123.122818,236.4821014z"/>
		<path class="st8" d="M123.122818,236.4821014C122.9965668,236.9363403,122.9207916,236.7973175,123.122818,236.4821014
			L123.122818,236.4821014z"/>
		<path class="st8" d="M123.122818,236.4821014C122.9965668,236.9363403,122.9207916,236.7973175,123.122818,236.4821014
			L123.122818,236.4821014z"/>
	</g>
</g>
</svg>
