<?xml version="1.0" encoding="utf-8"?>
<!-- Generator: Adobe Illustrator 23.0.3, SVG Export Plug-In . SVG Version: 6.00 Build 0)  -->
<svg version="1.1" id="Слой_1" xmlns="http://www.w3.org/2000/svg" xmlns:xlink="http://www.w3.org/1999/xlink" x="0px" y="0px"
	 width="360px" height="244px" viewBox="0 0 360 244" style="enable-background:new 0 0 360 244;" xml:space="preserve">
<style type="text/css">
	.st0{fill:#8CD3AC;}
	.st1{fill:#71D3AC;}
	.st2{fill:#FFFFFF;}
	.st3{fill:url(#SVGID_1_);}
	.st4{fill:#B3F3AC;}
	.st5{opacity:0.7;fill:url(#SVGID_2_);}
	.st6{fill:#582E00;}
	.st7{fill:url(#SVGID_3_);}
	.st8{fill:#F2DDCC;}
	.st9{opacity:0.7;fill:#2ED3AC;}
</style>
<g>
	<path class="st0" d="M183.8492889,62.9293022c80.4556427-23.7366371,187.7813263,8.0229607,107.7811737,132.8595276
		c-15.6749573,24.4600983-67.4771729,40.2772675-81.2259979,29.1240692
		c-9.0054016-7.3052673-9.5184937-10.7962799-21.3417206-10.8038025
		c-15.004837-0.0095673-31.7169495,12.6313782-45.8819275,17.8631134
		c-26.0363312,9.6163177-45.9374084,6.5612946-60.4894028-21.8404236
		c-13.4537201-26.2582092-0.4855118-67.6914978-18.7291679-89.2246857
		C8.943778,55.9682579,96.6383743,88.6589432,183.8492889,62.9293022z"/>
	<g>
		<path class="st1" d="M330.9438782,68.6082306c-3.605011,4.358757-10.815155,7.6420593-24.1328125,7.4042511
			c-15.9064026-0.2840424-42.3426208-1.9056091-52.0921783-1.971283c-2.1978607-0.0148163-4.347702,0.6358719-6.1687317,1.8665771
			l-18.4204559,12.4493408c-2.5112305,1.5378342-1.5726471-0.2796173-1.2112274-1.0408401l7.6252289-16.0601273
			c1.8265381-3.3188171,3.232254-8.3429489,3.0915985-12.1285667c-0.3524323-9.4864388,0.1921844-26.7007561,3.2200317-33.454422
			c1.6928406-3.7758598,7.9917297-11.680686,19.584671-11.680686c17.6253662,0,43.2093506-2.16644,60.2927246,2.1721811
			C345.2084961,21.8727913,340.7867432,56.707428,330.9438782,68.6082306z"/>
		<path class="st2" d="M314.8840027,41.8513031h-50.303009c-2.9555054,0-5.3513794-2.3958969-5.3513794-5.3513832
			c0-2.9554977,2.395874-5.3513813,5.3513794-5.3513813h50.303009c2.9555054,0,5.3513794,2.3958836,5.3513794,5.3513813
			C320.2353821,39.4554062,317.8395081,41.8513031,314.8840027,41.8513031z"/>
		<path class="st2" d="M278.809967,60.9117241h-14.7458496c-2.6700134,0-4.8345032-2.1644859-4.8345032-4.8345184v-1.0337257
			c0-2.6700401,2.1644897-4.8345337,4.8345337-4.8345337h14.7458191c2.6700134,0,4.8345337,2.1644936,4.8345337,4.8345337v1.0337105
			C283.6445007,58.7472305,281.4799805,60.9117241,278.809967,60.9117241z"/>
		<path class="st2" d="M324.5690002,60.9117241h-32.6494141c-2.6700134,0-4.8345337-2.1644936-4.8345337-4.8345337v-1.0337105
			c0-2.6700401,2.1645203-4.8345337,4.8345337-4.8345337h32.6494141c2.6700134,0,4.8345337,2.1644936,4.8345337,4.8345337v1.0337105
			C329.4035339,58.7472305,327.2390137,60.9117241,324.5690002,60.9117241z"/>
	</g>
	<g>
		
			<linearGradient id="SVGID_1_" gradientUnits="userSpaceOnUse" x1="130.1975708" y1="172.4240875" x2="171.7255859" y2="172.4240875">
			<stop  offset="0" style="stop-color:#F4ECD8"/>
			<stop  offset="0.584983" style="stop-color:#CF91BC"/>
			<stop  offset="0.977149" style="stop-color:#D18098"/>
		</linearGradient>
		<path class="st3" d="M171.7255859,175.7941132l-31.9834442,21.6902771l-9.5445709-25.0735931l21.4351349-25.0470276
			C159.4786072,153.1889954,170.5932922,161.3843536,171.7255859,175.7941132z"/>
		<path class="st1" d="M129.1605835,169.6849976l20.4171143-23.858139c-3.289444-2.4988861-5.6297455-4.5692749-5.7251282-6.5866547
			c-0.5556641-11.7501831-0.5927582-34.3224945-17.2549591-40.2254562
			c-8.4210205-2.982933-12.155983-11.5675049-14.7627716-20.7093582l-9.9150543,19.813797L129.1605835,169.6849976z"/>
		<path class="st1" d="M111.9369049,131.6334534l25.6276703,67.3276978l-21.6846848,14.7059631
			c-13.4259262-2.209671-24.9139023-9.8718414-24.6070938-20.5902557
			c0.8957367-31.2628632,23.2466354-40.3625641,1.5833282-49.2690735
			c-11.8069763-4.8546143-14.9066467-11.0243073-14.9296265-18.1821899L111.9369049,131.6334534z"/>
		<path class="st1" d="M110.832428,74.5866928c-1.9974442-7.7638474-3.5333176-15.4399986-6.7451172-19.9972687
			C93.3732376,39.387043,84.7800674,35.3368111,79.2705994,38.6163063l21.4121552,56.2529793L110.832428,74.5866928z"/>
		<path class="st1" d="M77.1926804,40.3553238c-5.4069672,6.0527573-6.4684372,21.3090591-1.668335,39.7705765
			c2.5101547,9.6540375,7.4970474,11.4722595,5.5080643,25.7111588c-0.8579178,6.141861-2.5452805,11.9183121-2.9944763,17.2085419
			l32.8375626,5.7997665L77.1926804,40.3553238z"/>
		<path class="st2" d="M100.6832047,94.869545l-1.3046417,2.6065826l2.28965,1.1452255l0.2520218-0.5019989l27.2404556,71.5648804
			l-1.402153,1.6393433l1.9457016,1.6646423l0.4933319-0.5774231l9.5445709,25.0735931l-2.1775665,1.4767609l-25.6276703-67.3276978
			l0.7151337,0.1261139l0.44487-2.5216522l-2.2218781-0.3928986l-33.6824036-88.48909
			c0.6339111-0.7098885,1.3274536-1.29319,2.0777893-1.7401428L100.6832047,94.869545z"/>
		<path class="st2" d="M99.3782196,97.4761887l2.2899399,1.1458588l0.2516251-0.502861l9.9150543-19.813797
			c-0.3517532-1.2335892-0.6830215-2.4771881-1.0024109-3.7186966l-10.1496735,20.2825928L99.3782196,97.4761887z"/>
		<path class="st2" d="M112.6519318,131.7594147l0.4454575-2.5216675l-2.2218933-0.3923798l-32.8375626-5.7997665
			c-0.0741959,0.873642-0.114296,1.7340012-0.1116333,2.5805817l34.0102921,6.0068893L112.6519318,131.7594147z"/>
		<path class="st2" d="M127.7584305,171.32341l1.9455032,1.6649323l0.4942169-0.5774689l21.4343567-25.046814
			c-0.7154236-0.5310974-1.4037323-1.0426178-2.0548096-1.5372009l-20.4171143,23.858139L127.7584305,171.32341z"/>
	</g>
	<path class="st4" d="M154.6754913,186.651886l-64.4803467,33.5970459
		c-6.5369644-26.2392883,5.9956284-35.793869-14.4492264-37.8892365
		c-20.6645584-2.118103-13.9203682-18.933075-16.0141335-32.8654938
		c-1.8947487-12.6111145-6.5948601-12.9008636-11.1612892-20.4789276
		c-17.2683945-28.6560364-11.8910904-52.4307556,17.8593063-28.9126053
		c9.0971832,7.1908798,14.6769485,31.288353,30.3353348,32.1109848
		c15.6573257,0.8232727,21.3755951,20.0106354,24.807724,29.8645172
		C123.5758057,167.8286743,147.7883911,167.5653076,154.6754913,186.651886z"/>
	<path class="st1" d="M129.5673523,234.6767426c0,0-3.6019592,1.1683502-8.2006302,2.638504
		c-8.0262299,0.0553741-13.1675873,0.0539856-13.1675873,0.0539856c-6.7996979,0-11.6586456-2.0916901-14.4881516-6.1851044
		c-0.1453629-0.2270203-0.2921143-0.4540558-0.4415741-0.681076c-0.0014114-0.0041504-0.0041656-0.008316-0.0069427-0.0110626
		c-4.5502396-6.986618-9.9434967-13.7641907-14.8453293-11.4316254
		c-9.1530685,4.3550415-32.7042923,25.6595459-37.1285439,12.1528473
		c-2.7243309-8.3141632,30.6471977-25.6221771,28.627491-28.5970612
		c-2.0196838-2.9734802-27.4882202,7.9376068-37.2379036,2.3104095
		c-13.4278011-7.7507477,7.4337502-22.1129456,24.2018776-22.0852814
		c13.3779526,0.0207977-11.4662476-19.1006775-13.4554901-26.2160339
		c-1.6390419-5.8611603-3.0191956-11.7541656,7.4337234-17.1211243
		c8.2906418-4.2581329,19.2474518,19.3803253,20.3881226,29.9079895c0.124588,1.1462097,1.7539062-1.856369,2.1553726-2.9375
		c1.5573425-4.1903076,3.8386917-11.0661621,5.2617493-18.6937103c1.6445618-8.8263397,7.7410431-11.2253571,12.1182556-9.4700775
		c1.8064957,0.7226257,3.3195801,2.1526184,4.1058502,4.1322021c1.6514893,4.1556549-1.4272308,17.2263184-4.1058502,27.6806335
		c-1.6874924,6.5865326-3.2171478,12.1362152-3.3043518,13.7669525c-0.038765,0.7225952-0.0858383,1.3787537-0.1356583,1.9698486
		c-0.0650711,0.7724762,0.9828568,1.0700836,1.3344803,0.3806915c0.5910645-1.1572876,1.301239-2.5180359,2.1055298-4.0006409
		c5.2769623-9.7275391,14.5878372-24.6711578,20.5445251-21.6118317c8.7003937,4.4685516-1.8549728,30.0588684-7.4988251,40.1643372
		C99.2329788,209.0185852,130.0283203,234.1520996,129.5673523,234.6767426z"/>
	<g>
		<path class="st2" d="M251.8946075,227.0713959c-8.0691223,10.4367218-45.6177673,10.1665344-57.2322388,10.7380676
			c-1.1309509,0.0554352-2.4593506,0.3498535-3.3287811-0.2875061c-0.7360687-0.5403595-1.0755463-1.9293671-1.4115295-2.8265381
			c-0.8140564-2.1666565-1.7769775-5.3032074-2.3121643-9.0667419c-0.0796661-0.5559692-0.1818695-1.3093414-0.2978973-2.163208
			L134.1654205,239.4375c-9.0494385,2.4143372-19.7944489,3.224884-27.0686188-0.8088226
			c-9.7058334-5.3846283-8.8329391-25.9774933-7.0143967-53.5154572
			c1.8185577-27.5362396,15.067955-48.7058716,18.0261078-53.1396484
			c9.591568-14.3768997,36.1613693-12.3401337,39.9144974-16.6700058c1.0894012-1.2574005,4.0233002-5.7743301,7.1581421-6.9676361
			c0.8486481-0.3238602,1.9986877,0.8469086,3.6371002,1.3093643c3.3582764,0.9490967,8.0674286,2.5667267,11.0844574,2.7139587
			c3.4864044,0.1697311,7.1546936-0.1939926,9.6417542-0.5195847c2.9356995-0.384491,4.3939667-1.3232193,5.3101654-0.2303619
			c1.7232971,2.0523682,3.9817505,5.6115265,6.351059,6.2350082c10.9684296,2.8854599,22.9431152,4.5862198,26.15242,6.6385574
			c16.2248993,10.3761063,17.665863,18.5335922,25.4596558,39.315239
			C260.6115112,184.5797729,259.9343567,216.6710358,251.8946075,227.0713959z"/>
		
			<linearGradient id="SVGID_2_" gradientUnits="userSpaceOnUse" x1="98.9333801" y1="174.8656006" x2="258.3088989" y2="174.8656006">
			<stop  offset="0" style="stop-color:#F6C7AF"/>
			<stop  offset="0.365079" style="stop-color:#D14548"/>
			<stop  offset="0.946429" style="stop-color:#B34779"/>
		</linearGradient>
		<path class="st5" d="M251.8946075,227.0713959c-8.0691223,10.4367218-45.6177673,10.1665344-57.2322388,10.7380676
			c-1.1309509,0.0554352-2.4593506,0.3498535-3.3287811-0.2875061c-0.7360687-0.5403595-1.0755463-1.9293671-1.4115295-2.8265381
			c-0.8140564-2.1666565-1.7769775-5.3032074-2.3121643-9.0667419c-0.0796661-0.5559692-0.1818695-1.3093414-0.2978973-2.163208
			L134.1654205,239.4375c-9.0494385,2.4143372-19.7944489,3.224884-27.0686188-0.8088226
			c-9.7058334-5.3846283-8.8329391-25.9774933-7.0143967-53.5154572
			c1.8185577-27.5362396,15.067955-48.7058716,18.0261078-53.1396484
			c9.591568-14.3768997,36.1613693-12.3401337,39.9144974-16.6700058c1.0894012-1.2574005,4.0233002-5.7743301,7.1581421-6.9676361
			c0.8486481-0.3238602,1.9986877,0.8469086,3.6371002,1.3093643c3.3582764,0.9490967,8.0674286,2.5667267,11.0844574,2.7139587
			c3.4864044,0.1697311,7.1546936-0.1939926,9.6417542-0.5195847c2.9356995-0.384491,4.3939667-1.3232193,5.3101654-0.2303619
			c1.7232971,2.0523682,3.9817505,5.6115265,6.351059,6.2350082c10.9684296,2.8854599,22.9431152,4.5862198,26.15242,6.6385574
			c16.2248993,10.3761063,17.665863,18.5335922,25.4596558,39.315239
			C260.6115112,184.5797729,259.9343567,216.6710358,251.8946075,227.0713959z"/>
		<path class="st6" d="M154.9972992,43.8000679c-0.1021881,0.7516708-0.1957092,1.4461937-0.3204041,2.0246353
			c-0.1229706,0.5715637-0.9941406,1.4340668-1.9726868,0.3654633c-0.2719269-0.2961731-0.550766-0.7395592-0.8244171-1.3769035
			c-0.9698792-2.2601967-2.1995697-7.7937851-0.1212311-15.1545563
			c3.7011871-13.1091137,8.5921936-15.1718731,10.6514893-15.5009346c3.3876801-0.5421047,4.1116333-1.4946747,4.733429-2.3086939
			c2.2723083-2.9737577,5.8885956-6.5814137,10.0452881-6.9277902c1.9969482-0.166255,5.2097015,0.0952702,7.7850952,0.1160483
			c3.2422333,0.0277042,4.2813721-3.6959848,12.7679291-2.8300054c4.4805603,0.4572384,8.3133545,2.4247272,10.9112701,5.7154341
			c2.5979309,3.2906919,3.2906952,3.8968701,5.0226593,4.6762586c1.4305878,0.6442719,6.3856964,7.620575,7.4629669,12.7506084
			c1.5431671,7.3399811,0.1575928,18.5976677-0.361969,20.1563988c-0.2338257,0.7014503-0.5144196,2.3416023-1.3422852,3.2473984
			c-1.0131683,1.1084633-2.5788574,1.428875-2.5788574,1.428875l-61.8548126-6.4082146
			c0.1108704-0.9976044,0.2459412-1.685173,0.2459412-1.685173L154.9972992,43.8000679z"/>
		
			<linearGradient id="SVGID_3_" gradientUnits="userSpaceOnUse" x1="165.7710876" y1="102.7233887" x2="194.4919586" y2="102.7233887">
			<stop  offset="0.0684856" style="stop-color:#F6DED2"/>
			<stop  offset="0.996032" style="stop-color:#EFC2B0"/>
		</linearGradient>
		<path class="st7" d="M165.7710876,108.2040176c0,0,1.2691498-1.3605576,2.1811981-6.0632629
			c1.3855591-7.1442795,0.4298096-10.2773056,0.4298096-10.2773056s7.2773438,7.2463837,15.5474091,5.4278336
			c8.27005-1.8185272,10.5624542-2.8011856,10.5624542-2.8011856s-0.5796204,6.7262268-0.5653076,9.4129791
			c0.0245972,4.619873,0.5653076,7.3911438,0.5653076,7.3911438s-10.6057587,3.9227295-18.0531311,1.4980011
			C168.9914398,110.3674927,165.7710876,108.2040176,165.7710876,108.2040176z"/>
		<path class="st2" d="M215.9272461,62.421978c-1.1725159,3.2768517-3.637085,4.3870277-3.637085,4.3870277
			s-1.7319489,4.3298798-4.5030518,11.0844727c-2.7711334,6.7546005-11.7772827,17.4926682-19.9174194,21.1297684
			c-8.140152,3.6371002-19.0514374-5.3690414-22.3421478-10.7380753
			c-3.2906952-5.3690414-7.7140961-24.0134659-8.1972961-24.2039871c-1.0668793-0.4225807-2.8871613-1.4288483-3.8293304-6.6610641
			c-0.756897-4.2069092-0.017334-5.9960289,1.1361542-7.1720009c0.5801849-0.5906029,0.5264893-0.8573303,0.3256073-2.3156052
			c-0.1905365-1.39077-0.0952911-2.9668465,0.0346222-4.1324463c0-0.0086632,0.0017242-0.0173149,0.0034637-0.0259781
			c0.0727692-0.5403671,0.1506958-1.1101608,0.2459564-1.685173c0.216507-1.2937737,0.5281982-2.6135292,1.1015015-3.6838722
			c2.0818024-3.8864632,9.0321045-3.3998146,11.6040649-2.4247131c5.022644,1.9051399,12.2968445,1.7319298,15.2809753-1.0391731
			c2.9858856-2.7711334,17.5688629-5.8886299,24.034256-0.3464088c4.2069092,3.6059341,2.7503052,4.8113785,5.9752045,8.3133736
			c3.030899,3.2906914,1.6453552,7.1304169,3.6128235,7.2741814c0,0-1.6938019,2.561554-0.8035889,4.0562019
			C217.1032562,56.0051079,218.1354675,56.2441025,215.9272461,62.421978z"/>
		<path class="st8" d="M215.9272461,62.421978c-1.1725159,3.2768517-3.637085,4.3870277-3.637085,4.3870277
			s-1.7319489,4.3298798-4.5030518,11.0844727c-2.7711334,6.7546005-11.7772827,17.4926682-19.9174194,21.1297684
			c-8.140152,3.6371002-19.0514374-5.3690414-22.3421478-10.7380753
			c-3.2906952-5.3690414-7.7140961-24.0134659-8.1972961-24.2039871c-1.0668793-0.4225807-2.8871613-1.4288483-3.8293304-6.6610641
			c-0.756897-4.2069092-0.017334-5.9960289,1.1361542-7.1720009c0.5801849-0.5906029,0.5264893-0.8573303,0.3256073-2.3156052
			c-0.1905365-1.39077-0.0952911-2.9668465,0.0346222-4.1324463c0-0.0086632,0.0017242-0.0173149,0.0034637-0.0259781
			c0.0727692-0.5403671,0.1506958-1.1101608,0.2459564-1.685173c0.216507-1.2937737,0.5281982-2.6135292,1.1015015-3.6838722
			c2.0818024-3.8864632,9.0321045-3.3998146,11.6040649-2.4247131c5.022644,1.9051399,12.2968445,1.7319298,15.2809753-1.0391731
			c2.9858856-2.7711334,17.5688629-5.8886299,24.034256-0.3464088c4.2069092,3.6059341,2.7503052,4.8113785,5.9752045,8.3133736
			c3.030899,3.2906914,1.6453552,7.1304169,3.6128235,7.2741814c0,0-1.6938019,2.561554-0.8035889,4.0562019
			C217.1032562,56.0051079,218.1354675,56.2441025,215.9272461,62.421978z"/>
		<g>
			<path class="st2" d="M126.4177933,198.3001709c-0.735939,0-1.2025833-0.3358917-1.4759369-0.6445312
				c-1.8450546-2.0837555-0.0146484-8.8068542,0.2001343-9.5664825l0.9250031,0.2613525
				c-0.543602,1.9245605-1.6760712,7.2332001-0.4053421,8.667923c0.1530228,0.1727295,0.4253387,0.3921967,1.0224609,0.2987061
				c3.200943-0.4975281,26.1347656-19.6522369,34.7014008-26.9909668l0.6253815,0.72995
				c-1.2660522,1.0845947-31.0544891,26.5698547-35.1792221,27.2109985
				C126.6851501,198.2898407,126.5472412,198.3001709,126.4177933,198.3001709z"/>
		</g>
		<g>
			<path class="st2" d="M191.7831726,217.3276062l-0.2410583-0.9304504
				c0.0915222-0.0238647,9.2649536-2.4096985,18.4091034-5.5191193c15.8733521-5.3974304,18.5173492-8.4394379,18.680481-9.7722473
				c1.8787537-15.3406982-5.6249695-27.8936157-5.701004-28.0186615l0.8211823-0.4997711
				c0.0777283,0.1276703,7.7545624,12.9530029,5.8339386,28.6352234c-0.1965637,1.6048279-2.3011627,3.3829498-6.4339752,5.4364929
				c-3.1565399,1.568222-7.4952698,3.2943268-12.8957214,5.130661
				C201.0786438,214.9100342,191.8750763,217.3037567,191.7831726,217.3276062z"/>
		</g>
		<path class="st2" d="M251.8946075,227.0713959c-8.0691223,10.4367218-45.6177673,10.1665344-57.2322388,10.7380676
			c-1.1309509,0.0554352-2.4593506,0.3498535-3.3287811-0.2875061c-0.7360687-0.5403595-1.0755463-1.9293671-1.4115295-2.8265381
			c-0.8140564-2.1666565-1.7769775-5.3032074-2.3121643-9.0667419c-0.0796661-0.5559692-0.1818695-1.3093414-0.2978973-2.163208
			L134.1654205,239.4375c-9.0494385,2.4143372-19.7944489,3.224884-27.0686188-0.8088226
			c-9.7058334-5.3846283-8.8329391-25.9774933-7.0143967-53.5154572
			c1.8185577-27.5362396,15.067955-48.7058716,18.0261078-53.1396484
			c9.591568-14.3768997,36.1613693-12.3401337,39.9144974-16.6700058c1.0894012-1.2574005,4.0233002-5.7743301,7.1581421-6.9676361
			c0.8486481-0.3238602,1.9986877,0.8469086,3.6371002,1.3093643c3.3582764,0.9490967,8.0674286,2.5667267,11.0844574,2.7139587
			c3.4864044,0.1697311,7.1546936-0.1939926,9.6417542-0.5195847c2.9356995-0.384491,4.3939667-1.3232193,5.3101654-0.2303619
			c1.7232971,2.0523682,3.9817505,5.6115265,6.351059,6.2350082c10.9684296,2.8854599,22.9431152,4.5862198,26.15242,6.6385574
			c16.2248993,10.3761063,17.665863,18.5335922,25.4596558,39.315239
			C260.6115112,184.5797729,259.9343567,216.6710358,251.8946075,227.0713959z"/>
		<path class="st9" d="M251.8946075,227.0713959c-8.0691223,10.4367218-45.6177673,10.1665344-57.2322388,10.7380676
			c-1.1309509,0.0554352-2.4593506,0.3498535-3.3287811-0.2875061c-0.7360687-0.5403595-1.0755463-1.9293671-1.4115295-2.8265381
			c-0.8140564-2.1666565-1.7769775-5.3032074-2.3121643-9.0667419c-0.0796661-0.5559692-0.1818695-1.3093414-0.2978973-2.163208
			L134.1654205,239.4375c-9.0494385,2.4143372-19.7944489,3.224884-27.0686188-0.8088226
			c-9.7058334-5.3846283-8.8329391-25.9774933-7.0143967-53.5154572
			c1.8185577-27.5362396,15.067955-48.7058716,18.0261078-53.1396484
			c9.591568-14.3768997,36.1613693-12.3401337,39.9144974-16.6700058c1.0894012-1.2574005,4.0233002-5.7743301,7.1581421-6.9676361
			c0.8486481-0.3238602,1.9986877,0.8469086,3.6371002,1.3093643c3.3582764,0.9490967,8.0674286,2.5667267,11.0844574,2.7139587
			c3.4864044,0.1697311,7.1546936-0.1939926,9.6417542-0.5195847c2.9356995-0.384491,4.3939667-1.3232193,5.3101654-0.2303619
			c1.7232971,2.0523682,3.9817505,5.6115265,6.351059,6.2350082c10.9684296,2.8854599,22.9431152,4.5862198,26.15242,6.6385574
			c16.2248993,10.3761063,17.665863,18.5335922,25.4596558,39.315239
			C260.6115112,184.5797729,259.9343567,216.6710358,251.8946075,227.0713959z"/>
		<path class="st2" d="M215.9272461,62.421978c-1.1725159,3.2768517-3.637085,4.3870277-3.637085,4.3870277
			s-1.7319489,4.3298798-4.5030518,11.0844727c-2.7711334,6.7546005-11.7772827,17.4926682-19.9174194,21.1297684
			c-8.140152,3.6371002-19.0514374-5.3690414-22.3421478-10.7380753
			c-3.2906952-5.3690414-7.7140961-24.0134659-8.1972961-24.2039871c-1.0668793-0.4225807-2.8871613-1.4288483-3.8293304-6.6610641
			c-0.756897-4.2069092-0.017334-5.9960289,1.1361542-7.1720009c0.5801849-0.5906029,0.5264893-0.8573303,0.3256073-2.3156052
			c-0.1905365-1.39077-0.0952911-2.9668465,0.0346222-4.1324463c0-0.0086632,0.0017242-0.0173149,0.0034637-0.0259781
			c0.0727692-0.5403671,0.1506958-1.1101608,0.2459564-1.685173c0.216507-1.2937737,0.5281982-2.6135292,1.1015015-3.6838722
			c2.0818024-3.8864632,9.0321045-3.3998146,11.6040649-2.4247131c5.022644,1.9051399,12.2968445,1.7319298,15.2809753-1.0391731
			c2.9858856-2.7711334,17.5688629-5.8886299,24.034256-0.3464088c4.2069092,3.6059341,2.7503052,4.8113785,5.9752045,8.3133736
			c3.030899,3.2906914,1.6453552,7.1304169,3.6128235,7.2741814c0,0-1.6938019,2.561554-0.8035889,4.0562019
			C217.1032562,56.0051079,218.1354675,56.2441025,215.9272461,62.421978z"/>
		<path class="st8" d="M215.9272461,62.421978c-1.1725159,3.2768517-3.637085,4.3870277-3.637085,4.3870277
			s-1.7319489,4.3298798-4.5030518,11.0844727c-2.7711334,6.7546005-11.7772827,17.4926682-19.9174194,21.1297684
			c-8.140152,3.6371002-19.0514374-5.3690414-22.3421478-10.7380753
			c-3.2906952-5.3690414-7.7140961-24.0134659-8.1972961-24.2039871c-1.0668793-0.4225807-2.8871613-1.4288483-3.8293304-6.6610641
			c-0.756897-4.2069092-0.017334-5.9960289,1.1361542-7.1720009c0.5801849-0.5906029,0.5264893-0.8573303,0.3256073-2.3156052
			c-0.1905365-1.39077-0.0952911-2.9668465,0.0346222-4.1324463c0-0.0086632,0.0017242-0.0173149,0.0034637-0.0259781
			c0.0727692-0.5403671,0.1506958-1.1101608,0.2459564-1.685173c0.216507-1.2937737,0.5281982-2.6135292,1.1015015-3.6838722
			c2.0818024-3.8864632,9.0321045-3.3998146,11.6040649-2.4247131c5.022644,1.9051399,12.2968445,1.7319298,15.2809753-1.0391731
			c2.9858856-2.7711334,17.5688629-5.8886299,24.034256-0.3464088c4.2069092,3.6059341,2.7503052,4.8113785,5.9752045,8.3133736
			c3.030899,3.2906914,1.6453552,7.1304169,3.6128235,7.2741814c0,0-1.6938019,2.561554-0.8035889,4.0562019
			C217.1032562,56.0051079,218.1354675,56.2441025,215.9272461,62.421978z"/>
		<g>
			<path class="st2" d="M126.4177933,198.3001709c-0.735939,0-1.2025833-0.3358917-1.4759369-0.6445312
				c-1.8450546-2.0837555-0.0146484-8.8068542,0.2001343-9.5664825l0.9250031,0.2613525
				c-0.543602,1.9245605-1.6760712,7.2332001-0.4053421,8.667923c0.1530228,0.1727295,0.4253387,0.3921967,1.0224609,0.2987061
				c3.200943-0.4975281,26.1347656-19.6522369,34.7014008-26.9909668l0.6253815,0.72995
				c-1.2660522,1.0845947-31.0544891,26.5698547-35.1792221,27.2109985
				C126.6851501,198.2898407,126.5472412,198.3001709,126.4177933,198.3001709z"/>
		</g>
		<g>
			<path class="st2" d="M191.7831726,217.3276062l-0.2410583-0.9304504
				c0.0915222-0.0238647,9.2649536-2.4096985,18.4091034-5.5191193c15.8733521-5.3974304,18.5173492-8.4394379,18.680481-9.7722473
				c1.8787537-15.3406982-5.6249695-27.8936157-5.701004-28.0186615l0.8211823-0.4997711
				c0.0777283,0.1276703,7.7545624,12.9530029,5.8339386,28.6352234c-0.1965637,1.6048279-2.3011627,3.3829498-6.4339752,5.4364929
				c-3.1565399,1.568222-7.4952698,3.2943268-12.8957214,5.130661
				C201.0786438,214.9100342,191.8750763,217.3037567,191.7831726,217.3276062z"/>
		</g>
		<path class="st8" d="M163.6206055,172.8495483c-0.8773041-0.9774475-0.7563934-2.4900513,0.2663727-3.3140869
			c4.4357147-3.5738983,15.5079193-12.3639374,19.6616974-14.4546051
			c5.2476959-2.6412811,17.7526245-6.3007355,10.1173248-0.6068726c-4.2537231,3.1721039-4.2537231,3.1721039,7.8579865,1.3128357
			c6.2835388-0.9645996,15.3092041-1.0430298,20.3768311-1.2730103c1.6963348-0.0769806,3.7266693,1.769043,3.045578,3.3245239
			c-0.8338623,1.9043121-5.1907349,9.3561554-14.2282562,11.9835663
			c-8.9409027,2.5993042-18.8846893,3.4764709-19.9586792,4.0236206
			c-1.4985046,0.7633972-9.4609222,8.0189819-13.0049591,11.2795258c-0.9394073,0.8642731-2.4034729,0.7935638-3.256134-0.1563873
			L163.6206055,172.8495483z"/>
		<path class="st8" d="M191.5077972,235.3225555l-2.797226-16.0432281
			c-0.2191772-1.2572937-17.8023071,2.4511871-19.4844971,2.4819489c-0.470993,0.0077057-1.0208435,0.076889-1.6341095,0.196106
			c0,0-0.0038452,0-0.0115356,0.0019073c-0.009613,0.0019379-0.0211182,0.0038605-0.0365143,0.0077057
			c-0.0096283,0-0.017334,0.0019073-0.0269318,0.00383c-1.0189056,0.1845703-11.9905853,2.2493286-15.7336884,6.2250366
			c-8.8819122,4.2929382-17.665802,9.2664032-18.6039886,9.9066162c-1.4014893,0.9573975,0.8016663,3.3489838,2.4992523,3.3489838
			c7.8822327,0,17.1678772,0.3825531,23.2621765-1.4264832c10.9582214-3.2528687,24.9270477-1.3553772,30.5830688-2.0340271
			C190.8291473,237.8352509,191.7327423,236.616394,191.5077972,235.3225555z M150.2395325,234.2747955
			C150.1145782,234.7208099,150.0395813,234.5843048,150.2395325,234.2747955L150.2395325,234.2747955z"/>
		<path class="st8" d="M150.2395325,234.2747955C150.1145782,234.7208099,150.0395813,234.5843048,150.2395325,234.2747955
			L150.2395325,234.2747955z"/>
		<path class="st8" d="M150.2395325,234.2747955C150.1145782,234.7208099,150.0395813,234.5843048,150.2395325,234.2747955
			L150.2395325,234.2747955z"/>
		<path class="st8" d="M150.2395325,234.2747955C150.1145782,234.7208099,150.0395813,234.5843048,150.2395325,234.2747955
			L150.2395325,234.2747955z"/>
		<path class="st8" d="M150.2395325,234.2747955C150.1145782,234.7208099,150.0395813,234.5843048,150.2395325,234.2747955
			L150.2395325,234.2747955z"/>
	</g>
</g>
</svg>
