<?xml version="1.0" encoding="utf-8"?>
<!-- Generator: Adobe Illustrator 23.0.3, SVG Export Plug-In . SVG Version: 6.00 Build 0)  -->
<svg version="1.1" id="Слой_1" xmlns="http://www.w3.org/2000/svg" xmlns:xlink="http://www.w3.org/1999/xlink" x="0px" y="0px"
	 width="360px" height="244px" viewBox="0 0 360 244" style="enable-background:new 0 0 360 244;" xml:space="preserve">
<style type="text/css">
	.st0{fill:#8CD3AC;}
	.st1{fill:#FFFFFF;}
	.st2{fill:#71D3AC;}
	.st3{fill:#2ED3AC;}
	.st4{fill:#EAAD8C;}
	.st5{fill:#95504C;}
	.st6{fill:#AE5955;}
	.st7{fill:#F16663;}
	.st8{fill:#C0615E;}
	.st9{fill:#F9E8CA;}
	.st10{fill:#D3BD98;}
	.st11{fill:#D57E70;}
	.st12{fill:#FECFC9;}
	.st13{fill:#9E3054;}
	.st14{fill:#722843;}
</style>
<g>
	<g>
		<path class="st0" d="M291.7519531,90.207962c-16.7653809-21.1079788-7.2661133-13.7413788-8.883667-35.8268967
			c-0.5696716-7.7779922-3.115448-12.8921013-7.1804199-15.7217598v19.7994957L253.2011414,38.362896
			c-0.0886536,0.0301933-0.1766663,0.0591087-0.2656403,0.0898514
			c-29.0520325,10.0390053-11.6615295,1.6406784-42.5697174-26.7639561
			c-22.1115875-20.3205681-84.2321701,0.5201883-116.7221069,6.9077759
			c-5.6331482,1.1074924-10.4429703,3.3887234-14.2495499,6.5220528l25.2561264-3.6407185
			c0.8329926-0.1200943,1.6128159,0.4632072,1.7329483,1.2961903l0.0770874,0.5350647
			c0.1201324,0.8330097-0.4631882,1.6127701-1.2961731,1.7328396l-29.9097824,4.310812
			c-4.8318939,6.1647053-6.7920532,14.2527294-5.0899582,22.8675861
			c5.4136353-6.3425446,13.4655151-10.3651276,22.457901-10.3651276c16.3009567,0,29.5155029,13.2145271,29.5155029,29.5154991
			s-13.2145462,29.5155029-29.5155029,29.5155029c-1.2978897,0-2.5759506-0.0845566-3.829567-0.246994
			c-0.1260986,1.968338-0.3458023,4.1139984-0.6737137,6.4797211c-3.3428497,24.1143265,0.8178482,33.6014938,6.9490204,42.8074417
			c8.2347336,12.3642578,16.0111389,17.5335999,31.7391663,20.5801392
			c14.9076462,2.8875885,29.7882004-4.6039734,42.1617966,3.7684021
			c10.3420258,6.9977112,10.164566,20.9312439,24.2846222,26.7622375c1.8362579,0.7582703,3.6607361,1.4226074,5.4728088,1.9998932
			c-0.2024078-1.3954468-0.309082-2.8218994-0.309082-4.2733765c0-16.3009644,13.2145386-29.5155182,29.5154724-29.5155182
			c14.0123291,0,25.7439423,9.7644348,28.7620239,22.8601532c10.6195984-7.869751,19.6077576-18.3689423,26.408783-29.6025391
			c4.4994507-7.4320068,24.5412598-23.3757935,26.5570984-29.7752075
			C314.2993469,118.0050125,299.9777527,100.5645676,291.7519531,90.207962z"/>
		<path class="st1" d="M227.9328156,169.24823c-16.3009491,0-29.5154877,13.2145386-29.5154877,29.5155029
			c0,1.4515228,0.1066742,2.8779602,0.309082,4.2733765c21.8086395,6.9476929,41.7839661,1.0648651,57.9684143-10.9287262
			C253.6767426,179.0126801,241.9451599,169.24823,227.9328156,169.24823z"/>
		<path class="st2" d="M227.9328156,169.24823c-16.3009491,0-29.5154877,13.2145386-29.5154877,29.5155029
			c0,1.4515228,0.1066742,2.8779602,0.309082,4.2733765c21.8086395,6.9476929,41.7839661,1.0648651,57.9684143-10.9287262
			C253.6767426,179.0126801,241.9451599,169.24823,227.9328156,169.24823z"/>
		<circle class="st1" cx="227.8448334" cy="91.4568558" r="29.5155029"/>
		<path class="st1" d="M79.3420944,128.3701477c-0.1200867-0.8330154,0.4632263-1.6128006,1.2962418-1.7328568l24.8878632-3.5872574
			c0.8329849-0.1201019,1.6127319,0.4632263,1.7327576,1.2962494l0.0768814,0.5337982
			c0.120018,0.8330231-0.4633408,1.6128159-1.2963486,1.7328796l-24.8875961,3.5871887
			c-0.8330154,0.1200714-1.6128006-0.4632416-1.732872-1.2962646L79.3420944,128.3701477z"/>
		<path class="st1" d="M78.7083435,120.20961c-0.1200562-0.8329849,0.4632568-1.612793,1.2962418-1.7328491l39.9284668-5.7557831
			c0.8330078-0.1200562,1.6128159,0.4632339,1.7329254,1.2962189l0.0771484,0.5350494
			c0.1201096,0.8330078-0.4631653,1.6127701-1.2961731,1.7328415l-39.9287491,5.7548218
			c-0.8330078,0.1200638-1.612793-0.4632568-1.7328568-1.2962646L78.7083435,120.20961z"/>
		<path class="st1" d="M106.460289,23.3091564l-0.0770874-0.5350647c-0.1201324-0.832983-0.8999557-1.4162846-1.7329483-1.2961903
			l-25.2561264,3.6407185c-1.5511093,1.2767944-2.9342194,2.6960411-4.1397934,4.2341881l29.9097824-4.310812
			C105.9971008,24.9219265,106.5804214,24.1421661,106.460289,23.3091564z"/>
		<path class="st1" d="M106.460289,23.3091564l-0.0770874-0.5350647c-0.1201324-0.832983-0.8999557-1.4162846-1.7329483-1.2961903
			l-25.2561264,3.6407185c-1.5511093,1.2767944-2.9342194,2.6960411-4.1397934,4.2341881l29.9097824-4.310812
			C105.9971008,24.9219265,106.5804214,24.1421661,106.460289,23.3091564z"/>
		<g>
			<path class="st1" d="M95.2403412,30.1193657c-0.0566177-0.3927364,0.2184219-0.7604027,0.6111603-0.8170052l18.8251724-2.7136917
				c0.3927383-0.0566006,0.7604065,0.218399,0.8170319,0.6111355l0.0363693,0.252264
				c0.0566254,0.3927231-0.2183685,0.7603645-0.6111221,0.816967l-18.8253098,2.7132492
				c-0.3927383,0.0566006-0.7604065-0.218399-0.817009-0.6111355L95.2403412,30.1193657z"/>
		</g>
		<path class="st2" d="M269.3150635,66.583786l-0.0771484-0.5350494c-0.1200867-0.8330154-0.8999023-1.4162979-1.7329102-1.2962189
			l-0.1230164,0.0177383l-0.0048523-0.0334244l-32.0580444,4.6204529c-0.8330078,0.1200562-1.4162598,0.8998337-1.2961884,1.7328262
			l0.0771484,0.5350494c0.1201172,0.8330154,0.8999481,1.416275,1.7329254,1.2962189l0.1230164-0.0177383l0.0048828,0.0334015
			l32.0580139-4.62043C268.8518982,68.1965561,269.4351807,67.4167786,269.3150635,66.583786z"/>
		<g>
			<path class="st2" d="M258.0950928,73.3939667c-0.0566101-0.3927307,0.2184143-0.7603912,0.611145-0.8169861l18.8251953-2.7136841
				c0.3927307-0.0566254,0.7604065,0.218399,0.8170166,0.6111374l0.036377,0.2522354
				c0.0566101,0.3927383-0.2183533,0.760376-0.6111145,0.8169937l-18.8253174,2.7132339
				c-0.3927307,0.0566177-0.760376-0.2184067-0.8169861-0.6111526L258.0950928,73.3939667z"/>
		</g>
		<path class="st1" d="M122.1377792,71.3707657c0-16.3009491-13.2145462-29.5154991-29.5155029-29.5154991
			c-8.9924164,0-17.0442352,4.022583-22.4578781,10.3651276c0.4369431,2.211525,1.1129456,4.4573402,2.0457764,6.7144966
			c8.4294586,20.3967514,17.9222565,20.7900162,16.5825348,41.7043839c1.2536316,0.1624374,2.5316772,0.246994,3.829567,0.246994
			C108.923233,100.8862686,122.1377792,87.6717453,122.1377792,71.3707657z"/>
		<path class="st2" d="M122.1377792,71.3707657c0-16.3009491-13.2145462-29.5154991-29.5155029-29.5154991
			c-8.9924164,0-17.0442352,4.022583-22.4578781,10.3651276c0.4369431,2.211525,1.1129456,4.4573402,2.0457764,6.7144966
			c8.4294586,20.3967514,17.9222565,20.7900162,16.5825348,41.7043839c1.2536316,0.1624374,2.5316772,0.246994,3.829567,0.246994
			C108.923233,100.8862686,122.1377792,87.6717453,122.1377792,71.3707657z"/>
		<path class="st1" d="M275.6878662,38.6593056c-5.2702942-3.6686974-13.0957947-3.4945946-22.4867249-0.2964096
			l22.4867249,20.0959053V38.6593056z"/>
		<path class="st3" d="M275.6878662,38.6593056c-5.2702942-3.6686974-13.0957947-3.4945946-22.4867249-0.2964096
			l22.4867249,20.0959053V38.6593056z"/>
		<polygon class="st0" points="287.0199585,71.3707657 306.6288147,88.894783 306.6288147,53.8467484 		"/>
		<path class="st1" d="M183.6090088,175.6392822c-2.5973358,0.4203949-6.0823975,0.5709381-9.5034027,0.1723633l9.3174286,2.4770203
			C183.4888153,177.3974609,183.5518494,176.5122681,183.6090088,175.6392822z"/>
		<path class="st1" d="M167.0690308,173.9410095c2.0626221,0.9911652,4.531601,1.5788116,7.0365753,1.870636
			L167.0690308,173.9410095z"/>
		<path class="st1" d="M207.7038879,174.1928406c-0.1134338,0.0589294-0.2306366,0.1159668-0.3479309,0.1729584l0.3383331-0.0366516
			C207.6973572,174.2841187,207.7008362,174.2377472,207.7038879,174.1928406z"/>
		<rect x="62.7844505" y="147.2988892" class="st3" width="62.3235321" height="28.5127544"/>
		<polygon class="st2" points="81.3139191,156.2028198 63.7898827,175.8116455 98.837944,175.8116455 		"/>
		
			<ellipse transform="matrix(0.9557196 -0.2942786 0.2942786 0.9557196 -42.6065979 39.9552078)" class="st1" cx="111.4640503" cy="161.5552673" rx="7.3235226" ry="7.3235116"/>
		<path class="st2" d="M306.1656189,145.7241821h-48.3900146c-1.8014374,0-3.2618103-1.4603729-3.2618103-3.2618256v-0.7243195
			c0-1.8014374,1.4603424-3.2617798,3.2617798-3.2617798h48.3900452c1.8014526,0,3.2618103,1.4603729,3.2618103,3.2618256v0.7242737
			C309.4274292,144.2638092,307.9670715,145.7241821,306.1656189,145.7241821z"/>
		<path class="st2" d="M292.2584534,156.1214905h-34.4828186c-1.8014679,0-3.2618408-1.4603729-3.2618408-3.2618408v-0.7242737
			c0-1.8014374,1.4603577-3.261795,3.2617798-3.261795h34.4828186c1.8014832,0,3.2618408,1.4603729,3.2618408,3.2618408v0.7242737
			C295.5202332,154.6611328,294.0598755,156.1214905,292.2584534,156.1214905z"/>
		
			<ellipse transform="matrix(0.2848213 -0.9585806 0.9585806 0.2848213 35.3275833 141.7454987)" class="st3" cx="112.6571808" cy="47.1973114" rx="14.9412165" ry="14.9412279"/>
		<g>
			<path class="st1" d="M106.869133,36.7516136c-3.6230087,2.0454636-4.9018631,6.6407089-2.8563766,10.2637405
				c1.856163,3.2877045,5.8100433,4.6356087,9.2336807,3.3302307l-1.0990067-1.9465981
				c-2.34375,0.7277069-4.9576797-0.2444878-6.2132645-2.4684143c-1.4463882-2.5618706-0.5421143-5.8111801,2.0197449-7.2575836
				c2.5618744-1.4463654,5.811203-0.5420876,7.2575836,2.0197563c1.2555923,2.2239304,0.7377777,4.9642029-1.0960312,6.5951004
				l1.098999,1.9466095c2.8862-2.2570686,3.7745819-6.33881,1.9184341-9.6264801
				C115.0873795,35.9849472,110.4921494,34.7061119,106.869133,36.7516136z"/>
			<path class="st1" d="M113.2464371,50.3455849l5.1078339,9.0471077c0.3068008,0.5434151,0.9961395,0.7352448,1.5395737,0.4284439
				c0.5433884-0.306778,0.7352448-0.9961433,0.4284515-1.539547l-5.1078339-9.0471344
				c-0.294426,0.2302399-0.6025925,0.447937-0.9379272,0.6372833
				C113.941185,50.0610657,113.5956497,50.2124443,113.2464371,50.3455849z"/>
			<path class="st1" d="M113.1917267,47.9503365c-0.3379135,0.1907883-0.688179,0.3380775-1.0442963,0.4486504l1.0990067,1.9465981
				c0.3492126-0.1331406,0.6947479-0.2845192,1.030098-0.4738464c0.3353348-0.1893463,0.6435013-0.4070435,0.9379272-0.6372833
				l-1.098999-1.9466095C113.8367844,47.5357018,113.5296783,47.7595406,113.1917267,47.9503365z"/>
		</g>
	</g>
	<g>
		<g>
			<path class="st4" d="M132.3597565,105.5939102c0.3054504-0.2804718,2.7447205-2.2304306,2.0738068-2.6786499
				c-13.5154724-9.0296326-11.4482422-11.5163651-13.8252869-12.213974
				c-7.9910278-2.3452606-13.4484711-11.8033447-13.091774-15.0375595
				c-3.3617477,2.1993408-2.4001694,6.0430908,2.2752457,11.1068573c3.4057846,3.6886749,5.9614334,5.6609497,8.6296616,6.016655
				c0.0458069,0.094101,9.5927658,11.2054977,12.4262161,13.4991074
				C131.6684875,106.3159409,132.0769806,105.8535385,132.3597565,105.5939102z"/>
		</g>
		<path class="st4" d="M136.0104828,97.8387985c-1.2910004-1.7721176-9.710495-6.5970306-12.7262192-9.2234497
			c1.3942108-3.4550629-4.2530975-12.8434677-6.1707764-12.0833817c0.0555191,0.0001297-0.4471893,0.5180511,1.104187,2.1890793
			c1.3149719,1.4164352,1.8738098,2.8461914,1.5481339,3.0602798c-0.1354828,0.0890503-0.6135864,0.2947159-0.9635773-0.0207748
			l-0.000206-0.000206c-0.9400864-0.1386032-7.1939697-8.5484619-11.052597-6.2448883
			c-0.0807953,0.048233-0.1566086,0.0983505-0.2329254,0.1482697c-0.3566971,3.2342148,5.1007462,12.6922989,13.091774,15.0375595
			c2.3770447,0.6976089,0.3098145,3.1843414,13.8252869,12.213974c0.6709137,0.4482193-1.7683563,2.3981781-2.0738068,2.6786499
			c-0.2827759,0.2596283-0.8729706,0.3802643-1.6938324,0.3506775c0.0757599,0.0612946,0.1479492,0.1180038,0.2140503,0.166832
			C132.7918091,107.5236664,137.5736084,99.9844513,136.0104828,97.8387985z"/>
		<path class="st4" d="M119.7658081,81.7813263c0.325676-0.2140884-0.2331619-1.6438446-1.5481339-3.0602798
			c-1.5513763-1.6710281-1.0486679-2.1889496-1.104187-2.1890793c-0.0113373,0.0044785-0.0228958,0.0084229-0.0339737,0.0136185
			c-0.0077057,0.0038681-0.0169907,0.0085373-0.0275879,0.0138931c-0.0248413,0.0132904-0.0493851,0.0274429-0.0727844,0.0445862
			c-0.9381485,0.6864471,2.6785049,4.5219421,1.9009781,5.1412582c-0.0194092,0.0154648-0.0458679,0.0197601-0.0780945,0.0150223
			l0.000206,0.000206C119.1522217,82.0760422,119.6303253,81.8703766,119.7658081,81.7813263z"/>
		<g>
			<path class="st5" d="M201.0252228,46.058857c-0.0052643-1.711834-0.3795471-5.4172974-0.6048431-7.1142464
				c-0.0766449-0.5773544-0.765564-2.9723396-0.765564-2.9723396s-0.8329773,5.55019-1.0490112,7.0911026
				c-0.1834106,1.3083763-1.1446075,3.5807877-1.8433685,4.7020493c-0.3343506,0.5364761-0.6737976,1.1465073-0.8568726,1.5337296
				c-0.2716522,0.5745163-0.3907013,2.000824-0.5184631,2.4698296c-0.006546,0.0240746,0.29245,0.0033035,0.719986-0.0348969
				c0.7979584-0.1463699,2.0159912-0.4952164,2.6977844-0.2213593c0.0015259,0,0.003418-0.0000496,0.0049438-0.0000496
				C199.0873566,51.5125046,201.032135,48.3054733,201.0252228,46.058857z"/>
			<g>
				<path class="st6" d="M173.9795532,52.3378372c1.0794067,1.1197281,4.0926361,0.566349,7.2546692,0.2556267
					c-0.5892029-0.7873497-1.874527-4.1220665-1.8685608-6.0593491c0.0052338-1.7118492,0.1325531-5.3629074,0.3578491-7.0598564
					c0.0766602-0.5773544,0.6007233-2.977478,0.6007233-2.977478s0.832962,5.5501938,1.048996,7.0911064
					c0.1833954,1.3083763,1.7310181,3.4791298,2.4297791,4.6003799c0.3343658,0.5365028,0.7224274,0.6406136,0.9055023,1.0278473
					c0.239563,0.506691,0.3379059,2.3048401,0.4454346,3.0442619c3.812027,0.2465515,6.53479-0.1523972,10.5770416-0.4724312
					c0.1087646-0.0085983,0.2361908-0.0282021,0.3760986-0.0538597c-0.427536,0.0382004-0.726532,0.0589714-0.719986,0.0348969
					c0.1277618-0.4690056,0.2468109-1.8953133,0.5184631-2.4698296c0.183075-0.3872223,0.522522-0.9972534,0.8568726-1.5337296
					c0.698761-1.1212616,1.6599579-3.3936729,1.8433685-4.7020493c0.2160339-1.5409126,1.1143036-6.2663498,1.1143036-6.2663498
					s0.4169922,1.8582649,0.4936371,2.4356079c0.225296,1.696949,0.6175232,5.1162453,0.5378723,6.8262253
					c-0.0658569,1.413414-1.9549866,5.5765305-1.941803,5.4538193c0.0001526-0.0015221-0.003418,0.0000496-0.0049438,0.0000496
					c0.1264648,0.0508156-0.227066,2.3094101,0.3589935,2.3334961c4.8079376,0.1976891,9.653656-0.837738,9.6668701-2.2108345
					c0.0575867-5.9797554,3.9073334-35.7838478-17.7522583-35.7872009
					C170.8976898,15.8450298,170.4656372,48.6927071,173.9795532,52.3378372z"/>
				<path class="st5" d="M183.803009,48.1882668c-0.698761-1.1212502-2.2463837-3.2920036-2.4297791-4.6003799
					c-0.2160339-1.5409126-1.048996-7.0911064-1.048996-7.0911064s-0.5240631,2.4001236-0.6007233,2.977478
					c-0.225296,1.696949-0.3526154,5.3480072-0.3578491,7.0598564c-0.0059662,1.9372826,1.0743256,4.9766579,1.6635437,5.7640076
					c1.1469574-0.1127243,2.3555298-0.1720276,3.5785217-0.0755157c0.1856232,0.0146637,0.3657227,0.0261002,0.5462189,0.0377693
					c-0.1075287-0.7394218-0.2058716-2.537571-0.4454346-3.0442619
					C184.5254364,48.8288803,184.1373749,48.7247696,183.803009,48.1882668z"/>
			</g>
		</g>
		<path class="st7" d="M201.9368896,93.0699539c-1.5515289,0.5296097-6.5717773,2.0675583-12.6775208,2.1117935
			c-2.5756378,0.0186691-9.9780731-1.135376-11.3238373-1.3487473c-0.1369781-0.0217361-0.2116241-0.0337677-0.2116241-0.0337677
			s1.7552795,9.612587,2.6587677,12.7665863c5.730896,1.7026825,17.4152222,0.8062515,20.7121582-0.0198898
			c0.000473-0.0067749,0.0019836-0.0132675,0.0024109-0.0200424c0.0084229-0.1407928,0.0191345-0.2994843,0.0318298-0.473526
			c0.0781708-1.0715179,0.232666-2.7356033,0.4089203-4.5244064c0.0638275-0.6479492,0.1305237-1.312027,0.1975098-1.9704285
			C201.4493866,99.3161087,201.7214508,97.1102371,201.9368896,93.0699539z"/>
		<path class="st8" d="M202.0333862,137.7849426c-1.6846313-5.7612457-0.1596069-29.0723267-0.3566132-31.4538574
			l-0.6843567,0.0950241c0,0-2.484024,25.5021133,0.589035,33.3050461
			c0.4733582,1.2019348,12.4715881-0.0388641,13.7937622-1.0862427c-0.0137634-0.6101685-0.078537-1.0369263-0.2076263-1.2332001
			C213.3626404,134.6671448,202.5471191,139.5419006,202.0333862,137.7849426z"/>
		<path class="st4" d="M186.3720856,237.6497192c-0.1830597-1.2210388,1.7207642-2.7032013,1.6775665-6.5051575
			c-0.0257416-2.2647705-0.0629272-5.8024139,0-8.9000092c0.013504-0.6651459,0.3603821-1.1443024,0.3456268-1.7713623
			c-0.0107727-0.4581451-0.5483398-1.2198792-0.5616455-1.6849518c-0.4511871-15.7323914-1.8055267-34.8136902-2.9090576-36.0320892
			c-1.0030212-1.1074066-7.4832306-10.469162-7.4832306-10.469162l-0.1710815-1.9087677l0.9644165,0.2563782
			c-0.3460999-0.1663055-0.6785278-0.3461914-0.9917145-0.5430756c1.1042633,13.0843811,3.7451935,30.7360535,3.7271423,47.4879608
			c-0.0005341,0.4927673-0.5272675,2.2084045-0.5321655,2.6951904c-0.0061035,0.607254,0.3180389,2.405777,0.304718,3.0085907
			c-0.0886688,4.017868-0.3411255,7.9039917-0.8105316,11.2181091c0.0001068,0.0001831,0.0001984,0.0002747,0.0003052,0.0005035
			c1.6367798,3.191803,5.5609741,6.0174713,9.0884857,1.8213501
			C188.004837,237.1649323,186.4703217,238.3052521,186.3720856,237.6497192z"/>
		<path class="st9" d="M190.933136,171.938446c-1.9941101,0.3227386-4.6697388,0.4383087-7.2961884,0.1323242l7.1533966,1.9017029
			C190.8408508,173.288269,190.8892365,172.6086578,190.933136,171.938446z"/>
		<path class="st10" d="M178.2346802,170.6345978c1.5835571,0.7609558,3.4791107,1.2121277,5.4022675,1.4361725
			L178.2346802,170.6345978z"/>
		<path class="st11" d="M190.6638336,233.7622223c-0.9498901-2.9151001-1.5291443-6.6190338-1.8415985-10.8259277
			c-0.0402679-0.5420532,0.0523224-2.2682953,0.0207062-2.826416c-0.026474-0.4670258-0.5844727-2.2554626-0.6052094-2.7329712
			c-0.6048279-13.9523163,1.5608368-29.9665527,2.5526123-43.4044342l-7.1533966-1.9017029
			c-1.9231567-0.2240448-3.8187103-0.6752167-5.4022675-1.4361725l-0.9644165-0.2563782l0.1710815,1.9087677
			c0,0,6.4802094,9.3617554,7.4832306,10.469162c1.1035309,1.218399,2.4578705,20.2996979,2.9090576,36.0320892
			c0.0133057,0.4650726,0.5508728,1.2268066,0.5616455,1.6849518c0.0147552,0.6270599-0.3321228,1.1062164-0.3456268,1.7713623
			c-0.0629272,3.0975952-0.0257416,6.6352386,0,8.9000092c0.0431976,3.8019562-2.0305786,5.591507-2.1818085,6.891037
			c-0.0765991,0.6584015,2.1369934-0.8706665,3.1530762-1.7123718c0.5605164-0.6667938,1.111084-1.5096588,1.6407928-2.5577545
			C190.6623993,233.7641754,190.6631622,233.7634735,190.6638336,233.7622223z"/>
		<path class="st9" d="M209.4317932,170.8279419c-0.0870972,0.0452423-0.177063,0.089035-0.2671356,0.132782l0.2597656-0.0281372
			C209.4267731,170.8980103,209.4294434,170.8624115,209.4317932,170.8279419z"/>
		<path class="st4" d="M202.3933563,238.0046387c1.4257202-1.5459747,2.7506561-3.2493591,2.7074432-7.0513
			c-0.0257263-2.2647705-0.0917206-6.2160492-0.0287933-9.3136292c0.013504-0.6651611,1.2676697-1.7491608,1.2528992-2.3762207
			c-0.010788-0.4581604-0.8075409-1.6087189-0.8208771-2.0737915c-0.4511566-15.7323914,0.7579346-34.2952423-0.3456268-35.5136414
			c-0.8400116-0.9274445-7.4347382-4.6907654-9.2051392-6.0159912c1.0506134,12.7169037,2.9886475,27.6475983,2.7965698,41.0255737
			c-0.0071259,0.4946289-0.6383514,2.1705322-0.6503906,2.6551514c-0.0137787,0.5538177,0.1710205,2.191452,0.1504669,2.7311249
			c-0.1766663,4.6348114-0.6104431,8.7280731-1.4133453,11.9246216c0.1220093-0.1484375,0.2317505-0.1798553,0.3116302-0.0298767
			c3.9631042,7.4413605,8.8343964,4.2868652,10.699295,0.6311035c-0.0531464-0.3278809-0.1032867-0.6583099-0.1520691-0.9899597
			c-0.5243835,1.0321808-1.0689545,1.8647156-1.6233215,2.5241852
			C205.0559845,236.9737091,201.943985,238.4918976,202.3933563,238.0046387z"/>
		<path class="st9" d="M207.4377747,231.6818542c0.0057373,0.6027679,0.0718994,1.177597,0.2277679,1.7208557
			C207.5837555,232.8352509,207.5075226,232.2624207,207.4377747,231.6818542z"/>
		<path class="st10" d="M207.7128754,233.5742188c0.0006866-0.0012817,0.0014496-0.0019836,0.002121-0.0032501
			c-0.0180969-0.055542-0.0333252-0.1120605-0.0494537-0.1682587c0.0098419,0.0684509,0.0198212,0.1368103,0.0298767,0.2050934
			C207.7012024,233.5963898,207.707077,233.5856934,207.7128754,233.5742188z"/>
		<path class="st11" d="M206.9164581,219.1485138c-0.0072174-0.4727173-0.3288422-2.0712585-0.3323212-2.5492706
			c-0.1174011-16.1203156,1.9845581-33.2125092,2.8402863-45.6666565l-0.2597656,0.0281372
			c-3.6957703,1.7956085-9.8243713,2.3404083-13.4321289,1.8746185c0.0675507,0.927597,0.1419067,1.870575,0.2207336,2.8247223
			c1.770401,1.3252258,8.0626984,5.9094238,8.90271,6.8368683c1.1035614,1.2183838,0.0626221,19.1461945,0.5138092,34.8786011
			c0.0133209,0.4650726,0.4151154,1.1012573,0.4259033,1.5594025c0.0147552,0.6270752-0.7101746,2.0396118-0.7236786,2.7047729
			c-0.0629272,3.09758,0.003067,7.0488586,0.0287933,9.3136292c0.0432129,3.8019409-1.281723,5.5053253-2.7074432,7.0513
			c-0.4493713,0.4872589,2.6626282-1.0309296,3.6787415-1.8726501c0.5543671-0.6594696,1.098938-1.4920044,1.6233215-2.5241852
			c-0.0100555-0.0682831-0.0200348-0.1366425-0.0298767-0.2050934c-0.1558685-0.5432587-0.2220306-1.1180878-0.2277679-1.7208557
			c-0.3636475-3.0275726-0.5678101-6.2502899-0.6576996-9.841156
			C206.766861,221.3121643,206.9246521,219.6844482,206.9164581,219.1485138z"/>
		<path class="st7" d="M215.3772125,138.6388397c-1.3221588,1.047348-13.3203735,2.288147-13.7937469,1.0862122
			c-3.0730438-7.802948-0.5890503-33.3050613-0.5890503-33.3050613s-14.3813782,1.7274551-20.1122894,0.0247726
			c-0.1798553-0.0534286-0.3535156-0.1099472-0.5222321-0.1688614c0.3310394,2.3963318,2.830719,20.7180862,2.7809143,27.2216568
			c-0.0100861,1.3192596,0.4822235,3.6867218-0.489624,4.5788879c-2.0579224,1.8891754-8.8941803,1.2519226-10.859436,0.9762268
			c0.2496948,5.6856079,1.6431732,23.8321381,3.5393677,29.3344879c0.0946808,0.2746735,0.1904755,0.5204315,0.2875824,0.7289429
			c2.0115051,4.3202972,13.6109314,5.1372681,18.3760681,5.0692596c0.019455-0.0002747,0.0402222-0.0006561,0.0599823-0.0009613
			c2.0906525-0.0320129,5.7789612-0.2033234,9.2329102-0.7995148c4.2068481-0.7261353,8.0643768-2.0824432,8.2582855-4.5846252
			c0.0000916-0.0010986,0.0001831-0.0022278,0.0002747-0.0033112c0.3169098-4.0853729,1.3773651-10.7684174,2.3030243-16.9316711
			C214.6970062,146.2206421,215.4307404,141.0153809,215.3772125,138.6388397z"/>
		<path class="st3" d="M217.1471405,137.1034851c-0.3092804-3.0813751-5.4937592-23.8192749-5.4937592-23.8192749
			s-2.1141052-14.0565643-1.569458-18.7217178c0.2462616-2.1095963,1.9819336-6.0603561,2.4911652-8.1223526
			c1.3528595-5.4782639,3.1106873-16.4750977,2.707428-22.4084244c-0.0462189-0.6803856-0.9889069-1.7988129-1.6129303-2.0737991
			c-1.3444366-0.5924644-3.9663239-1.0695267-6.6445618-1.4299088c0.2397156,0.1103172,0.4295349,0.2269592,0.5528107,0.3498077
			c4.575058,4.5591965,1.1665039,24.8854828-0.7344666,31.0204239c-0.8014832,2.5865631-2.5922394,7.4310913-5.0392609,7.6846313
			c-0.0261841,0.0027084-0.6615906,0.0175629-0.6819,0.000412c-0.0669708,0.6583939-0.8940125,32.3802032,0.8870087,38.4711761
			C202.5229645,139.8114319,217.1951294,137.581665,217.1471405,137.1034851z"/>
		<path class="st4" d="M184.1883087,48.6889114c0,0,0.0012817,0.0013161,0.00354,0.0037956
			c0.1899872,0.2103539,1.078476,1.0107651,2.4806671,1.9025726c0.1149597,0.0730972,1.9777069,1.1048279,4.3690033,1.0368996
			c3.3847046-0.0961533,5.3041229-2.3735619,5.6849976-2.8726387c0.0837555-0.1298714,0.1715393-0.253994,0.2663574-0.3676643
			c6.3077545-7.5606995,1.2075348-27.7307205-6.134964-27.5065117c-7.5463104,0.2304115-11.0829468,4.8391571-11.4922638,12.615551
			c0,0,0-1.9873886-1.771347-1.7569637c-2.350296,0.3057346-1.0112915,8.4094791,1.3393097,8.7127934
			c0.7741699,0.0998878,0.9061279-0.3347092,0.8799438-0.7193642c0.7371826,3.1485481,1.8267212,6.1427422,4.3261414,8.892128
			c0.0397797,0.0437813,0.0769958,0.0920792,0.1134644,0.1415558c-0.0312653-0.0442314-0.0532837-0.0696602-0.0613098-0.0783577
			C184.1895905,48.6902275,184.1883087,48.6889114,184.1883087,48.6889114z"/>
		<path class="st6" d="M191.078476,20.8385162c0,0-5.6426697,2.2574501-7.6084442,5.2601204
			c-3.2371216,4.944622-2.7074585,8.496788-3.8351746,8.2971001c-0.3609619-0.0639229-0.9246826-6.1707497-0.2692108-7.7498398
			c0.573349-1.3813877,2.5212402-3.8051796,3.7443237-4.6660233c1.0837708-0.7628212,5.7317505-1.6705627,5.7317505-1.6705627
			L191.078476,20.8385162z"/>
		<path class="st7" d="M199.738678,59.792614c-0.0095367-0.0198631-0.0191803-0.0395622-0.0287933-0.0592804
			c-0.0249786-0.0112495-0.0482025-0.0230179-0.0736847-0.0340958c-0.0001221-0.000061-0.0001831-0.0000877-0.0003052-0.0001373
			C199.6722717,59.7283592,199.7059326,59.7601013,199.738678,59.792614z"/>
		<path class="st7" d="M201.9368896,93.0699539c0.1496277-2.8059311,0.2715302-6.4927826,0.1587372-11.0253372
			c-0.1850128-7.4343948,0.073761-15.8926315-1.898407-21.168644c0.3677826,3.6401787-5.9412994,12.4877815-9.7137604,12.4877815
			c-0.0484009,0-0.0975952-0.0034637-0.1465759-0.0059738c-0.0134125,0.0014877-0.0272675,0.0047073-0.0406189,0.0059738
			c-0.1113434,0.0107346-0.2339783-0.0002594-0.3628387-0.0236816c-0.1753845-0.0319061-0.3638306-0.0899429-0.5652771-0.1761322
			c-4.1939697-1.4073563-9.580368-9.9235687-8.7052155-12.8288803c-2.420639,4.2103882-2.2991638,14.9682846-2.593399,19.8549194
			c-0.1957092,3.2500305-0.5265503,11.536026-0.1340027,13.6430206c1.3457642,0.2133713,8.7481995,1.3674164,11.3238373,1.3487473
			C195.3651123,95.1375122,200.3853607,93.5995636,201.9368896,93.0699539z"/>
		<path class="st4" d="M189.3681488,73.1639404c0.1005707,0.0337296,0.2001495,0.0618896,0.2992096,0.0872574
			c0.2276459,0.0582504,0.4513855,0.0953903,0.6695251,0.1065826c0.0489807,0.0025101,0.098175,0.0059738,0.1465759,0.0059738
			c3.7724609,0,10.081543-8.8476028,9.7137604-12.4877815c-0.1412201-0.3777771-0.2934723-0.7397919-0.4585419-1.0833588
			c-0.0327454-0.0325127-0.0664062-0.0642548-0.1027832-0.0935135c-0.2318115-0.1863632,0.1796112-0.1462097-0.9270782-0.3455048
			c-0.3451233-0.0621414-1.7278748-0.2659111-2.2574158-0.3214073c-0.5486908-1.6058311-0.8857422-3.9375458-0.7878571-6.0915451
			c-0.4852448,1.8256416-9.5040588,6.0591164-11.505188,6.0591164c-0.0003967,0.0019035-2.1559906,0.3211746-2.4841919,0.4038391
			c-0.3355255,0.0844879-0.5472717,0.1189651-0.6937408,0.2233009c-0.0313568,0.0381279-0.0701294,0.1193314-0.1102295,0.2130547
			c-0.0779877,0.1822243-0.161377,0.4152412-0.2072601,0.4951057
			C179.7877808,63.2403717,185.1741791,71.7565842,189.3681488,73.1639404z"/>
		<path class="st11" d="M195.6635437,52.9406433c0.0738373-1.6250648,0.3962555-3.1471367,1.062973-4.1811028
			c-0.3808746,0.4990768-2.300293,2.7764854-5.6849976,2.8726387c-2.3912964,0.0679283-4.2540436-0.9638023-4.3690033-1.0368996
			c-1.4021912-0.8918076-2.2906799-1.6922188-2.4806671-1.9025726c0.0080261,0.0086975,0.0300446,0.0341263,0.0613098,0.0783577
			c0.582428,0.7901039,0.7489929,2.290062,0.7047577,3.9628105c-0.0103302,0.4989395-0.0418701,1.0531654-0.1027374,1.6723938
			c-0.0016174,0.0163498-0.0032349,0.0319519-0.0048676,0.0482025c-0.019577,0.2084236-0.0413208,0.4164047-0.064682,0.6236267
			c-0.1049194,0.9611473-0.2226715,1.7925987-0.387207,2.6548767c-0.0816803,0.4638824-0.1638031,0.8923492-0.2400665,1.2667847
			C186.1594849,58.9997597,195.178299,54.7662849,195.6635437,52.9406433z"/>
		<path class="st3" d="M230.602829,115.4374237c2.4194183-0.6048584,4.0769196-1.9966049,4.0480347-5.496109
			c-7.7920074,3.128891-17.5479736,1.0651398-23.8152008-1.2419281c-0.0243073-0.0089417-1.030838,2.6889191-1.1003418,2.8496857
			C209.735321,111.5490723,228.9898834,115.8406754,230.602829,115.4374237z"/>
		<g>
			<path class="st3" d="M233.5926361,105.5349197c-5.5399475-13.1837387-9.4820862-27.2747192-19.0505371-42.9523087
				c-0.7563171-1.2392082-9.4256287,5.6698914-8.4044037,9.2834167c1.1088409,3.9236145,3.3509216,9.6335449,6.1317749,15.7308197
				c-0.0113068-0.1737823,0.0083466-0.2929153,0.02005-0.4238815c0.2880096-3.2259064,1.5179138-0.0124359,3.9668732,4.850174
				c2.4489441,4.8626404,6.4716187,9.7976074,2.1132202,7.8624268c-2.0180511-0.6464462-3.7038269-1.0871506-6.1473541-2.1547852
				c-1.3126373-0.5735245-1.1557159-0.3628006-0.5492249,1.0950165c0.4628448,1.1125717-0.6946869,7.278717-1.4136963,10.5274887
				c0.0237274,0.0074921,0.0472565,0.0144196,0.0715637,0.0233612c6.2672577,2.3070755,18.2462616,5.5247498,24.2812958,1.5461655
				C234.6822205,109.8207016,234.7303314,108.2423782,233.5926361,105.5349197z"/>
			<path class="st3" d="M216.7802734,91.3211365c-4.1517639-8.2616501-4.2051849-14.9906921-4.3492126-5.7450485
				c-0.0020447,0.1314316-0.1728973,1.8469772-0.1615906,2.0207596c1.8526306,4.0620651,3.9440002,8.2957535,6.1001434,12.2887192
				C227.9556885,103.4913177,221.2397461,100.1951065,216.7802734,91.3211365z"/>
		</g>
		<path class="st2" d="M202.0956268,82.0446167c0.112793,4.5325546-0.0091095,8.2194061-0.1587372,11.0253372
			c-0.2154388,4.0402832-0.4875031,6.2461548-0.2013855,6.4875717c0.0203247,0.0171509,0.0424194,0.0280533,0.0686035,0.0253448
			c2.4470215-0.25354,4.2377777-5.0980682,5.0392609-7.6846313c1.9009705-6.1349411,5.3095245-26.4612274,0.7344666-31.0204239
			c-0.1232758-0.1228485-0.3130951-0.2394905-0.5528107-0.3498077c-2.0218964-0.930378-7.674057-1.1363716-7.549881-1.0093002
			C200.5499725,60.6185989,201.910614,74.6102219,202.0956268,82.0446167z"/>
		<path class="st3" d="M169.8806915,62.0294914c-7.2211761,4.7150688-10.3083344,28.0626564-19.9228363,40.8253365
			c-0.1884918,0.2502365-0.5257721,0.3362808-0.8132782,0.2118149c-6.009613-2.60215-13.7481995-6.2549515-13.7481995-6.2549515
			c0.6644135,3.5421524-4.1841736,8.9725266-5.2849274,9.9631195c3.8610535,1.0699768,15.9858551,8.2612305,22.8997803,7.6326904
			c2.8514862-0.2592087,6.8427734-8.3254623,8.1223602-10.5417557c4.9215546-8.5243988,8.7765656-18.9422379,10.0066071-18.2320633
			c0.3702698,0.213768,0.3930359,1.1505737,0.1104126,2.5871277c1.1092682-2.768158,2.1547394-5.405983,3.1380157-7.7427979
			C175.8450317,77.0168991,173.0248566,59.9765472,169.8806915,62.0294914z"/>
		<path class="st12" d="M161.1568756,109.6485977c-0.0212097,0.033226-0.0423279,0.0662842-0.0634613,0.0993652
			C161.1146088,109.7149429,161.1357269,109.6817398,161.1568756,109.6485977z"/>
		<path class="st3" d="M169.9687958,83.7939529c-0.1728058,0.237648-12.2051086,28.9285965-17.3463898,29.7134171
			c-6.8629456,1.0476303-17.3535919-4.7163696-21.1369629-8.1978607c-0.1314087,0.1182327-1.5838776,1.6390915-1.5926819,1.620018
			c3.1970978,2.6786499,20.6126404,12.1440201,24.5644684,10.1120682c2.3561249-1.4766693,4.5660553-4.068428,6.6361847-7.2936325
			c0.0211334-0.0330811,0.0422516-0.0661392,0.0634613-0.0993652c3.8320465-6.0025024,7.1833801-14.1651001,10.0937347-21.4277878
			C171.5332336,86.784256,170.2202759,83.448204,169.9687958,83.7939529z"/>
		<path class="st8" d="M183.2546387,138.0825653c0.4655609-0.992981,0.1188965-3.2164612,0.1289825-4.5357208
			c0.0498047-6.50354-2.6947174-24.8685074-3.0257568-27.2648315c-0.0248108-0.0086746-0.0506287-0.0168533-0.0751648-0.0256653
			c-0.0085907-0.0030441-0.0168304-0.0042953-0.0247955-0.0040741c-0.0374603,0.136795-0.0907593,0.3315277-0.1588745,0.580658
			c-0.2164307,4.0594559,3.1837158,28.1352386,0.6444855,30.7791901c-0.565567,0.5888824-6.9974213-1.6105957-8.621933-0.6604614
			c-0.0647278,0.2264404-0.2204132,0.1148987-0.3712769,0.4295502c0.002594,0.2935638,0.0157928,1.1397705,0.0394135,1.6775665
			C173.7550049,139.3344727,182.0687408,140.611908,183.2546387,138.0825653z"/>
		<path class="st3" d="M180.4025269,106.7603989c-0.2860107-2.939064-0.8134308-4.2504272-1.3511505-7.205574
			c-2.0193787,0.4858093-3.8096313-5.6337433-4.7192535-8.131813c-2.0575256-5.6503296-5.026062-25.9511795-0.4510193-30.5103607
			c0.009201-0.0091667,0.0215912-0.0178986,0.0314484-0.0269623c-1.680603,0.3278046-3.2136383,0.711132-4.0805817,1.1298218
			c-0.4588318,0.2216301-1.5672607,1.6020851-1.6538391,2.1042557c-1.0495758,6.088974,1.3070984,16.859726,2.5789795,22.4355927
			c0.4641113,2.0345383,2.092041,5.9374008,2.3583679,8.0071335c0.2896423,2.2509537,0.4181824,10.3106003-0.4032288,18.7793121
			c-1.1149292,11.4944611-3.283493,20.9107132-3.3411102,23.7909775
			c-0.0098419,0.4919891,10.6250458,1.3379669,11.3482208,0.7488556
			C183.2105103,135.8524017,181.7837219,120.9530106,180.4025269,106.7603989z"/>
		<path class="st3" d="M180.6384735,61.1792374c0.2362213-0.6010895,0.4941101-1.1663818,0.7788239-1.6859665
			c0.0947266-0.1729012-6.2683716,0.2539444-7.5047455,1.3924179c2.6051331-0.5081635,5.5658722-0.8825874,6.9576416-1.0457344
			C180.8565826,59.8717308,180.7713318,60.3639755,180.6384735,61.1792374z"/>
		<path class="st3" d="M174.3321228,91.4230118c0.9096222,2.4980698,2.6998749,8.6176224,4.7192535,8.131813
			c-0.2550507-1.4017258-0.5124207-3.1728058-0.7474365-5.6638641c-0.696701-7.3847275-0.2954407-12.6872482-0.2344055-13.7009811
			c0.022171-0.3683777,0.0566864-0.7967606,0.1011963-1.272377c0.2139435-6.5204163,0.6875305-13.2082214,2.4677429-17.7383652
			c0.1328583-0.8152618,0.2181091-1.3075066,0.23172-1.339283c-1.3917694,0.163147-4.3525085,0.537571-6.9576416,1.0457344
			c-0.0098572,0.0090637-0.0222473,0.0177956-0.0314484,0.0269623
			C169.3060608,65.4718323,172.2745972,85.7726822,174.3321228,91.4230118z"/>
		<path class="st9" d="M210.3309021,109.3766479c0.0641479,0.034462,0.1278839,0.0581741,0.1910706,0.0722275
			c0.0079956-0.0215378,0.0151978-0.0423203,0.0231323-0.0637817
			C210.472702,109.400032,210.4010162,109.3980179,210.3309021,109.3766479z"/>
		<path class="st4" d="M198.2313843,95.1819839c0,0-5.7317352,0.9502487-9.9225159-2.3764572
			c-4.9515228-3.9305878-5.6777802-6.5009995-5.8141785-9.8819199c-2.5092926,2.6244431-0.9128571,6.1612015,4.2049561,10.3178253
			c3.8970642,3.1651764,6.7079163,4.7527695,9.3995819,4.7242813c0.0603333,0.0889053,11.4511566,9.9167099,14.2316742,11.4109344
			c0.0701141,0.0213699,0.1417999,0.0233841,0.2142029,0.0084457c0.6226959-1.683754,1.0220184-3.1591568,1.2604065-4.4466629
			C200.8724823,102.9151764,198.2313843,95.1819839,198.2313843,95.1819839z"/>
		<g>
			<path class="st4" d="M211.6730347,98.825798c-1.7554932-1.0595398-8.1281128-3.5986862-11.3556976-5.68293
				c0.8555145-3.4896317-5.5578156-11.507164-7.6211548-11.1542969c0.4085846,0.6906052,0.624527,2.3085327,2.4317017,3.4218903
				c0.5932617,0.3654785,1.0317078,1.2588882,0.7200775,1.6633377c-0.1594238,0.2068787-0.8039551,0.0565186-0.9728394-0.0789337
				c-0.000061-0.0000458-0.0001373-0.0001068-0.0001373-0.0001068c-1.0575104-0.1363449-8.3434906-7.4065781-11.8021393-4.6020737
				c-0.212738,0.1724777-0.4048157,0.349617-0.5781555,0.5309219c0.1363983,3.3809204,0.8626556,5.9513321,5.8141785,9.8819199
				c4.1907806,3.3267059,9.9225159,2.3764572,9.9225159,2.3764572s2.641098,7.7331924,13.5741272,9.7564468
				C212.3480225,102.0081482,212.0581665,100.0504379,211.6730347,98.825798z"/>
			<path class="st4" d="M195.8479614,87.0737991c0.3116302-0.4044495-0.1268158-1.2978592-0.7200775-1.6633377
				c-1.8071747-1.1133575-2.0231171-2.7312851-2.4317017-3.4218903c-0.128479,0.021965-0.2407532,0.0751114-0.3327026,0.165123
				c-0.8306732,0.8132477,3.2960815,4.0936432,2.6148224,4.8175507c-0.0215454,0.0229111-0.0570068,0.0294418-0.103363,0.0234528
				c0,0,0.0001221,0.0001221,0.0001831,0.0001678C195.0440063,87.1303177,195.6885376,87.2806778,195.8479614,87.0737991z"/>
		</g>
		<path class="st13" d="M179.5079193,237.0659943c0.9489441,1.0714722,3.1212463,4.5973053,6.2283936,4.7643433
			c3.2180328,0.1730652,5.98526-5.4577789,6.1874237-5.0749054c-0.4790344-0.8695984-1.3787689-3.3720551-1.3794556-3.3707886
			c-3.8634033,7.6442871-8.5747833,3.7021332-10.4647369-0.0003662L179.5079193,237.0659943z"/>
		<path class="st14" d="M192.0063324,236.9940338c-0.003952-0.1606903-1.4059143-3.5075378-1.4620514-3.6093903
			c-0.2021484-0.3828888,0.0543976,8.4496155-4.8079681,8.2440643c-3.1088562-0.1314087-5.2794495-3.4912415-6.2283936-4.5627136
			c-0.0093384,0.0488129-0.0181122,0.0986786-0.0275574,0.1472778c-0.3114166,1.600174,2.765564,6.9212799,6.9269562,6.7841187
			C190.6274872,243.5873108,191.96698,237.3215485,192.0063324,236.9940338z"/>
		<path class="st13" d="M202.2402039,241.6287079c2.85112,0.1284485,5.3447266-4.0842438,6.0189819-4.7905884
			c-0.1492462-0.7230682-0.4710693-2.6830292-0.595993-3.4538422c-1.8649139,3.6557465-7.587677,6.7813263-10.62146-0.2606812
			c-0.272644,1.0855255-0.7917786,2.9436493-1.1539612,3.8084106
			C196.7614746,237.8227386,198.4041901,241.4559174,202.2402039,241.6287079z"/>
		<path class="st14" d="M202.091217,243.9671783c3.1103973-0.1494446,6.5379028-4.7866669,6.2411499-6.776062
			c-0.0175781-0.1178131-0.6425018-3.6706238-0.6668243-3.7884064c-0.2277679,1.0253448-2.1615143,8.2288971-5.7651825,8.0492706
			c-3.6912537-0.1839294-5.1388855-3.6292419-6.0125885-4.5199738
			C195.8861847,236.9358368,197.8569489,244.0000153,202.091217,243.9671783z"/>
	</g>
</g>
</svg>
