<?xml version="1.0" encoding="utf-8"?>
<!-- Generator: Adobe Illustrator 23.0.3, SVG Export Plug-In . SVG Version: 6.00 Build 0)  -->
<svg version="1.1" id="Слой_1" xmlns="http://www.w3.org/2000/svg" xmlns:xlink="http://www.w3.org/1999/xlink" x="0px" y="0px"
	 width="360px" height="244px" viewBox="0 0 360 244" style="enable-background:new 0 0 360 244;" xml:space="preserve">
<style type="text/css">
	.st0{fill:#8CD3AC;}
	.st1{fill:#FFFFFF;}
	.st2{fill:#B3F3AC;}
	.st3{fill:#2ED3AC;}
	.st4{fill:#EAAD8C;}
	.st5{fill:#D57E70;}
	.st6{fill:#AE5955;}
	.st7{fill:#95504C;}
	.st8{fill:#F16663;}
	.st9{fill:#C0615E;}
	.st10{fill:#F2DDCC;}
	.st11{fill:#6C3A36;}
</style>
<g>
	<g>
		<g>
			<path class="st0" d="M334.080719,165.6836395c-0.4144897,1.2907867-1.5365601,2.9476318-3.1135559,4.8369141
				c-4.1270447,4.9432526-11.3727112,11.4889832-17.2638855,17.2828979
				c-3.7049255,3.6425476-6.8716125,6.9858246-8.3955688,9.4487915
				c-5.9619141,9.6318512-13.4703979,18.7542725-22.2097168,26.3039703
				c-26.2305603,4.7898865-55.5443878,9.6886902-79.2654114,12.4706268
				c-11.2539062-6.9635773-12.0980377-19.6123352-22.1919403-26.2965088
				c-13.4097137-8.8775787-29.5337524-0.9322205-45.6855621-3.996109
				c-17.0439529-3.2296143-23.7462234-10.0052643-34.3885727-21.8181458
				c-0.2881393-0.3189697-0.5736923-0.6355591-0.8542786-0.9520721
				c-11.1275177-12.4088593-18.9165878-22.3547058-24.2264252-30.4954071
				c-1.2838364-1.9709015-2.426178-3.8354034-3.4320221-5.6035156c-5.312355-9.3276672-6.9247131-15.9747314-6.6189346-21.3062363
				c0.6596222-11.4642563,10.1848907-16.860054,10.8799057-29.7709045c0.2274704-4.2013626-0.4801483-9.199028-2.7344818-15.4603577
				c-5.7344208-15.9351578,15.1787949-22.0604515,24.757164-20.4159889
				c1.5340576,0.2620888,2.7774429,0.7245026,3.5735703,1.3773804c2.8709869,2.3541679,6.944931,2.5915375,9.593483,0
				l1.6730804-1.6444626l2.8103256-2.7522926c1.9864273-1.0212936,3.4901657-2.3714905,4.3014145-4.2038879
				c0.2931747-0.6627388,0.4953918-1.3922348,0.5989532-2.1884842c0.1415482-1.0905724,0.3285828-2.1489105,0.5610962-3.1751976
				c0.0378571-0.1755447,0.0783691-0.348629,0.1212692-0.5217705c9.2523575-37.9337883,80.693367-30.3371181,103.9240341-9.4463234
				c33.4889526,30.112133,14.6430359,39.0169029,46.1252747,28.3736763
				c18.1762085-6.1450768,31.0071106-2.1513786,32.4324951,16.8872299
				c1.086731,14.5404587-2.4691467,17.0405273-0.9704895,22.2038879c0.0480957,0.1632156,0.1011658,0.3289032,0.1592407,0.4995193
				c0.2426147,0.7121735,0.5813293,1.4812393,1.0387268,2.3393097c6.3030396,3.5708618,14.0592651,3.0614166,17.4988708,6.5531311
				c1.9763184,2.0129318,1.7185364,9.3425217,0.4396973,17.2779617c4.3419189,5.9694672,8.50177,12.7253723,10.5362549,19.5281982
				c0.7303772,2.4234619,1.1852417,4.854248,1.283844,7.2554474
				C335.1447144,160.7873077,334.8591003,163.2701111,334.080719,165.6836395z"/>
		</g>
	</g>
	<g>
		<g>
			<path class="st1" d="M122.4926987,47.8300285l-0.0864944-1.0098915c0.4070206-0.0334091,0.8125076-0.0781555,1.2052155-0.1329536
				l0.1462784,1.0032921C123.3452682,47.7480469,122.9196854,47.7950172,122.4926987,47.8300285z"/>
		</g>
		<g>
			<path class="st1" d="M300.3727417,105.6272125c-0.8981018-0.1100235-1.75-0.263443-2.5317688-0.4558182l0.2526245-0.9828339
				c0.7411804,0.1823273,1.5513,0.3281097,2.407959,0.433075L300.3727417,105.6272125z M295.3778687,104.3377914
				c-0.8911743-0.4050903-1.6398621-0.8919754-2.2252808-1.4471512l0.7210388-0.7276459
				c0.5018311,0.4759674,1.1549072,0.8985672,1.9407349,1.2557602L295.3778687,104.3377914z M291.7279053,100.5894775
				c-0.1255493-0.4448471-0.1891785-0.9187851-0.1891785-1.4085693c0-0.2393417,0.0151672-0.4864502,0.0449219-0.7344894
				c0.0183105-0.1545258,0.0351562-0.3124466,0.0500183-0.47332l1.0315247,0.0915298
				c-0.0158081,0.1695709-0.0333862,0.3362427-0.0528564,0.4995193c-0.0250549,0.2093887-0.0378418,0.4167404-0.0378418,0.6167603
				c0,0.3986816,0.0510254,0.7818909,0.151886,1.1388397L291.7279053,100.5894775z M291.7187805,95.5714035
				c-0.0121155-0.7849045-0.0599365-1.5966873-0.1425171-2.4127884l1.0305481-0.0998535
				c0.0855408,0.8441391,0.1351013,1.6844025,0.1476135,2.4975433L291.7187805,95.5714035z M291.2355957,90.762413
				c-0.1471558-0.8026047-0.3273315-1.5962601-0.5355225-2.359169l1.0007324-0.2614059
				c0.2155762,0.7899017,0.4020386,1.6114197,0.5543518,2.4416351L291.2355957,90.762413z M289.9547729,86.1068344
				c-0.296051-0.7773895-0.627533-1.5159454-0.9849854-2.1950836l0.9208069-0.4640121
				c0.3761902,0.7146988,0.7243652,1.490242,1.0347595,2.3051682L289.9547729,86.1068344z M287.7008972,81.8854446
				c-0.4977417-0.6652069-1.0367737-1.2517014-1.6021423-1.7429657l0.6875916-0.757782
				c0.6204834,0.5389709,1.2093506,1.1789627,1.7502441,1.9022293L287.7008972,81.8854446z M264.7437439,80.9199295
				c-0.8431091-0.0241623-1.6992798-0.0811157-2.5445557-0.1691971l0.1097412-1.0077286
				c0.8190002,0.0853653,1.6484375,0.1404724,2.4652405,0.1638947L264.7437439,80.9199295z M267.2958679,80.8948441
				l-0.0514832-1.0122299c0.8218994-0.0399399,1.6495972-0.1129227,2.4598389-0.2168427l0.134613,1.0048294
				C269.0010681,80.778038,268.1455383,80.8534851,267.2958679,80.8948441z M259.6758728,80.3937225
				c-0.827179-0.148056-1.6643677-0.3287811-2.4881592-0.5372467l0.2593384-0.981102
				c0.7997131,0.2023621,1.6122742,0.3777847,2.4151611,0.5214005L259.6758728,80.3937225z M272.3554382,80.2443085
				l-0.218811-0.990593c0.8040771-0.1699371,1.6075745-0.3747025,2.3880005-0.6084366l0.3031311,0.9690857
				C274.0195312,79.8563538,273.1876831,80.0683289,272.3554382,80.2443085z M254.7461548,79.1483078
				c-0.7949982-0.2601089-1.5975494-0.5524673-2.385437-0.8690414l0.3934631-0.9375229
				c0.7665863,0.3080063,1.547287,0.5924683,2.3204956,0.8454971L254.7461548,79.1483078z M284.1437073,78.8562088
				c-0.7060547-0.331131-1.4584656-0.5516739-2.2364502-0.6553497l0.1398621-1.0042191
				c0.8849487,0.117981,1.7409668,0.3689117,2.544281,0.7456436L284.1437073,78.8562088z M277.2208862,78.7948151
				l-0.3495789-0.9539871c0.8647461-0.3033218,1.7171936-0.5138779,2.5336609-0.6258163l0.1438293,1.0036011
				C278.8021851,78.3209991,278.0190735,78.5148468,277.2208862,78.7948151z M250.0399933,77.2601318
				c-0.7517242-0.358551-1.5088501-0.7481689-2.2499847-1.1580734l0.5095062-0.8822327
				c0.723114,0.3997879,1.4613495,0.7797318,2.1942291,1.1293488L250.0399933,77.2601318z M245.6152954,74.8162766
				c-0.7019501-0.4425049-1.4072266-0.9144135-2.0958405-1.4024658l0.6077118-0.8207169
				c0.6734161,0.4772034,1.362854,0.9386292,2.0491638,1.3712158L245.6152954,74.8162766z M241.5039368,71.9052658
				c-0.6480255-0.5112305-1.2988281-1.0510635-1.9345093-1.6045227l0.6885376-0.7570419
				c0.6231384,0.5426025,1.2610321,1.0716476,1.8960876,1.5725861L241.5039368,71.9052658z M237.7158203,68.6095047
				c-0.5955658-0.5683746-1.1924438-1.163681-1.7742615-1.7692795l0.7545471-0.6941757
				c0.5716858,0.5950546,1.1580353,1.1798248,1.7428894,1.7380219L237.7158203,68.6095047z M234.2453613,65.0008621
				c-0.5435181-0.6138-1.0885468-1.2537956-1.6201019-1.90242l0.8081665-0.6339569
				c0.5231628,0.6385803,1.0598145,1.2686501,1.5947113,1.8727112L234.2453613,65.0008621z M231.0641174,61.1803665
				c-0.5202179-0.6212578-1.063858-1.247139-1.6161957-1.8600121l0.7769165-0.6701965
				c0.5605316,0.6220589,1.1124878,1.2573051,1.6405792,1.8880539L231.0641174,61.1803665z M227.7641296,57.5160637
				c-0.5646667-0.5847664-1.1519165-1.1728592-1.7455902-1.7481346l0.7287292-0.7200661
				c0.6017914,0.5830421,1.1972198,1.1792755,1.7697144,1.7721176L227.7641296,57.5160637z M224.2151337,54.0753288
				c-0.6040649-0.549324-1.228714-1.1003151-1.8565216-1.6377411l0.6817932-0.7627831
				c0.6356812,0.5440254,1.2682648,1.1019783,1.8798981,1.6582069L224.2151337,54.0753288z M220.4525146,50.8539009
				c-0.6337891-0.5117226-1.2902679-1.0267143-1.9510193-1.5304909l0.6365662-0.7994537
				c0.6685028,0.5096893,1.3323975,1.0305405,1.9736328,1.5481796L220.4525146,50.8539009z M216.5082092,47.844883
				c-0.661438-0.4773331-1.3450623-0.9575577-2.0320129-1.4273682l0.593338-0.8306465
				c0.6941376,0.4746819,1.3850708,0.9600258,2.0533905,1.4425316L216.5082092,47.844883z M126.2807007,47.1757927
				l-0.2781219-0.9761734c0.7831039-0.2136383,1.5535278-0.4815216,2.2899933-0.7964325l0.4146881,0.9286499
				C127.9265671,46.6656113,127.1102219,46.9495163,126.2807007,47.1757927z M130.9898834,45.1655083l-0.5403137-0.8645477
				c0.6695709-0.4007111,1.3435669-0.8621407,2.0031281-1.37146l0.6416473,0.7955093
				C132.4025421,44.2592926,131.6944733,44.7438965,130.9898834,45.1655083z M212.4085083,45.0400734
				c-0.6896057-0.4473152-1.3964691-0.8943176-2.10112-1.3286247l0.5519562-0.8575172
				c0.7115173,0.4385605,1.4251862,0.8898773,2.1214142,1.3415031L212.4085083,45.0400734z M208.175705,42.4306564
				c-0.7093353-0.4153824-1.4360352-0.8305817-2.1601562-1.2340088l0.5125122-0.8806305
				c0.7304993,0.4069977,1.4638824,0.8259583,2.1795044,1.2450409L208.175705,42.4306564z M135.0219269,42.0830154
				l-0.7131653-0.7349205c0.5516052-0.5125885,1.1209412-1.0775681,1.7402344-1.7271194l0.7573242,0.6913414
				C136.1725922,40.9769058,135.5889435,41.5561256,135.0219269,42.0830154z M203.8291168,40.008316
				c-0.7250061-0.3843193-1.4687805-0.7689438-2.2108612-1.1433372l0.4746094-0.9007263
				c0.7483063,0.3774757,1.4983826,0.7653656,2.2296906,1.1529503L203.8291168,40.008316z M138.4976807,38.475853
				l-0.7779388-0.6690903c0.2823486-0.3142319,0.5641174-0.6303177,0.846344-0.9468918
				c0.2681732-0.3007355,0.5367737-0.6020889,0.8069611-0.9030113l0.778183,0.6688423
				c-0.2693787,0.3000603-0.5372772,0.6004868-0.8046417,0.9004211
				C139.0634308,37.8436852,138.780838,38.1606331,138.4976807,38.475853z M199.3846436,37.7657127
				c-0.7430267-0.3567047-1.5016785-0.7119904-2.254715-1.0559349l0.4382019-0.918293
				c0.7589569,0.3467178,1.5236664,0.7048378,2.2728424,1.0643768L199.3846436,37.7657127z M194.8555603,35.6964989
				c-0.753479-0.3274231-1.5247803-0.654171-2.2928162-0.971241l0.4026031-0.9337044
				c0.7739563,0.3194733,1.5513,0.6488075,2.3105774,0.9786987L194.8555603,35.6964989z M141.8208313,34.8088379
				l-0.7588959-0.6896744c0.6278687-0.6613846,1.2081146-1.2427597,1.7741241-1.7772293l0.7192841,0.7291222
				C143.0031281,33.5926437,142.435791,34.1610146,141.8208313,34.8088379z M190.2527161,33.79562
				c-0.7687225-0.3014107-1.5532532-0.6010399-2.3316803-0.8904953l0.3679504-0.9473248
				c0.7842255,0.2916126,1.5744934,0.5933971,2.3489532,0.897089L190.2527161,33.79562z M185.5735321,32.0556221
				c-0.7825317-0.275404-1.5774536-0.5474758-2.3628845-0.8087635l0.333313-0.9595299
				c0.791214,0.263258,1.5919495,0.5372429,2.380127,0.8146782L185.5735321,32.0556221z M145.3947906,31.4609909
				l-0.6576691-0.7829342c0.6760559-0.5437164,1.3672333-1.0463791,2.0543823-1.4939384l0.5738831,0.8435879
				C146.7072144,30.4564648,146.0441437,30.9387264,145.3947906,31.4609909z M180.8335419,30.4790859
				c-0.7931061-0.2486496-1.5974274-0.4931087-2.3906555-0.7267208l0.2985992-0.9704399
				c0.7990265,0.2353363,1.6091461,0.4815826,2.4079742,0.7319603L180.8335419,30.4790859z M176.0396423,29.0671272
				c-0.8022461-0.2210369-1.6148834-0.4372654-2.4153595-0.6427689l0.2628174-0.9802418
				c0.8064575,0.2069836,1.6251373,0.4248142,2.4333191,0.6475773L176.0396423,29.0671272z M149.4752197,28.8154564
				l-0.4718933-0.9021454c0.7584686-0.3797569,1.5489044-0.7193851,2.3493195-1.0092106l0.3595123,0.950407
				C150.9499817,28.1305256,150.1973267,28.4538841,149.4752197,28.8154564z M171.2001953,27.8276958
				c-0.825058-0.1910191-1.6441193-0.3644714-2.4345093-0.5154858l0.1985016-0.9946651
				c0.8036804,0.1536045,1.6362915,0.3298912,2.4745636,0.5240536L171.2001953,27.8276958z M154.0501556,27.1544762
				l-0.2469482-0.9842472c0.8084869-0.1942844,1.6535492-0.3519573,2.5118561-0.4685783l0.1425018,1.003727
				C155.6343536,26.8173752,154.8243561,26.9683895,154.0501556,27.1544762z M166.3143616,26.899601
				c-0.8383942-0.1210594-1.6677246-0.2190647-2.4651794-0.2911816l0.0953217-1.0091496
				c0.8161011,0.073843,1.6642761,0.1740055,2.5211182,0.2977753L166.3143616,26.899601z M158.9053497,26.4839077
				l-0.0503235-1.0121689c0.8228912-0.0392647,1.6835327-0.0471535,2.5497131-0.0236702l-0.028595,1.0130329
				C160.5359802,26.4385433,159.7021179,26.4460011,158.9053497,26.4839077z"/>
		</g>
		<g>
			<path class="st1" d="M303.9248962,105.8361053c-0.3145752,0-0.6304016-0.0046844-0.942627-0.0140533l0.0318604-1.01297
				c0.4044189,0.0121384,0.815155,0.0162125,1.2216492,0.0120163l0.0108337,1.0134048
				C304.1395874,105.8355484,304.0324402,105.8361053,303.9248962,105.8361053z"/>
		</g>
	</g>
</g>
<g>
	<g>
		<path class="st2" d="M58.0563431,67.7167282c0.0760345-1.649147-3.8800392-3.2733307-9.8837013-4.3461533
			c-1.4388657-0.2570305-2.383976-1.6273842-2.0796471-3.0272636c3.9250183-18.0557175,6.4691925-33.832962,11.9144669-42.4489479
			c1.5010414-2.3675451,21.7026062,12.6284866,27.817894,22.4044571c0.6461945,1.0330009,0.4475784,2.3664322-0.4585419,3.1914673
			c-6.0745316,5.5310326-9.6337357,10.4769859-8.3588486,12.0506859c1.2045898,1.4808731,6.3778458-0.4709206,12.7460632-4.5324211
			c1.1947556-0.7619781,2.7842407-0.4566193,3.5874252,0.696579c3.0381165,4.3618698,6.2705688,8.6976624,9.6369553,12.7893066
			c1.3833008,1.6791611,0.9657059,4.1620331-0.9119797,5.2859497c-4.003952,2.4054565-6.1904297,4.5473404-5.7104797,5.9438934
			c0.6550827,1.9302139,6.1424332,2.024025,13.9942398,0.5973969c1.3689423-0.2496948,2.7577896,0.2633209,3.5970688,1.3385468
			c5.198082,6.6680832,8.9845734,12.5659256,10.2435913,16.794838c0.5904541,1.9879761,1.1813431,4.1174698,1.7469177,6.3471298
			c0.4259644,1.6706543-0.4257278,3.4062195-2.0292587,4.1107483c-9.0867538,4.0015259-14.8802032,8.006813-14.1342773,10.2105865
			c0.6855698,2.0192261,6.7560654,2.0173721,15.3017731,0.3382721c2.0720139-0.4074326,4.076004,0.961937,4.3608704,3.0039062
			c2.2838287,16.5242996,1.5281219,33.3662949-7.9871826,39.3377914
			c-7.7765274,4.8751373-23.0855331-4.5718689-37.0624466-16.0096741c-1.9252472-1.5817871-1.6718826-4.5370483,0.4814682-5.8106995
			c4.1652222-2.4657288,6.450737-4.6639557,5.958931-6.1014252c-0.7468643-2.1836777-7.7765198-2.0017853-17.4374771,0.1068726
			c-1.1970215,0.2572784-2.4626465-0.0884399-3.3403625-0.9294434
			c-5.8811951-5.5993271-10.6265984-10.5753021-13.1355553-13.3963852c-0.694519-0.7789917-1.3311462-1.6161041-1.9175644-2.4982834
			c-1.230217-1.8611145-0.3500633-4.3640213,1.7484856-5.1950989c11.4682693-4.5435791,19.2326508-9.45298,18.3775482-11.978508
			c-0.8498001-2.4916229-13.0689125-0.4958801-25.4361839,2.7742996c-2.1414375,0.5662155-4.3026123-0.8303986-4.5893631-2.9802933
			c-0.9080086-6.8333969-1.2607803-14.4411011-0.7845993-22.1143188c0.0796852-1.2836914,1.1109734-2.305481,2.4216461-2.4010773
			C53.4061356,70.7825775,57.9758377,69.4637527,58.0563431,67.7167282z"/>
	</g>
</g>
<g>
	<path class="st3" d="M16.0497456,127.2346191c7.1387653,8.110672,17.8981571,8.552063,25.7985935,5.3602905
		c7.8975983-3.1834564,14.3039856-2.8403778,16.3520737,1.5173645c2.0508614,4.34935,5.8660774,12.9674988,18.8576317,13.0927429
		c12.9915619,0.1252594,17.51754,4.18367,25.7037888,12.0057526c8.1861115,7.8221436,14.5718384,8.5901642,14.5718384,8.5901642
		s3.2883911-6.3216095,0.5284653-18.871933c-1.654747-7.5279541-5.4894943-17.3026886-13.5227814-29.2980804
		c-5.4398651-8.1302109-24.9166107-25.7171707-30.5166626-24.5410385
		c-5.6027603,1.1845093-9.5896301,9.9868317-18.1302948,12.4120102c-7.5787811,2.1515045-22.8142738-1.9939499-32.1333542,0.2892761
		c-1.1844921,0.2872925-2.2649803,0.6768494-3.2268486,1.1964035
		C11.7579069,113.6148529,8.9080839,119.1183319,16.0497456,127.2346191z"/>
</g>
<g>
	<g>
		<g>
			<path class="st3" d="M341.9913635,141.2649536c0.0261536-1.1178741,2.776001-2.0375977,6.8837585-2.4926147
				c0.984436-0.1090393,1.6875305-0.99263,1.5476074-1.9522705c-1.8043518-12.3788605-2.7826843-23.1557159-6.0579529-29.2233734
				c-0.9031677-1.6676407-15.2600708,7.5583878-19.8521423,13.8901672c-0.485199,0.6690292-0.4136353,1.5791245,0.1600037,2.1773911
				c3.8453979,4.0112076,6.0184631,7.51371,5.0830078,8.5200119c-0.8836975,0.9465942-4.288147-0.6051636-8.401062-3.6363678
				c-0.771637-0.5686798-1.8602295-0.4338226-2.4571838,0.3093567c-2.2581177,2.8112183-4.6462708,5.5960083-7.1134949,8.2097931
				c-1.0137939,1.0726318-0.848175,2.7693634,0.3679199,3.6133881c2.592926,1.8057098,3.9700012,3.3515472,3.5800781,4.2737885
				c-0.5334473,1.2749329-4.2462463,1.0916138-9.4855957-0.2257233c-0.9134216-0.2302246-1.8760986,0.0540009-2.4938354,0.7429352
				c-3.8261719,4.2726135-6.6621094,8.0881653-7.7116089,10.8894043c-0.4924622,1.3169708-0.9918213,2.7296143-1.4787598,4.2109833
				c-0.366333,1.1098633,0.1276855,2.3211212,1.1783142,2.869339c5.9529724,3.1129456,9.6800537,6.0802917,9.0724792,7.5361481
				c-0.558136,1.3338013-4.6605835,1.0595093-10.3569946-0.4596405c-1.3811646-0.3685455-2.7998657,0.4668427-3.0882568,1.8339996
				c-2.3196106,11.0647125-2.6000671,22.4806366,3.5499268,26.9441376
				c5.0264893,3.644455,15.8163147-2.0514526,25.7994385-9.1526642c1.3753662-0.9824066,1.3429871-2.9910278-0.0524902-3.9485931
				c-2.6990662-1.853714-4.1404114-3.4420319-3.740509-4.3913879c0.6073303-1.442276,5.3495483-1.0031128,11.779541,0.8564148
				c0.796875,0.2276917,1.6684265,0.0509796,2.3010254-0.477951c4.2376404-3.519577,7.6784363-6.6690063,9.5065308-8.4626312
				c0.5059204-0.4952087,0.9754944-1.0323181,1.4132385-1.6021729c0.9188538-1.2024536,0.4415894-2.9335785-0.9376831-3.5895996
				c-7.5369568-3.58638-12.5535583-7.2533417-11.8570862-8.9217224c0.6913757-1.6455688,8.8553772,0.2526093,17.059845,3.0188904
				c1.4205933,0.4789886,2.9467773-0.3676758,3.2415161-1.8077393c0.9346619-4.57724,1.5303955-9.7028046,1.5690002-14.9099274
				c0.0065002-0.8710785-0.6425476-1.6079712-1.5237732-1.7314911
				C344.9901123,143.5461426,341.9637146,142.4493408,341.9913635,141.2649536z"/>
		</g>
	</g>
</g>
<g>
	<g>
		<g>
			<path class="st1" d="M275.275238,190.978775c0.2563782-0.005249,0.4842224-0.1835632,0.537384-0.4407196
				c0.1766357-0.8506165,4.2549438-20.9419556-0.6881409-30.063324c-3.2597961-6.0134125-5.8791809-10.1346436-8.6517944-14.4978638
				c-1.4520874-2.2839661-2.9524231-4.6457672-4.6646423-7.4564972c-5.1530762-8.4599304-8.395752-16.8447037-7.8861694-20.3902893
				c0.5958557-4.1552582-1.9715576-5.5562439-2.0811157-5.6136246c-0.2745361-0.1422653-0.6138-0.043396-0.760025,0.2238083
				c-0.1470337,0.2671432-0.0444183,0.5999298,0.2286682,0.7436676c0.0768585,0.0425949,1.9832611,1.131134,1.5006561,4.4936523
				c-0.5501251,3.8304825,2.6780396,12.3127136,8.0338135,21.105545c1.7176819,2.8187408,3.2210999,5.1856079,4.6754761,7.4732056
				c2.8824463,4.5361176,5.3717957,8.4532623,8.6128235,14.4332123c4.7559204,8.7740936,0.6230164,29.1263428,0.5807495,29.3310394
				c-0.0621033,0.2971039,0.1343689,0.5866852,0.4387817,0.6467133
				C275.1932068,190.976059,275.2346497,190.9796295,275.275238,190.978775z"/>
		</g>
		<path class="st1" d="M291.4718933,155.0623627c-7.1783142,4.9433594-15.2387085,15.9623413-14.3764343,17.161087
			c0.8622742,1.198761,11.082489-0.5928345,18.2608032-5.5362091c3.9456177-2.7171478,8.1260376-9.2600403,6.6772156-12.1534882
			C300.846405,152.1630554,294.7046509,152.8360901,291.4718933,155.0623627z"/>
		<path class="st1" d="M274.7368164,136.7232208c-3.2558899,6.5575714-4.6156921,17.9823151-3.4718323,18.5260315
			c1.1438599,0.5437775,7.9825134-4.8957825,11.2384033-11.4533539c1.7896118-3.6043854,2.1471558-10.1447449-0.1439514-11.7113647
			C280.4822388,130.8009186,276.2031555,133.769989,274.7368164,136.7232208z"/>
		<path class="st1" d="M263.5853271,118.0624008c-3.2558899,6.5575638-4.6156616,17.9823685-3.4718323,18.5260849
			c1.1437988,0.5437164,7.9825134-4.8957825,11.2384338-11.4534073c1.7895813-3.6043854,2.1471558-10.1446915-0.1439819-11.7113647
			C269.330719,112.1400909,265.0516663,115.1092224,263.5853271,118.0624008z"/>
		<path class="st1" d="M246.1056519,103.2866058c0.0567627,9.2139435,6.0214996,19.2783203,7.3984833,19.1560898
			c1.3769531-0.1221008,4.6226959-8.943718,3.8911896-16.8379822c-0.4020996-4.339119-3.8223267-10.624855-6.8544617-10.8247528
			C248.0564728,94.616127,246.0836639,99.7169189,246.1056519,103.2866058z"/>
		<path class="st1" d="M257.1911621,160.9604492c8.5103455,2.10466,20.0649414,9.5744171,19.6977844,10.9956818
			c-0.3671265,1.4212036-10.5662231,3.324295-19.0766602,1.219635c-4.6777344-1.1568298-10.9730072-5.8042145-10.6774292-9.0133667
			C247.3769531,161.5331421,253.3585663,160.0126343,257.1911621,160.9604492z"/>
		<path class="st1" d="M254.3953857,144.8452454c7.163147,2.0065308,16.7634888,8.6438446,16.4135132,9.8401337
			c-0.3500061,1.196228-9.0545654,2.54599-16.2177124,0.5395203c-3.9372406-1.1029053-9.1521454-5.2092133-8.8144379-7.9241486
			C246.0534821,145.0763245,251.1694946,143.9416199,254.3953857,144.8452454z"/>
		<path class="st1" d="M245.1095276,124.877182c6.8368225,2.8983154,15.4766235,10.697525,14.9710083,11.8392639
			c-0.5054932,1.1417389-9.3154755,1.3759003-16.1522369-1.5224152c-3.7578278-1.5930481-8.384613-6.3262329-7.690033-8.9754028
			C236.8073578,124.0480194,242.0305786,123.5719223,245.1095276,124.877182z"/>
	</g>
</g>
<path class="st0" d="M326.4786987,215.2547607c-11.8630066,2.3641052-27.021637,5.3117218-43.3807068,8.3014526
	c-26.2305603,4.7898865-46.1252747,11.624939-69.8462219,14.4069519
	c-12.6111298,1.478775-49.2187042,3.0193176-57.3691559,2.9674072
	c-36.0338745-0.2299652-113.6161194,3.9639893-128.7367706-28.0448303
	c-4.2079296-8.9072876,11.6558094-23.0520935,20.4405689-26.1258392
	c12.1587601-4.2533112,53.1258125-3.7958984,53.1258125-3.7958984l18.7422943-0.1334991l15.9370041-0.1113281l4.2255707-0.0296478
	l25.992981-0.1829376c0,0,91.2206421-4.1800385,121.3748779-0.860611
	c6.8193665,0.7507019,20.4187012,3.4944916,26.7183228,6.1574707c4.2846375,1.8111267,15.9673157,9.4661102,15.9673157,9.4661102
	C337.4672852,201.8938293,335.4125671,213.4742737,326.4786987,215.2547607z"/>
<g>
	<path class="st4" d="M149.7615967,109.7552185c0.0834656,0.9560852,0.0381622,1.2271729,0.1583099,2.2170258
		c0.214859,1.7705765,0.6470795,0.9713669,4.1936188,2.2133865c3.9738464,1.3916779,3.4463959,1.8722153,4.930481,3.705658
		c1.1419678,1.4107895,3.9917297,6.3821411,4.1444244,6.3622971c0.2030945-0.0264435,0.6787109-3.8450928,0.9798889-5.7174911
		c0.7209167-4.4825592,2.7296295-6.6571732,2.7918701-6.9687576c0.0889435-0.4458923-1.7475433-4.9409637-2.0036774-6.4975891
		c-0.0760956-0.4626541-0.038559-1.4191055-0.067276-2.0851135c-0.0085754-0.1979828,0.0650177-5.120697,0.0099487-5.1655121
		c-0.095871-0.0780945-2.0480804,2.4363937-3.7957458,2.5848846c-0.1579285,0.0134354-0.6353149,0.0737152-1.3938904,0.0269928
		c-2.8466187-0.1754837-6.7503357-4.4803314-7.1920013-4.952179c-2.1610413-2.3084946-3.1865234-3.8538361-3.1714783-3.4379654
		C149.4429016,94.7161026,148.8507538,99.3241577,149.7615967,109.7552185z"/>
	<path class="st4" d="M162.9733734,57.9371796c-0.6938782,0.1704941-1.1962128,0.8260231-1.8783875,1.3347893
		c-1.0363159,0.7728882-1.620224,1.4872208-2.3968811,2.4087181c-1.4820862,1.7586174,0.1076508-0.2058105-2.9680634,3.4297638
		c-2.3691864,2.8003159-2.7462006,3.2489853-2.7462006,3.2489853c-1.2302246,1.4642258-1.5410461,1.84552-2.1762848,2.4849625
		c-0.2359161,0.2374344-1.0534058,1.0508804-2.2617645,2.0312424c-1.2093048,0.9811707-1.5495453,1.1068497-2.6347046,1.9715805
		c-2.1104431,1.6818085-3.4280548,2.0705032-2.5906525,5.2024918c0.4181519,1.5639038,0.0228577,1.9514847,2.5571442,6.9328232
		c0.8359375,1.6432266,3.1775208,4.8565826,3.2342834,4.9247513c4.8341522,5.8066177,7.4662781,7.4879379,9.4063263,8.2080002
		c1.100647,0.4085464,1.6229401,0.4282074,2.1484985,0.2971039c1.2353973-0.3083191,2.0042419-0.8096313,2.4542847-1.1801376
		c3.39888-2.7975388,5.0056305-5.3186264,5.0056305-5.3186264c2.3657684-3.4908447,3.9168854-6.0968704,5.2182465-10.002861
		c1.4059753-4.2202225,1.4120331-6.4071045,1.3827972-8.8240814c-0.0210419-1.7361755,0.0873108-4.519783-1.0831299-7.8077774
		c-0.4208832-1.1822968-1.0951691-2.6709366-2.3718719-4.3441162c-0.3753967-0.4920654-1.7085571-2.8530121-4.5608368-4.0733376
		C164.7732544,58.0320435,163.2724152,57.8636475,162.9733734,57.9371796z"/>
	<path class="st5" d="M164.7555542,97.8278122c0.0003204,2.4025574-13.7044678,14.8487778-14.5132446,15.1365051
		c-0.0966339,0.0344009-2.4964905-6.9320145-3.2386932-9.440773l2.0855103-1.0858307
		c0.007431-0.6872101,0.0182648-1.3956833,0.0175171-2.1158142c-0.0029144-2.7689362-0.1050873-8.5682144,0.0538483-8.3717728
		c0.6449432,0.7971115,2.6136627,3.0635681,5.408432,5.491394c1.7277527,1.5009079,4.6905975,3.1733475,5.780899,3.0023651
		c0.8467102-0.1327667,1.4844818-0.4081116,2.2711487-0.9073868c1.0822144-0.6868973,2.0275574-1.7032013,2.1352844-1.7483826
		C164.76828,97.7830658,164.7555542,97.815918,164.7555542,97.8278122z"/>
	<path class="st5" d="M163.0044861,58.33358c0.3435822-0.0600357-3.4257812,11.2051239-9.8018646,16.8511734
		c-2.7164612,2.4054565-9.328598,6.7160339-9.6147156,6.073761c0,0-0.6498566-1.6358948-0.4638824-3.4495544
		c0.028656-0.2794037,0.3478394-1.2227859,2.0325775-2.4756546c1.4657593-1.0900803,1.7780304-1.2092285,2.7232666-1.9082184
		c1.5686951-1.1600342,2.4902496-2.0097885,3.2335358-2.8583069c0.9888153-1.1287308,1.1022797-1.2071381,2.6009827-3.0240631
		c0.8698425-1.0545731,5.6956177-6.7997398,6.9934387-7.9371605
		C161.9490814,58.5176315,162.6594696,58.3939247,163.0044861,58.33358z"/>
	<path class="st6" d="M164.7399292,98.0137177l4.06633,1.3246155c0,0,2.7026062,5.1692123,4.0482941,6.2057877
		c0.7927856,0.6106567,2.3413239,1.1543732,3.1530151,1.4690399c1.9580078,0.759079,7.6424713,2.0960236,7.6424713,2.0960236
		s-1.2543945-11.8321152-1.5717773-15.7848206c-1.2282715-15.293808-4.403656-32.7924995-6.9019012-38.2231827
		c-3.2326508-7.0269394-12.9485931-9.7502632-21.4949799-9.3674889c-7.4547424,0.3338966-11.037323,2.8852501-15.0194855,6.8923836
		c-7.5590057,7.6063461-7.6356659,27.5919724-7.6826477,37.0408859
		c-0.0921783,18.5525284,0.3610687,18.5454407,0.4626923,25.6960297c0.0861664,6.0587845,0.8504791,9.0767441,0.0108948,11.9487381
		c-0.1788483,0.6116409-0.9092712,1.7423477-1.7507629,1.8817673c-3.2006378,0.5302124-4.305687-1.751709-4.7725449-0.6694641
		c-2.2181778,5.1412354,15.1843338,13.5465393,20.4471207,3.708374c1.3509216-2.5253296,1.8048706-7.8067322,1.8217468-10.8271484
		c0.0205994-3.6900711-0.5819397-10.2123108-1.1638947-14.6067886c-0.173111-1.3075409-0.5197754-5.1641541-0.5197754-5.1641541
		s0.8784027-2.6657562,1.1373138-2.7893982c1.0419922-0.4977951,2.4826965-1.43927,2.4826965-1.43927
		s0.1645966-4.7087021,0.0561829-5.4494171c0,0-0.4547577-0.6060944-1.1373749-1.5966949
		c-0.5219116-0.7573547-0.9038391-1.3058167-1.4287262-2.1623459c-1.0193787-1.6635056-1.8389435-3.518837-2.1355133-4.2067184
		c-0.3807526-0.8832245-1.6618042-5.1428986-1.2964325-6.1328125c0.7348938-1.9907455,3.7019501-2.9712982,7.3845062-6.5741425
		c3.2059326-3.1366119,10.463501-12.846138,12.3770905-12.8772621c0.2223206-0.0035782,4.7637939-0.4043503,8.7926331,5.3589325
		c3.5723724,5.1103477,3.3680267,13.3843651,2.1929779,18.1444206c-1.1131744,4.509552-5.532959,12.3505554-8.9078522,15.6124191
		c-0.0979462,0.0946732-0.1916199,0.1858978-0.2877502,0.2726898L164.7399292,98.0137177z"/>
	<path class="st7" d="M149.1814117,91.9888382c-0.271759-0.3449326-1.0816193-1.4880219-1.9221039-2.7518616
		c-0.7509003-1.1293488-1.4731903-2.4047165-1.8646393-3.2196426c-0.4322815-0.8999252-1.0708008-2.1815186-1.442215-3.5733871
		c-0.3569946-1.3373718-0.6572876-2.5444412-0.6890411-2.7961121c-0.0173187-0.1369629-0.0165558,1.6577072,0.1435089,4.0166855
		c0.1615143,2.3797531,0.4381256,5.2361526,0.709198,7.2336807c0.3656769,2.6945953,1.3302612,10.5911407,1.3302612,10.5911407
		l0.5767212-1.4124527c0,0,0.2579041-0.939682,0.4625702-1.0575333c0.6385803-0.3676147,2.3783722-1.2505951,2.6394806-1.5810394
		C149.2302246,97.3053665,149.2308655,92.0515823,149.1814117,91.9888382z"/>
	<path class="st7" d="M174.2232361,80.6288757c-0.0417633,0.0935059-0.2308655,1.8097153-1.0882874,3.8292465
		c-0.9434814,2.2218933-2.2423706,4.8134918-3.1428833,6.3188324c-0.6559601,1.0963669-1.877121,2.9325867-2.5303802,3.8804092
		c-0.74617,1.0824966-2.0024109,2.4871216-2.7172089,3.137352c-0.0282898,0.0256424-0.0144806,0.2744751-0.0144806,0.2744751
		l4.0957184,1.1396408c0,0,2.6163788,5.0123367,4.0483093,6.2058487c0.9555054,0.7963715,2.1755829,1.1066666,2.1755829,1.1066666
		S174.6923065,79.5783005,174.2232361,80.6288757z"/>
	<path class="st7" d="M164.7120972,102.8540268c3.8411713,1.3914948,4.3202515,1.552803,4.3178558,1.6928406
		c-0.0354156,2.1293716-0.3400574,2.5090714-0.6334839,4.4068069c-0.0685425,0.4429932-1.6218567,2.522995-1.6218567,2.522995
		c-0.6458282-2.5250931-1.6800842-4.6347427-2.0170441-6.5468979
		C164.6501617,104.3202209,164.6606293,102.8354111,164.7120972,102.8540268z"/>
	<path class="st8" d="M149.1569061,97.2346039c-0.1431885,0.032608-2.3879547,1.3088989-2.5667267,1.4907303
		c-0.2949371,0.2999954-1.1562042,2.6381378-1.1437988,2.7640076c0.203476,2.0672379,0.7042236,6.5015335,1.0556641,9.40065
		c0.138092,1.1390839,0.2301788,2.2980194,0.3080444,3.2386246c0.1730499,2.090538,0.2605591,3.5973587,0.2605591,3.5973587
		s0.7158661,1.1775513,1.092514,1.1271286c0.8012238-0.1073151,2.1044006-5.8887863,2.1044006-5.8887863
		s-2.0518036-5.8302231-3.2196655-9.3953476c-0.0248871-0.0761261,0.4307556-0.2795944,0.9169464-0.5327454
		c0.4155884-0.2163467,1.1495361-0.5985107,1.1495361-0.5985107
		C149.1403961,102.0785446,149.192749,97.2264633,149.1569061,97.2346039z"/>
	<path class="st8" d="M168.8257141,99.2088318c0.2288055,0.0317459,1.4756012,3.3206024,4.1695099,6.2629929
		c0.2586517,0.2824249,1.2704773,2.4497681,1.2923431,2.6415863c0.2466736,2.1686401-0.9198608,5.8437271-1.8487091,7.5201111
		c-0.3214111,0.5800858-0.846405,1.141861-1.1031799,1.0939102c-0.2516632-0.0470352-0.4120331-0.5878525-0.5988159-1.2544174
		c-0.1237335-0.4416351-0.5404968-1.2872009-1.1470184-2.574707c-0.7517853-1.5960159-1.3575439-3.0800323-1.2337494-3.9546814
		c0.0782928-0.5529022,0.638443-3.2164993,0.661438-4.3537292c0.0039673-0.1928101-4.3216858-1.4610901-4.3266754-1.661293
		c-0.0633087-2.5558472-0.0462341-4.2898102,0.0391388-4.8594131
		C164.739502,98.0056381,168.8001404,99.2053146,168.8257141,99.2088318z"/>
	<path class="st8" d="M150.3055573,112.9606247c0.4968262-0.0149155,5.3379822,1.3114243,6.7011261,2.429924
		c2.098053,1.7215042,6.1117706,8.672142,6.1117706,8.672142s0.8450775-7.0026627,1.7024994-9.2663422
		c0.593338-1.5663681,3.5715637-5.9178772,3.5616608-5.7010956c-0.0429688,0.9440002,0.7265167,2.812767,1.5746155,4.2224426
		c0.9503479,1.5796814,1.1243286,3.2312851,1.4057312,3.3236237c0.8161011,0.2676392,3.0281067-6.0436172,2.8306122-8.2176208
		c-0.0696106-0.7660446-1.1603699-2.9085464-1.1603699-2.9085464c1.802597,1.375412,13.7472992,4.3192139,14.9153595,4.4624023
		c4.7757111,0.5853195,6.9010162,14.4122467,6.9010162,14.4122467l-12.3473053-0.0866623
		c0,0-2.3509674,13.565834-2.5356598,14.8586349c-0.5305481,3.7125702-20.8591766,7.8614197-40.3371124,0.7384338
		c-0.7120972-0.2603607-0.1153412-2.7619629,0.0132294-3.3305206c0.082016-0.3626251,5.8301697-0.0488129,7.1838074-9.8478394
		c0.3258667-2.3587341,0.5054016-5.2928009,0.2406921-8.9661026c-0.0146027-0.2031555,0.6905518,1.0986557,1.0636749,1.0988998
		C148.9892731,118.8552628,149.9806213,112.9703598,150.3055573,112.9606247z"/>
	<path class="st9" d="M139.5283356,139.7788391c0,0,3.0950623,2.1195221,10.7392273,1.9712677
		c6.8115082-0.131958,29.5978088-2.4993896,29.5978088-2.4993896l-6.218277,37.9521027
		c-7.6778107-1.0681458-14.6628113-2.273056-18.7745361-3.286087c-7.0339508-1.7330322-8.3725281-2.5218201-10.5762024-4.3078156
		C139.2864227,165.5487213,139.5283356,139.7788391,139.5283356,139.7788391z"/>
	<path class="st7" d="M139.6170959,182.6895294l-20.1625748,0.140976
		c-1.1676102-9.498291-3.6494217-32.6344604-1.0917664-40.1050262c0.4068832-1.1894379,4.7158585-1.3427277,4.7714844-0.9915771
		c4.2104492,26.8849792,6.9045029,34.7858276,7.4781723,35.9554901
		C132.0125427,180.5430908,137.3905945,182.1381073,139.6170959,182.6895294z"/>
	<path class="st1" d="M180.475296,201.3498077c-14.6250763,4.1064301-42.5795441-2.7831116-55.7400436-14.3834686
		c-1.267334-1.1170807-3.1368942-2.4229584,10.6562729-4.2471619l4.2255707-0.0296478l25.992981-0.1829376
		c30.4486237,1.4935608,72.2219543,4.2260742,73.4223785,7.9873352
		C240.9279327,196.4288025,198.9701385,196.1567993,180.475296,201.3498077z"/>
	<path class="st8" d="M131.2702789,108.3605804c0,0-5.3619385,1.217865-6.4523773,2.5080261
		c-2.2366943,2.6464539-3.299675,9.9382629-3.2148056,13.3714142c0.2645798,10.7054901,3.1906891,32.0796509,5.994133,42.430954
		c0.8956604,3.3072205,1.7451477,10.7905426,4.4730835,12.9308777c7.8933716,6.193161,40.236557,5.956955,40.236557,5.956955
		l1.3402252-8.3559875c0,0-21.6789246-2.5942535-28.9965363-8.1880341
		c-4.8579712-3.7136078-4.9721069-24.0747375-4.9449005-32.6726074c0.0004425-0.1452179-2.8143463,1.4784088-9.5277863-1.3439178
		c-3.2646408-1.3724365-6.3722992-4.8706818-5.0603714-6.4863586c0.4891586-0.6024017,2.4568787,1.6270752,5.1744766,0.4485474
		c2.0618744-0.8941956,1.684845-5.1439438,1.4464722-9.572876
		C131.5155792,115.2481003,131.3900299,111.0750961,131.2702789,108.3605804z"/>
	<polygon class="st3" points="228.0226593,187.5001831 228.7571259,184.5433807 171.5233612,188.5899048 171.2176361,191.9895172 	
		"/>
	<polygon class="st3" points="154.9345398,184.8540344 162.8119812,185.3428345 171.5233612,188.5899048 171.2176361,191.9895172 	
		"/>
	<polygon class="st3" points="172.0401611,185.559494 162.8119812,185.3428345 171.5233612,188.5899048 	"/>
	<polygon class="st3" points="182.4010468,124.2536469 240.4943237,124.6509705 228.7571259,184.5433807 171.5233612,188.5899048 	
		"/>
	<path class="st1" d="M240.4943237,124.6509705l-11.7371979,59.8924103l-57.2337646,4.046524
		c0,0,26.1625671-24.2538147,34.8834381-32.3384094C214.9286957,148.3513184,240.4943237,124.6509705,240.4943237,124.6509705z"/>
</g>
<g>
	<path class="st1" d="M127.3291855,240.3653564c-0.5435028-0.6138-1.0886078-1.2537994-1.6200867-1.90242l0.8080902-0.6338959
		c0.5232315,0.6385193,1.0598831,1.2685852,1.59478,1.8726501L127.3291855,240.3653564z"/>
	<path class="st1" d="M124.1479492,236.5448608c-0.5202026-0.6212616-1.0639191-1.2470856-1.6161957-1.8600159l0.7769165-0.6701965
		c0.560524,0.6220551,1.1124878,1.257309,1.6405716,1.8880615L124.1479492,236.5448608z"/>
	<path class="st1" d="M120.8480301,232.8805542c-0.5648117-0.5847626-1.1520538-1.1728668-1.7456512-1.7481384l0.7287216-0.7200623
		c0.6017914,0.5830383,1.1972198,1.1792755,1.7697754,1.77211L120.8480301,232.8805542z"/>
	<path class="st1" d="M117.2989578,229.4398193c-0.6040573-0.5492706-1.2286987-1.1003113-1.856514-1.6377411l0.6817932-0.7627869
		c0.6356812,0.5440216,1.26828,1.1019745,1.8798904,1.6582031L117.2989578,229.4398193z"/>
	<path class="st1" d="M113.5363388,226.2183838c-0.6337891-0.5117188-1.2901917-1.0267029-1.9510727-1.5304871l0.6366348-0.7994537
		c0.6684265,0.5096893,1.3323975,1.0305481,1.9736328,1.5481873L113.5363388,226.2183838z"/>
	<path class="st1" d="M109.5920486,223.2093658c-0.6614456-0.4773254-1.3451233-0.95755-2.0320282-1.4273682l0.5934143-0.8306427
		c0.6940765,0.4746857,1.3850021,0.960022,2.0533752,1.4425354L109.5920486,223.2093658z"/>
	<path class="st1" d="M105.4923401,220.4045563c-0.6896057-0.4473114-1.3964691-0.8943176-2.1011276-1.3286133l0.5519638-0.8575287
		c0.711525,0.4385681,1.4252548,0.8898773,2.1214142,1.341507L105.4923401,220.4045563z"/>
	<path class="st1" d="M101.2594681,217.7951508c-0.7092514-0.41539-1.4359665-0.8305817-2.1600952-1.2340088l0.5125275-0.8806305
		c0.730484,0.4069977,1.4638748,0.8259583,2.1794968,1.2450409L101.2594681,217.7951508z"/>
	<path class="st1" d="M96.9128952,215.3728027c-0.7249527-0.3843231-1.4687347-0.7689362-2.2108154-1.14328l0.4746017-0.9007874
		c0.7483215,0.3774872,1.4984589,0.7653656,2.2296448,1.1529541L96.9128952,215.3728027z"/>
	<path class="st1" d="M31.5815029,213.8403473l-0.7779865-0.6690369c0.2824059-0.3142853,0.5641804-0.6303711,0.8464603-0.9469452
		c0.2681065-0.3007355,0.5367184-0.6020355,0.8068371-0.9030151l0.7782402,0.6688385
		c-0.2693672,0.3000641-0.5372849,0.6004944-0.8046341,0.9004211
		C32.1472664,213.2081757,31.8646641,213.525116,31.5815029,213.8403473z"/>
	<path class="st1" d="M92.4685364,213.1302643c-0.7430878-0.3567657-1.5016708-0.7119904-2.254776-1.0559998l0.4381943-0.9182892
		c0.7589722,0.3467102,1.5236588,0.704834,2.27285,1.0643768L92.4685364,213.1302643z"/>
	<path class="st1" d="M87.9393997,211.0609894c-0.7534866-0.3274231-1.5247955-0.6541748-2.2928238-0.9712372l0.4026566-0.9337158
		c0.7739563,0.3194733,1.5512543,0.648819,2.3105316,0.978775L87.9393997,211.0609894z"/>
	<path class="st1" d="M34.9046707,210.1733246l-0.7588997-0.6896667c0.6278687-0.6613922,1.2081757-1.2427673,1.7740593-1.7772369
		l0.7193375,0.729126C36.086895,208.9571381,35.5195618,209.5255127,34.9046707,210.1733246z"/>
	<path class="st1" d="M83.3365555,209.1601105c-0.7687912-0.3014069-1.5532684-0.6010437-2.3316345-0.8904877l0.3678894-0.9473267
		c0.7842255,0.2916107,1.5744934,0.5933838,2.3489685,0.8970795L83.3365555,209.1601105z"/>
	<path class="st1" d="M78.6573563,207.420105c-0.7824554-0.2753906-1.5774536-0.5474701-2.3628693-0.8087616l0.3333054-0.9595184
		c0.791214,0.2632446,1.5920105,0.5372314,2.3801346,0.8146667L78.6573563,207.420105z"/>
	<path class="st1" d="M38.4786186,206.8254852l-0.6576653-0.7829437c0.6760597-0.5437164,1.3672485-1.0463715,2.0543861-1.493927
		l0.5739479,0.8435822C39.7910614,205.8209534,39.1279678,206.3032227,38.4786186,206.8254852z"/>
	<path class="st1" d="M73.9173737,205.8435822c-0.7931061-0.2485962-1.5974197-0.4931183-2.3906555-0.7267303l0.2985992-0.9704437
		c0.7990265,0.2353363,1.6091385,0.4815826,2.4079742,0.7319641L73.9173737,205.8435822z"/>
	<path class="st1" d="M69.1234665,204.4316101c-0.8022385-0.2210236-1.6148071-0.4372559-2.4153366-0.6427612l0.2628021-0.9802399
		c0.8064575,0.2069855,1.6251526,0.4248047,2.4333038,0.6475677L69.1234665,204.4316101z"/>
	<path class="st1" d="M42.5590553,204.1799469l-0.4718323-0.9021454c0.7583885-0.3797607,1.5488472-0.7193298,2.3493233-1.0092163
		l0.3594551,0.9504089C44.0338173,203.4950104,43.2811546,203.8183746,42.5590553,204.1799469z"/>
	<path class="st1" d="M64.2840118,203.1921844c-0.8250427-0.1910248-1.6440887-0.3644714-2.4344978-0.5154877l0.1984978-0.9946594
		c0.803688,0.153595,1.6362915,0.329895,2.4745636,0.5240479L64.2840118,203.1921844z"/>
	<path class="st1" d="M47.1339836,202.5189667l-0.2469406-0.9841919c0.8084145-0.1943359,1.653614-0.3520203,2.5118561-0.4686279
		l0.1425056,1.0037231C48.7181778,202.1818695,47.9081917,202.3328857,47.1339836,202.5189667z"/>
	<path class="st1" d="M59.3982086,202.2640839c-0.8383484-0.121048-1.6678009-0.2190552-2.4651871-0.2911682l0.0953178-1.0090942
		c0.8160286,0.0737762,1.6642532,0.1739502,2.5211716,0.2977142L59.3982086,202.2640839z"/>
	<path class="st1" d="M51.9892464,201.8484039l-0.050396-1.0121765c0.8229675-0.0392609,1.6836014-0.0471497,2.5497169-0.0236664
		l-0.0285988,1.013031C53.6198692,201.8030243,52.7859421,201.8104858,51.9892464,201.8484039z"/>
</g>
<g>
	<g>
		<path class="st1" d="M115.4869232,222.4859161c0.800087-0.4141541,1.5877151-0.7668457,2.3408203-1.048233l0.3694611,0.9468384
			c-0.713974,0.2667694-1.4628677,0.6022797-2.2261124,0.9972534L115.4869232,222.4859161z M120.3337479,220.7374725
			c0.9674683-0.1685791,1.8661499-0.1902161,2.6711578-0.0641632l-0.1637192,1.0007019
			c-0.6901703-0.1080475-1.4727554-0.0874634-2.3258972,0.061203L120.3337479,220.7374725z M125.5212402,221.7579651
			c0.3636627,0.2938232,0.6937561,0.646225,0.9810181,1.0473633c0.1403503,0.1960144,0.2728271,0.4069366,0.3939056,0.6268005
			c0.075592,0.1367798,0.1543961,0.275589,0.236618,0.4156952l-0.8985062,0.5042114
			c-0.0864944-0.1478119-0.1698303-0.2941437-0.249649-0.4387512c-0.1022415-0.1856537-0.2133636-0.3626251-0.330658-0.5264587
			c-0.2337723-0.3264313-0.5003662-0.6116333-0.7922897-0.8473511L125.5212402,221.7579651z M128.4715424,225.8625488
			c0.4701233,0.6359863,0.9854279,1.2740173,1.5316467,1.8960114l-0.7854156,0.6604004
			c-0.5651245-0.6433258-1.0984955-1.3036652-1.5855179-1.9625854L128.4715424,225.8625488z M131.6874237,229.5297546
			c0.5912018,0.574646,1.2042084,1.1235504,1.8220673,1.6314545l-0.6662292,0.7759705
			c-0.6397858-0.5259094-1.2742615-1.0940399-1.8858795-1.6884155L131.6874237,229.5297546z M135.4666138,232.6234589
			c0.6983643,0.4704285,1.4030151,0.8892059,2.0940094,1.2446747l-0.4820404,0.8970184
			c-0.7272034-0.3740845-1.4672089-0.8137512-2.1992798-1.3069153L135.4666138,232.6234589z M139.7881165,234.8152161
			c0.7977753,0.2653503,1.5831299,0.4429932,2.3342896,0.5279236l-0.1186981,1.0066223
			c-0.8242798-0.0930023-1.6819-0.2864838-2.5490265-0.5751495L139.7881165,234.8152161z M159.1558228,222.7163239
			c0.7047272-0.453537,1.4393005-0.8876648,2.1831665-1.2901611l0.5011749,0.8869781
			c-0.7208557,0.3899231-1.4325104,0.8104858-2.1151123,1.2499084L159.1558228,222.7163239z M157.0804596,224.1698303
			l0.6357422,0.8000641c-0.6497345,0.4941559-1.2847748,1.0186462-1.8873749,1.55867l-0.6995087-0.7473755
			C155.7523956,225.2228699,156.4087982,224.6806946,157.0804596,224.1698303z M163.6149902,220.3018646
			c0.7642365-0.3432007,1.5558929-0.6652679,2.3527832-0.9570618l0.3629761,0.9491119
			c-0.7735748,0.2832947-1.5419922,0.595871-2.2837524,0.9290314L163.6149902,220.3018646z M153.3182831,227.5433197
			l0.760025,0.688446c-0.5588226,0.590683-1.0968018,1.2094727-1.5988617,1.8391113l-0.8165436-0.6234741
			C152.1828613,228.7953796,152.7397919,228.1547699,153.3182831,227.5433197z M168.3826752,218.5539856
			c0.8036194-0.2333679,1.6323853-0.4445496,2.4632874-0.6276703l0.2275391,0.988739
			c-0.8084106,0.1781464-1.6146851,0.3835297-2.3962555,0.6104736L168.3826752,218.5539856z M144.47789,235.2988281
			c0.7723846-0.1251831,1.5179901-0.3670654,2.2159119-0.7189484l0.474411,0.9010315
			c-0.7939758,0.4002228-1.6421967,0.6753082-2.5210419,0.8178253L144.47789,235.2988281z M150.1835327,231.4622498
			l0.8457642,0.5850067c-0.5303497,0.7339325-1.1049805,1.384964-1.7080383,1.9351501l-0.7062988-0.741272
			C149.1663513,232.7381134,149.6940002,232.1396637,150.1835327,231.4622498z M173.3442078,217.4579773
			c0.8259277-0.1283875,1.67453-0.2344055,2.5218811-0.3149109l0.1000977,1.008667
			c-0.8266144,0.0785828-1.6541138,0.1818848-2.4593811,0.3070831L173.3442078,217.4579773z M178.4011383,216.9751587
			c0.8344116-0.0317383,1.6888123-0.0412292,2.5389252-0.0281677l-0.0163727,1.0133514
			c-0.8313446-0.0127563-1.6665955-0.0035248-2.4823151,0.0275421L178.4011383,216.9751587z M183.4754791,217.0507965
			c0.8304596,0.0548553,1.6800842,0.1315918,2.5252838,0.2279968l-0.1200104,1.0065613
			c-0.8285065-0.0944824-1.6611786-0.169693-2.4750671-0.2233734L183.4754791,217.0507965z M188.5106049,217.6231079
			c0.8210754,0.1311035,1.6590271,0.2835388,2.4907532,0.4528656l-0.2109833,0.9921417
			c-0.8171692-0.1663666-1.6402588-0.3160248-2.446579-0.4447937L188.5106049,217.6231079z M193.4691162,218.6299744
			c0.80513,0.1974945,1.6268311,0.4156342,2.4424896,0.6484528l-0.2900848,0.9729004
			c-0.8029327-0.2292328-1.611969-0.443924-2.4042664-0.6383362L193.4691162,218.6299744z M198.3150635,219.9727173
			c0.790329,0.2167816,1.6026459,0.4240112,2.4143982,0.6158905l-0.2432861,0.9851227
			c-0.8238525-0.1947174-1.6484528-0.4050903-2.4508057-0.6251526L198.3150635,219.9727173z M203.1665344,221.1209259
			c0.8054657,0.1618652,1.6312561,0.313736,2.4548492,0.4516296l-0.1745605,0.9988556
			c-0.8347931-0.1396179-1.6720734-0.2935791-2.488678-0.4576721L203.1665344,221.1209259z M208.0909119,221.9462128
			c0.8168488,0.1107025,1.651535,0.2112274,2.4808655,0.2988892l-0.1110077,1.0075378
			c-0.8397217-0.0886993-1.6849823-0.1904602-2.5120392-0.3026428L208.0909119,221.9462128z M213.0616455,222.4719238
			c0.8191223,0.0632477,1.6587067,0.1163788,2.4954071,0.1579742l-0.052536,1.0121765
			c-0.8463287-0.042099-1.6955719-0.0959015-2.5243225-0.1598358L213.0616455,222.4719238z M218.0565033,222.7216187
			c0.82164,0.0196075,1.6631927,0.0290375,2.5013428,0.0281677l0.0011292,1.0134125
			c-0.8468475,0.0009155-1.6973419-0.0086365-2.5276642-0.0284729L218.0565033,222.7216187z M223.0589905,222.7168732
			c0.8270569-0.0208282,1.6681671-0.051651,2.499939-0.0915833l0.0508423,1.0122223
			c-0.8399048,0.0403748-1.6890869,0.0714417-2.5241394,0.092453L223.0589905,222.7168732z M228.0558624,222.477417
			c0.8245392-0.058075,1.6631927-0.1260529,2.4927673-0.20224l0.0966949,1.0090179
			c-0.8369446,0.0768127-1.6832123,0.1454773-2.5150604,0.2039642L228.0558624,222.477417z M288.1714478,181.6888275
			l1.0150452,0.2014313c-0.1511841,0.7295532-0.2860413,1.5118713-0.4124146,2.3915863l-1.0256348-0.140976
			C287.8777161,183.2407684,288.0160522,182.4386597,288.1714478,181.6888275z M233.0362396,222.0207977
			c0.8191223-0.0923462,1.6538544-0.1949158,2.4811096-0.3049316l0.1395416,1.0041504
			c-0.8342438,0.1110229-1.6759796,0.2145081-2.5022278,0.3075867L233.0362396,222.0207977z M287.4402161,186.5945282
			l1.029541,0.1112061c-0.0469971,0.415863-0.0923767,0.8329163-0.1379089,1.2507019
			c-0.0432129,0.3968353-0.0864868,0.7944031-0.1312866,1.1925354l-1.0295105-0.1107788
			c0.0445862-0.3970032,0.0877991-0.7934723,0.1309509-1.1891937
			C287.3476257,187.4299164,287.393219,187.0117035,287.4402161,186.5945282z M237.9912872,221.3619995
			c0.8176727-0.125,1.6473694-0.2599945,2.4658051-0.4011536l0.179657,0.9981232
			c-0.8249207,0.1421967-1.6611786,0.2783051-2.4856415,0.4044037L237.9912872,221.3619995z M242.9140167,220.5137177
			c0.8090973-0.154892,1.6323853-0.3203278,2.4473419-0.4918671l0.2177734,0.9907837
			c-0.8211212,0.1728973-1.6508942,0.3396301-2.4661865,0.495697L242.9140167,220.5137177z M286.8691101,191.463562
			l1.026001,0.1388092c-0.1263733,0.8941956-0.2606812,1.6961212-0.4107361,2.4515533l-1.0166626-0.1932373
			C286.6141052,193.1234283,286.7453918,192.339386,286.8691101,191.463562z M247.7984467,219.4862061
			c0.8063354-0.1847382,1.6245117-0.3798828,2.4317932-0.579834l0.2542419,0.9823914
			c-0.813324,0.2015076-1.6374664,0.3980713-2.4498749,0.5841522L247.7984467,219.4862061z M252.651001,218.2840576
			c0.8023682-0.2138214,1.6129913-0.4373169,2.4094849-0.6643372l0.2896576,0.9729767
			c-0.8023071,0.2286682-1.6188354,0.4538422-2.427002,0.6691437L252.651001,218.2840576z M285.905426,196.2120819
			l0.9977722,0.2719574c-0.2348633,0.8248444-0.5061035,1.6246185-0.8063965,2.3769684l-0.9647217-0.3686523
			C285.4197083,197.7716064,285.6799622,197.0043945,285.905426,196.2120819z M257.4575195,216.9138947
			c0.7952881-0.241684,1.5974121-0.493103,2.3840942-0.7471161l0.3245544,0.9624176
			c-0.7923584,0.2558746-1.6003113,0.509079-2.4013672,0.7524872L257.4575195,216.9138947z M262.2116699,215.3786011
			c0.7866821-0.2693634,1.5789795-0.5485229,2.355072-0.8297272l0.3596191,0.9504089
			c-0.7818298,0.2832336-1.5801086,0.5645599-2.3725586,0.8358917L262.2116699,215.3786011z M284.1151123,200.6697388
			l0.9154358,0.473877c-0.3983765,0.7368927-0.8465881,1.4588165-1.3321533,2.1456451l-0.8517456-0.5765686
			C283.30896,202.0587769,283.7357483,201.3713684,284.1151123,200.6697388z M266.901947,213.6764984
			c0.7877502-0.3067627,1.5602417-0.6245728,2.2961731-0.9447327l0.4206543,0.9260712
			c-0.74823,0.3255005-1.5334778,0.6485596-2.3338928,0.9602661L266.901947,213.6764984z M281.3423157,204.5987244
			l0.7795105,0.6674194c-0.5481873,0.6129913-1.1478882,1.2166901-1.7823792,1.7940521l-0.7053528-0.7420044
			C280.2426758,205.7642517,280.8174438,205.1857605,281.3423157,204.5987244z M271.4476624,211.6934052
			c0.7576294-0.3715668,1.4942932-0.7569885,2.1896973-1.1456757l0.5137329,0.8800049
			c-0.7116699,0.3977051-1.4650269,0.7919464-2.2394104,1.1716919L271.4476624,211.6934052z M277.7592468,207.8739624
			l0.6348572,0.8006744c-0.6509399,0.4941711-1.3511963,0.9838867-2.0743713,1.4509888l-0.5705872-0.8457489
			C276.4504395,208.8266449,277.1289673,208.3523407,277.7592468,207.8739624z"/>
	</g>
	<g>
		<path class="st1" d="M112.4552231,224.3092499c0.2577133-0.176651,0.5190811-0.3500977,0.7803192-0.5177612l0.5679016,0.8474731
			c-0.3382874,0.2171478-0.6770706,0.4444122-1.0075455,0.6761169l-0.6031723-0.8239288
			C112.2797241,224.4302521,112.367218,224.3695984,112.4552231,224.3092499z"/>
	</g>
</g>
<path class="st0" d="M288.1374512,9.9882669c2.0172119-0.2803946,3.8848267,1.0924854,4.1713257,3.0663433l5.8903809,40.5790749
	c0.2865295,1.9738579-1.1165161,3.8012619-3.1337891,4.0815964l-41.4718323,5.7635307
	c-2.0172882,0.2803955-3.884903-1.0924835-4.1713867-3.0662804l-5.8904114-40.5791397
	c-0.286499-1.9738579,1.1165924-3.8012619,3.1338043-4.0815344L288.1374512,9.9882669"/>
<path class="st3" d="M280.9334717,26.5370407c0.9550171,5.8291168-3.0986938,11.3134232-9.057312,12.2483635
	c-5.9581299,0.9351807-11.5618286-3.033062-12.5175781-8.8614979c-0.9564514-5.830534,3.0992126-11.3145962,9.056427-12.2494717
	C274.3735046,16.7390671,279.9776611,20.7071857,280.9334717,26.5370407z"/>
<path class="st3" d="M284.6352539,44.1856346c0.1062317,0.7206802-0.4096069,1.3953171-1.1460571,1.4991798l-22.0048828,3.1034508
	c-0.7365112,0.1038589-1.4259338-0.4007759-1.5320129-1.1214561l-0.0679626-0.4617996
	c-0.1061707-0.7206802,0.4096375-1.3953171,1.1461792-1.499176l22.0046082-3.1033287
	c0.7364502-0.1038589,1.4259338,0.4007149,1.532074,1.1213951L284.6352539,44.1856346z"/>
<path class="st3" d="M292.7651672,51.2455559c0.1061401,0.7206154-0.4095764,1.3952522-1.1460571,1.499176l-35.3031921,4.9794273
	c-0.7364807,0.1038589-1.4259491-0.4007149-1.5321655-1.1213951l-0.068222-0.4628448
	c-0.1061401-0.7206802,0.4095459-1.395256,1.1460724-1.4991188l35.3033752-4.9786835
	c0.7365417-0.1038628,1.4260254,0.4007759,1.5321045,1.1214561L292.7651672,51.2455559z"/>
<path class="st5" d="M271.7802734,32.191967c0,0,4.5633545,3.6598015,5.6328125,2.6125565
	c0.6480713-0.6346321-1.0062866-14.5844078-8.2726746-13.3598919c-7.831665,1.3198719-4.9242554,15.2737141-4.1995544,15.2895565
	c1.3988037,0.0306969,4.4732056-4.2133789,4.4732056-4.2133789l-0.1300354-0.8955498
	c-2.2359314-0.9224243-2.9933167-3.496273-3.0361633-3.7348785c-0.1871643-1.0419407-0.9744568-2.8911037,0.6827393-4.541296
	c0.774353-0.77104,2.3765564-1.4419155,4.0770874-1.0070553c0.0559387,0.0143013,3.4913635,0.972784,2.8509521,5.4528122
	c-0.3443298,2.4089661-2.1734314,3.5656796-2.1958618,3.5881157L271.7802734,32.191967z"/>
<path class="st5" d="M274.6086731,33.1585846c0.4848633-1.1548004-1.0002441-3.6250992-1.1479492-3.7672997
	c-0.3384094-0.3257599-4.663208,0.0089378-6.2286072,0.4954529c-0.1825867,0.0567703-0.5577698,2.5774879-0.4036255,3.4358063
	C267.3452454,36.2000275,273.9267578,34.7826424,274.6086731,33.1585846z"/>
<path class="st10" d="M271.0513611,32.6881561l-0.726532,0.1009674c-0.4527283,0.0629311-0.8719788-0.2452011-0.9362793-0.6882591
	l0,0c-0.0643311-0.4430599,0.2506409-0.8532047,0.7033997-0.9161377l0.7265015-0.1009636
	c0.4528198-0.062933,0.8719788,0.2451992,0.9363098,0.6882572v0.0000629
	C271.8190613,32.2150803,271.5041504,32.6252251,271.0513611,32.6881561z"/>
<path class="st10" d="M274.1440735,25.7399292c0.2831116,2.2197971-0.9159851,5.756073-3.5584412,6.14748
	c-2.4118958,0.3572578-4.3726501-2.9248829-4.6556702-5.144495c-0.2832642-2.2196121,1.3262634-4.2430878,3.5945129-4.520155
	C271.7927551,21.945694,273.8609314,23.519886,274.1440735,25.7399292z"/>
<path class="st10" d="M277.5653992,36.0783501c-4.6185913,4.0452919-10.3200684,3.0115471-12.893158,1.4036407
	c-0.1816101-0.1134796,1.4511108-4.4914932,3.9403992-4.7903824l3.7648926-0.4521179
	C274.8668213,31.9406033,277.7259216,35.9377518,277.5653992,36.0783501z"/>
<path class="st5" d="M270.1165771,22.0785866c0,0,0.0440369,0.0997925,0.0857849,0.2799625
	c0.3004456,1.2968178,0.9391479,4.9364643-3.8385925,6.4050694c-0.2313538,0.0711308-1.3114624-2.6627941-0.5941467-4.2189274
	C266.5004883,22.959343,268.3088074,21.7338409,270.1165771,22.0785866z"/>
<path class="st5" d="M274.5416565,27.005743c0,0-4.3896179-2.7514935-4.6164551-4.6861496
	c-0.0799561-0.6819096,1.5670471-0.4375725,3.0386658,0.8512325C274.4967957,24.513195,274.5416565,27.005743,274.5416565,27.005743
	z"/>
<g>
	<path class="st0" d="M344.6372986,101.3649521l-27.2112122,3.8074265c-1.6553955,0.2316437-3.1892395-0.8936386-3.4259338-2.513382
		l-3.8912354-26.625412c-0.2366638-1.6197433,0.9133606-3.1205902,2.5687256-3.3522263l27.2112122-3.8074265
		c1.6553955-0.231575,3.1892395,0.8936996,3.4259033,2.513443l3.8912048,26.6254196
		C347.442688,99.6325378,346.2926636,101.1333771,344.6372986,101.3649521z"/>
	<path class="st1" d="M336.102478,85.3191528c0.6541443,3.9681778-2.1023254,7.7047806-6.1586914,8.3450851
		c-4.0559692,0.6405487-7.8739624-2.0577469-8.5285339-6.0254974c-0.6550903-3.969162,2.1026306-7.7055817,6.1580505-8.3458862
		C331.6296082,78.6522446,335.4478455,81.3504791,336.102478,85.3191528z"/>
	<path class="st7" d="M329.874115,89.175148c0,0,2.7565308,2.8265686,3.1504517,1.8952103
		c0.7935486-1.8765945-0.0083313-10.0493393-4.9548645-9.2109299c-2.8762207,0.487442-3.7651978,3.1727982-3.0907288,5.7333908
		c0.5359192,2.0343857-1.2887268,3.8769531-1.0615234,3.8817062c0.3826294,0.0080109,1.5747681,1.0406418,2.3670349,0.6390686
		c1.1798401-0.5979004,1.9788513-2.713028,1.9788513-2.713028l-0.0891113-0.6097336
		c-1.5229797-0.6265564-2.0403442-2.3785782-2.0697021-2.5409317c-0.1280823-0.709343-0.6653442-1.9678802,0.4619446-3.0924835
		c0.5266113-0.5254059,1.6170654-0.9832001,2.775177-0.6881943c0.038147,0.0096741,2.3777771,0.6600876,1.9447632,3.7107773
		c-0.2328796,1.6403885-1.477478,2.4291229-1.4927368,2.4444046L329.874115,89.175148z"/>
	<path class="st11" d="M331.8005676,89.8314819c0.3293457-0.7865143-0.6834412-2.4675293-0.7840881-2.5642395
		c-0.2306213-0.2215881-3.1749573,0.0090027-4.240509,0.3412323c-0.1242065,0.0387726-0.3780212,1.7552261-0.272522,2.3395615
		C326.8571777,91.9068527,331.3373718,90.9377136,331.8005676,89.8314819z"/>
	<path class="st10" d="M329.3633728,89.5186005l-0.4945679,0.0691605c-0.3082581,0.0431442-0.5938721-0.1664276-0.63797-0.4680252
		l0,0c-0.0441589-0.3015366,0.1699829-0.5810699,0.4782104-0.6241531l0.4946899-0.0692215
		c0.3082275-0.0431442,0.5938416,0.1663666,0.6379395,0.4680252l0,0
		C329.8857117,89.1959839,329.6716003,89.4754562,329.3633728,89.5186005z"/>
	<path class="st10" d="M331.4793091,84.7806778c0.1942749,1.5111923-0.619812,3.9196701-2.4187012,4.1878586
		c-1.6419678,0.2447662-2.9791565-1.9886475-3.1733093-3.4997253c-0.1942749-1.5110779,0.9002686-2.8898087,2.444397-3.0799026
		C329.875885,82.1988754,331.2850952,83.2693558,331.4793091,84.7806778z"/>
	<path class="st3" d="M333.8155823,91.817543c-3.1419373,2.757225-7.0245361,2.0570068-8.7774963,0.9638443
		c-0.1237183-0.0771713,0.9850464-3.0590057,2.679657-3.2640839l2.5631409-0.3101654
		C331.9754944,89.0020065,333.9248352,91.721756,333.8155823,91.817543z"/>
	<path class="st7" d="M325.7332764,83.5950546c0,0,0.0372925-0.064415,0.1202087-0.1605682
		c0.5964355-0.6921463,2.3543701-2.5260773,5.1313171-0.5901947c0.134491,0.0937576-1.0693359,1.1605377-2.2276306,1.418251
		C327.5770874,84.5251846,326.2842407,84.6972809,325.7332764,83.5950546z"/>
	<path class="st7" d="M331.7508545,85.6423264c0,0-4.0352478-0.4153824-4.9006042-1.1834641
		c-0.6506653-0.5776215,1.821167-1.4389572,1.7543335-2.0042496c-0.0548706-0.4642029,1.0667114-0.2988815,2.069519,0.5776215
		C331.718689,83.9452896,331.7508545,85.6423264,331.7508545,85.6423264z"/>
	<path class="st7" d="M325.0241394,86.481102c0,0,0.9019165-0.9847412,1.8262329-1.8938522
		c0.5063477-0.4981003,1.2610474-0.831871,1.3154602-1.298172c0.0541687-0.464325-1.0671387-0.2974014-2.0686951,0.580513
		C325.0539551,84.7840652,325.0241394,86.481102,325.0241394,86.481102z"/>
	<path class="st1" d="M337.7918091,95.2986526l-0.0548401-0.3800659c-0.0855713-0.5916672-0.650238-1.0073624-1.2549438-0.9237213
		l-23.2758484,3.2185974l0.3698425,2.5304565l23.271759-3.2174835
		C337.4524841,96.4428558,337.8773193,95.8903198,337.7918091,95.2986526z"/>
	<g>
		<path class="st1" d="M329.6365051,100.1119003c-0.0402527-0.2789154,0.1600037-0.5394669,0.4451294-0.5788498
			l13.6656494-1.8897247c0.2851257-0.0393829,0.5513306,0.1565628,0.5916443,0.4355392l0.0259094,0.179184
			c0.0403137,0.2789841-0.1600037,0.5394669-0.4450684,0.5788498l-13.6658325,1.8894196
			c-0.2850647,0.0393829-0.5512695-0.1565628-0.5915833-0.4355392L329.6365051,100.1119003z"/>
	</g>
</g>
<path class="st0" d="M103.8106918,4c10.9961929,0,19.9098358,8.7218227,19.9098358,19.4812374
	c0,6.9957523-3.7680969,13.1285-9.429245,16.5633221c-0.8491669,0.5168419-1.7438354,0.9717979-2.6738281,1.3600578
	c-2.3958817,1.0015068-5.0368729,1.5554543-7.8067627,1.5554543c-10.9961853,0-19.9098282-8.7218208-19.9098282-19.4788342
	C83.9008636,12.7218227,92.8145065,4,103.8106918,4"/>
<g>
	<path class="st1" d="M96.7777023,12.6916199c-4.8276749,2.6669245-6.5317535,8.6582737-3.8061523,13.382082
		c2.4733658,4.2865448,7.7419434,6.0439281,12.3039093,4.341959l-1.464386-2.5379772
		c-3.1230927,0.9488068-6.6061401-0.3187332-8.2792206-3.2183437c-1.92733-3.3402042-0.7223511-7.5767593,2.6913376-9.4625978
		c3.4136887-1.8857756,7.7434387-0.7068119,9.6707077,2.6333933c1.6730728,2.8996105,0.9830933,6.4724388-1.4604721,8.5988522
		l1.4644394,2.5380383c3.8459091-2.9428806,5.0296326-8.2646484,2.5563278-12.5511913
		C107.7285309,11.6920242,101.6053848,10.0246344,96.7777023,12.6916199z"/>
	<path class="st1" d="M114.2912827,40.0445595c-0.8491669,0.5168419-1.7438354,0.9717979-2.6738281,1.3600578l-6.3409348-10.9894505
		c0.4650269-0.1730824,0.9249649-0.3708801,1.3722839-0.6181755c0.4473267-0.2448292,0.8567886-0.5292301,1.2485046-0.8308907
		L114.2912827,40.0445595z"/>
	<path class="st1" d="M105.2025681,27.2927322c-0.4502869,0.2487736-0.9170151,0.4407787-1.3914948,0.5849514l1.464386,2.5379772
		c0.465332-0.1735764,0.925766-0.3709431,1.3725891-0.6178055c0.4468842-0.2468643,0.8574829-0.5306492,1.2498169-0.8308296
		l-1.4644394-2.5380383C106.0621338,26.7520981,105.652916,27.0439587,105.2025681,27.2927322z"/>
</g>
</svg>
