<?xml version="1.0" encoding="utf-8"?>
<!-- Generator: Adobe Illustrator 23.0.3, SVG Export Plug-In . SVG Version: 6.00 Build 0)  -->
<svg version="1.1" id="Слой_1" xmlns="http://www.w3.org/2000/svg" xmlns:xlink="http://www.w3.org/1999/xlink" x="0px" y="0px"
	 width="249.2240601px" height="244px" viewBox="0 0 249.2240601 244" style="enable-background:new 0 0 249.2240601 244;"
	 xml:space="preserve">
<style type="text/css">
	.st0{fill:#8CD3AC;}
	.st1{fill:#FFFFFF;}
	.st2{fill:#71D3AC;}
	.st3{fill:#2ED3AC;}
	.st4{fill:#EAAD8C;}
	.st5{fill:#95504C;}
	.st6{fill:#AE5955;}
	.st7{fill:#F16663;}
	.st8{fill:#C0615E;}
	.st9{fill:#F9E8CA;}
	.st10{fill:#D3BD98;}
	.st11{fill:#D57E70;}
	.st12{fill:#FECFC9;}
	.st13{fill:#9E3054;}
	.st14{fill:#722843;}
</style>
<g>
	<g>
		<path class="st0" d="M230.2952728,88.293541c-16.8690796-21.3707352-7.3110504-13.9124374-8.9386139-36.2728767
			c-0.5731964-7.8748131-3.1347198-13.0525818-7.2248383-15.9174652v20.0459633l-22.625824-20.3460617
			c-0.0892029,0.0305672-0.1777496,0.0598412-0.2672729,0.0909691
			c-29.2317352,10.1639709-11.7336731,1.6611023-42.8330383-27.0971184
			c-22.2483597-20.5735207-84.7531967,0.5266638-117.4440994,6.9937649
			c-5.6679935,1.1212788-10.5075665,3.4309063-14.3376923,6.6032391l25.4123516-3.6860371
			c0.8381424-0.1215897,1.6227913,0.4689732,1.7436676,1.3123245l0.0775642,0.5417252
			c0.1208725,0.84338-0.466053,1.6328468-1.3041916,1.7544098l-30.0947914,4.3644753
			C7.5967093,32.9222984,5.6244254,41.1110001,7.337049,49.8330994
			c5.4471211-6.4215012,13.5488071-10.4941559,22.5968151-10.4941559c16.4017868,0,29.6980743,13.3790245,29.6980743,29.8829117
			S46.3356514,99.1047745,29.9338646,99.1047745c-1.3059177,0-2.5918846-0.0856094-3.8532543-0.2500687
			c-0.1268787,1.992836-0.3479424,4.1652069-0.6778812,6.560379c-3.3635273,24.414505,0.8229065,34.0197754,6.9920044,43.3403168
			c8.2856712,12.5181732,16.1101761,17.7518616,31.9354897,20.836319
			c14.9998627,2.9235382,29.9724579-4.6612854,42.4225922,3.8153229
			c10.4059982,7.0848083,10.2274399,21.1917877,24.4348373,27.0953674c1.8476105,0.7677155,3.6833801,1.4403229,5.5066681,2.0247955
			c-0.2036591-1.4128265-0.3110046-2.8570251-0.3110046-4.3265686c0-16.503891,13.2962799-29.8829346,29.6980438-29.8829346
			c14.098999,0,25.903183,9.8859863,28.9399414,23.1447144c10.6852875-7.9677124,19.7290344-18.5975952,26.5721283-29.9710388
			c4.5272827-7.5245209,24.6930695-23.6667786,26.7213745-30.1458435
			C252.982132,116.436615,238.5719604,98.779068,230.2952728,88.293541z"/>
		<path class="st1" d="M166.0813751,168.3177185c-16.4017792,0-29.6980591,13.3790283-29.6980591,29.8829193
			c0,1.4695892,0.1073456,2.9137726,0.3110046,4.3265686c21.9435272,7.0341797,42.0424194,1.0781097,58.3269806-11.0647736
			C191.9845428,178.2037201,180.1803894,168.3177185,166.0813751,168.3177185z"/>
		<path class="st2" d="M166.0813751,168.3177185c-16.4017792,0-29.6980591,13.3790283-29.6980591,29.8829193
			c0,1.4695892,0.1073456,2.9137726,0.3110046,4.3265686c21.9435272,7.0341797,42.0424194,1.0781097,58.3269806-11.0647736
			C191.9845428,178.2037201,180.1803894,168.3177185,166.0813751,168.3177185z"/>
		<ellipse class="st1" cx="165.9928589" cy="89.5579834" rx="29.6980858" ry="29.8829174"/>
		<path class="st1" d="M16.571537,126.9307785c-0.1208286-0.8433914,0.4660912-1.6328812,1.3042603-1.7544327l25.0418091-3.6319122
			c0.8381386-0.1215973,1.6227074,0.4689941,1.7434769,1.3123856l0.0773544,0.5404434
			c0.1207619,0.8433914-0.4662056,1.6328964-1.3043671,1.7544556l-25.0415401,3.6318359
			c-0.8381672,0.1215668-1.622776-0.4690094-1.7435894-1.3124008L16.571537,126.9307785z"/>
		<path class="st1" d="M15.9338665,118.6686554c-0.1207991-0.8433533,0.4661217-1.6328735,1.3042603-1.754425l40.1754456-5.8274307
			c0.8381615-0.1215515,1.6227913,0.4690018,1.7436447,1.312355l0.0776253,0.5417099
			c0.1208534,0.8433762-0.4660301,1.6328506-1.3041916,1.7544174l-40.1757317,5.8264542
			c-0.8381596,0.1215591-1.6227684-0.4690247-1.7435741-1.3124008L15.9338665,118.6686554z"/>
		<path class="st1" d="M43.8574753,20.5619678l-0.0775642-0.5417252c-0.1208763-0.8433514-0.9055252-1.4339142-1.7436676-1.3123245
			l-25.4123516,3.6860371c-1.5607042,1.2926884-2.9523697,2.7296028-4.1654005,4.2868977l30.0947914-4.3644753
			C43.3914223,22.1948147,43.9783478,21.4053478,43.8574753,20.5619678z"/>
		<path class="st1" d="M43.8574753,20.5619678l-0.0775642-0.5417252c-0.1208763-0.8433514-0.9055252-1.4339142-1.7436676-1.3123245
			l-25.4123516,3.6860371c-1.5607042,1.2926884-2.9523697,2.7296028-4.1654005,4.2868977l30.0947914-4.3644753
			C43.3914223,22.1948147,43.9783478,21.4053478,43.8574753,20.5619678z"/>
		<g>
			<path class="st1" d="M32.5681229,27.4569511c-0.0569649-0.397625,0.2197723-0.7698669,0.6149406-0.8271751l18.9416199-2.7474709
				c0.3951645-0.0573063,0.76511,0.221117,0.8220825,0.618742l0.0365944,0.2554054
				c0.0569763,0.3976116-0.2197189,0.7698288-0.6149025,0.8271351l-18.9417534,2.7470245
				c-0.3951683,0.0573063-0.76511-0.221117-0.8220634-0.618742L32.5681229,27.4569511z"/>
		</g>
		<path class="st2" d="M207.7196045,64.3752899l-0.0776367-0.5417137c-0.1208191-0.8433838-0.9054565-1.4339256-1.7436218-1.312355
			l-0.1237793,0.0179596l-0.0048828-0.0338402l-32.2563477,4.6779709c-0.83815,0.1215515-1.4250183,0.9110336-1.3041992,1.7543945
			l0.0776215,0.5417099c0.1208649,0.8433838,0.9055176,1.4339066,1.7436523,1.312355l0.1237793-0.0179596l0.0049133,0.0338211
			l32.2563019-4.677948C207.2535706,66.0081329,207.8404541,65.2186508,207.7196045,64.3752899z"/>
		<g>
			<path class="st2" d="M196.4302216,71.2702408c-0.0569611-0.3976212,0.2197723-0.7698593,0.6149292-0.8271561l18.9416351-2.747467
				c0.3951721-0.0573273,0.7651215,0.2211227,0.8220825,0.6187515l0.0365906,0.2553711
				c0.0569611,0.3976288-0.219696,0.7698441-0.6148834,0.8271637l-18.9417725,2.7470093
				c-0.3951569,0.0573196-0.7650757-0.2211227-0.8220367-0.6187592L196.4302216,71.2702408z"/>
		</g>
		<path class="st1" d="M59.6319389,69.2218552c0-16.5038643-13.2962875-29.8829117-29.6980743-29.8829117
			c-9.0480385,0-17.149662,4.0726547-22.5967922,10.4941559c0.4396458,2.2390518,1.1198297,4.512825,2.0584302,6.7980766
			c8.4815998,20.6506538,18.0331173,21.0488167,16.6851082,42.2235298c1.261385,0.1644592,2.5473366,0.2500687,3.8532543,0.2500687
			C46.3356514,99.1047745,59.6319389,85.7257538,59.6319389,69.2218552z"/>
		<path class="st2" d="M59.6319389,69.2218552c0-16.5038643-13.2962875-29.8829117-29.6980743-29.8829117
			c-9.0480385,0-17.149662,4.0726547-22.5967922,10.4941559c0.4396458,2.2390518,1.1198297,4.512825,2.0584302,6.7980766
			c8.4815998,20.6506538,18.0331173,21.0488167,16.6851082,42.2235298c1.261385,0.1644592,2.5473366,0.2500687,3.8532543,0.2500687
			C46.3356514,99.1047745,59.6319389,85.7257538,59.6319389,69.2218552z"/>
		<path class="st1" d="M214.1318207,36.103199c-5.302887-3.7143669-13.1768036-3.5380974-22.625824-0.3000984l22.625824,20.3460617
			V36.103199z"/>
		<path class="st3" d="M214.1318207,36.103199c-5.302887-3.7143669-13.1768036-3.5380974-22.625824-0.3000984l22.625824,20.3460617
			V36.103199z"/>
		<polygon class="st0" points="225.5340118,69.2218552 245.2641602,86.9640121 245.2641602,51.4796982 		"/>
		<path class="st1" d="M121.4834061,174.7883301c-2.6134033,0.4256287-6.1200256,0.5780334-9.5621872,0.1744995l9.375061,2.5078583
			C121.3624649,176.5683899,121.4258881,175.6721802,121.4834061,174.7883301z"/>
		<path class="st1" d="M104.8411179,173.0689087c2.0753784,1.0035095,4.5596313,1.598465,7.080101,1.8939209
			L104.8411179,173.0689087z"/>
		<path class="st1" d="M145.7273254,173.3238831c-0.1141357,0.0596619-0.2320709,0.1174011-0.3500824,0.1751099l0.3404236-0.0371094
			C145.7207489,173.4162903,145.7242584,173.369339,145.7273254,173.3238831z"/>
		<rect x="-0.088525" y="146.0951385" class="st3" width="62.7090416" height="28.8676872"/>
		<polygon class="st2" points="18.5555592,155.1099091 0.9231263,174.9628296 36.1879807,174.9628296 		"/>
		<ellipse class="st1" cx="48.89217" cy="160.5289764" rx="7.3688235" ry="7.414681"/>
		<path class="st2" d="M244.7980957,144.5008392h-48.6893311c-1.8125763,0-3.2819824-1.4785614-3.2819824-3.3024292v-0.7333374
			c0-1.8238678,1.4693756-3.3023834,3.2819519-3.3023834h48.6893616c1.8125916,0,3.2819824,1.4785461,3.2819824,3.3024292v0.7332916
			C248.0800781,143.0222778,246.6106873,144.5008392,244.7980957,144.5008392z"/>
		<path class="st2" d="M230.8049011,155.0275726h-34.696106c-1.8126068,0-3.2820129-1.4785461-3.2820129-3.3024445v-0.7332916
			c0-1.8238678,1.4693909-3.3023987,3.2819519-3.3023987h34.696106c1.8126373,0,3.2820282,1.4785461,3.2820282,3.3024445v0.7332916
			C234.0868683,153.5490417,232.6174774,155.0275726,230.8049011,155.0275726z"/>
		<ellipse class="st3" cx="50.0926933" cy="44.7474823" rx="15.0336456" ry="15.1272068"/>
		<g>
			<path class="st1" d="M44.2688484,34.1717606c-3.6454201,2.0709229-4.9321861,6.7233734-2.8740463,10.3915024
				c1.8676453,3.3286324,5.8459816,4.6933136,9.2907944,3.3716888L49.579792,45.964119
				c-2.3582458,0.7367668-4.9883461-0.2475281-6.2516975-2.4991379c-1.4553337-2.5937614-0.5454674-5.883522,2.0322418-7.3479309
				c2.5777206-1.4643669,5.8471451-0.5488319,7.302475,2.044899c1.2633591,2.2516174,0.7423401,5.026001-1.1028099,6.6772003
				l1.1057968,1.9708405c2.9040527-2.2851677,3.7979279-6.417717,1.9302979-9.7463112
				C52.5379295,33.3955498,47.9142723,32.1007957,44.2688484,34.1717606z"/>
			<path class="st1" d="M50.6855965,47.9349518l5.139431,9.1597252c0.3086967,0.5501823,1.0023003,0.7443962,1.5490952,0.4337769
				c0.5467491-0.3105965,0.7397919-1.0085411,0.4311028-1.558712l-5.1394272-9.1597519
				c-0.2962494,0.2331047-0.6063232,0.4535103-0.9437294,0.6452141
				C51.3846436,47.6468887,51.036972,47.8001518,50.6855965,47.9349518z"/>
			<path class="st1" d="M50.6305504,45.5098839c-0.340004,0.1931648-0.6924362,0.342289-1.0507584,0.4542351l1.1058044,1.9708328
				c0.3513756-0.1348,0.6990471-0.288063,1.0364723-0.4797478c0.3374062-0.1917038,0.64748-0.4121094,0.9437294-0.6452141
				l-1.1057968-1.9708405C51.2795982,45.0900879,50.9705925,45.3167152,50.6305504,45.5098839z"/>
		</g>
	</g>
	<g>
		<g>
			<path class="st4" d="M69.9171448,103.8710175c0.3073425-0.2839661,2.7616959-2.258194,2.0866318-2.711998
				C58.404705,92.016983,60.4847221,89.4992981,58.0929756,88.7930069
				c-8.0404587-2.3744583-13.5316582-11.9502792-13.1727562-15.2247467
				c-3.3825417,2.2267151-2.4150162,6.118309,2.2893219,11.2451172c3.4268494,3.7345886,5.9983063,5.7314148,8.6830406,6.0915451
				c0.0460892,0.0952759,9.6521034,11.344986,12.5030785,13.6671524
				C69.2215958,104.6020355,69.6326218,104.133873,69.9171448,103.8710175z"/>
		</g>
		<path class="st4" d="M73.5904541,96.0193634c-1.2989883-1.7941742-9.7705612-6.6791458-12.8049393-9.3382645
			c1.4028358-3.4980698-4.2794075-13.0033417-6.2089462-12.2337952c0.0558624,0.0001297-0.449955,0.524498,1.1110153,2.2163315
			c1.3231087,1.4340668,1.8854027,2.8816223,1.5577126,3.0983734c-0.136322,0.0901566-0.617382,0.2983856-0.9695396-0.0210342
			l-0.000206-0.000206c-0.9459-0.1403275-7.2384682-8.6548767-11.1209641-6.3226242
			c-0.081295,0.0488281-0.1575775,0.0995712-0.2343674,0.150116c-0.358902,3.2744675,5.1322975,12.8502884,13.1727562,15.2247467
			c2.3917465,0.7062912,0.3117294,3.2239761,13.9108009,12.3660126c0.6750641,0.453804-1.7792892,2.4280319-2.0866318,2.711998
			c-0.284523,0.2628555-0.8783722,0.3849945-1.7043076,0.3550415c0.0762253,0.0620575,0.1488647,0.1194687,0.2153702,0.1689072
			C70.3518677,105.824791,75.1632462,98.1917267,73.5904541,96.0193634z"/>
		<path class="st4" d="M57.2452965,79.7620087c0.3276901-0.2167511-0.2346039-1.6643066-1.5577126-3.0983734
			c-1.5609703-1.6918335-1.0551529-2.2162018-1.1110153-2.2163315c-0.0114059,0.0045319-0.023037,0.0085297-0.0341835,0.0137863
			c-0.0077553,0.0039215-0.0170975,0.0086441-0.0277596,0.0140686c-0.0249939,0.0134583-0.0496902,0.0277863-0.0732346,0.0451431
			c-0.9439507,0.6949921,2.6950722,4.5782318,1.9127388,5.2052536c-0.0195312,0.0156631-0.046154,0.0200119-0.0785789,0.015213
			l0.000206,0.000206C56.6279144,80.0603943,57.1089745,79.8521652,57.2452965,79.7620087z"/>
		<g>
			<path class="st5" d="M139.0073395,43.5948601c-0.0052948-1.7331429-0.3818817-5.4847336-0.6085815-7.2028046
				c-0.0771179-0.5845413-0.7702942-3.0093422-0.7702942-3.0093422s-0.8381348,5.6192818-1.0554962,7.1793747
				c-0.1845551,1.3246651-1.1516876,3.6253624-1.8547821,4.760582c-0.3364105,0.5431557-0.6779633,1.160778-0.8621674,1.5528221
				c-0.2733307,0.5816689-0.3931122,2.0257301-0.5216675,2.5005722c-0.0065918,0.0243759,0.2942505,0.0033455,0.7244415-0.0353279
				c0.802887-0.1481934,2.0284576-0.5013809,2.7144623-0.2241173c0.0015411,0,0.0034485-0.0000496,0.0049744-0.0000496
				C137.0574951,49.1163979,139.0142975,45.869442,139.0073395,43.5948601z"/>
			<g>
				<path class="st6" d="M111.7943802,49.9520035c1.0860901,1.133667,4.1179581,0.5733986,7.2995453,0.2588081
					c-0.5928421-0.7971497-1.8861237-4.173378-1.8801193-6.1347771c0.0052719-1.7331581,0.1333771-5.4296646,0.3600616-7.1477394
					c0.0771408-0.5845413,0.6044388-3.0145416,0.6044388-3.0145416s0.8381195,5.6192856,1.0554886,7.1793785
					c0.1845322,1.3246613,1.7417221,3.522438,2.444809,4.6576462c0.3364334,0.5431824,0.7268982,0.6485863,0.9111023,1.0406418
					c0.2410431,0.5129967,0.3399963,2.3335304,0.4481888,3.0821571c3.8356094,0.2496223,6.5752182-0.1542931,10.6424637-0.4783134
					c0.109436-0.0087051,0.2376556-0.028553,0.3784332-0.0545273c-0.430191,0.0386734-0.7310333,0.0597038-0.7244415,0.0353279
					c0.1285553-0.4748421,0.2483368-1.9189034,0.5216675-2.5005722c0.1842041-0.3920441,0.5257568-1.0096664,0.8621674-1.5528221
					c0.7030945-1.1352196,1.6702271-3.4359169,1.8547821-4.760582c0.2173615-1.5600929,1.1211853-6.3443527,1.1211853-6.3443527
					s0.4195709,1.8813972,0.4966888,2.4659271c0.2266998,1.718071,0.6213531,5.1799316,0.541214,6.9111977
					c-0.0662689,1.4310074-1.9670868,5.6459503-1.9538269,5.5217094c0.0001526-0.0015411-0.0034332,0.0000496-0.0049744,0.0000496
					c0.1272583,0.0514488-0.2284698,2.3381577,0.3612213,2.362545c4.837677,0.2001495,9.7133636-0.8481674,9.7266693-2.2383537
					c0.0579376-6.0541954,3.9315033-36.2292938-17.8620758-36.2326889
					C108.6934586,13.0049267,108.2587357,46.2614975,111.7943802,49.9520035z"/>
				<path class="st5" d="M121.6786041,45.7507782c-0.7030869-1.1352081-2.2602768-3.3329849-2.444809-4.6576462
					c-0.2173691-1.5600929-1.0554886-7.1793785-1.0554886-7.1793785s-0.527298,2.4300003-0.6044388,3.0145416
					c-0.2266846,1.7180748-0.3547897,5.4145813-0.3600616,7.1477394c-0.0060043,1.9613991,1.0809708,5.0386086,1.6738358,5.8357582
					c1.1540527-0.1141281,2.3701019-0.1741676,3.6006546-0.0764542c0.1867752,0.0148468,0.3679886,0.0264244,0.5495987,0.0382385
					c-0.1081924-0.7486267-0.2071457-2.5691605-0.4481888-3.0821571
					C122.4055023,46.3993645,122.0150375,46.2939606,121.6786041,45.7507782z"/>
			</g>
		</g>
		<path class="st7" d="M139.9246521,91.1911621c-1.5611267,0.5362015-6.6124268,2.0932922-12.7559357,2.1380768
			c-2.5915756,0.0189056-10.0397949-1.1495056-11.3938828-1.3655319c-0.137825-0.0220108-0.2129364-0.0341949-0.2129364-0.0341949
			s1.7661362,9.7322464,2.6752167,12.9255142c5.7663422,1.723877,17.5229416,0.8162842,20.8402786-0.0201416
			c0.000473-0.0068588,0.0019836-0.0134354,0.0024261-0.0202942c0.0084686-0.14254,0.0192413-0.3032074,0.0320282-0.4794159
			c0.0786438-1.0848618,0.2341003-2.7696609,0.411438-4.5807266c0.0642242-0.6560135,0.1313324-1.3283615,0.1987305-1.994957
			C139.4341278,97.5150681,139.7078857,95.2817383,139.9246521,91.1911621z"/>
		<path class="st8" d="M140.0217438,136.4627686c-1.6950531-5.832962-0.1605988-29.434227-0.3588104-31.8453979
			l-0.6885986,0.0962067c0,0-2.4993896,25.8195648,0.5926819,33.719635
			c0.4762878,1.2168884,12.5487366-0.0393524,13.8790894-1.0997772c-0.013855-0.6177521-0.0790253-1.0498199-0.2089233-1.2485504
			C151.4210815,133.3061523,140.5386505,138.2415924,140.0217438,136.4627686z"/>
		<path class="st4" d="M124.2635727,237.5706787c-0.1841965-1.2362366,1.7314072-2.7368469,1.6879425-6.5861359
			c-0.0259018-2.2929688-0.0633163-5.874649,0-9.0108032c0.013588-0.6734161,0.3626099-1.1585388,0.3477631-1.7934113
			c-0.0108414-0.4638519-0.5517273-1.2350616-0.5651169-1.7059174c-0.4539795-15.9282379-1.8166962-35.2470703-2.9270554-36.4806213
			c-1.0092239-1.1212006-7.5295181-10.5994873-7.5295181-10.5994873l-0.172142-1.9325256l0.9703827,0.2595673
			c-0.3482361-0.1683807-0.682724-0.3505096-0.9978485-0.5498352c1.1110992,13.2472534,3.768364,31.1186523,3.7501984,48.0790863
			c-0.0005341,0.4989014-0.5305252,2.2359009-0.5354538,2.7287445c-0.0061417,0.6148224,0.3199997,2.43573,0.3066025,3.046051
			c-0.0892181,4.0678711-0.3432388,8.0023804-0.8155441,11.3577423c0.0001068,0.0001984,0.0001984,0.0002899,0.0003052,0.0005188
			c1.646904,3.2315369,5.5953674,6.0923767,9.1446991,1.8440247
			C125.9064255,237.0798492,124.3624115,238.234375,124.2635727,237.5706787z"/>
		<path class="st9" d="M128.852829,171.0414124c-2.0064392,0.326767-4.698616,0.4437714-7.3413162,0.1339722l7.1976395,1.9253845
			C128.7599792,172.4080505,128.80867,171.7199707,128.852829,171.0414124z"/>
		<path class="st10" d="M116.0758286,169.721344c1.5933533,0.7704315,3.5006332,1.2272186,5.4356842,1.4540405
			L116.0758286,169.721344z"/>
		<path class="st11" d="M128.5818634,233.6347809c-0.9557648-2.9513855-1.5385971-6.701416-1.8529892-10.9606781
			c-0.0405121-0.5488129,0.0526505-2.2965393,0.0208359-2.8616028c-0.0266342-0.4728394-0.588089-2.2835388-0.6089554-2.7669983
			c-0.6085663-14.1259918,1.5704956-30.3395844,2.5683975-43.9447327l-7.1976395-1.9253845
			c-1.935051-0.2268219-3.8423309-0.683609-5.4356842-1.4540405l-0.9703827-0.2595673l0.172142,1.9325256
			c0,0,6.5202942,9.4782867,7.5295181,10.5994873c1.1103592,1.233551,2.4730759,20.5523834,2.9270554,36.4806213
			c0.0133896,0.4708557,0.5542755,1.2420654,0.5651169,1.7059174c0.0148468,0.6348724-0.3341751,1.1199951-0.3477631,1.7934113
			c-0.0633163,3.1361542-0.0259018,6.7178345,0,9.0108032c0.0434647,3.8492889-2.0431366,5.6611023-2.1953049,6.9768219
			c-0.0770721,0.6665955,2.1502151-0.8815155,3.1725769-1.7336884c0.5639877-0.6750946,1.1179657-1.5284576,1.6509399-2.5895996
			C128.5804291,233.6367645,128.581192,233.6360474,128.5818634,233.6347809z"/>
		<path class="st9" d="M147.4659119,169.9170837c-0.0876312,0.0458069-0.1781464,0.0901489-0.2687836,0.1344452l0.2613678-0.0284882
			C147.4608612,169.9880371,147.4635468,169.9519958,147.4659119,169.9170837z"/>
		<path class="st4" d="M140.3839417,237.9300079c1.4345398-1.5652161,2.7676697-3.2897949,2.7241974-7.1390686
			c-0.0258942-2.2929688-0.0923004-6.2934265-0.0289764-9.4295654c0.0135803-0.6734467,1.2755127-1.7709351,1.2606506-2.4058075
			c-0.0108643-0.4638519-0.8125458-1.6287384-0.8259583-2.0996094c-0.453949-15.9282227,0.762619-34.7221527-0.3477631-35.955719
			c-0.8452148-0.9389801-7.4807281-4.7491455-9.262085-6.0908813c1.0571136,12.8752136,3.0071411,27.9917603,2.8138733,41.5362701
			c-0.0071716,0.5007935-0.6423035,2.1975555-0.6544189,2.6882019c-0.013855,0.5607147,0.1720886,2.2187347,0.1513977,2.7651215
			c-0.1777496,4.6925049-0.614212,8.836731-1.4220886,12.0730743c0.1227722-0.1502991,0.2331848-0.1820984,0.3135681-0.0302582
			c3.9876099,7.5339966,8.8890381,4.3402252,10.7654724,0.6389618c-0.0534668-0.331955-0.1039276-0.6665039-0.1530151-1.0022888
			c-0.5276184,1.0450287-1.0755615,1.8879395-1.6333618,2.5556183
			C143.0630341,236.8862457,139.9317932,238.4233398,140.3839417,237.9300079z"/>
		<path class="st9" d="M145.4595642,231.5285187c0.0057678,0.6102753,0.0723419,1.1922607,0.2291718,1.7422791
			C145.6064453,232.6962738,145.5297394,232.1163177,145.4595642,231.5285187z"/>
		<path class="st10" d="M145.7363586,233.4444427c0.0007019-0.001297,0.0014648-0.0020142,0.0021362-0.0032959
			c-0.0182037-0.0562286-0.0335236-0.1134491-0.0497589-0.1703491c0.009903,0.0693054,0.0199432,0.1385193,0.0300598,0.2076416
			C145.7246246,233.4668884,145.7305298,233.4560547,145.7363586,233.4444427z"/>
		<path class="st11" d="M144.9350281,218.8391571c-0.0072632-0.4785919-0.3308868-2.0970306-0.3343811-2.5809937
			c-0.1181335-16.3209839,1.9968262-33.625946,2.8578491-46.2351227l-0.2613678,0.0284882
			c-3.7186279,1.8179626-9.8851471,2.3695374-13.515213,1.8979492c0.0679626,0.9391479,0.1427765,1.8938599,0.2220917,2.8598785
			c1.7813568,1.3417358,8.1125793,5.9829865,8.9577789,6.9219818c1.1103973,1.233551,0.0630188,19.3845367,0.5169983,35.3127747
			c0.0133972,0.4708557,0.4176788,1.1149597,0.4285278,1.5788116c0.0148468,0.6348877-0.7145691,2.0650024-0.7281494,2.7384491
			c-0.063324,3.1361389,0.0030823,7.1365967,0.0289764,9.4295654c0.0434723,3.8492737-1.2896576,5.5738525-2.7241974,7.1390686
			c-0.4521484,0.4933319,2.6790924-1.0437622,3.7014923-1.8959503c0.5578003-0.6676788,1.1057434-1.5105896,1.6333618-2.5556183
			c-0.0101166-0.0691223-0.0201569-0.1383362-0.0300598-0.2076416c-0.1568298-0.5500183-0.2234039-1.1320038-0.2291718-1.7422791
			c-0.3658905-3.0652618-0.5713196-6.3280945-0.6617737-9.9636536
			C144.7845001,221.0297546,144.9432678,219.3817749,144.9350281,218.8391571z"/>
		<path class="st7" d="M153.4481049,137.3272858c-1.3303375,1.0603943-13.4027557,2.3166351-13.8790588,1.0997467
			c-3.0920563-7.9000854-0.5926971-33.7196503-0.5926971-33.7196503s-14.4703369,1.7489548-20.2366943,0.0250778
			c-0.1809692-0.0540924-0.3557053-0.1113129-0.5254669-0.1709671c0.3330917,2.4261627,2.8482285,20.9759903,2.7981186,27.5605164
			c-0.0101471,1.3356781,0.4852066,3.7326202-0.4926529,4.6358948c-2.0706482,1.9126892-8.9491959,1.2675018-10.9266052,0.9883728
			c0.251236,5.7563782,1.6533356,24.1287994,3.5612564,29.699646c0.0952682,0.2780914,0.191658,0.5269165,0.28936,0.7380219
			c2.0239487,4.3740692,13.6951294,5.2012177,18.4897308,5.1323547c0.019577-0.0002747,0.0404816-0.0006561,0.0603638-0.0009613
			c2.1035767-0.0324097,5.8146973-0.2058563,9.2900238-0.8094788c4.2328644-0.7351685,8.1142578-2.1083527,8.3093567-4.6416931
			c0.0000916-0.0011139,0.0001831-0.0022583,0.0002747-0.0033417c0.3188782-4.1362305,1.3858948-10.9024658,2.317276-17.1424408
			C152.7637024,145.003479,153.5019684,139.7334137,153.4481049,137.3272858z"/>
		<path class="st3" d="M155.2289886,135.7728271c-0.3111877-3.1197357-5.5277405-24.1157837-5.5277405-24.1157837
			s-2.127182-14.2315369-1.5791626-18.9547653c0.2477722-2.1358566,1.9941864-6.1357956,2.5065765-8.223465
			c1.3612213-5.5464554,3.1299286-16.6801758,2.7241669-22.6873665c-0.0465088-0.6888542-0.9950256-1.8212051-1.6229095-2.0996132
			c-1.3527527-0.5998383-3.99086-1.08284-6.6856537-1.4477081c0.2411957,0.1116905,0.4321899,0.2297859,0.5562286,0.3541603
			c4.6033478,4.6159515,1.1737213,25.1952629-0.7390137,31.4065742c-0.8064423,2.6187592-2.6082764,7.5235901-5.0704346,7.7802887
			c-0.0263367,0.0027466-0.6656799,0.0177841-0.6861115,0.0004196c-0.0673828,0.6665878-0.8995514,32.7832794,0.8924866,38.9500732
			C140.5143585,138.5144806,155.2772675,136.256958,155.2289886,135.7728271z"/>
		<path class="st4" d="M122.0662842,46.2576561c0,0,0.0012894,0.0013313,0.0035629,0.0038414
			c0.1911621,0.2129707,1.0851517,1.0233459,2.4960098,1.9262543c0.1156769,0.0740089,1.9899445,1.1185837,4.3960266,1.0498085
			c3.4056396-0.0973511,5.3369293-2.4031067,5.7201691-2.9083977c0.0842743-0.1314888,0.1725922-0.2571564,0.2680054-0.372242
			c6.3467712-7.6548157,1.2149963-28.0759163-6.1729126-27.8489151c-7.5929947,0.2332783-11.1515045,4.899395-11.5633545,12.7725906
			c0,0,0-2.0121288-1.7823029-1.7788353c-2.36483,0.3095417-1.0175476,8.5141602,1.3475952,8.8212509
			c0.7789612,0.1011314,0.9117355-0.3388748,0.8853836-0.7283173c0.741745,3.1877403,1.8380203,6.2192078,4.3529053,9.0028191
			c0.0400238,0.0443268,0.0774689,0.0932236,0.1141663,0.1433182c-0.0314636-0.0447845-0.0536118-0.0705299-0.0616913-0.0793343
			C122.0675735,46.2589874,122.0662842,46.2576561,122.0662842,46.2576561z"/>
		<path class="st6" d="M128.9990692,18.0605736c0,0-5.6775665,2.2855511-7.6555023,5.3255978
			c-3.2571487,5.0061741-2.724205,8.6025581-3.8588943,8.4003849c-0.3631973-0.0647182-0.9304047-6.2475643-0.2708817-7.8463116
			c0.5768967-1.3985825,2.5368347-3.8525467,3.7674866-4.7241058c1.090477-0.7723179,5.7672043-1.6913586,5.7672043-1.6913586
			L128.9990692,18.0605736z"/>
		<path class="st7" d="M137.7128448,57.4995766c-0.0095978-0.0201111-0.0193024-0.0400543-0.0289764-0.0600166
			c-0.0251312-0.0113907-0.0484924-0.023304-0.0741425-0.0345192c-0.0001221-0.0000648-0.0001831-0.0000916-0.0003052-0.0001411
			C137.6460266,57.4345245,137.6799011,57.4666595,137.7128448,57.4995766z"/>
		<path class="st7" d="M139.9246521,91.1911621c0.1505585-2.8408661,0.2732086-6.5736084,0.1597137-11.1625824
			c-0.1861572-7.5269394,0.0742188-16.0904694-1.910141-21.4321594c0.3700562,3.6854935-5.9780579,12.6432343-9.7738495,12.6432343
			c-0.0487061,0-0.0982056-0.0035095-0.1474762-0.0060501c-0.013504,0.0015106-0.0274353,0.0047684-0.0408783,0.0060501
			c-0.11203,0.0108643-0.2354202-0.000267-0.3650818-0.0239792c-0.1764679-0.0323029-0.3660812-0.0910645-0.5687714-0.1783218
			c-4.2199097-1.4248734-9.6396255-10.0471001-8.7590637-12.9885788c-2.4356155,4.2628021-2.313385,15.1546173-2.6094437,20.1020813
			c-0.1969147,3.2904816-0.5298004,11.6796265-0.1348267,13.812851c1.3540878,0.2160263,8.8023071,1.3844376,11.3938828,1.3655319
			C133.3122253,93.2844543,138.3635254,91.7273636,139.9246521,91.1911621z"/>
		<path class="st4" d="M127.2781677,71.0373535c0.1011887,0.0341492,0.2013855,0.0626602,0.3010559,0.0883408
			c0.2290573,0.0589752,0.4541779,0.0965805,0.6736755,0.1079102c0.0492706,0.0025406,0.0987701,0.0060501,0.1474762,0.0060501
			c3.7957916,0,10.1439056-8.9577408,9.7738495-12.6432343c-0.1420898-0.3824768-0.2952881-0.7490005-0.46138-1.0968437
			c-0.0329437-0.032917-0.0668182-0.065052-0.1034241-0.094677c-0.2332458-0.1886826,0.1807251-0.1480293-0.9328156-0.3498039
			c-0.3472443-0.0629158-1.7385559-0.2692223-2.2713776-0.3254089c-0.5520782-1.6258202-0.8912201-3.9865608-0.7927246-6.1673737
			c-0.4882507,1.8483658-9.562851,6.1345406-11.576355,6.1345406c-0.0003967,0.0019264-2.1693268,0.3251724-2.4995575,0.4088669
			c-0.3376007,0.0855408-0.5506592,0.1204453-0.6980362,0.226078c-0.0315475,0.0386047-0.0705566,0.1208191-0.1109085,0.2157097
			c-0.0784683,0.1844902-0.1623764,0.4204102-0.2085419,0.5012665
			C117.6385422,60.9902534,123.0582581,69.6124802,127.2781677,71.0373535z"/>
		<path class="st11" d="M133.6125031,50.5623131c0.074295-1.6452942,0.3987122-3.1863136,1.0695496-4.2331505
			c-0.3832397,0.505291-2.3145294,2.8110466-5.7201691,2.9083977c-2.4060822,0.0687752-4.2803497-0.9757996-4.3960266-1.0498085
			c-1.4108582-0.9029083-2.3048477-1.7132835-2.4960098-1.9262543c0.0080795,0.0088043,0.0302277,0.0345497,0.0616913,0.0793343
			c0.5860291,0.7999382,0.753624,2.3185692,0.7091141,4.0121384c-0.0103912,0.5051498-0.0421295,1.0662766-0.1033707,1.6932106
			c-0.0016251,0.0165558-0.0032578,0.0323524-0.0048981,0.0488052c-0.0196991,0.2110176-0.0415802,0.4215889-0.0650787,0.6313896
			c-0.1055756,0.9731102-0.2240524,1.8149109-0.3896027,2.6879234c-0.0821915,0.4696579-0.1648178,0.9034576-0.2415543,1.2825546
			C124.0496521,56.6968536,133.1242523,52.4106789,133.6125031,50.5623131z"/>
		<path class="st3" d="M168.7679138,113.837059c2.4343719-0.612381,4.1021271-2.0214539,4.0730743-5.5645218
			c-7.84021,3.1678391-17.6565247,1.0783997-23.9625244-1.2573853c-0.0244446-0.0090561-1.0372009,2.7223892-1.1071472,2.8851547
			C147.7713165,109.9003067,167.144989,114.2453308,168.7679138,113.837059z"/>
		<g>
			<path class="st3" d="M171.7762146,103.8112869c-5.5742188-13.347847-9.540741-27.6142349-19.1683807-43.4869804
				c-0.7610016-1.2546349-9.4839325,5.7404671-8.4563904,9.3989754c1.1156921,3.9724579,3.3716431,9.7534637,6.1697083,15.9266434
				c-0.0113831-0.1759491,0.0083923-0.2965622,0.0201721-0.4291611c0.2897949-3.2660599,1.527298-0.0125885,3.9914093,4.910553
				c2.4640961,4.923172,6.5116425,9.9195633,2.1262817,7.9602966c-2.0305328-0.6544952-3.7267303-1.1006851-6.185379-2.1816101
				c-1.320755-0.5806656-1.1628571-0.3673172-0.5526123,1.1086502c0.4656982,1.1264191-0.6989899,7.3693237-1.4224396,10.6585388
				c0.0238647,0.0075836,0.0475464,0.014595,0.0720062,0.0236511c6.306015,2.3357925,18.3591156,5.5935211,24.431488,1.5654068
				C172.8725281,108.1504211,172.9209442,106.5524521,171.7762146,103.8112869z"/>
			<path class="st3" d="M154.859848,89.4205704c-4.1774445-8.3644943-4.2311859-15.1772995-4.3761139-5.8165588
				c-0.0020599,0.1330643-0.1739655,1.8699646-0.1625824,2.0459137c1.86409,4.1126251,3.9683838,8.3990173,6.1378632,12.4416885
				C166.1043854,101.7422485,159.3469086,98.4050064,154.859848,89.4205704z"/>
		</g>
		<path class="st2" d="M140.0843658,80.0285797c0.1134949,4.588974-0.0091553,8.3217163-0.1597137,11.1625824
			c-0.2167664,4.0905762-0.4905243,6.3239059-0.2026367,6.5683289c0.020462,0.0173645,0.0426941,0.0284042,0.0690308,0.0256577
			c2.4621582-0.2566986,4.2639923-5.1615295,5.0704346-7.7802887c1.912735-6.2113113,5.3423615-26.7906227,0.7390137-31.4065742
			c-0.1240387-0.1243744-0.315033-0.2424698-0.5562286-0.3541603c-2.0344086-0.9419594-7.7215271-1.1505165-7.5965881-1.0218658
			C138.5291595,58.3358459,139.8982086,72.5016403,140.0843658,80.0285797z"/>
		<path class="st3" d="M107.670166,59.7643013c-7.2658386,4.7737617-10.3720932,28.4119835-20.0460663,41.3335381
			c-0.1896591,0.2533493-0.5290298,0.3404617-0.8183136,0.214447c-6.0467834-2.6345367-13.8332367-6.3328094-13.8332367-6.3328094
			c0.6685257,3.5862427-4.2100525,9.0842133-5.3176193,10.0871353c3.8849335,1.0832977,16.0847397,8.3640747,23.0414276,7.7277069
			c2.8691254-0.2624359,6.8851013-8.4291,8.1726074-10.6729813c4.9519958-8.6305084,8.8308487-19.1780319,10.0684967-18.4590149
			c0.3725662,0.216423,0.3954697,1.1648941,0.1110992,2.6193314c1.116127-2.8026199,2.1680679-5.4732819,3.1574249-7.83918
			C113.671402,74.9382706,110.8337784,57.6857986,107.670166,59.7643013z"/>
		<path class="st12" d="M98.8923874,107.9761734c-0.0213394,0.0336456-0.0425873,0.0671158-0.0638504,0.1006088
			C98.8498611,108.0433502,98.871109,108.0097275,98.8923874,107.9761734z"/>
		<path class="st3" d="M107.7588196,81.7996902c-0.1738739,0.2406082-12.2806091,29.2887039-17.4536896,30.0832901
			c-6.9053955,1.0606766-17.4609375-4.7750778-21.2677078-8.2999039c-0.1322174,0.1197052-1.5936737,1.6594925-1.6025314,1.6401825
			c3.2168732,2.7119904,20.7401428,12.2951889,24.7164154,10.2379456c2.370697-1.4950562,4.5942993-4.119072,6.6772308-7.3844223
			c0.0212631-0.033493,0.042511-0.0669632,0.0638504-0.1006088c3.855751-6.0772171,7.2278137-14.341423,10.1561737-21.694519
			C109.3329315,84.8272171,108.0118561,81.4496384,107.7588196,81.7996902z"/>
		<path class="st8" d="M121.1268387,136.7640991c0.4684448-1.0053406,0.1196365-3.2565002,0.1297836-4.5921936
			c0.0501099-6.5844879-2.7113876-25.1780701-3.0444717-27.6042252c-0.0249634-0.0087814-0.0509415-0.0170593-0.0756302-0.0259781
			c-0.0086441-0.0030823-0.0169373-0.0043488-0.0249481-0.0041275c-0.0376968,0.1384964-0.0913239,0.3356552-0.1598587,0.587883
			c-0.2177734,4.109993,3.2034073,28.4854736,0.648468,31.1623383c-0.5690613,0.5962067-7.0407028-1.6306458-8.6752625-0.6686859
			c-0.0651245,0.2292633-0.2217789,0.116333-0.3735733,0.434906c0.0026093,0.2972107,0.015892,1.1539459,0.0396576,1.6984406
			C111.5684433,138.0315857,119.933609,139.3249207,121.1268387,136.7640991z"/>
		<path class="st3" d="M118.2570877,105.0520248c-0.2877808-2.975647-0.8184662-4.3033371-1.3595123-7.2952728
			c-2.031868,0.4918594-3.8331909-5.7038727-4.7484436-8.2330399c-2.0702515-5.720665-5.0571518-26.2742195-0.453804-30.8901558
			c0.0092545-0.0092812,0.0217209-0.0181198,0.0316391-0.027298c-1.6909943,0.3318863-3.2335129,0.719986-4.1058197,1.1438866
			c-0.4616699,0.2243881-1.5769577,1.6220284-1.6640701,2.1304512c-1.0560684,6.1647682,1.3151855,17.0695992,2.5949326,22.7148705
			c0.46698,2.0598679,2.1049805,6.0113144,2.3729553,8.1068115c0.2914352,2.2789688,0.4207687,10.4389496-0.4057236,19.0130768
			c-1.1218262,11.6375504-3.3038025,21.1710129-3.3617783,24.0871353
			c-0.009903,0.4981079,10.6907654,1.3546143,11.4184189,0.7581787
			C121.0824432,134.5061646,119.6468277,119.4213104,118.2570877,105.0520248z"/>
		<path class="st3" d="M118.4944916,58.9034615c0.2376862-0.6085701,0.4971695-1.1809006,0.7836456-1.706955
			c0.0953064-0.1750526-6.3071442,0.2571068-7.5511703,1.4097519c2.6212463-0.5144882,5.6003036-0.8935738,7.000679-1.0587502
			C118.7139511,57.5796776,118.6281738,58.0780525,118.4944916,58.9034615z"/>
		<path class="st3" d="M112.1491318,89.5237122c0.9152527,2.5291672,2.7165756,8.7248993,4.7484436,8.2330399
			c-0.2566223-1.4191742-0.5155869-3.2122955-0.7520599-5.7343674c-0.701004-7.4766541-0.2972641-12.8451767-0.2358551-13.8715286
			c0.0223083-0.372963,0.0570374-0.8066788,0.1018219-1.2882156c0.215271-6.6015854,0.6917877-13.3726425,2.4830093-17.9591789
			c0.1336823-0.8254089,0.2194595-1.3237839,0.2331543-1.3559532c-1.4003754,0.1651764-4.3794327,0.5442619-7.000679,1.0587502
			c-0.0099182,0.0091782-0.0223846,0.0180168-0.0316391,0.027298
			C107.09198,63.2494926,110.0788803,83.8030472,112.1491318,89.5237122z"/>
		<path class="st9" d="M148.3705902,107.7008438c0.0645447,0.0348892,0.1286774,0.0588989,0.1922455,0.0731277
			c0.0080414-0.0218124,0.0152893-0.0428543,0.0232849-0.0645828
			C148.5132599,107.7245178,148.4411316,107.7224808,148.3705902,107.7008438z"/>
		<path class="st4" d="M136.196228,93.329483c0,0-5.7671967,0.9620743-9.9838943-2.406044
			c-4.9821472-3.9795151-5.7128983-6.5819244-5.8501434-10.0049286c-2.5248108,2.6571121-0.9185028,6.2378922,4.2309647,10.4462585
			c3.9211731,3.2045822,6.7494049,4.8119354,9.4577332,4.7830963c0.0606995,0.0900116,11.5219879,10.0401535,14.3197021,11.5529785
			c0.0705414,0.021637,0.1426697,0.023674,0.2155304,0.0085449c0.6265411-1.7047119,1.0283356-3.1984787,1.2682037-4.5020142
			C138.8536682,101.1589355,136.196228,93.329483,136.196228,93.329483z"/>
		<g>
			<path class="st4" d="M149.7210236,97.0186539c-1.7663574-1.072731-8.1783905-3.643486-11.4259491-5.7536697
				c0.8608093-3.5330734-5.5921936-11.6504135-7.6682892-11.2931519c0.4111176,0.6992035,0.6283875,2.3372726,2.4467468,3.4644852
				c0.5969238,0.3700333,1.0380859,1.274559,0.7245331,1.6840439c-0.1604156,0.2094574-0.8089294,0.0572205-0.9788666-0.0799179
				c-0.000061-0.0000458-0.0001373-0.0001068-0.0001373-0.0001068c-1.0640411-0.1380386-8.3950958-7.4987717-11.8751373-4.6593552
				c-0.2140579,0.1746216-0.4073181,0.3539658-0.5817337,0.537529c0.1372452,3.4230042,0.8679962,6.0254135,5.8501434,10.0049286
				c4.2166977,3.3681183,9.9838943,2.406044,9.9838943,2.406044s2.6574402,7.8294525,13.6580963,9.8778915
				C150.400177,100.2406158,150.1085358,98.2585373,149.7210236,97.0186539z"/>
			<path class="st4" d="M133.7980652,85.1203613c0.3135529-0.4094849-0.1276093-1.3140106-0.7245331-1.6840439
				c-1.8183594-1.1272125-2.0356293-2.7652817-2.4467468-3.4644852c-0.1292725,0.0222397-0.2422485,0.0760498-0.3347626,0.1671829
				c-0.8358154,0.8233643,3.3164673,4.1445999,2.6309967,4.8775177c-0.0216827,0.0231934-0.0573578,0.029808-0.1040039,0.0237427
				c0,0,0.0001221,0.0001221,0.0001831,0.0001678C132.9891357,85.1775818,133.6376495,85.3298187,133.7980652,85.1203613z"/>
		</g>
		<path class="st13" d="M117.3569489,236.9796906c0.9548111,1.0848083,3.1405487,4.6545258,6.2669144,4.8236389
			c3.2379379,0.1752319,6.0222855-5.5257111,6.2257004-5.1380768c-0.4819946-0.8804169-1.3872986-3.414032-1.3879852-3.4127502
			c-3.8873062,7.7394562-8.6278305,3.74823-10.5294724-0.0003662L117.3569489,236.9796906z"/>
		<path class="st14" d="M129.932663,236.9068298c-0.0039673-0.1626892-1.4146118-3.5512085-1.4710846-3.6543274
			c-0.2033997-0.3876495,0.0547333,8.5548096-4.8377151,8.3466949c-3.1280823-0.1330414-5.3121033-3.5346985-6.2669144-4.6195068
			c-0.0093994,0.049408-0.0182266,0.0998993-0.0277328,0.1491089c-0.3133392,1.6200867,2.7826691,7.007431,6.9698029,6.8685608
			C128.5452881,243.5821838,129.8930664,237.2384186,129.932663,236.9068298z"/>
		<path class="st13" d="M140.2298431,241.5991974c2.8687592,0.1300507,5.3777924-4.1350861,6.0562134-4.8502197
			c-0.150177-0.7320709-0.4739838-2.7164307-0.5996857-3.4968414c-1.8764496,3.7012482-7.634613,6.8657379-10.687149-0.2639313
			c-0.2743378,1.0990448-0.7966766,2.9803009-1.1611023,3.8558197
			C134.7172241,237.7458496,136.3701019,241.4242554,140.2298431,241.5991974z"/>
		<path class="st14" d="M140.0799408,243.9667816c3.1296234-0.1513062,6.5783386-4.8462524,6.2797546-6.8604126
			c-0.0177002-0.119278-0.6464844-3.7163239-0.6709595-3.8355713c-0.2291718,1.0381165-2.174881,8.3313293-5.8008423,8.1494751
			c-3.7140808-0.1862183-5.1706696-3.6744232-6.0497742-4.5762482
			C133.8365173,236.8479004,135.8194733,244.0000153,140.0799408,243.9667816z"/>
	</g>
</g>
</svg>
