<?xml version="1.0" encoding="utf-8"?>
<!-- Generator: Adobe Illustrator 23.0.3, SVG Export Plug-In . SVG Version: 6.00 Build 0)  -->
<svg version="1.1" id="Слой_1" xmlns="http://www.w3.org/2000/svg" xmlns:xlink="http://www.w3.org/1999/xlink" x="0px" y="0px"
	 width="348.4455566px" height="244px" viewBox="0 0 348.4455566 244" style="enable-background:new 0 0 348.4455566 244;"
	 xml:space="preserve">
<style type="text/css">
	.st0{fill:#8CD3AC;}
	.st1{fill:#FFFFFF;}
	.st2{fill:#B3F3AC;}
	.st3{fill:#2ED3AC;}
	.st4{fill:#EAAD8C;}
	.st5{fill:#D57E70;}
	.st6{fill:#AE5955;}
	.st7{fill:#95504C;}
	.st8{fill:#F16663;}
	.st9{fill:#C0615E;}
	.st10{fill:#F2DDCC;}
	.st11{fill:#6C3A36;}
</style>
<g>
	<g>
		<g>
			<path class="st0" d="M331.0532227,166.5026245c-0.4260559,1.326889-1.5794983,3.0300446-3.200592,4.9721527
				c-4.2424316,5.0814667-11.6906738,11.8102112-17.746582,17.7661133
				c-3.8085022,3.7443848-7.0637207,7.1811371-8.6302795,9.7129669
				c-6.1286011,9.9011536-13.8470154,19.2786255-22.8306885,27.0394135
				c-26.9639435,4.9237976-57.0973511,9.9595642-81.4815979,12.8192902
				c-11.5685577-7.1582794-12.4362793-20.160675-22.8123932-27.0317383
				c-13.7846375-9.1257782-30.3594971-0.9582825-46.9628906-4.1078339
				c-17.5204849-3.3199158-24.4101486-10.2850037-35.3500443-22.4281616
				c-0.296196-0.3278809-0.5897369-0.6533203-0.8781662-0.9786835
				c-11.4386292-12.7557983-19.4454727-22.9797211-24.9037704-31.3480377
				c-1.3197327-2.026001-2.4940109-3.9426422-3.527977-5.7601776c-5.4608841-9.5884705-7.1183205-16.4213715-6.8039932-21.9019394
				c0.6780624-11.78479,10.4696503-17.3314438,11.1840973-30.6032715c0.2338257-4.3188324-0.493576-9.4562225-2.810936-15.8926163
				C58.4026604,62.3794136,79.900589,56.0828629,89.7467575,57.773304c1.5769501,0.2694168,2.8550949,0.7447586,3.6734848,1.4158897
				c2.9512558,2.4199867,7.1391068,2.6639938,9.8617096,0l1.7198563-1.6904411l2.8889008-2.8292427
				c2.0419617-1.0498466,3.5877457-2.4377937,4.4216766-4.3214226c0.3013687-0.6812706,0.5092392-1.4311638,0.6156998-2.2496719
				c0.1455078-1.121067,0.3377686-2.208992,0.5767822-3.2639732c0.0389175-0.1804543,0.0805588-0.3583794,0.1246567-0.5363617
				c9.5110474-38.9943771,82.9494705-31.1853123,106.8296432-9.7104301
				c34.4252777,30.9540367,15.0524445,40.1077766,47.4148865,29.1669731
				c18.6844177-6.3168869,31.874054-2.2115288,33.3392944,17.3593826
				c1.1170959,14.946991-2.5381775,17.5169601-0.9976196,22.8246841c0.0494385,0.167778,0.1039734,0.3381042,0.1636963,0.5134888
				c0.2493896,0.7320862,0.5975647,1.5226517,1.067749,2.4047089c6.4792786,3.6707001,14.4523621,3.1470108,17.9881287,6.736351
				c2.0315857,2.0692139,1.766571,9.6037292,0.4519958,17.7610397c4.4633179,6.1363678,8.7394714,13.0811615,10.8308411,20.0741882
				c0.7507935,2.4912109,1.2183838,4.9899597,1.3197327,7.4582977
				C332.1469727,161.4694061,331.8533936,164.0216217,331.0532227,166.5026245z"/>
		</g>
	</g>
	<g>
		<g>
			<path class="st1" d="M113.5494232,45.3539505l-0.088913-1.0381279c0.4184036-0.0343437,0.8352203-0.0803413,1.2389145-0.136673
				l0.1503677,1.0313454C114.425827,45.2696762,113.9883499,45.3179588,113.5494232,45.3539505z"/>
		</g>
		<g>
			<path class="st1" d="M296.4028015,104.7670822c-0.9231873-0.1130981-1.7989197-0.2708054-2.6025391-0.4685593
				l0.2596741-1.0103149c0.7619019,0.1874237,1.594696,0.3372879,2.4752808,0.4451828L296.4028015,104.7670822z
				 M291.26828,103.4416122c-0.9160767-0.4164124-1.6856995-0.9169159-2.2874756-1.4876099l0.7411804-0.7479935
				c0.5158691,0.4892807,1.1871948,0.9236908,1.9949951,1.2908707L291.26828,103.4416122z M287.5162659,99.588501
				c-0.1290588-0.457283-0.194458-0.9444733-0.194458-1.4479523c0-0.2460327,0.0155945-0.5000534,0.0461731-0.7550278
				c0.0188293-0.158844,0.0361328-0.3211823,0.0514221-0.4865494l1.0603638,0.0940857
				c-0.0162354,0.1743164-0.0343018,0.3456421-0.0543213,0.5134888c-0.0257568,0.2152405-0.0389099,0.4283905-0.0389099,0.6340027
				c0,0.4098282,0.0524597,0.8037491,0.1561279,1.1706772L287.5162659,99.588501z M287.506897,94.4301224
				c-0.0124512-0.8068466-0.061615-1.6413269-0.1465149-2.4802475l1.0593872-0.1026459
				c0.0879211,0.8677444,0.138855,1.7314987,0.1517334,2.5673752L287.506897,94.4301224z M287.0101929,89.4866791
				c-0.1512451-0.8250427-0.3364868-1.640892-0.5504761-2.4251251l1.028717-0.2687149
				c0.2215881,0.8119812,0.413269,1.6564713,0.5698242,2.5098953L287.0101929,89.4866791z M285.693573,84.7009354
				c-0.3043213-0.7991257-0.6450806-1.5583267-1.0125122-2.2564545l0.9465332-0.4769821
				c0.3867188,0.7346802,0.7446289,1.5319061,1.0636902,2.3696136L285.693573,84.7009354z M283.3766785,80.3615189
				c-0.5116577-0.6837997-1.0657654-1.2866974-1.6469421-1.7916946l0.7068176-0.7789688
				c0.6378479,0.554039,1.2431641,1.2119217,1.7991943,1.9554138L283.3766785,80.3615189z M259.7776794,79.3690109
				c-0.8666992-0.0248413-1.7467957-0.0833817-2.6157227-0.1739273l0.1128235-1.0359039
				c0.8418884,0.0877533,1.694519,0.1444016,2.5341492,0.1684799L259.7776794,79.3690109z M262.4011536,79.3432236
				l-0.0529175-1.0405273c0.8448792-0.0410614,1.6957092-0.1160812,2.528595-0.222908l0.1383667,1.0329208
				C264.1540222,79.2231522,263.2745667,79.3007126,262.4011536,79.3432236z M254.5681,78.8280945
				c-0.8503113-0.1521988-1.710907-0.3379745-2.557724-0.552269l0.2665863-1.0085373
				c0.8220825,0.2080231,1.6573486,0.3883514,2.4826965,0.5359802L254.5681,78.8280945z M267.6021729,78.6744995
				l-0.2249146-1.0182877c0.8265381-0.1746902,1.6524963-0.3851776,2.4547424-0.6254501l0.311615,0.9961853
				C269.3128052,78.2756958,268.4577026,78.4935989,267.6021729,78.6744995z M249.5005493,77.5478592
				c-0.817215-0.2673874-1.6422119-0.5679169-2.4521332-0.8933411l0.4044647-0.9637375
				c0.7880249,0.3166199,1.5905609,0.6090317,2.385376,0.8691406L249.5005493,77.5478592z M279.7200317,77.2475891
				c-0.7257996-0.3403854-1.4992371-0.5670929-2.2989807-0.6736679l0.1437683-1.0323029
				c0.9096985,0.1212845,1.7896423,0.3792267,2.6154175,0.7664948L279.7200317,77.2475891z M272.6036682,77.1844788
				l-0.359375-0.9806595c0.8889465-0.3117981,1.7652283-0.528244,2.6045227-0.6433105l0.1478271,1.031662
				C274.2291565,76.6974182,273.4241638,76.8966827,272.6036682,77.1844788z M244.6628113,75.6068878
				c-0.7727356-0.368576-1.5510406-0.7690887-2.3128967-1.1904526l0.5237579-0.9068985
				c0.7433319,0.410965,1.5022125,0.8015366,2.2555847,1.1609268L244.6628113,75.6068878z M240.1144104,73.0947037
				c-0.7215881-0.4548721-1.446579-0.9399796-2.1544495-1.4416733l0.6247101-0.8436661
				c0.6922455,0.4905472,1.4009552,0.9648743,2.1064606,1.4095535L240.1144104,73.0947037z M235.888092,70.1023026
				c-0.6661377-0.5255203-1.335144-1.0804443-1.9885864-1.6493835l0.7077789-0.7782059
				c0.640564,0.5577774,1.2962952,1.1016083,1.9491119,1.6165543L235.888092,70.1023026z M231.9940643,66.7144012
				c-0.6122131-0.5842667-1.2257843-1.1962204-1.8238678-1.8187485l0.77565-0.7135849
				c0.5876617,0.6116943,1.1904144,1.2128143,1.7916107,1.7866135L231.9940643,66.7144012z M228.4265747,63.0048637
				c-0.5587158-0.6309624-1.1189728-1.2888527-1.66539-1.9556122l0.8307648-0.65168
				c0.5377808,0.6564331,1.0894318,1.3041191,1.6392975,1.9250679L228.4265747,63.0048637z M225.1563873,59.077549
				c-0.5347595-0.6386261-1.0935974-1.2820091-1.661377-1.912014l0.7986298-0.6889381
				c0.5762024,0.6394539,1.1436005,1.2924614,1.6864471,1.9408455L225.1563873,59.077549z M221.7641449,55.3107948
				c-0.5804596-0.6011162-1.1841278-1.2056503-1.7944031-1.7970085l0.7490997-0.7402
				c0.6186218,0.5993462,1.2306976,1.2122459,1.8191986,1.8216667L221.7641449,55.3107948z M218.115921,51.7738609
				c-0.6209564-0.564682-1.2630768-1.1310768-1.908432-1.6835289l0.7008514-0.784111
				c0.6534576,0.5592346,1.3037262,1.1327896,1.9324646,1.7045708L218.115921,51.7738609z M214.2480927,48.4623642
				c-0.6515045-0.5260277-1.3263397-1.0554199-2.0055695-1.5732803l0.6543732-0.821804
				c0.6871948,0.5239372,1.3696442,1.0593529,2.0288086,1.591465L214.2480927,48.4623642z M210.193512,45.3692207
				c-0.6799316-0.4906807-1.3826599-0.984333-2.0888214-1.4672775l0.6099243-0.8538704
				c0.7135468,0.4879532,1.4237976,0.986866,2.1107941,1.4828644L210.193512,45.3692207z M117.4433365,44.6814232
				l-0.2859039-1.0034676c0.8050003-0.2196121,1.596962-0.4949837,2.3540192-0.8186989l0.4262848,0.9546127
				C119.1352158,44.1569748,118.2960434,44.4488182,117.4433365,44.6814232z M122.2841797,42.614933l-0.5554199-0.8887215
				c0.6882935-0.4119148,1.381134-0.8862457,2.0591354-1.4098053l0.659584,0.8177528
				C123.7363358,41.6833801,123.0084686,42.18153,122.2841797,42.614933z M205.979187,42.4859886
				c-0.7088776-0.4598198-1.4355164-0.9193192-2.1598663-1.3657722l0.5673981-0.8814926
				c0.7313995,0.4508247,1.4650269,0.9147606,2.1807251,1.3790131L205.979187,42.4859886z M201.6280365,39.8036156
				c-0.7291565-0.4269943-1.476181-0.8538017-2.2205505-1.2685089l0.5268402-0.9052544
				c0.7509308,0.4183769,1.5048218,0.8490524,2.240448,1.2798538L201.6280365,39.8036156z M126.4289551,39.4462547
				l-0.7331009-0.7554665c0.5670242-0.5269203,1.1522751-1.1076965,1.788887-1.7754097l0.7785034,0.7106705
				C127.6117935,38.3092194,127.0118256,38.9046326,126.4289551,39.4462547z M197.1599274,37.313549
				c-0.745285-0.3950653-1.5098419-0.7904434-2.2726746-1.1753044l0.4878845-0.9259071
				c0.7692261,0.3880272,1.5402679,0.7867622,2.2920227,1.1851845L197.1599274,37.313549z M130.0018921,35.7382393
				l-0.7996979-0.6877975c0.2902527-0.3230171,0.579895-0.6479416,0.8700104-0.9733658
				c0.2756653-0.3091431,0.5517883-0.6189232,0.8295288-0.928257l0.799942,0.687542
				c-0.2769165,0.3084488-0.5523071,0.6172752-0.8271484,0.9255943
				C130.5834503,35.088398,130.2929688,35.4142075,130.0018921,35.7382393z M192.5911865,35.0082436
				c-0.7637939-0.3666763-1.5436554-0.7318954-2.317749-1.0854568l0.4504547-0.9439659
				c0.7801666,0.356411,1.5662689,0.7245445,2.33638,1.0941353L192.5911865,35.0082436z M187.9354706,32.8811798
				c-0.7745361-0.3365784-1.5673981-0.6724625-2.3569183-0.9983978l0.4138641-0.9598103
				c0.7955933,0.3284054,1.5946655,0.6669483,2.3751831,1.0060635L187.9354706,32.8811798z M133.4179535,31.9686985
				l-0.7801208-0.7089558c0.6454315-0.6798763,1.2418976-1.2775078,1.8237305-1.8269196l0.7393951,0.7495079
				C134.6333008,30.718502,134.0501099,31.302763,133.4179535,31.9686985z M183.203949,30.9271526
				c-0.7902222-0.3098373-1.5966797-0.6178455-2.3968811-0.9153938l0.3782349-0.9738102
				c0.8061523,0.2997665,1.618515,0.6099873,2.4146271,0.9221706L183.203949,30.9271526z M178.3939362,29.1385059
				c-0.8044128-0.2831039-1.6215668-0.5627823-2.4289551-0.8313751l0.3426361-0.9863586
				c0.8133392,0.2706184,1.6364594,0.5522652,2.4466705,0.8374557L178.3939362,29.1385059z M137.0918274,28.5272503
				l-0.6760559-0.8048248c0.6949615-0.558918,1.4054718-1.0756359,2.1118317-1.5357075l0.58992,0.8671741
				C138.4409485,27.4946384,137.7593384,27.9903831,137.0918274,28.5272503z M173.5214233,27.5178909
				c-0.8152924-0.2556019-1.6420898-0.5068951-2.4575043-0.7470379l0.3069458-0.9975739
				c0.8213654,0.2419167,1.6541443,0.4950485,2.4753113,0.7524261L173.5214233,27.5178909z M168.5934906,26.0664558
				c-0.8246765-0.2272167-1.6600342-0.4494915-2.4828949-0.6607399l0.2701721-1.0076485
				c0.8289948,0.2127705,1.6705627,0.4366913,2.5013428,0.6656818L168.5934906,26.0664558z M141.2863464,25.8077488
				l-0.4850922-0.9273682c0.7796783-0.3903751,1.5922241-0.7395,2.4150085-1.0374279l0.3695679,0.9769802
				C142.8023376,25.1036682,142.0286407,25.4360676,141.2863464,25.8077488z M163.6187286,24.7923717
				c-0.8481293-0.1963596-1.6900787-0.3746624-2.5025787-0.5298996l0.2040558-1.0224743
				c0.8261566,0.1578999,1.6820374,0.3391151,2.5437469,0.5387058L163.6187286,24.7923717z M145.9891968,24.1003284
				l-0.2538605-1.0117645c0.8311005-0.1997166,1.6997833-0.3617992,2.5820923-0.4816799l0.1464844,1.0317898
				C147.617691,23.7538033,146.7850342,23.9090385,145.9891968,24.1003284z M158.5962982,23.8383274
				c-0.8618317-0.1244431-1.7143555-0.2251892-2.5341034-0.2993221l0.0979767-1.037365
				c0.8389282,0.0759087,1.7108154,0.1788712,2.5916138,0.3061008L158.5962982,23.8383274z M150.9801331,23.4110126
				l-0.0517273-1.0404682c0.8459015-0.0403633,1.7306061-0.0484734,2.6210022-0.024332l-0.0294037,1.0413551
				C152.6563568,23.3643799,151.7991791,23.3720455,150.9801331,23.4110126z"/>
		</g>
		<g>
			<path class="st1" d="M300.0542908,104.9818192c-0.3233643,0-0.6480408-0.0048141-0.9689941-0.0144501l0.0327454-1.0412903
				c0.415741,0.0124817,0.8379517,0.0166702,1.2558289,0.012352l0.0111389,1.0417404
				C300.2749634,104.9812469,300.1648254,104.9818192,300.0542908,104.9818192z"/>
		</g>
	</g>
</g>
<g>
	<g>
		<path class="st2" d="M47.3114891,65.7966614c0.0781631-1.6952591-3.9885216-3.3648491-10.160038-4.4676666
			c-1.4790955-0.2642174-2.4506302-1.6728859-2.1377945-3.1119041c4.0347595-18.5605354,6.6500664-34.7789001,12.2475853-43.6357803
			c1.5430107-2.4337387,22.309391,12.9815674,28.5956535,23.0308628c0.6642609,1.061882,0.4600906,2.4325981-0.4713593,3.2806969
			c-6.2443695,5.6856766-9.9030838,10.7699127-8.5925522,12.3876114c1.238266,1.5222778,6.55616-0.4840851,13.1024246-4.6591415
			c1.2281647-0.7832832,2.8620911-0.4693871,3.6877289,0.716053c3.1230621,4.4838257,6.4458847,8.9408417,9.906395,13.1468849
			c1.4219742,1.7261086,0.9927063,4.2784004-0.9374771,5.4337425c-4.1158981,2.4727097-6.3635101,4.6744766-5.8701401,6.1100769
			c0.6734009,1.9841766,6.3141708,2.0806122,14.3855057,0.6140976c1.4072189-0.2566757,2.8348923,0.2706833,3.6976395,1.3759689
			c5.3434143,6.8545151,9.2357712,12.9172592,10.5299911,17.2644043c0.6069641,2.0435638,1.2143707,4.2325974,1.7957611,6.5245895
			c0.4378738,1.7173691-0.4376297,3.5014572-2.0859985,4.2256851c-9.3408051,4.1134033-15.2962341,8.2306747-14.5294571,10.4960632
			c0.7047424,2.0756836,6.9449615,2.0737762,15.729599,0.3477325c2.1299438-0.4188232,4.1899643,0.9888306,4.4827957,3.0878906
			c2.3476791,16.9863052,1.5708466,34.2991867-8.210495,40.4376297
			c-7.9939575,5.0114441-23.7309875-4.6996918-38.0986786-16.4572754c-1.9790726-1.6260223-1.7186279-4.6639099,0.4949265-5.973175
			c4.2816772-2.534668,6.6310959-4.794342,6.1255417-6.2720032c-0.767746-2.2447357-7.9939423-2.0577545-17.9250145,0.1098633
			c-1.2304878,0.2644653-2.531498-0.0909271-3.433754-0.9554291c-6.0456276-5.7558899-10.9237099-10.8709869-13.5028114-13.7709427
			c-0.7139397-0.8007736-1.3683662-1.6612854-1.97118-2.5681305c-1.2646103-1.9131546-0.3598518-4.4860382,1.7973709-5.3403473
			c11.7889137-4.6706161,19.7703743-9.7172775,18.8913689-12.3134155c-0.8735619-2.5612869-13.4343071-0.5097504-26.1473541,2.85186
			c-2.201313,0.5820465-4.4229126-0.8536148-4.7176781-3.0636139c-0.9333954-7.0244522-1.296032-14.8448639-0.8065376-22.7326126
			c0.081913-1.3195877,1.1420364-2.3699417,2.4893532-2.4682159C42.5312691,68.9482269,47.2287331,67.5925293,47.3114891,65.7966614
			z"/>
	</g>
</g>
<g>
	<path class="st3" d="M4.1304297,126.9786148c7.3383584,8.3374405,18.398571,8.7911758,26.5198956,5.5101547
		c8.1184082-3.2724609,14.7039108-2.9197845,16.8092613,1.5597839c2.1082039,4.4709625,6.0300865,13.3300629,19.3848724,13.4588165
		s18.0073166,4.3006287,26.4224396,12.3414154c8.4149857,8.0408478,14.9792557,8.8303375,14.9792557,8.8303375
		s3.3803329-6.4983521,0.5432434-19.3995819c-1.7010193-7.7384186-5.6429825-17.7864532-13.9008713-30.117218
		c-5.5919571-8.3575211-25.6132507-26.4361954-31.3698769-25.2271805
		c-5.759407,1.2176285-9.8577461,10.2660522-18.6371994,12.7590332c-7.7906761,2.2116623-23.452137-2.0496979-33.0317688,0.2973709
		c-1.2176094,0.2953186-2.3283072,0.6957703-3.3170681,1.2298508
		C-0.2814046,112.9780502-3.2109058,118.6354065,4.1304297,126.9786148z"/>
</g>
<g>
	<g>
		<g>
			<path class="st3" d="M339.1850586,141.4012146c0.026886-1.1491241,2.8536072-2.0945587,7.0762024-2.5623016
				c1.0119629-0.1120911,1.7347107-1.0203857,1.5908813-2.0068512c-1.8547974-12.7249603-2.8604736-23.8031235-6.2273254-30.0404282
				c-0.9284058-1.7142639-15.6867065,7.7697144-20.407196,14.2785187c-0.4987488,0.6877365-0.4251709,1.6232758,0.1644897,2.2382736
				c3.9529114,4.1233521,6.1867371,7.7237854,5.2251282,8.7582245c-0.9084167,0.973053-4.4080505-0.6220856-8.6359558-3.7380371
				c-0.7932129-0.5845795-1.9122314-0.4459534-2.5258789,0.3180084c-2.3212585,2.8898163-4.7761841,5.7524567-7.3123779,8.4393311
				c-1.0421448,1.1026154-0.8718872,2.8467865,0.3782043,3.7144012c2.6654358,1.8562012,4.0809937,3.4452667,3.6801758,4.39328
				c-0.5483704,1.3105927-4.3649597,1.1221466-9.7507935-0.2320251c-0.9389648-0.2366638-1.9285583,0.0555115-2.5635681,0.7637024
				c-3.9331665,4.3920746-6.8483887,8.3143005-7.9272156,11.1938629c-0.5062256,1.3537903-1.0195618,2.8059387-1.5201111,4.3287201
				c-0.3765869,1.1408997,0.1312561,2.3860168,1.2112427,2.9495544c6.1194153,3.1999817,9.9507141,6.2502899,9.3261414,7.7468567
				c-0.5737305,1.3710938-4.790863,1.0891266-10.6465454-0.4724884c-1.4197998-0.3788452-2.8781433,0.4798889-3.1746216,1.8852692
				c-2.3844604,11.3740692-2.67276,23.1091766,3.6492004,27.6974792c5.1670227,3.7463531,16.2585144-2.1088104,26.520752-9.4085693
				c1.4138184-1.0098724,1.3805237-3.074646-0.0539551-4.0589905c-2.7745361-1.9055481-4.2561646-3.538269-3.8450928-4.5141602
				c0.6242981-1.482605,5.499115-1.0311584,12.1088867,0.8803558c0.8191528,0.2340546,1.7150879,0.0523987,2.3653564-0.4913177
				c4.3561401-3.617981,7.8931274-6.8554688,9.7723389-8.699234c0.52005-0.5090637,1.0027466-1.0611877,1.4527283-1.6469727
				c0.9445496-1.2360687,0.453949-3.0155945-0.9638977-3.6899567c-7.7476807-3.6866608-12.904541-7.4561462-12.1885986-9.1711731
				c0.7107239-1.6915741,9.1029663,0.2596741,17.5368347,3.103302c1.4602966,0.4923859,3.0291748-0.3779602,3.3321533-1.8582916
				c0.9607849-4.7052002,1.5731812-9.9740753,1.612854-15.3267822c0.0066833-0.8954315-0.6605225-1.6529388-1.5663757-1.7799072
				C342.2676392,143.7461853,339.1566162,142.6187286,339.1850586,141.4012146z"/>
		</g>
	</g>
</g>
<g>
	<g>
		<g>
			<path class="st1" d="M270.6036072,192.5049896c0.2635498-0.0053864,0.4977722-0.1886902,0.5523987-0.4530334
				c0.1815796-0.8744049,4.3739319-21.5274811-0.7073669-30.9038696
				c-3.3509521-6.1815491-6.0435486-10.4179993-8.8936768-14.9032135c-1.4927063-2.3478241-3.0349731-4.77565-4.7950745-7.6649628
				c-5.2971497-8.6964722-8.6304932-17.3156738-8.1066589-20.9603882c0.6125183-4.2714386-2.0266876-5.7115936-2.1392975-5.7705765
				c-0.2822113-0.1462402-0.6309662-0.0446091-0.7812805,0.2300644c-0.1511383,0.2746124-0.0456543,0.6167068,0.2350616,0.7644577
				c0.07901,0.0437927,2.0387115,1.1627655,1.5426178,4.6192932c-0.565506,3.9375763,2.7529144,12.6569595,8.2584229,21.6956406
				c1.7657013,2.8975525,3.3111725,5.3305817,4.8061981,7.6821442c2.9630432,4.6629486,5.5220032,8.6896057,8.8536377,14.8367462
				c4.8888855,9.0194092,0.6404419,29.9406891,0.5969849,30.1511078c-0.0638428,0.3054199,0.1381226,0.6030884,0.4510498,0.6647949
				C270.5192871,192.5021973,270.5618896,192.5058746,270.6036072,192.5049896z"/>
		</g>
		<path class="st1" d="M287.2531128,155.5843964c-7.3790283,5.0815735-15.6647644,16.4086304-14.7783813,17.6408844
			c0.8863831,1.2322845,11.392334-0.6094055,18.7713623-5.6909943c4.0559082-2.7931061,8.3532104-9.5189362,6.8638916-12.4932861
			C296.8897095,152.6040192,290.5762634,153.2958832,287.2531128,155.5843964z"/>
		<path class="st1" d="M270.0501404,136.7325134c-3.3469238,6.7409058-4.744751,18.4850769-3.5689087,19.0439911
			c1.1758423,0.5589905,8.2056885-5.0326538,11.5526123-11.7735748c1.8396606-3.7051544,2.2071838-10.4283752-0.1479797-12.0388031
			C275.9562073,130.6446228,271.5574646,133.696701,270.0501404,136.7325134z"/>
		<path class="st1" d="M258.586853,117.5499496c-3.3469086,6.7409058-4.7447052,18.4851303-3.5688934,19.0440598
			c1.175766,0.5589142,8.2057037-5.0326691,11.5526581-11.7736359c1.8395996-3.705162,2.2071838-10.4283295-0.1480103-12.0388031
			C264.4928894,111.462059,260.0942078,114.5142059,258.586853,117.5499496z"/>
		<path class="st1" d="M240.6184692,102.3610382c0.0583496,9.4715576,6.1898499,19.8173218,7.6053467,19.6916733
			c1.415451-0.1255112,4.7519379-9.1937714,3.9999695-17.308754c-0.4133301-4.460434-3.929184-10.9219131-7.0460968-11.1274033
			C242.6238403,93.448143,240.595871,98.6915436,240.6184692,102.3610382z"/>
		<path class="st1" d="M252.013916,161.6473846c8.748291,2.1634979,20.625946,9.8421021,20.2485352,11.3031158
			c-0.3774109,1.4609375-10.8616638,3.4172363-19.6100464,1.2537231
			c-4.8085175-1.1891632-11.2798004-5.9664917-10.9759521-9.2653656
			C241.9253235,162.236084,248.074173,160.6730652,252.013916,161.6473846z"/>
		<path class="st1" d="M249.1399841,145.0816193c7.3634033,2.0626221,17.2321777,8.8855133,16.872406,10.1152496
			c-0.3597717,1.2296753-9.3077087,2.6171722-16.6711426,0.5546112c-4.0473175-1.1337433-9.40802-5.3548584-9.0608826-8.1457062
			C240.5648499,145.3191528,245.8238983,144.1527252,249.1399841,145.0816193z"/>
		<path class="st1" d="M239.5944977,124.5552673c7.0279694,2.9793472,15.9093323,10.9966125,15.3895874,12.1702728
			c-0.5196381,1.1736603-9.5759277,1.4143677-16.6038361-1.5649719c-3.8628998-1.6375885-8.6190491-6.5031128-7.9050446-9.2263489
			C231.0602112,123.702919,236.4294586,123.2135086,239.5944977,124.5552673z"/>
	</g>
</g>
<path class="st0" d="M323.238678,217.4597168c-12.1947021,2.430191-27.7771301,5.4602203-44.5935974,8.5335541
	c-26.9639435,4.9237976-47.4148865,11.9499512-71.799057,14.8097534
	c-12.9637146,1.5201111-50.5948029,3.1037292-58.9731293,3.0503693
	c-37.0413513-0.2363892-116.7927246,4.0748138-132.3361359-28.8289337
	c-4.3255787-9.1563263,11.9816923-23.6966095,21.0120659-26.8562927
	c12.4987068-4.3722382,54.6111526-3.9020233,54.6111526-3.9020233l19.2663116-0.1372375l16.382576-0.1144409l4.3437195-0.0304718
	l26.7197113-0.1880646c0,0,93.7710724-4.2969055,124.7683868-0.8846588
	c7.0100403,0.7716827,20.9895935,3.5921936,27.465332,6.3296204c4.4044495,1.8617706,16.4137573,9.7307739,16.4137573,9.7307739
	C334.5344849,203.7252197,332.4223328,215.6294403,323.238678,217.4597168z"/>
<g>
	<path class="st4" d="M141.5807343,109.0105057c0.0858002,0.9828186,0.0392303,1.2614822,0.162735,2.2790146
		c0.220871,1.820076,0.6651764,0.9985199,4.3108673,2.2752686c4.0849457,1.4305878,3.5427551,1.9245605,5.0683289,3.8092651
		c1.1739044,1.4502335,4.1033325,6.5605774,4.2602997,6.5401764c0.2087708-0.0271835,0.6976929-3.9525909,1.0072937-5.8773422
		c0.7410736-4.6078873,2.8059387-6.8432999,2.8699188-7.1635971c0.0914307-0.4583588-1.796402-5.0791092-2.0596924-6.6792603
		c-0.0782318-0.4755859-0.0396423-1.4587784-0.0691528-2.1434097c-0.0088196-0.2035141,0.0668335-5.2638626,0.0102234-5.3099289
		c-0.0985565-0.0802841-2.1053467,2.504509-3.9018707,2.6571503c-0.1623535,0.0138092-0.6530762,0.0757751-1.4328613,0.0277481
		c-2.9262085-0.1803894-6.9390717-4.6055984-7.3930817-5.0906372c-2.2214661-2.3730392-3.2756195-3.961586-3.2601624-3.5340881
		C141.2531281,93.5509109,140.6444244,98.2878036,141.5807343,109.0105057z"/>
	<path class="st4" d="M155.1618958,55.7436867c-0.7132721,0.1752586-1.22966,0.8491173-1.9309082,1.3721085
		c-1.0652924,0.7944984-1.6655273,1.528801-2.4638977,2.4760628c-1.5235138,1.807785,0.110672-0.2115631-3.0510406,3.5256577
		c-2.4354248,2.8786087-2.8229828,3.3398209-2.8229828,3.3398209c-1.2646179,1.5051651-1.584137,1.8971176-2.2371368,2.5544434
		c-0.2425079,0.244072-1.0828552,1.0802612-2.3249969,2.0880356c-1.2431183,1.0085983-1.592865,1.1377945-2.708374,2.0267029
		c-2.1694489,1.7288284-3.5238953,2.1283875-2.6630707,5.3479462c0.4298401,1.6076279,0.0234833,2.0060425,2.6286316,7.1266556
		c0.859314,1.6891708,3.2663574,4.9923706,3.324707,5.0624466c4.9693146,5.9689636,7.6750336,7.6972885,9.6693268,8.4374847
		c1.1314087,0.4199677,1.6683044,0.4401779,2.2085571,0.3054123c1.2699432-0.3169403,2.0602875-0.8322678,2.5229187-1.2131348
		c3.4938965-2.8757553,5.1455688-5.4673309,5.1455688-5.4673309c2.4319153-3.5884399,4.0263977-6.267334,5.364151-10.2825317
		c1.445282-4.3382111,1.4515076-6.586235,1.421463-9.0707932c-0.021637-1.7847137,0.0897522-4.6461487-1.1134186-8.0260696
		c-0.4326477-1.2153549-1.1257935-2.7456169-2.4381866-4.4655762c-0.3858948-0.505825-1.7563324-2.9327812-4.6883545-4.1872253
		C157.0121002,55.8412018,155.4692993,55.6680984,155.1618958,55.7436867z"/>
	<path class="st5" d="M156.9939117,96.7496185c0.0003204,2.4697342-14.0876312,15.2639389-14.9190216,15.5597076
		c-0.0993347,0.0353622-2.5662994-7.125824-3.3292542-9.7047272l2.1438293-1.116188
		c0.0076294-0.7064209,0.0187683-1.4347076,0.0180054-2.1749725c-0.003006-2.8463516-0.1080322-8.8077698,0.0553436-8.605835
		c0.6629791,0.819397,2.6867371,3.1492233,5.5596466,5.644928c1.776062,1.5428696,4.8217468,3.2620697,5.9425354,3.0863037
		c0.8703766-0.1364746,1.5259857-0.4195175,2.3346405-0.9327545c1.1124725-0.7061005,2.0842438-1.750824,2.1949921-1.7972641
		C157.0069885,96.7036209,156.9939117,96.7373962,156.9939117,96.7496185z"/>
	<path class="st5" d="M155.1938782,56.1511688c0.3531952-0.0617142-3.5215607,11.5184097-10.0759125,17.322319
		c-2.7924194,2.4727097-9.5894165,6.9038086-9.8835297,6.243576c0,0-0.6680298-1.681633-0.4768524-3.5460052
		c0.0294495-0.2872162,0.3575592-1.2569733,2.0894012-2.5448685c1.5067444-1.1205597,1.8277435-1.2430344,2.799408-1.9615707
		c1.6125488-1.1924667,2.5598755-2.065979,3.3239441-2.9382248c1.0164642-1.1602859,1.1331024-1.2408829,2.6737061-3.1086121
		c0.8941498-1.084053,5.8548584-6.9898529,7.1889648-8.1590729
		C154.108963,56.3403664,154.8392181,56.2131996,155.1938782,56.1511688z"/>
	<path class="st6" d="M156.9778442,96.9407272l4.1800232,1.3616486c0,0,2.7781677,5.313736,4.1614838,6.3792953
		c0.8149414,0.6277313,2.4067841,1.1866455,3.2411652,1.5101089c2.0127563,0.780304,7.8561401,2.1546326,7.8561401,2.1546326
		s-1.2894592-12.1629333-1.6157227-16.2261505c-1.2626038-15.7214127-4.5267792-33.7093468-7.0948639-39.2918663
		c-3.3230286-7.2234039-13.3106232-10.0228691-22.0959625-9.6293945
		c-7.6631622,0.3432312-11.3459167,2.9659195-15.4394073,7.0850868c-7.7703552,7.8190117-7.8491592,28.3634186-7.8974533,38.0765152
		c-0.0947571,19.0712357,0.3711624,19.0639496,0.4756317,26.4144669c0.0885696,6.2281799,0.8742523,9.3305206,0.0112,12.2828064
		c-0.1838531,0.628746-0.9347,1.7910614-1.7997131,1.9343872c-3.2901306,0.5450287-4.4260712-1.8006897-4.905983-0.6881866
		c-2.2801971,5.2849731,15.6088715,13.925293,21.0187988,3.8120575c1.3887024-2.595932,1.8553314-8.0250015,1.8726807-11.1298676
		c0.0211792-3.7932358-0.5982056-10.4978333-1.1964264-15.0151749c-0.1779633-1.344101-0.534317-5.3085403-0.534317-5.3085403
		s0.9029694-2.7402878,1.1691132-2.8673859c1.0711212-0.5117188,2.5521088-1.4795151,2.5521088-1.4795151
		s0.1692047-4.8403473,0.0577545-5.6017761c0,0-0.4674683-0.6230392-1.1691742-1.6413345
		c-0.536499-0.7785339-0.9291077-1.3423309-1.4686737-2.2228012c-1.0478821-1.710022-1.8903503-3.6172256-2.1952209-4.3243408
		c-0.3913879-0.9079132-1.7082672-5.2866821-1.3326721-6.3042755c0.7554321-2.046402,3.8054504-3.0543747,7.5909729-6.7579498
		c3.2955627-3.2243118,10.7560425-13.2053032,12.7231293-13.2372971c0.2285461-0.0036774,4.8969879-0.415657,9.0384674,5.5087624
		c3.6722565,5.253231,3.462204,13.7585793,2.254303,18.651722c-1.1443024,4.6356354-5.6876678,12.6958618-9.1569061,16.0489273
		c-0.1006927,0.0973206-0.196991,0.1910934-0.2958069,0.2803116L156.9778442,96.9407272z"/>
	<path class="st7" d="M140.9843292,90.7473984c-0.2793579-0.3545761-1.1118622-1.5296249-1.9758453-2.828804
		c-0.7718964-1.1609268-1.514389-2.4719467-1.9167786-3.3096619c-0.4443665-0.925087-1.1007385-2.2425079-1.4825287-3.6732941
		c-0.3669891-1.3747635-0.6756744-2.6155777-0.708313-2.8742905c-0.017807-0.1407928-0.0170135,1.7040558,0.147522,4.1289902
		c0.1660309,2.4462891,0.4503784,5.3825531,0.7290344,7.4359283c0.3759003,2.7699356,1.3674469,10.8872604,1.3674469,10.8872604
		l0.5928497-1.4519501c0,0,0.2651062-0.96595,0.4754944-1.0870972c0.6564331-0.3778915,2.44487-1.2855606,2.7132874-1.6252441
		C141.0345001,96.2125702,141.0351562,90.8118973,140.9843292,90.7473984z"/>
	<path class="st7" d="M166.7262878,79.0698166c-0.042923,0.0961227-0.2373199,1.8603134-1.1187134,3.9363098
		c-0.9698486,2.2840195-2.3050537,4.9480743-3.2307434,6.4954987c-0.6743011,1.1270218-1.9296112,3.0145798-2.6011353,3.9889069
		c-0.7670288,1.1127625-2.0583954,2.5566559-2.7931824,3.2250671c-0.0290833,0.0263596-0.0148773,0.2821503-0.0148773,0.2821503
		l4.2102203,1.1715012c0,0,2.6895294,5.1524811,4.161499,6.379364c0.9822235,0.818634,2.2364197,1.1376038,2.2364197,1.1376038
		S167.2084808,77.9898682,166.7262878,79.0698166z"/>
	<path class="st7" d="M156.949234,101.9163666c3.9485626,1.430397,4.44104,1.5962143,4.4385834,1.7401657
		c-0.0364075,2.1889114-0.3495636,2.5792236-0.6511993,4.5300217c-0.0704651,0.4553757-1.6672058,2.5935364-1.6672058,2.5935364
		c-0.6638794-2.5956955-1.7270508-4.764328-2.0734406-6.7299423
		C156.8855591,103.4235535,156.8963318,101.8972244,156.949234,101.9163666z"/>
	<path class="st8" d="M140.959137,96.1398239c-0.1472015,0.0335236-2.4547272,1.3454971-2.6384888,1.5324097
		c-0.3031921,0.3083878-1.1885376,2.7118988-1.1757812,2.8412933c0.2091675,2.1250305,0.7239075,6.6833038,1.0851746,9.6634827
		c0.1419525,1.170929,0.236618,2.3622665,0.3166656,3.3291702c0.177887,2.1489868,0.2678375,3.697937,0.2678375,3.697937
		s0.7358856,1.2104721,1.1230621,1.1586456c0.8236237-0.110321,2.1632385-6.0534363,2.1632385-6.0534363
		s-2.1091766-5.9932251-3.3096924-9.6580276c-0.0255737-0.0782547,0.4428101-0.2874146,0.9425964-0.5476456
		c0.4272003-0.2223892,1.1816711-0.615242,1.1816711-0.615242
		C140.9421692,101.1192017,140.9959869,96.1314621,140.959137,96.1398239z"/>
	<path class="st8" d="M161.1778564,98.1692505c0.2352142,0.0326385,1.516861,3.4134445,4.286087,6.4381027
		c0.2658844,0.2903214,1.3059998,2.5182571,1.328476,2.7154388c0.2535706,2.2292786-0.9455719,6.0071182-1.9003906,7.7303696
		c-0.3303986,0.5963058-0.8700714,1.1737823-1.1340332,1.1244965c-0.2586975-0.0483551-0.4235382-0.6042938-0.6155548-1.2894897
		c-0.127182-0.4539871-0.555603-1.3231888-1.1790771-2.646698c-0.7728119-1.6406326-1.3955078-3.1661453-1.2682495-4.0652466
		c0.0804749-0.5683594,0.6562958-3.306427,0.6799316-4.4754562c0.0040741-0.198204-4.4425201-1.5019379-4.4476471-1.7077408
		c-0.0650787-2.6273041-0.0475311-4.4097519,0.0402374-4.9952774
		C156.9774017,96.9324188,161.1515808,98.1656342,161.1778564,98.1692505z"/>
	<path class="st8" d="M142.1399078,112.3055344c0.5107117-0.0153351,5.4872131,1.3480911,6.8884735,2.4978638
		c2.1567078,1.7696304,6.2826538,8.9146042,6.2826538,8.9146042s0.8686981-7.1984482,1.7500916-9.5254211
		c0.6099396-1.6101608,3.6714325-6.0833359,3.6612549-5.8604889c-0.0441742,0.9703903,0.7468262,2.8914032,1.6186371,4.3404922
		c0.9769135,1.623848,1.1557617,3.3216324,1.4450226,3.4165497c0.8389282,0.2751236,3.1127777-6.2125931,2.9097595-8.4473724
		c-0.0715485-0.787468-1.1928101-2.9898682-1.1928101-2.9898682c1.8529968,1.4138641,14.1316528,4.4399719,15.3323822,4.5871658
		c4.9092255,0.6016846,7.0939636,14.8152008,7.0939636,14.8152008l-12.6925354-0.0890884
		c0,0-2.416687,13.9451218-2.6065521,15.2740707c-0.5453796,3.8163605-21.4423828,8.0812073-41.4648895,0.759079
		c-0.7320099-0.2676392-0.118576-2.8391876,0.0135956-3.423645c0.0843048-0.372757,5.9931793-0.0501709,7.3846588-10.1231689
		c0.3349762-2.4246826,0.5195312-5.4407883,0.2474213-9.2167892c-0.0150146-0.2088318,0.7098541,1.1293716,1.0934143,1.1296234
		C140.7868195,118.364975,141.8058777,112.3155365,142.1399078,112.3055344z"/>
	<path class="st9" d="M131.0613556,139.8735504c0,0,3.1815948,2.1787872,11.0394897,2.0263824
		c7.0019531-0.1356354,30.4253387-2.5692596,30.4253387-2.5692596l-6.3921356,39.0131989
		c-7.8924713-1.0980072-15.0727692-2.3366089-19.2994537-3.3779602c-7.2306213-1.7814789-8.6066132-2.5923309-10.8719025-4.4282532
		C130.8126831,166.3639374,131.0613556,139.8735504,131.0613556,139.8735504z"/>
	<path class="st7" d="M131.1526031,183.9839935L110.4263,184.1289062
		c-1.2002563-9.763855-3.7514572-33.5468903-1.1222916-41.2263184c0.4182587-1.222702,4.8477097-1.3802795,4.904892-1.0193024
		c4.3281708,27.6366577,7.0975418,35.7584076,7.6872559,36.9607697
		C123.335434,181.7775421,128.8638458,183.4171448,131.1526031,183.9839935z"/>
	<path class="st1" d="M173.1531525,203.1659851c-15.0339813,4.2212524-43.7700195-2.8609161-57.2984772-14.785614
		c-1.3027649-1.1483154-3.2246017-2.4906921,10.9542084-4.3659058l4.3437195-0.0304718l26.7197113-0.1880646
		c31.299942,1.5353241,74.2412109,4.3442383,75.4752045,8.2106628
		C235.29599,198.1073914,192.1651001,197.8277893,173.1531525,203.1659851z"/>
	<path class="st8" d="M122.5724182,107.5768738c0,0-5.5118561,1.251915-6.632782,2.5781479
		c-2.2992325,2.7204514-3.3919296,10.2161255-3.3046875,13.7452698c0.2719727,11.0047989,3.2798996,32.9765701,6.1617203,43.6172867
		c0.9207001,3.3996735,1.7939453,11.0922241,4.5981445,13.2924042c8.1140671,6.3663177,41.3615341,6.1235046,41.3615341,6.1235046
		l1.3777008-8.5896149c0,0-22.2850494-2.6667786-29.807251-8.4169617
		c-4.9938049-3.8174286-5.1111298-24.7478485-5.0831604-33.5861053c0.0004578-0.1492767-2.8930359,1.5197449-9.7941742-1.381485
		c-3.3559113-1.4108124-6.5504608-5.0068665-5.2018509-6.6677094c0.5028305-0.6192474,2.5255661,1.6725616,5.3191452,0.4610901
		c2.1195221-0.9192047,1.7319565-5.2877655,1.4869156-9.8405304
		C122.8245773,114.6569672,122.6955109,110.3672867,122.5724182,107.5768738z"/>
	<polygon class="st3" points="222.029892,188.9291382 222.7848969,185.889679 163.9509277,190.0493317 163.6366577,193.5439911 	"/>
	<polygon class="st3" points="146.8983002,186.2090149 154.9959869,186.7114716 163.9509277,190.0493317 163.6366577,193.5439911 	
		"/>
	<polygon class="st3" points="164.4821777,186.9341888 154.9959869,186.7114716 163.9509277,190.0493317 	"/>
	<polygon class="st3" points="175.1327515,123.914299 234.8502502,124.322731 222.7848969,185.889679 163.9509277,190.0493317 	"/>
	<path class="st1" d="M234.8502502,124.322731l-12.0653534,61.5669479l-58.8339691,4.1596527
		c0,0,26.8940582-24.9319305,35.8587494-33.2425537C208.5698395,148.6857147,234.8502502,124.322731,234.8502502,124.322731z"/>
</g>
<g>
	<path class="st1" d="M118.5211334,243.2723694c-0.5587006-0.6309509-1.1190414-1.2888489-1.6653824-1.9556122l0.8306808-0.6516113
		c0.5378647,0.6563721,1.0895157,1.3040466,1.6393738,1.9250031L118.5211334,243.2723694z"/>
	<path class="st1" d="M115.2509537,239.3450623c-0.5347519-0.6386261-1.0936661-1.2819519-1.6613846-1.9120178l0.7986374-0.6889343
		c0.5761948,0.6394501,1.1435928,1.2924652,1.6864395,1.9408417L115.2509537,239.3450623z"/>
	<path class="st1" d="M111.8587723,235.5783081c-0.5806046-0.60112-1.1842651-1.205658-1.7944565-1.7970123l0.7490921-0.7402039
		c0.6186142,0.59935,1.23069,1.2122498,1.8192596,1.8216553L111.8587723,235.5783081z"/>
	<path class="st1" d="M108.2104721,232.0413666c-0.6209488-0.564621-1.2630539-1.131073-1.9084244-1.6835327l0.7008591-0.7841034
		c0.65345,0.5592346,1.3037415,1.132782,1.9324493,1.7045593L108.2104721,232.0413666z"/>
	<path class="st1" d="M104.3426514,228.7298737c-0.6515121-0.5260315-1.3262634-1.0554199-2.0056229-1.573288l0.6544342-0.8218079
		c0.6871185,0.523941,1.3696518,1.0593719,2.0288162,1.5914764L104.3426514,228.7298737z"/>
	<path class="st1" d="M100.2880859,225.6367188c-0.6799393-0.4906769-1.3827362-0.9843292-2.0888443-1.4672699l0.6100082-0.8538666
		c0.7134781,0.4879456,1.4237213,0.9868622,2.1107788,1.4828644L100.2880859,225.6367188z"/>
	<path class="st1" d="M96.0737534,222.7534943c-0.7088928-0.4598236-1.4355164-0.9193268-2.159874-1.3657684l0.5673981-0.8815002
		c0.7314148,0.4508362,1.4651031,0.9147644,2.1807251,1.3790131L96.0737534,222.7534943z"/>
	<path class="st1" d="M91.7225342,220.0711212c-0.7290802-0.427002-1.47612-0.8537903-2.2204895-1.2685089l0.5268555-0.9052429
		c0.7509079,0.4183655,1.5048065,0.8490448,2.2404327,1.2798462L91.7225342,220.0711212z"/>
	<path class="st1" d="M87.2544327,217.5810547c-0.745224-0.3950653-1.5097961-0.7904358-2.2726288-1.1752472l0.4878693-0.9259644
		c0.769249,0.388031,1.5403595,0.7867584,2.2919846,1.1851807L87.2544327,217.5810547z"/>
	<path class="st1" d="M20.0964394,216.0057526l-0.7997379-0.6877441c0.2903023-0.3230743,0.5799541-0.647995,0.8701267-0.9734192
		c0.2756023-0.3091431,0.5517235-0.618866,0.8293953-0.9282684l0.7999992,0.6875458
		c-0.2768993,0.3084564-0.5523071,0.6172791-0.8271313,0.9255981
		C20.6780205,215.3559113,20.3875179,215.6817017,20.0964394,216.0057526z"/>
	<path class="st1" d="M82.6858139,215.2758179c-0.7638626-0.366745-1.5436554-0.7319031-2.3178177-1.0855255l0.4504471-0.9439697
		c0.7801895,0.3564148,1.5662613,0.7245483,2.3363953,1.0941467L82.6858139,215.2758179z"/>
	<path class="st1" d="M78.0300446,213.1486816c-0.7745514-0.3365784-1.567421-0.6724548-2.356926-0.9983826l0.4139175-0.9598236
		c0.7955933,0.3283997,1.5946198,0.6669617,2.3751297,1.006134L78.0300446,213.1486816z"/>
	<path class="st1" d="M23.5125198,212.2362061l-0.780117-0.7089539c0.645422-0.6798859,1.2419548-1.2775116,1.8236599-1.8269196
		l0.7394485,0.7495117C24.7277985,210.9860077,24.1446018,211.570282,23.5125198,212.2362061z"/>
	<path class="st1" d="M73.2985153,211.1946564c-0.7902908-0.3098297-1.5967026-0.6178436-2.3968277-0.9153748l0.3781738-0.9738159
		c0.8061523,0.2997589,1.618515,0.6099701,2.4146423,0.9221649L73.2985153,211.1946564z"/>
	<path class="st1" d="M68.4884872,209.4060059c-0.8043289-0.2830963-1.6215591-0.5627747-2.4289322-0.8313751l0.3426208-0.9863434
		c0.8133392,0.2705994,1.636528,0.5522461,2.4466858,0.8374481L68.4884872,209.4060059z"/>
	<path class="st1" d="M27.1863918,208.794754l-0.6760521-0.8048248c0.6949615-0.5589142,1.4054737-1.0756226,2.111824-1.5356903
		l0.5899944,0.867157C28.5355301,207.762146,27.8538971,208.2579041,27.1863918,208.794754z"/>
	<path class="st1" d="M63.6159782,207.7854004c-0.8152809-0.2555389-1.6420822-0.506897-2.4574966-0.7470398l0.3069496-0.9975739
		c0.8213654,0.2419128,1.654129,0.4950409,2.4752998,0.7524261L63.6159782,207.7854004z"/>
	<path class="st1" d="M58.6880379,206.3339539c-0.8246651-0.2272034-1.6599541-0.4494781-2.4828644-0.6607361l0.2701492-1.0076447
		c0.8290062,0.2127838,1.6705894,0.4366913,2.5013351,0.6656799L58.6880379,206.3339539z"/>
	<path class="st1" d="M31.3809128,206.0752563l-0.4850235-0.9273682c0.7795925-0.3903809,1.5921516-0.7394409,2.4150085-1.0374298
		l0.369503,0.9769745C32.8969078,205.37117,32.1232033,205.7035675,31.3809128,206.0752563z"/>
	<path class="st1" d="M53.7132797,205.0598755c-0.8481102-0.1963654-1.6900558-0.3746643-2.5025673-0.529892l0.2040482-1.0224762
		c0.8261604,0.1578827,1.6820412,0.3391266,2.5437508,0.5386963L53.7132797,205.0598755z"/>
	<path class="st1" d="M36.0837517,204.3678436l-0.2538452-1.0117188c0.8310165-0.1997681,1.6998482-0.3618622,2.5820847-0.48172
		l0.146492,1.0317841C37.7122383,204.0213165,36.8796082,204.1765594,36.0837517,204.3678436z"/>
	<path class="st1" d="M48.6908722,204.105835c-0.8617859-0.1244354-1.7144318-0.2251892-2.534111-0.2993164l0.0979843-1.0373077
		c0.8388443,0.0758362,1.7107849,0.1788177,2.5916595,0.3060455L48.6908722,204.105835z"/>
	<path class="st1" d="M41.0747643,203.6785278l-0.0518074-1.0404816c0.8459778-0.0403595,1.7306747-0.0484619,2.621006-0.0243225
		l-0.0293999,1.0413513C42.7509766,203.6318817,41.893734,203.6395416,41.0747643,203.6785278z"/>
</g>
<g>
	<g>
		<path class="st1" d="M106.3477707,224.8930359c0.8224564-0.4257202,1.6321106-0.7882843,2.4062653-1.0775299l0.3797913,0.9733124
			c-0.7339325,0.2742157-1.5037613,0.6191101-2.2883453,1.0251312L106.3477707,224.8930359z M111.3301086,223.0957184
			c0.9945221-0.1732941,1.9183273-0.1955414,2.745842-0.0659637l-0.1682968,1.0286865
			c-0.709465-0.1110687-1.5139313-0.08992-2.3909302,0.062912L111.3301086,223.0957184z M116.6626358,224.1447449
			c0.3738327,0.3020325,0.7131577,0.6642914,1.0084457,1.0766449c0.1442795,0.2014923,0.2804565,0.4183044,0.4049225,0.6443176
			c0.0777054,0.1406097,0.1587143,0.2832947,0.2432327,0.4273224l-0.9236298,0.5183105
			c-0.088913-0.151947-0.1745758-0.3023682-0.2566223-0.4510193c-0.1051025-0.1908417-0.2193298-0.3727722-0.3399048-0.5411835
			c-0.2403107-0.335556-0.5143585-0.6287384-0.8144455-0.8710327L116.6626358,224.1447449z M119.6954269,228.36409
			c0.4832687,0.6537628,1.0129776,1.3096313,1.5744705,1.9490204l-0.807373,0.6788635
			c-0.580925-0.6613159-1.1292114-1.3401184-1.6298447-2.0174561L119.6954269,228.36409z M123.0012207,232.1338196
			c0.6077347,0.5907135,1.2378769,1.1549683,1.8730164,1.677063l-0.6848602,0.7976685
			c-0.6576767-0.5406036-1.3098907-1.1246185-1.9386063-1.7356262L123.0012207,232.1338196z M126.8860779,235.3140259
			c0.7178879,0.4835815,1.4422455,0.9140625,2.1525574,1.2794647l-0.4955292,0.9221039
			c-0.7475281-0.384552-1.5082245-0.8365021-2.2607651-1.3434601L126.8860779,235.3140259z M131.3283997,237.5670624
			c0.8200836,0.2727661,1.6273956,0.455368,2.3995514,0.5426788l-0.1220093,1.0347595
			c-0.8473206-0.0955963-1.7289276-0.2944794-2.6203003-0.591217L131.3283997,237.5670624z M151.2376099,225.1298981
			c0.7244263-0.466217,1.479538-0.9124908,2.2442017-1.3262329l0.5151978,0.9117737
			c-0.7410126,0.4008179-1.4725647,0.8331451-2.1742554,1.2848511L151.2376099,225.1298981z M149.1042175,226.6240387
			l0.6535187,0.8224335c-0.6678925,0.5079651-1.320694,1.0471191-1.9401398,1.6022491l-0.7190704-0.76828
			C147.7390289,227.7065125,148.4137878,227.1491852,149.1042175,226.6240387z M155.8214569,222.647934
			c0.7855988-0.3527985,1.5993958-0.6838684,2.4185638-0.9838257l0.3731232,0.975647
			c-0.7952118,0.291214-1.5851135,0.6125336-2.3476105,0.9550018L155.8214569,222.647934z M145.2368622,230.0918427
			l0.7812653,0.7077026c-0.5744476,0.607193-1.1274567,1.2432861-1.6435547,1.8905334l-0.8393707-0.6409149
			C144.0696869,231.3789062,144.6421967,230.7203979,145.2368622,230.0918427z M160.7224426,220.851181
			c0.8260803-0.2398987,1.6780243-0.4569855,2.5321503-0.6452179l0.233902,1.0163727
			c-0.8310089,0.183136-1.6598358,0.3942566-2.4632568,0.6275482L160.7224426,220.851181z M136.149292,238.0641937
			c0.7939911-0.1286926,1.5604401-0.3773346,2.2778778-0.7390594l0.4876709,0.9262238
			c-0.8161774,0.4114227-1.6881104,0.6941986-2.5915222,0.8406982L136.149292,238.0641937z M142.0144653,234.1203461
			l0.8694153,0.6013641c-0.5451813,0.7544556-1.1358795,1.4236908-1.7557983,1.9892578l-0.7260437-0.7620087
			C140.9688416,235.4318848,141.5112457,234.8166962,142.0144653,234.1203461z M165.8226929,219.7245331
			c0.8490143-0.1319885,1.721344-0.2409668,2.592392-0.3237152l0.10289,1.0368652
			c-0.8497314,0.08078-1.7003632,0.1869659-2.5281372,0.3156586L165.8226929,219.7245331z M171.0210114,219.2282104
			c0.8577423-0.0326233,1.7360229-0.0423889,2.6099091-0.0289612l-0.0168304,1.041687
			c-0.8545837-0.0131073-1.7131958-0.0036163-2.5517273,0.0283203L171.0210114,219.2282104z M176.2372284,219.3059692
			c0.8536682,0.0563812,1.7270508,0.1352692,2.5958862,0.2343597l-0.1233673,1.0347137
			c-0.8516693-0.0971222-1.7076263-0.1744385-2.5442657-0.2296295L176.2372284,219.3059692z M181.4131165,219.8942719
			c0.8440399,0.1347656,1.7054138,0.2914734,2.5603943,0.4655304l-0.2168732,1.0198822
			c-0.8400269-0.1710205-1.6861267-0.3248596-2.5149841-0.4572296L181.4131165,219.8942719z M186.5102692,220.9292908
			c0.8276367,0.2030182,1.6723175,0.4272614,2.510788,0.6665802l-0.2982025,1.0001068
			c-0.8253784-0.2356415-1.6570435-0.4563293-2.4714813-0.656189L186.5102692,220.9292908z M191.4916992,222.3095703
			c0.812439,0.2228546,1.6474609,0.4358673,2.4819031,0.6331177l-0.2500763,1.0126648
			c-0.8468933-0.2001648-1.6945496-0.4164124-2.5193329-0.6426239L191.4916992,222.3095703z M196.4788208,223.4898834
			c0.8279877,0.1663971,1.6768646,0.3225098,2.5234833,0.4642639l-0.1794434,1.0267792
			c-0.858139-0.1435242-1.7188263-0.3017883-2.5582581-0.4704742L196.4788208,223.4898834z M201.5408783,224.3382568
			c0.8396912,0.1137848,1.6977081,0.2171326,2.5502319,0.3072357l-0.1141205,1.0357056
			c-0.8631897-0.0911713-1.7320862-0.1957855-2.5822754-0.3110962L201.5408783,224.3382568z M206.650589,224.8786621
			c0.8420258,0.0650177,1.7050781,0.1196289,2.5651703,0.162384l-0.0540009,1.0404816
			c-0.8699951-0.0432739-1.742981-0.098587-2.5948944-0.1643066L206.650589,224.8786621z M211.7850952,225.1353302
			c0.8446198,0.0201569,1.7097015,0.0298615,2.5712738,0.0289612l0.0011597,1.041748
			c-0.8705139,0.000946-1.7447968-0.0088806-2.5983276-0.0292664L211.7850952,225.1353302z M216.9274445,225.1304626
			c0.8501892-0.0214233,1.7148132-0.0531006,2.5698395-0.0941467l0.0522614,1.0405273
			c-0.8633881,0.0415039-1.7363129,0.0734253-2.5947113,0.0950317L216.9274445,225.1304626z M222.0640259,224.8843079
			c0.8475952-0.0597076,1.7097015-0.1295776,2.5624695-0.207901l0.0993958,1.0372314
			c-0.8603516,0.0789642-1.7302704,0.1495514-2.5853882,0.209671L222.0640259,224.8843079z M283.8603821,182.955307
			l1.0434265,0.2070618c-0.1553955,0.7499542-0.2940369,1.5541382-0.4239502,2.4584503l-1.0542908-0.1449127
			C283.5584412,184.5506439,283.7006531,183.7261047,283.8603821,182.955307z M227.1836548,224.414917
			c0.8420258-0.0949249,1.7000885-0.2003632,2.5504761-0.3134613l0.1434479,1.0322266
			c-0.8575745,0.1141357-1.7228394,0.2205048-2.5721893,0.3161926L227.1836548,224.414917z M283.1087036,187.9981689
			l1.0583191,0.1143188c-0.0483093,0.4274902-0.0949402,0.8562012-0.1417542,1.2856598
			c-0.0444336,0.4079285-0.0888977,0.8166199-0.1349487,1.2258759l-1.0582886-0.1138763
			c0.0458069-0.4080963,0.0902405-0.8156433,0.134613-1.2224426
			C283.0135193,188.8569183,283.0603943,188.427002,283.1087036,187.9981689z M232.2772369,223.7377014
			c0.8405304-0.1284943,1.6934357-0.2672577,2.5347443-0.4123688l0.1846771,1.0260315
			c-0.8479767,0.1461639-1.7076111,0.286087-2.55513,0.4157104L232.2772369,223.7377014z M237.3376007,222.8657074
			c0.8317261-0.1592255,1.6780243-0.3292847,2.5157623-0.5056305l0.2238617,1.0184937
			c-0.8440704,0.1777344-1.697052,0.3491211-2.5351257,0.509552L237.3376007,222.8657074z M282.521637,193.0033264
			l1.0546875,0.1427002c-0.1299133,0.9191895-0.2679749,1.7435455-0.4222107,2.5200958l-1.045105-0.1986389
			C282.259491,194.70961,282.3944702,193.9036407,282.521637,193.0033264z M242.3585968,221.8094635
			c0.8288727-0.1899109,1.6699371-0.3905029,2.4997864-0.5960388l0.2613525,1.0098572
			c-0.8360748,0.2071381-1.6832581,0.4091949-2.5183716,0.6004791L242.3585968,221.8094635z M247.346817,220.5737
			c0.8248138-0.2198029,1.6580963-0.4495392,2.4768524-0.6829071l0.29776,1.0001831
			c-0.8247375,0.2350616-1.664093,0.4665222-2.4948578,0.687851L247.346817,220.5737z M281.5310059,197.884613l1.0256653,0.2795715
			c-0.2414246,0.8479004-0.5202332,1.6700287-0.828949,2.4434204l-0.9916687-0.378952
			C281.0317078,199.4877472,281.2992554,198.6990814,281.5310059,197.884613z M252.2877197,219.1652374
			c0.8175354-0.2484436,1.6420746-0.506897,2.4507599-0.7680054l0.3336334,0.9893188
			c-0.8145142,0.263031-1.6450653,0.5233154-2.4685211,0.7735291L252.2877197,219.1652374z M257.1748047,217.5870209
			c0.8086853-0.2769012,1.6231079-0.5638733,2.4208984-0.8529358l0.3696899,0.9769897
			c-0.8036804,0.291153-1.6242981,0.5803375-2.4389038,0.8592529L257.1748047,217.5870209z M279.6906433,202.4669037
			l0.94104,0.4871216c-0.4095154,0.7575073-0.8702698,1.4996033-1.3694153,2.2056427l-0.8755493-0.5926819
			C278.8619385,203.8947754,279.3006592,203.1881561,279.6906433,202.4669037z M261.9962158,215.837326
			c0.8097839-0.3153381,1.6038513-0.6420441,2.3603516-0.9711456l0.4324341,0.9519653
			c-0.769165,0.3345947-1.576355,0.666687-2.3991394,0.9871063L261.9962158,215.837326z M276.840332,206.5057373l0.8013,0.6860809
			c-0.5635376,0.630127-1.1799927,1.2507172-1.8322144,1.844223l-0.7250671-0.7627563
			C275.7099304,207.7038574,276.3007812,207.1091919,276.840332,206.5057373z M266.6690063,213.7987823
			c0.7788391-0.381958,1.5360718-0.7781525,2.250946-1.1777039l0.5280762,0.9046021
			c-0.7315674,0.4088287-1.5059814,0.8140869-2.302002,1.2044525L266.6690063,213.7987823z M273.157074,209.8725586
			l0.6525879,0.8230591c-0.6691284,0.5079803-1.3889465,1.0113983-2.1323547,1.4915466l-0.5865479-0.8693848
			C271.811676,210.8518677,272.5091553,210.3643036,273.157074,209.8725586z"/>
	</g>
	<g>
		<path class="st1" d="M103.231308,226.7673492c0.2649231-0.1815796,0.5335922-0.3598785,0.8021393-0.5322266l0.5837784,0.87117
			c-0.3477478,0.2232056-0.6959991,0.4568329-1.0357132,0.6950073l-0.6200409-0.8469543
			C103.0509033,226.8917389,103.1408463,226.8293915,103.231308,226.7673492z"/>
	</g>
</g>
<path class="st0" d="M283.8254395,6.4541693c2.0736084-0.2882342,3.9934387,1.1230302,4.2879639,3.1520758l6.0550537,41.713623
	c0.2945557,2.0290451-1.1477356,3.9075432-3.221405,4.1957169l-42.6313477,5.9246712
	c-2.0736847,0.2882347-3.993515-1.1230278-4.2880096-3.1520119l-6.0550995-41.7136917
	c-0.2945099-2.0290461,1.1478119-3.9075422,3.2214203-4.1956511L283.8254395,6.4541693"/>
<path class="st3" d="M276.4200439,23.4656296c0.98172,5.992094-3.1853333,11.6297379-9.3105469,12.5908165
	c-6.1247253,0.9613266-11.8850861-3.1178627-12.8675537-9.1092567c-0.9832001-5.9935493,3.1858521-11.6309414,9.3096313-12.5919542
	C269.6766663,13.3937149,275.4375,17.4727783,276.4200439,23.4656296z"/>
<path class="st3" d="M280.2253113,41.6076622c0.1092224,0.7408295-0.421051,1.43433-1.1781006,1.5410957l-22.6201172,3.1902199
	c-0.7570953,0.1067619-1.4657898-0.4119835-1.5748291-1.152813l-0.06987-0.4747086
	c-0.1091309-0.7408295,0.4210968-1.43433,1.1782227-1.5410919l22.6198273-3.190094
	c0.7570496-0.1067657,1.4658203,0.4119186,1.5749207,1.1527481L280.2253113,41.6076622z"/>
<path class="st3" d="M288.58255,48.8649712c0.1091003,0.7407646-0.421051,1.4342613-1.1781006,1.5410919l-36.2902374,5.1186485
	c-0.7570801,0.1067619-1.4658203-0.4119186-1.5750122-1.1527481l-0.0701294-0.4757881
	c-0.1091003-0.7408295,0.4210052-1.4342651,1.1781158-1.5410309l36.2904358-5.1178818
	c0.7571106-0.1067696,1.4658813,0.4119797,1.5749207,1.1528091L288.58255,48.8649712z"/>
<path class="st5" d="M267.0109253,29.2786636c0,0,4.6909485,3.7621269,5.7903137,2.6856003
	c0.6661682-0.6523762-1.0344238-14.9921741-8.5039673-13.7334213c-8.0506287,1.3567734-5.0619507,15.7007523-4.3169861,15.7170372
	c1.4379272,0.0315552,4.5982666-4.3311806,4.5982666-4.3311806l-0.133667-0.9205894
	c-2.2984314-0.9482136-3.0769958-3.5940247-3.1210327-3.8393021c-0.1924133-1.0710716-1.001709-2.9719353,0.7018127-4.6682644
	c0.7960205-0.7925987,2.4429932-1.4822311,4.1910706-1.0352116c0.0575256,0.0146999,3.5889893,0.9999809,2.9306641,5.6052666
	c-0.3539429,2.4763184-2.2341919,3.6653728-2.2572327,3.6884365L267.0109253,29.2786636z"/>
<path class="st5" d="M269.918396,30.2723064c0.4984436-1.187088-1.0281982-3.7264538-1.1800232-3.8726292
	c-0.3478699-0.3348694-4.7936096,0.0091877-6.402771,0.509304c-0.1876831,0.0583572-0.5733643,2.6495533-0.4148865,3.531868
	C262.4519043,33.3987846,269.2174377,31.9417706,269.918396,30.2723064z"/>
<path class="st10" d="M266.2616272,29.7887249l-0.7468262,0.1037903c-0.4653931,0.0646915-0.8963623-0.2520561-0.9624634-0.7075024
	l0,0c-0.0661316-0.4554462,0.2576599-0.8770599,0.723053-0.9417515l0.7468262-0.1037865
	c0.4654846-0.0646935,0.8963623,0.2520542,0.9624939,0.7075005v0.0000648
	C267.0508118,29.3024216,266.7270813,29.7240353,266.2616272,29.7887249z"/>
<path class="st10" d="M269.4408264,22.6462326c0.2910156,2.2818604-0.9415894,5.9170074-3.6579285,6.3193569
	c-2.4793396,0.3672466-4.4949036-3.0066586-4.7858582-5.2883301c-0.2911682-2.2816696,1.3633423-4.3617191,3.6950073-4.646534
	C267.0237732,18.7459145,269.1497498,20.3641186,269.4408264,22.6462326z"/>
<path class="st10" d="M272.9577942,33.2737045c-4.7477112,4.1583939-10.6086121,3.0957489-13.2536316,1.4428864
	c-0.186676-0.1166534,1.4916992-4.6170712,4.0505676-4.9243164l3.8701477-0.4647598
	C270.1837769,29.0202713,273.1228027,33.1291771,272.9577942,33.2737045z"/>
<path class="st5" d="M265.3007202,18.8825226c0,0,0.0452576,0.1025829,0.0881958,0.2877903
	c0.3088379,1.3330746,0.9653931,5.074482-3.9459229,6.5841484c-0.2378235,0.0731201-1.3481445-2.7372437-0.6107788-4.3368855
	C261.5835266,19.7879047,263.4424133,18.5281372,265.3007202,18.8825226z"/>
<path class="st5" d="M269.8495178,23.9474373c0,0-4.5123596-2.8284225-4.7455139-4.8171692
	c-0.0822144-0.7009754,1.6108398-0.4498062,3.1236267,0.8750324
	C269.8034058,21.3852005,269.8495178,23.9474373,269.8495178,23.9474373z"/>
<g>
	<path class="st0" d="M341.9049683,100.3856583l-27.9720154,3.9138794
		c-1.7016907,0.2381134-3.2784119-0.9186249-3.5217285-2.5836563l-4.0000305-27.3698349
		c-0.2432556-1.6650238,0.9389038-3.20784,2.640564-3.4459457l27.9720154-3.9138794
		c1.7016602-0.2380524,3.2783813,0.9186859,3.5216675,2.5837173l4,27.3698349
		C344.7887878,98.604805,343.6065979,100.1476059,341.9049683,100.3856583z"/>
	<path class="st1" d="M333.1315308,83.8912354c0.6724243,4.0791245-2.1611023,7.9201965-6.3309021,8.5783997
		c-4.1693726,0.6584625-8.0941162-2.1152802-8.7669678-6.1939621c-0.6734009-4.0801392,2.1614075-7.9210205,6.3302307-8.5792313
		C328.5335999,77.0379257,332.4585876,79.8115997,333.1315308,83.8912354z"/>
	<path class="st7" d="M326.7290039,87.8550339c0,0,2.8336182,2.9056015,3.2385559,1.948204
		c0.8157349-1.9290619-0.0085754-10.3303146-5.0934143-9.4684601c-2.9566345,0.5010681-3.8704529,3.2615051-3.177124,5.893692
		c0.5509033,2.0912628-1.3247681,3.9853439-1.091217,3.9902344c0.3933411,0.0082321,1.6188049,1.0697327,2.4332275,0.6569366
		c1.2128296-0.6146164,2.0341797-2.7888794,2.0341797-2.7888794l-0.0916138-0.6267853
		c-1.5655518-0.6440735-2.0973816-2.4450836-2.1275635-2.6119766c-0.1316528-0.7291718-0.68396-2.0228958,0.4748535-3.1789398
		c0.5413513-0.5401001,1.6622925-1.0106888,2.8527832-0.7074356c0.0392151,0.0099411,2.4442444,0.6785431,1.999115,3.8145218
		c-0.2393799,1.6862564-1.5187683,2.4970398-1.5344543,2.5127487L326.7290039,87.8550339z"/>
	<path class="st11" d="M328.7093201,88.5297241c0.338562-0.8085098-0.7025452-2.5365219-0.8059998-2.6359329
		c-0.2370605-0.2277832-3.2637329,0.0092545-4.3590698,0.350769c-0.1276855,0.039856-0.3885803,1.8042984-0.2801514,2.4049759
		C323.6277161,90.6631165,328.2331848,89.6668854,328.7093201,88.5297241z"/>
	<path class="st10" d="M326.20401,88.2080917l-0.5084229,0.0710983c-0.316864,0.0443497-0.6104736-0.1710815-0.6557922-0.4811172
		l0,0c-0.0454102-0.309967,0.1747437-0.5973129,0.4915771-0.6416016l0.5085144-0.0711594
		c0.316864-0.0443497,0.6104431,0.1710205,0.6557922,0.4811172l0,0
		C326.7409363,87.8764572,326.5208435,88.1637421,326.20401,88.2080917z"/>
	<path class="st10" d="M328.3790894,83.3376999c0.199707,1.5534439-0.637146,4.0292587-2.4863281,4.3049469
		c-1.6878662,0.2516098-3.062439-2.0442429-3.2620239-3.5975723c-0.199707-1.5533295,0.9254456-2.9706039,2.5127258-3.1660156
		C326.730835,80.6837158,328.1794434,81.7841263,328.3790894,83.3376999z"/>
	<path class="st3" d="M330.7806702,90.571312c-3.2297668,2.8343124-7.2209167,2.1145172-9.0228882,0.9907913
		c-0.1271667-0.0793304,1.0125732-3.1445312,2.7545776-3.3553467l2.6347961-0.3188324
		C328.8891602,87.6770554,330.8930054,90.472847,330.7806702,90.571312z"/>
	<path class="st7" d="M322.4724121,82.118927c0,0,0.0383301-0.0662155,0.1235657-0.1650543
		c0.6130981-0.7115021,2.4201965-2.5967026,5.2747803-0.6066971c0.1382446,0.0963821-1.0992432,1.1929855-2.289917,1.457901
		C324.3677673,83.0750656,323.0387878,83.251976,322.4724121,82.118927z"/>
	<path class="st7" d="M328.6582336,84.2234421c0,0-4.1480713-0.4269943-5.0376282-1.2165527
		c-0.6688538-0.5937729,1.8721008-1.479187,1.8033752-2.0602875c-0.0563965-0.4771805,1.0965576-0.3072357,2.1273804,0.5937729
		C328.6251526,82.4789581,328.6582336,84.2234421,328.6582336,84.2234421z"/>
	<path class="st7" d="M321.7434387,85.0856705c0,0,0.927124-1.0122757,1.8772888-1.9468079
		c0.5205078-0.5120239,1.2963257-0.8551254,1.3522339-1.334465c0.0556946-0.4773026-1.0969543-0.3057175-2.1265259,0.5967407
		C321.7740784,83.3411865,321.7434387,85.0856705,321.7434387,85.0856705z"/>
	<path class="st1" d="M334.8680725,94.1497498l-0.056366-0.3906937c-0.0879517-0.6082077-0.6684265-1.0355301-1.2900391-0.9495468
		l-23.9266052,3.3085861l0.380188,2.6012039l23.9223938-3.3074417
		C334.5192566,95.325943,334.9559937,94.7579575,334.8680725,94.1497498z"/>
	<g>
		<path class="st1" d="M326.4847717,99.0975723c-0.0413818-0.2867126,0.1644592-0.5545502,0.4575806-0.5950394l14.0477295-1.9425583
			c0.2930908-0.0404816,0.5667419,0.1609421,0.6081848,0.4477158l0.0266113,0.1841965
			c0.0414429,0.2867813-0.1644592,0.5545502-0.457489,0.5950317l-14.0479431,1.9422455
			c-0.2930298,0.0404892-0.5666809-0.1609344-0.6081238-0.4477158L326.4847717,99.0975723z"/>
	</g>
</g>
<path class="st0" d="M94.3450851,0.2984764c11.3036346,0,20.4664917,8.9656763,20.4664917,20.0259132
	c0,7.1913452-3.8734436,13.4955597-9.6928711,17.0264168c-0.8729095,0.531292-1.7925949,0.9989662-2.7485886,1.3980827
	c-2.4628677,1.0295067-5.1776962,1.5989418-8.025032,1.5989418c-11.303627,0-20.4664841-8.9656734-20.4664841-20.0234413
	C73.8786011,9.2641525,83.0414581,0.2984764,94.3450851,0.2984764"/>
<g>
	<path class="st1" d="M87.1154633,9.2331057c-4.9626541,2.7414885-6.7143784,8.9003496-3.9125748,13.7562323
		c2.5425186,4.4063911,7.9584045,6.2129097,12.6479187,4.4633541l-1.5053329-2.6089363
		c-3.2104111,0.9753361-6.7908401-0.3276443-8.5106964-3.3083248c-1.9812164-3.4335938-0.7425461-7.7885981,2.7665863-9.7271624
		c3.5091324-1.9385004,7.959938-0.7265739,9.9410858,2.7070198c1.7198563,2.9806814,1.010582,6.6534014-1.5013046,8.8392687
		l1.5053864,2.6089993c3.9534378-3.0251617,5.1702576-8.4957199,2.6278-12.9021111
		C98.3724594,8.2055616,92.0781174,6.4915538,87.1154633,9.2331057z"/>
	<path class="st1" d="M105.1187057,37.3508072c-0.8729095,0.531292-1.7925949,0.9989662-2.7485886,1.3980827l-6.518219-11.2967052
		c0.4780273-0.1779213,0.9508209-0.3812485,1.4106522-0.635458c0.4598312-0.2516747,0.8807373-0.5440273,1.2834091-0.8541222
		L105.1187057,37.3508072z"/>
	<path class="st1" d="M95.7758789,24.2424507c-0.4628754,0.2557278-0.9426575,0.4531021-1.4304047,0.601305l1.5053329,2.6089363
		c0.4783401-0.1784286,0.9516449-0.3813133,1.410965-0.6350784c0.4593811-0.2537651,0.8814545-0.5454845,1.2847595-0.8540573
		l-1.5053864-2.6089993C96.6594772,23.6867008,96.2388153,23.986721,95.7758789,24.2424507z"/>
</g>
</svg>
