<?xml version="1.0" encoding="utf-8"?>
<!-- Generator: Adobe Illustrator 23.0.3, SVG Export Plug-In . SVG Version: 6.00 Build 0)  -->
<svg version="1.1" id="Слой_1" xmlns="http://www.w3.org/2000/svg" xmlns:xlink="http://www.w3.org/1999/xlink" x="0px" y="0px"
	 width="300px" height="300px" viewBox="0 0 300 300" style="enable-background:new 0 0 300 300;" xml:space="preserve">
<style type="text/css">
	.st0{fill:#D9EAFD;}
	.st1{fill:#A1B4C9;}
	.st2{fill:#B8CBDD;}
	.st3{clip-path:url(#SVGID_2_);}
	.st4{fill:#7AC5C7;}
	.st5{fill:#E7F2EF;}
	.st6{fill:#95A6AA;}
	.st7{fill:#6D7580;}
	.st8{fill:#D9E5E2;}
	.st9{fill:#E5EDFD;}
	.st10{clip-path:url(#SVGID_4_);fill:#A8C7CA;}
	.st11{clip-path:url(#SVGID_4_);}
	.st12{fill:#5E769C;}
	.st13{fill:#435B81;}
	.st14{fill:#C7D3D3;}
	.st15{fill:#2D5082;}
	.st16{fill:#EEF3FB;}
	.st17{clip-path:url(#SVGID_6_);fill:#B8CBDD;}
	.st18{clip-path:url(#SVGID_6_);}
	.st19{clip-path:url(#SVGID_8_);}
	.st20{fill:#C9E7FD;}
	.st21{fill:#A9D8F8;}
	.st22{fill:#4976AC;}
	.st23{fill:#EFFBFF;}
	.st24{fill:#70B4D2;}
	.st25{fill:#FFFFFF;}
	.st26{fill:#2B4159;}
	.st27{fill:#E2D4B7;}
	.st28{fill:#D8C39B;}
	.st29{fill:#97BBD7;}
	.st30{fill:#ABE0F4;}
	.st31{fill:#142447;}
	.st32{fill:#4D6F80;}
	.st33{fill:#B0BBD9;}
	.st34{fill:#D0D7E6;}
	.st35{fill:#304965;}
	.st36{fill:#B5BEC4;}
	.st37{fill:#D8E1E9;}
	.st38{fill:#8997A1;}
	.st39{fill:#D7DDE0;}
	.st40{fill:#B6D3F1;}
	.st41{fill:#95B9D5;}
	.st42{fill:url(#SVGID_9_);}
	.st43{fill:#1D1D18;}
	.st44{fill:#EDBF41;}
	.st45{fill:#F0CC4E;}
	.st46{fill:#6BACAE;}
	.st47{fill:#405B69;}
	.st48{fill:#67A5B2;}
	.st49{fill:#D2D9E8;}
	.st50{fill:#151852;}
	.st51{fill:none;}
</style>
<g>
	<rect x="159.6273041" y="14" class="st0" width="80.5533524" height="111.7445908"/>
	<g>
		<rect x="188.4868469" y="32.3261757" class="st1" width="25.4639988" height="1.0314038"/>
		<rect x="188.4868469" y="34.2122726" class="st2" width="17.2739334" height="1.0311818"/>
	</g>
	<rect x="168.117981" y="61.3635445" class="st2" width="60.8028755" height="1.0314038"/>
	<rect x="168.117981" y="63.2496452" class="st2" width="50.4755936" height="1.0305158"/>
	<rect x="147.9767303" y="24.773407" class="st1" width="34.1502838" height="1.7272322"/>
	<rect x="173.4503479" y="108.2473526" class="st2" width="20.707016" height="1.0305158"/>
	<rect x="173.4503479" y="110.1336746" class="st2" width="15.4993324" height="1.0309598"/>
	<rect x="173.4503479" y="112.0195465" class="st2" width="16.9516888" height="1.0305158"/>
	<rect x="173.4503479" y="113.9045334" class="st2" width="13.9479504" height="1.0305158"/>
	<rect x="173.4503479" y="115.7906342" class="st2" width="20.9102898" height="1.0320698"/>
	<rect x="168.0740509" y="108.2473526" class="st2" width="1.6373453" height="1.0305158"/>
	<rect x="168.0740509" y="110.1336746" class="st2" width="1.6373453" height="1.0309598"/>
	<rect x="168.0740509" y="112.0195465" class="st2" width="1.6373453" height="1.0305158"/>
	<rect x="168.0740509" y="113.9045334" class="st2" width="1.6373453" height="1.0305158"/>
	<rect x="168.0740509" y="115.7906342" class="st2" width="1.6373453" height="1.0320698"/>
	<rect x="173.4503479" y="67.3603821" class="st1" width="30.078474" height="1.0307379"/>
	<rect x="168.117981" y="67.3603821" class="st1" width="3.5071723" height="1.0307379"/>
	<rect x="173.4503479" y="69.2460403" class="st2" width="46.9940681" height="1.0305158"/>
	<rect x="173.4503479" y="71.1330261" class="st2" width="18.8284035" height="1.0302938"/>
	<rect x="173.4503479" y="73.018013" class="st2" width="21.4595547" height="1.0300719"/>
	<rect x="173.4503479" y="74.9049911" class="st2" width="17.7028027" height="1.0309598"/>
	<rect x="173.4503479" y="78.9637909" class="st1" width="20.707016" height="1.0300719"/>
	<rect x="168.117981" y="78.9637909" class="st1" width="3.5071723" height="1.0300719"/>
	<rect x="173.4503479" y="80.8487778" class="st2" width="26.7163944" height="1.0314038"/>
	<rect x="173.4503479" y="82.7350922" class="st2" width="18.8284035" height="1.0316259"/>
	<rect x="173.4503479" y="84.6220779" class="st2" width="21.4595547" height="1.0298499"/>
	<rect x="173.4503479" y="88.9090881" class="st1" width="40.9868279" height="1.0302938"/>
	<rect x="168.117981" y="88.9090881" class="st1" width="3.5071723" height="1.0302938"/>
	<rect x="173.4503479" y="90.7951813" class="st2" width="46.9940681" height="1.0307379"/>
	<rect x="173.4503479" y="92.6810608" class="st2" width="44.1784019" height="1.0305158"/>
	<rect x="173.4503479" y="96.6441727" class="st1" width="40.9868279" height="1.0311818"/>
	<rect x="168.117981" y="96.6441727" class="st1" width="3.5071723" height="1.0311818"/>
	<rect x="173.4503479" y="98.5300446" class="st2" width="46.9940681" height="1.0314038"/>
	<rect x="173.4503479" y="100.4170303" class="st2" width="44.1784019" height="1.0302938"/>
	<rect x="168.0740509" y="58.1581154" class="st1" width="13.1512556" height="1.6751987"/>
	<rect x="168.0740509" y="105.1236191" class="st1" width="13.1512556" height="1.6751987"/>
	<rect x="188.4868469" y="37.5231552" class="st2" width="30.0791855" height="1.0302938"/>
	<rect x="188.4868469" y="39.4090309" class="st2" width="29.0191269" height="1.0307379"/>
	<rect x="188.4868469" y="43.1810036" class="st2" width="23.3213081" height="1.0307379"/>
	<rect x="188.4868469" y="45.0682106" class="st2" width="20.9112396" height="1.0307379"/>
	<rect x="188.4868469" y="47.0941658" class="st2" width="20.9112396" height="1.0302938"/>
	<g>
		<g>
			<defs>
				<rect id="SVGID_1_" x="168.117981" y="31.8952789" width="15.7733707" height="22.0983715"/>
			</defs>
			<use xlink:href="#SVGID_1_"  style="overflow:visible;fill:#B8CBDD;"/>
			<clipPath id="SVGID_2_">
				<use xlink:href="#SVGID_1_"  style="overflow:visible;"/>
			</clipPath>
			<g class="st3">
				<path class="st4" d="M175.9608612,55.8506622c3.2010803,0,6.2230988-0.508152,8.8993683-1.4081345l-0.6449585-5.5379677
					c-0.0793152-0.6813126-1.1966095-1.224762-2.5952911-1.317337c-3.7546234-0.6639977-7.5643311-0.6637726-11.3189392,0
					c-1.3963165,0.0925751-2.5150299,0.6346931-2.5943451,1.317337l-0.646637,5.5379677
					C169.7372894,55.3425102,172.7578888,55.8506622,175.9608612,55.8506622z"/>
				<path class="st5" d="M175.8452148,47.0177994c-1.3542786,0.0057716-2.7104492,0.1245384-4.0592804,0.3569717
					c-0.0026245,0.0561676,0.0106812,0.114109-0.0092621,0.1680527c-1.7425537,4.4759293,3.2271881,4.594696,4.0685425,5.7548599
					V47.0177994z"/>
				<path class="st5" d="M175.7813416,47.0177994c1.3554688,0.0057716,2.7111664,0.1245384,4.0585632,0.3569717
					c0.0054626,0.0561676-0.0092621,0.114109,0.0121155,0.1680527c1.7423096,4.4759293-3.2290955,4.594696-4.0706787,5.7548599
					V47.0177994z"/>
				<path class="st6" d="M170.6733856,42.598259c0.6955414,3.8139267,0.6955414,2.9969749,3.7496338,3.5424232
					c1.9614868,0.3478737,3.6097565-2.40979,3.6097565-5.3803482c0-2.9707794-2.0714417-6.2166176-3.9574127-5.583477
					C170.7527008,36.2941742,170.1416931,39.6740952,170.6733856,42.598259z"/>
				<path class="st7" d="M178.0327759,40.6928444c0-1.717598-0.7639465-3.6412125-1.7458649-4.7483177
					c-0.4742279-0.2772751-0.9645996-0.3401031-1.4210052-0.0881348c-3.8885651,2.1502762-3.9358215,4.4375229-3.4022217,7.3221703
					c0.233429,1.2669411,0.3882599,2.0130768,0.6072235,2.4701729c0.484436,0.1380844,1.2013397,0.1487389,2.3521118,0.3507576
					C176.3845062,46.3453636,178.0327759,43.6245537,178.0327759,40.6928444z"/>
				<path class="st6" d="M181.1241455,42.598259c-0.6953125,3.8139267-0.6953125,2.9969749-3.7498779,3.5424232
					c-1.9605408,0.3478737-3.6090393-2.40979-3.6090393-5.3803482c0-2.9707794,2.2253113-6.5542755,3.9559784-5.583477
					C181.6090546,37.3564339,181.6555939,39.6740952,181.1241455,42.598259z"/>
				<path class="st7" d="M180.4815521,43.2729111c-0.6342773,3.0937653-0.6342773,2.4308777-3.4223938,2.8722115
					c-1.7902832,0.2837143-3.2939301-1.9531403-3.2939301-4.3620415c0-2.4104576,2.0320129-5.3159714,3.6109467-4.5294304
					C180.9246674,39.0214233,180.9671783,40.9001923,180.4815521,43.2729111z"/>
				<path class="st7" d="M176.9793701,36.413166c-0.8076324-0.4548759-1.7256927,0.113884-2.4644623,1.1459541
					c-0.4547424,0.9814529-0.7496796,2.1334038-0.7496796,3.2049866c0,2.9135056,1.6078949,5.6165581,3.5230865,5.2753448
					c1.4231415-0.2548523,2.1654816-0.2071228,2.6282959-0.4910583c0.120636-0.4442215,0.2367554-1.044281,0.3835144-1.85746
					C180.8199463,40.822937,180.774826,38.5510063,176.9793701,36.413166z"/>
				<path class="st5" d="M178.2642975,45.6578369c0-0.0717049-0.0035553-0.1405258-0.0047455-0.2126732
					c-1.5283508-0.6142693-3.069519-0.6129379-4.5978546,0.0017738c-0.0023804,0.0703735-0.0052338,0.1407471-0.0052338,0.2108994
					c0,2.3562889,1.0320435,4.2659187,2.3043976,4.2659187C177.2329865,49.9237556,178.2642975,48.0141258,178.2642975,45.6578369z"
					/>
				<path class="st8" d="M178.2642975,45.6578369c0-0.0717049-0.0035553-0.1405258-0.0047455-0.2126732
					c-0.4830017-0.1942482-0.9660187-0.3187904-1.4511566-0.3911629c-0.5236206,0.088356-1.0458221,0.2650681-1.5668335,0.5412331
					c-0.0018921,0.0921288-0.0054626,0.1851463-0.0054626,0.2783852c0,1.5906181,0.2700043,3.0233955,0.7024384,4.0483589
					c0.0080719,0,0.0147247,0.0017776,0.0223236,0.0017776C177.2329865,49.9237556,178.2642975,48.0141258,178.2642975,45.6578369z"
					/>
				<path class="st8" d="M175.9608612,34.8571777c-2.706665-0.1676064-5.2010345,2.4790535-4.4570465,6.4277382
					c0.7349701,3.8048286,2.5212097,5.5743752,4.4570465,5.5761528c1.9360809-0.0017776,3.7209015-1.7713242,4.4575195-5.5761528
					C181.1633148,37.3366776,178.6663361,34.6895714,175.9608612,34.8571777z"/>
				<g>
					<g>
						<g>
							<path class="st8" d="M172.3501587,42.5121231c0.1600647,0.916851,0.0572205,1.5217972-0.1781158,1.600605
								c-0.2372284,0.0768127-0.5877228-0.3840561-0.8458557-1.2660561
								c-0.2607422-0.8857727-0.2201385-1.7606659,0.1194458-1.858345
								C171.782608,40.8660049,172.1955566,41.5939369,172.3501587,42.5121231z"/>
						</g>
					</g>
					<g>
						<g>
							<path class="st8" d="M179.5696716,42.5121231c-0.1586151,0.916851-0.0550995,1.5217972,0.1802368,1.600605
								c0.2372284,0.0768127,0.5865479-0.3840561,0.8453827-1.2660561c0.2619476-0.8857727,0.2206116-1.7606659-0.1203766-1.858345
								C180.1393585,40.8660049,179.7266388,41.5939369,179.5696716,42.5121231z"/>
						</g>
					</g>
				</g>
				<path class="st5" d="M179.7169037,41.8541183c-0.657547,3.0988731-2.2507172,4.5403099-3.9778442,4.5405312
					c-1.7275848-0.0002213-3.3193359-1.441658-3.9764099-4.5405312c-0.6637268-3.2158661,1.5644531-5.3719139,3.9764099-5.2358284
					C178.1526947,36.4822044,180.3794403,38.6382523,179.7169037,41.8541183z"/>
				<path class="st7" d="M180.8491516,38.5194817c-0.5751495-2.2346306-2.4675446-3.6258965-4.5408783-3.6623039
					c-0.1581573,0.5063782-0.2474365,1.0729179-0.2474365,1.6707611c0,2.1613731,3.6876526,1.972229,4.4432678,4.4603882
					C180.5041046,40.988327,181.0832977,40.4417648,180.8491516,38.5194817z"/>
				<path class="st6" d="M175.9627533,36.4857559c-2.2823029-0.129425-4.3914948,1.8217201-4.0421753,4.792057
					c0.8159332,0.2310982,1.7358856,0.3638535,2.7137756,0.3638535c0.3977814,0,0.7853088-0.0221977,1.1628876-0.0641556
					l0.1009216-0.1671677l0.8831482-1.4514236l-0.4689941,1.5491028c0.0966492-0.0142059,0.1880646-0.0326309,0.2809296-0.0501709
					l0.2367554-0.4080315l1.2070465-2.0745735l0.829483,1.6152573c0,0,0.7926636-0.4253464,1.1065979-0.7601204
					C179.6126556,37.6956482,177.8492126,36.3783112,175.9627533,36.4857559z"/>
				<path class="st6" d="M171.0694885,41.3444099c0.0014191,0.0079918,0.0033264,0.0148735,0.0052185,0.0230904
					c0.4557037,0.0834694,0.9280243,0.1331978,1.4157867,0.1331978c3.4015045,0,6.1594543-2.1391754,6.1594543-4.7769585
					c0-0.4739647-0.0914154-0.9281731-0.2571716-1.3601837c-0.7382965-0.390049-1.5737-0.5874062-2.4319153-0.5376778
					C172.9915466,34.6564903,170.2528229,37.340229,171.0694885,41.3444099z"/>
				<path class="st7" d="M178.6069794,37.3240242c-0.1581573,0.578083-0.3483734,1.1286392-0.5656586,1.6483345l0.8746033,1.618145
					c0,0,0.8420563-0.4275665,1.1768951-0.7643394C179.9044952,38.7681198,179.3542786,37.9114304,178.6069794,37.3240242z"/>
				<path class="st6" d="M179.0173187,37.9507256c0.7216644,0.5494423,1.322937,1.5879517,1.607666,2.8622208
					c0.1548309-0.2841568,0.3870697-0.9539261,0.2241669-2.2934647c-0.3127441-1.2183228-1.0218353-2.3112221-2.3248138-3.0766716
					c0.0987854,0.2710609,0.5642242,0.8120689,0.597702,1.1064377
					C179.1768951,37.0276566,179.1360474,37.4971809,179.0173187,37.9507256z"/>
				<path class="st7" d="M180.5808105,44.6988029c0.0722046-0.3443184,0.1495972-0.7410278,0.2353363-1.2172165
					c0.440033-2.4144516,0.4787292-4.4137688-1.7062225-6.2636795c-0.0572205,0.0810318-0.1139832,0.1704941-0.1678772,0.2699509
					c2.1386414,1.8394775,2.2348022,3.3304176,1.7610626,6.1806526
					C180.6218872,44.1615677,180.5110016,44.8033638,180.5808105,44.6988029z"/>
			</g>
		</g>
	</g>
</g>
<g>
	<rect x="72.5912933" y="34.1074905" class="st9" width="90.6666641" height="125.7726593"/>
	<rect x="104.9732132" y="44.1595726" class="st1" width="43.7039413" height="1.8869851"/>
	<rect x="105.2166138" y="142.0738983" class="st2" width="27.0243912" height="1.3610712"/>
	<rect x="105.2166138" y="144.4201965" class="st2" width="27.0243912" height="1.3615152"/>
	<rect x="105.2166138" y="146.7673798" class="st2" width="27.0243912" height="1.3617373"/>
	<rect x="105.2154312" y="142.0743408" class="st1" width="26.2659168" height="1.3615152"/>
	<rect x="105.2111588" y="144.4217529" class="st1" width="16.916544" height="1.3608493"/>
	<rect x="105.2154312" y="146.7673798" class="st1" width="24.41675" height="1.3617373"/>
	<rect x="85.8230362" y="124.6388168" class="st2" width="23.3075333" height="1.1597188"/>
	<rect x="85.8230362" y="126.7613449" class="st2" width="17.4456234" height="1.1601628"/>
	<rect x="85.8230362" y="128.8836517" class="st2" width="19.0820198" height="1.1610508"/>
	<rect x="82.2308502" y="142.260376" class="st2" width="14.3837051" height="1.1574988"/>
	<rect x="82.2308502" y="144.3817902" class="st2" width="17.4460983" height="1.1603848"/>
	<rect x="82.2308502" y="146.5036469" class="st2" width="11.947753" height="1.1614947"/>
	<rect x="85.8230362" y="131.0072784" class="st2" width="15.6992807" height="1.1594968"/>
	<rect x="85.8230362" y="133.130249" class="st2" width="23.5369282" height="1.1601628"/>
	<rect x="82.0981064" y="124.6388168" class="st2" width="1.8420432" height="1.1597188"/>
	<rect x="82.0981064" y="126.7613449" class="st2" width="1.8420432" height="1.1601628"/>
	<rect x="82.0981064" y="128.8836517" class="st2" width="1.8420432" height="1.1610508"/>
	<rect x="82.0981064" y="131.0072784" class="st2" width="1.8420432" height="1.1594968"/>
	<rect x="82.0981064" y="133.130249" class="st2" width="1.8420432" height="1.1601628"/>
	<rect x="93.1745911" y="75.9237442" class="st1" width="37.5366478" height="1.1597188"/>
	<rect x="82.1467896" y="75.9237442" class="st1" width="3.947439" height="1.1597188"/>
	<rect x="93.1745911" y="78.0462723" class="st2" width="58.6480713" height="1.1608288"/>
	<rect x="93.1745911" y="80.1692429" class="st2" width="23.4989338" height="1.1601628"/>
	<rect x="93.1745911" y="82.2915421" class="st2" width="26.7797985" height="1.1603848"/>
	<rect x="93.1745911" y="84.4147339" class="st2" width="22.0933571" height="1.1608288"/>
	<rect x="93.1745911" y="88.9836807" class="st1" width="25.8415604" height="1.1590528"/>
	<rect x="82.1467896" y="88.9836807" class="st1" width="3.947439" height="1.1590528"/>
	<rect x="93.1745911" y="91.1057587" class="st2" width="33.3398666" height="1.1608288"/>
	<rect x="93.1745911" y="93.2287292" class="st2" width="23.4989338" height="1.1610508"/>
	<rect x="93.1745911" y="95.3519211" class="st2" width="26.7797985" height="1.1599408"/>
	<rect x="93.1745911" y="100.1777191" class="st1" width="51.1485786" height="1.1601628"/>
	<rect x="82.1467896" y="100.1777191" class="st1" width="3.947439" height="1.1601628"/>
	<rect x="93.1745911" y="102.3006897" class="st2" width="58.6480713" height="1.1599408"/>
	<rect x="93.1745911" y="104.4227676" class="st2" width="55.1337776" height="1.1608288"/>
	<rect x="93.1745911" y="108.8842697" class="st1" width="51.1485786" height="1.1599408"/>
	<rect x="82.1467896" y="108.8842697" class="st1" width="3.947439" height="1.1599408"/>
	<rect x="86.7971344" y="75.9237442" class="st1" width="3.9462516" height="1.1597188"/>
	<rect x="86.7971344" y="88.9836807" class="st1" width="3.9462516" height="1.1590528"/>
	<rect x="86.7971344" y="100.1777191" class="st1" width="3.9462516" height="1.1601628"/>
	<rect x="86.7971344" y="108.8842697" class="st1" width="3.9462516" height="1.1599408"/>
	<rect x="93.1745911" y="111.0074615" class="st2" width="58.6480713" height="1.1601628"/>
	<rect x="93.1745911" y="113.1304245" class="st2" width="55.1337776" height="1.1594968"/>
	<rect x="82.0981064" y="71.3696747" class="st1" width="19.7414799" height="1.887207"/>
	<rect x="82.0981064" y="121.1216965" class="st1" width="14.80165" height="1.887429"/>
	<rect x="82.0981064" y="138.5352478" class="st1" width="14.80165" height="1.8860971"/>
	<rect x="122.5962219" y="124.6388168" class="st2" width="28.0635529" height="1.1597188"/>
	<rect x="122.5962219" y="126.7613449" class="st2" width="17.4458618" height="1.1601628"/>
	<rect x="122.5962219" y="128.8836517" class="st2" width="19.0820198" height="1.1610508"/>
	<rect x="122.5962219" y="131.0072784" class="st2" width="15.6992807" height="1.1594968"/>
	<rect x="118.8708267" y="124.6388168" class="st2" width="1.8425078" height="1.1597188"/>
	<rect x="118.8708267" y="126.7613449" class="st2" width="1.8425078" height="1.1601628"/>
	<rect x="118.8708267" y="128.8836517" class="st2" width="1.8425078" height="1.1610508"/>
	<rect x="118.8708267" y="131.0072784" class="st2" width="1.8425078" height="1.1594968"/>
	<rect x="118.8708267" y="121.1216965" class="st1" width="14.8037872" height="1.887429"/>
	<rect x="104.9732132" y="49.3894043" class="st2" width="18.8481121" height="1.1592748"/>
	<rect x="104.9732132" y="51.5114861" class="st2" width="18.1841507" height="1.1606067"/>
	<rect x="126.5294189" y="49.3894043" class="st2" width="18.8481121" height="1.1592748"/>
	<rect x="126.5294189" y="51.5114861" class="st2" width="18.1846256" height="1.1606067"/>
	<rect x="104.9732132" y="59.6956749" class="st2" width="42.5156479" height="1.1608288"/>
	<rect x="104.9732132" y="61.8197517" class="st2" width="30.3572617" height="1.1610508"/>
	<rect x="104.9732132" y="64.1001205" class="st2" width="23.0731525" height="1.1610508"/>
	<g>
		<defs>
			<rect id="SVGID_3_" x="81.9392395" y="44.1595726" width="18.9499874" height="23.0736084"/>
		</defs>
		<clipPath id="SVGID_4_">
			<use xlink:href="#SVGID_3_"  style="overflow:visible;"/>
		</clipPath>
		<rect x="81.9392395" y="44.1595726" class="st10" width="18.9499874" height="23.0736084"/>
		<g class="st11">
			<path class="st12" d="M91.2810135,69.4047699c4.3380737,0,8.4341736-0.6149368,12.0617523-1.7007294l-0.8772202-6.6912498
				c-0.104248-0.8202858-1.6311722-1.3874893-3.5135727-1.5886192c-5.1333694-0.5538864-10.2097321-0.5525551-15.3416672,0
				c-1.884552,0.2011299-2.7555847,0.7676697-2.861969,1.5886192l-1.5288239,6.6912498
				C83.4455032,68.9692078,87.5938492,69.4047699,91.2810135,69.4047699z"/>
			<path class="st13" d="M103.3427658,67.7040405l-0.8772202-6.6912498
				c-0.104248-0.8202858-1.6311722-1.3874893-3.5135727-1.5886192c-2.6617966-0.2874908-5.3074265-0.4224625-7.9535446-0.4102554
				l-2.4008102,3.3848076l9.4996948,6.4783516C99.9284286,68.591362,101.686882,68.2002029,103.3427658,67.7040405z"/>
			<path class="st8" d="M94.6051025,60.6007614c-0.1142273,1.519577-1.6960068,2.5891647-3.5389938,2.5913849l0,0
				c-1.8446579-0.0059929-3.4271393-1.0791321-3.5378113-2.5993767c-0.047966-0.7741089-0.0945129-1.5493279-0.1431885-2.323658
				c-0.1116104-1.5142479,1.5366592-2.9259338,3.6859818-2.9226074l0,0c2.1505203,0,3.7954636,1.4163513,3.6819534,2.9308243
				C94.7029343,59.0516548,94.6537933,59.8268738,94.6051025,60.6007614z"/>
			<path class="st14" d="M92.279335,55.5061226c-0.9011917,0.418911-1.533577,1.908741-1.5188522,3.6718521
				c0.0047531,1.0789108,0.0073624,2.1564903,0.0144882,3.2358437c0,0.2637367,0.0154343,0.5201454,0.0403671,0.7690048
				c0.0824051,0.0046616,0.1652756,0.0093231,0.2507706,0.0093231c1.8429871-0.0022202,3.4247665-1.0718079,3.5389938-2.5913849
				c0.0256424-0.4184685,0.0531921-0.8360481,0.0788345-1.2551804c0.0577164-0.8862152-0.0491409-1.7162666-0.2854385-2.387146
				C93.9845963,56.2973251,93.225647,55.7585335,92.279335,55.5061226z"/>
			<path class="st15" d="M91.0938873,47.3865356L91.0938873,47.3865356c0,0-0.0099716,0-0.0144806,0h-0.0113907l0,0
				c-3.9519577-0.0381813-4.9044495,2.4892693-4.676239,6.9161339c0.0890503,1.7147141,0.5103149,3.0178452,0.8962021,3.994194
				c0.1310883,0.3252258,2.0868835,2.6058159,2.6853027,2.6058159c0.2716599,0,0.7271194,0.1007843,1.1206055,0.0732574
				c0.3918228,0.0275269,0.8223572-0.0732574,1.094017-0.0732574c0.5972366,0,2.5537491-2.2805901,2.6838684-2.6058159
				c0.3870773-0.9763489,0.8168945-2.27948,0.8962097-3.994194C95.9676971,49.9863586,94.6799088,47.2932968,91.0938873,47.3865356z
				"/>
			<path class="st8" d="M87.537796,55.5061226c0.0178146,0.4628677-0.2303391,0.8715668-0.5549622,0.9141884l0,0
				c-0.3236694,0.0439568-0.6079178-0.2899284-0.633316-0.7532387c-0.0384827-0.7459145-0.0793228-1.4918289-0.1194611-2.2379646
				c-0.0251694-0.4633102,0.2303467-0.8822212,0.5692139-0.9290619l0,0
				c0.3414841-0.0459557,0.6309586,0.3003616,0.6497269,0.7634506
				C87.4781952,54.0107422,87.5083618,54.7582092,87.537796,55.5061226z"/>
			<path class="st8" d="M95.6976929,55.6670723c-0.0244598,0.4633102-0.3094254,0.7971954-0.6335678,0.7532387l0,0
				c-0.3229599-0.0443993-0.5732498-0.4513206-0.5540161-0.9141884c0.0282593-0.7479134,0.0588913-1.4953804,0.0883408-2.2426262
				c0.017807-0.4644203,0.3087082-0.8094063,0.6475754-0.7634506l0,0c0.3417206,0.0468407,0.5958099,0.4657516,0.5711136,0.9290619
				C95.776535,54.1752434,95.7378235,54.9211578,95.6976929,55.6670723z"/>
			<path class="st5" d="M94.8097992,53.4535255c-0.0947495-2.0137444,0.1856995-3.8643227,0.1856995-3.8643227
				c0.0123444-0.0068817-1.9280014-0.992775-3.4404449-0.9279518c-0.1588669,0.0062141-0.337677,0.0483971-0.5243301,0.1194344
				c-0.1880722-0.0710373-0.3656998-0.1132202-0.5257568-0.1194344c-1.5110092-0.0648232-3.4516068,0.9210701-3.4435272,0.926178
				c0.0040359,0,0.2828217,1.8523521,0.1880798,3.865654c-0.0976105,2.0153008-0.3771057,3.7708626,0.3020554,4.3307419
				c0.687233,0.5654297,1.8479767,1.854351,3.3891449,1.9180641c0.030159,0.0013313,0.0586548,0,0.0885773,0
				c0.0280228,0.0006676,0.0581818,0.0013313,0.0878677,0c1.5416412-0.0637131,2.7014389-1.3524132,3.3891449-1.9162865
				C95.1852341,57.2252769,94.9071579,55.468605,94.8097992,53.4535255z"/>
			<path class="st8" d="M95.3875656,49.5892029c0.0085449-0.0068817-2.120842-0.992775-3.781929-0.9279518
				c-0.1298981,0.0033302-0.2742767,0.0339661-0.4229355,0.0774765c-0.0106812,3.6525383-0.0199432,7.3068504-0.0308685,10.9600525
				c1.6798553-0.0770302,2.9448471-1.3526344,3.6938248-1.9131775c0.7465973-0.5603256,0.440979-2.3169975,0.3338776-4.332077
				C95.0752869,51.4397812,95.383522,49.5892029,95.3875656,49.5892029z"/>
			<g>
				<path class="st15" d="M86.6323318,53.3449707c0,0-0.3956223-4.2523766-0.6929321-4.685051
					c-0.2996902-0.4510994,3.7705231-1.3151169,4.9771042-1.3213348c1.1920853-0.0610504,2.28302,0.2941475,2.9854507,0.4448853
					c0.6630096,0.1300926-2.6492004,2.7030487-2.6052704,2.7319107c0.0767059-0.2306557,0.1541214-0.4597588,0.2310638-0.6890831
					c-0.2536163,0.1893654-0.5069962,0.3813934-0.756813,0.5736427c-1.030365-0.2637329-2.0738144-0.4983864-3.1319656-0.7030678
					c0.0080643,0.5576591,0.0147171,1.1142082,0.022789,1.669426c-0.2039871,0.282383-0.4084473,0.5654297-0.6064987,0.8493652
					c-0.0470123,0.3685188-0.0918961,0.7377014-0.1360626,1.1064415
					C86.823967,53.3289871,86.728981,53.3372002,86.6323318,53.3449707z"/>
				<path class="st15" d="M95.4348145,53.3460808c0,0,0.5150681-4.2534866,0.6936569-4.6848297
					c0.2070618-0.5023804-3.7707748-1.3128967-4.973793-1.3226662c-1.193512-0.0610504-2.1956329,0.2903748-2.89711,0.4395561
					c-0.4355164,0.0599403,3.5302048-0.1183243,4.6489182,0.5687599c0.3896866,0.2244415-1.1512451,2.0501556-1.1372375,2.0570374
					c0.8743591-0.2561874,1.7613144-0.4912834,2.6596451-0.7061768c-0.0094986,0.5578804-0.0159073,1.113987-0.0239792,1.6703148
					c0.206131,0.2814941,0.4089203,0.5647621,0.6083908,0.8489189c0.0472565,0.3689613,0.0921402,0.7363701,0.1346436,1.1062202
					C95.2438889,53.3312073,95.339592,53.338089,95.4348145,53.3460808z"/>
			</g>
			<g>
				<g>
					<g>
						<path class="st15" d="M88.3385391,55.2665863h-0.0023727c-0.4766006-0.0066605-0.929451-0.1971359-1.2417221-0.5221405
							c-0.2802124-0.2917061-0.4250641-0.6635513-0.4074936-1.0471649l0.013298-0.3518677
							c0.0040359-0.0785866,0.0156708-0.1651649,0.0360947-0.2659531l0.0201874-0.1012306l0.1002121-0.0321922
							c0.9883423-0.3178978,2.0676346-0.3565292,3.0882721-0.110775l-0.0007095,0.0022202
							c0.1574402,0.0384064,0.6554108,0.2273254,0.6639633,0.5405655l0.012825,0.3143501
							c0.0187531,0.3731766-0.115654,0.7232704-0.3770905,1.0047646c-0.3120499,0.335659-0.7734451,0.5401192-1.2657089,0.5607643
							c-0.1776352,0.0037766-0.3526535,0.0055504-0.5274277,0.0075493L88.3385391,55.2665863z M87.0709381,53.2490654
							c-0.0056992,0.0379639-0.0097351,0.0761452-0.0116348,0.112999l-0.013298,0.35009
							c-0.0133057,0.2883759,0.0968857,0.5689812,0.3096542,0.790535c0.2457809,0.2557449,0.6041183,0.4058151,0.9835968,0.4115868
							l0.107811-0.0011101c0.1735916-0.0017776,0.3471756-0.0037727,0.5198135-0.007328
							c0.393486-0.0166473,0.7637024-0.1791496,1.0116196-0.4459915c0.1966324-0.2117882,0.2977829-0.4710808,0.2845001-0.7308197
							l-0.0135498-0.3398781c-0.0254059-0.0581665-0.2538528-0.1711617-0.3680725-0.2062378l-0.0220795-0.0053291
							C88.9391022,52.9553642,87.9666748,52.9806709,87.0709381,53.2490654z"/>
					</g>
					<g>
						<path class="st15" d="M93.4538498,55.2665863h-0.0023727c-0.4775467-0.0066605-0.9308777-0.1975784-1.2431488-0.5236931
							c-0.2797394-0.2914848-0.4234085-0.6631088-0.4051208-1.0460548l0.0128326-0.3498688
							c0.0040283-0.0987892,0.0220795-0.1962471,0.0372772-0.2701721l0.0206528-0.1005669l0.0997391-0.0319672
							c0.9883423-0.316349,2.0671616-0.3547554,3.08638-0.1090012l-0.000473,0.0019989
							c0.1576767,0.0384064,0.6573105,0.2277679,0.6646729,0.5414543l0.0135345,0.3354378
							c0.0175705,0.3516464-0.1166,0.7017365-0.3782883,0.9832306c-0.3120346,0.335659-0.7727203,0.5398979-1.2637939,0.5605431
							c-0.1809616,0.0037766-0.3564529,0.0055504-0.5331268,0.0075493L93.4538498,55.2665863z M92.1867218,53.2477341
							c-0.0066528,0.0426254-0.0104523,0.0792542-0.0116348,0.1125526l-0.012825,0.3507576
							c-0.0140152,0.2892647,0.0952225,0.5689812,0.307518,0.79076c0.2457809,0.2561836,0.604599,0.4064789,0.9845505,0.4124718
							l0.104248-0.0011101c0.1757202-0.0017776,0.3497849-0.0037727,0.5257492-0.007328
							c0.3923035-0.0166473,0.7615662-0.1791496,1.0097198-0.4457703c0.1966248-0.2117882,0.2977829-0.471302,0.2847214-0.731041
							L95.3652344,53.39048c-0.0246964-0.0583878-0.2545624-0.1722717-0.36689-0.2071266l-0.0239716-0.0057716
							C94.0546494,52.9558067,93.0829239,52.9804497,92.1867218,53.2477341z"/>
					</g>
				</g>
				<rect x="90.3161774" y="53.2783699" class="st15" width="1.7069236" height="0.7323722"/>
			</g>
			<path class="st15" d="M93.1734009,57.1875381c-0.1999512-0.2914848-0.8479996-0.5456734-1.6765289-0.5456734
				c-0.0078354,0-0.2927933,0.1849251-0.3039551,0.1795959c-0.0315857-0.0133171-0.2837753-0.1795959-0.2916107-0.1795959
				c-0.8259125,0-1.4979477,0.2541885-1.6952896,0.5456734c-1.2274704,2.3087807-1.6905289,0.2566299-2.2381439-0.4029274
				c0.9180679,2.0916672,1.7743683,3.6301155,4.1402664,3.961338c0.0277863,0.0033302,0.0541382-0.0028877,0.0812149-0.0044403
				c0.0275421,0.0015526,0.7411346-0.084137,0.7679749-0.084137c1.4673157-0.0011101,2.5363998-1.7810936,3.4537354-3.8727608
				C94.864418,57.4441681,94.398262,59.4963188,93.1734009,57.1875381z"/>
			<g>
				<path class="st5" d="M90.200531,57.6313133c-0.0106812,0.0395126-0.017807,0.0812492-0.017807,0.1232071
					c0,0.3070259,0.2894745,0.5561066,0.6480484,0.5561066h0.7181091c0.3569107,0,0.6459122-0.2490807,0.6459122-0.5561066
					c0-0.0419579-0.0068893-0.0836945-0.017334-0.1232071H90.200531z"/>
			</g>
		</g>
	</g>
</g>
<g>
	<rect x="134.2806244" y="70.5138702" class="st16" width="78.120018" height="108.3682175"/>
	<rect x="160.940033" y="79.175354" class="st1" width="24.0149536" height="1.6252491"/>
	<rect x="160.940033" y="81.6086731" class="st1" width="17.6066399" height="1.6254711"/>
	<rect x="160.9787445" y="144.2608032" class="st2" width="20.0819874" height="0.9985481"/>
	<rect x="160.9787445" y="146.0880585" class="st2" width="15.03127" height="1.000324"/>
	<rect x="160.9787445" y="147.9177704" class="st2" width="16.4411201" height="0.9992141"/>
	<rect x="160.9787445" y="149.7470398" class="st2" width="13.526907" height="0.9992141"/>
	<rect x="160.9787445" y="151.5763092" class="st2" width="20.2793236" height="0.9992141"/>
	<rect x="157.7700653" y="144.2608032" class="st2" width="1.5855772" height="0.9985481"/>
	<rect x="157.7700653" y="146.0880585" class="st2" width="1.5855772" height="1.000324"/>
	<rect x="157.7700653" y="147.9177704" class="st2" width="1.5855772" height="0.9992141"/>
	<rect x="157.7700653" y="149.7470398" class="st2" width="1.5855772" height="0.9992141"/>
	<rect x="157.7700653" y="151.5763092" class="st2" width="1.5855772" height="0.9992141"/>
	<rect x="160.9048767" y="103.2996826" class="st1" width="32.3424988" height="0.9987701"/>
	<rect x="151.4037628" y="103.2996826" class="st1" width="3.4003115" height="0.9987701"/>
	<rect x="160.9048767" y="105.1280594" class="st2" width="43.3852577" height="1.000102"/>
	<rect x="160.9048767" y="106.9570999" class="st2" width="20.2465649" height="0.9998801"/>
	<rect x="160.9048767" y="108.7861404" class="st2" width="23.0736275" height="1.0005461"/>
	<rect x="160.9048767" y="110.6156311" class="st2" width="19.0361881" height="1.0005461"/>
	<rect x="160.9048767" y="114.5527725" class="st1" width="22.2657604" height="0.9985481"/>
	<rect x="151.4037628" y="114.5527725" class="st1" width="3.4003115" height="0.9985481"/>
	<rect x="160.9048767" y="116.3813705" class="st2" width="28.7268143" height="0.9992141"/>
	<rect x="160.9048767" y="118.2104111" class="st2" width="20.2465649" height="0.9992141"/>
	<rect x="160.9048767" y="120.039238" class="st2" width="23.0736275" height="0.9989921"/>
	<rect x="160.9048767" y="124.1970367" class="st1" width="24.5753784" height="0.9992141"/>
	<rect x="151.4037628" y="124.1970367" class="st1" width="3.4003115" height="0.9992141"/>
	<rect x="160.9048767" y="126.0254211" class="st2" width="41.5258789" height="1.000324"/>
	<rect x="160.9048767" y="127.8557968" class="st2" width="45.453846" height="0.9985481"/>
	<rect x="160.9048767" y="131.6985779" class="st1" width="44.070118" height="0.9989921"/>
	<rect x="151.4037628" y="131.6985779" class="st1" width="3.4003115" height="0.9989921"/>
	<rect x="155.407959" y="103.2996826" class="st1" width="3.4014988" height="0.9987701"/>
	<rect x="155.407959" y="114.5527725" class="st1" width="3.4014988" height="0.9985481"/>
	<rect x="155.407959" y="124.1970367" class="st1" width="3.4014988" height="0.9992141"/>
	<rect x="155.407959" y="131.6985779" class="st1" width="3.4014988" height="0.9989921"/>
	<rect x="160.9048767" y="133.5282898" class="st2" width="46.6941452" height="0.9998801"/>
	<rect x="160.9048767" y="135.3566742" class="st2" width="33.6713715" height="1.0005461"/>
	<rect x="160.940033" y="99.3760834" class="st1" width="17.0105934" height="1.6256931"/>
	<rect x="160.9787445" y="141.229187" class="st1" width="12.7539473" height="1.6263591"/>
	<rect x="160.9787445" y="158.8594055" class="st2" width="43.2145195" height="0.9985481"/>
	<rect x="160.9787445" y="160.6880035" class="st2" width="41.6593246" height="0.9998801"/>
	<rect x="160.9787445" y="162.5166016" class="st2" width="42.6913643" height="0.9998801"/>
	<rect x="160.9787445" y="164.3456421" class="st2" width="29.106741" height="0.9992141"/>
	<rect x="160.9787445" y="155.8284607" class="st1" width="12.7539473" height="1.6256931"/>
	<rect x="160.940033" y="87.0802689" class="st2" width="24.1799927" height="0.9992141"/>
	<rect x="160.940033" y="88.9088669" class="st2" width="15.0319939" height="1.0005461"/>
	<rect x="160.940033" y="90.7381287" class="st2" width="16.4416065" height="0.999658"/>
	<rect x="160.940033" y="92.5671768" class="st2" width="13.5269308" height="0.9992141"/>
	<g>
		<defs>
			<rect id="SVGID_5_" x="142.47258" y="79.175354" width="15.5043192" height="15.2077675"/>
		</defs>
		<clipPath id="SVGID_6_">
			<use xlink:href="#SVGID_5_"  style="overflow:visible;"/>
		</clipPath>
		<rect x="142.47258" y="79.175354" class="st17" width="15.5043192" height="15.2077675"/>
		<g class="st18">
			<defs>
				<path id="SVGID_7_" d="M161.737442,87.137764c0,6.3737946-5.2675171,11.541687-11.7670288,11.541687
					c-6.4990387,0-11.7670441-5.1678925-11.7670441-11.541687c0-6.3746796,5.2680054-11.5441284,11.7670441-11.5441284
					C156.4699249,75.5936356,161.737442,80.7630844,161.737442,87.137764z"/>
			</defs>
			<clipPath id="SVGID_8_">
				<use xlink:href="#SVGID_7_"  style="overflow:visible;"/>
			</clipPath>
			<g class="st19">
				<path class="st8" d="M152.9674988,91.0116348c0,1.162384-1.3566589,2.1049881-3.0310364,2.1049881l0,0
					c-1.6739349,0-3.0298767-0.9426041-3.0298767-2.1049881v-1.7788773c0-1.1614914,1.3559418-2.1043167,3.0298767-2.1043167l0,0
					c1.6743774,0,3.0310364,0.9428253,3.0310364,2.1043167V91.0116348z"/>
				<path class="st14" d="M152.9674988,92.5227737c0,1.6134872-0.735672,2.9219437-1.6439972,2.9219437l0,0
					c-0.9083099,0-1.6454163-1.3084564-1.6454163-2.9219437V90.050827c0-1.6134872,0.7371063-2.9223862,1.6454163-2.9223862l0,0
					c0.9083252,0,1.6439972,1.3088989,1.6439972,2.9223862V92.5227737z"/>
				<polygon class="st20" points="146.7876282,90.5416641 141.9810181,91.930481 140.3821411,96.78936 150.4565125,99.7854462 
					150.3532104,94.5329666 149.8887177,93.014946 148.3152466,91.6845093 				"/>
				<polygon class="st21" points="150.4047394,94.5329666 149.6818848,93.0573502 148.255188,91.8572235 145.9617004,93.6656189 
					146.3694305,90.7008362 146.8401031,89.6885223 149.8887177,92.884407 				"/>
				<polygon class="st20" points="153.1296844,90.5416641 157.9358063,91.930481 159.5351562,96.78936 149.4615173,99.7854462 
					149.563858,94.5329666 150.0297699,93.014946 152.1997681,91.7997284 				"/>
				<g>
					<path class="st8" d="M147.1796722,86.8029938c0,0.2506332-0.208725,0.4555359-0.4642487,0.4555359l0,0
						c-0.2559814,0-0.4656677-0.2049026-0.4656677-0.4555359V85.587326c0-0.2524109,0.2096863-0.4550934,0.4656677-0.4550934l0,0
						c0.2555237,0,0.4642487,0.2026825,0.4642487,0.4550934V86.8029938z"/>
					<path class="st8" d="M153.5500031,86.8029938c0,0.2506332-0.208252,0.4555359-0.4654388,0.4555359l0,0
						c-0.2564545,0-0.4644775-0.2049026-0.4644775-0.4555359V85.587326c0-0.2524109,0.2080231-0.4550934,0.4644775-0.4550934l0,0
						c0.2571869,0,0.4654388,0.2026825,0.4654388,0.4550934V86.8029938z"/>
					<path class="st5" d="M153.0432434,85.2638779c-0.191864-1.8115082-0.0645905-2.8093872-0.0645905-2.8093872
						s-1.5266876-0.7508011-2.674118-0.6877518c-0.1199341,0.0064392-0.2557678,0.0457306-0.4015656,0.1112213
						c-0.1415405-0.0654907-0.2780762-0.1047821-0.398468-0.1112213c-1.1474609-0.0630493-2.6746216,0.6877518-2.6746216,0.6877518
						s0.1272888,0.997879-0.0643463,2.8093872c-0.1899719,1.8095093-0.5722961,3.3714828,0,3.9327011
						c0.5749054,0.5623169,1.591507,1.8121719,3.0566864,1.8743286c0.0265961,0.000885,0.0546265,0,0.0807495,0
						c0.0280151,0,0.0553284,0.000885,0.0847778,0c1.4642181-0.0621567,2.481308-1.3120117,3.0554962-1.8743286
						C153.6167297,88.6353607,153.2344055,87.0733871,153.0432434,85.2638779z"/>
					<path class="st8" d="M152.978653,82.4544907c0,0-1.5266876-0.7508011-2.674118-0.6877518
						c-0.0900116,0.0042191-0.1902161,0.0330811-0.2935181,0.0710373v9.2311325
						c1.4502106-0.076149,2.4623108-1.313118,3.0322266-1.8723297c0.5734863-0.5612183,0.1911621-2.1231918,0-3.9327011
						C152.8513794,83.4523697,152.978653,82.4544907,152.978653,82.4544907z"/>
					<polygon class="st15" points="153.02948,85.4860992 153.2237244,83.3054047 152.7715912,80.9333572 150.3142548,80.5484085 
						150.4436798,81.8937225 152.0606079,83.1764297 					"/>
					<polygon class="st22" points="146.7481995,85.1060333 145.794281,81.7329941 150.4412994,79.48526 150.4412994,81.8584213 
						149.3591614,84.2315826 149.3591614,82.6709366 148.3665466,85.0296707 148.914856,82.7952576 147.7355957,85.2190323 
						147.0675964,83.6705933 					"/>
					<g>
						<path class="st22" d="M150.3106995,89.7968597l-0.5069885,0.028862l-0.0847778,0.6335831
							c0,0-1.2391205-0.3290024-1.6323547-1.5455551l-0.2797546,0.2202225
							c-0.0026093,0.5825195,0.0256653,1.6856308,0.6452026,1.8776627c1.5490112,0.4848404,1.9154205,0.2204437,1.9154205,0.2204437
							l0.1398773-0.3294449L150.3106995,89.7968597z"/>
						<path class="st22" d="M149.7747345,89.7968597l0.5084229,0.028862l0.0842896,0.6335831
							c0,0,1.2384186-0.3290024,1.632843-1.5455551l0.2823639,0.2202225c0,0.5825195-0.0296936,1.6856308-0.6485443,1.8776627
							c-1.5480499,0.4848404-1.7453918,0.2204437-1.7453918,0.2204437l-0.3098907-0.3294449L149.7747345,89.7968597z"/>
					</g>
					<polygon class="st22" points="149.7887421,88.2535248 147.9664154,88.6287079 147.9003906,88.3163528 149.7234344,87.9407349 
											"/>
					<polygon class="st22" points="152.0831757,88.3163528 150.2620239,87.9407349 150.1919708,88.2535248 152.0157166,88.6287079 
											"/>
				</g>
				<path class="st23" d="M150.4386902,99.307045v-6.5214233l-0.4089203,0.2293243l-0.4659119,1.5180206l-0.1023407,5.2524796
					l0.9550934-0.2859344C150.4308624,99.4369125,150.4386902,99.3729782,150.4386902,99.307045z"/>
				<polygon class="st21" points="149.5239716,94.6339798 150.2359009,93.0573502 151.6462402,92.2053146 153.00383,93.2760162 
					153.3286896,90.6140366 153.1517792,89.7464676 150.0297699,92.884407 				"/>
			</g>
		</g>
	</g>
</g>
<path class="st24" d="M29.2673016,105.2816772c13.4017735,0.3403244,42.0179138-0.0077667,51.7674179-2.6875076
	c9.8551941-2.7401276,10.7889099-36.9340668,6.1395111-42.1312714c-4.7467575-5.134819-21.5937119-6.6650505-30.062561-7.091732
	C36.003334,52.3066826,16.4228668,53.6988335,15.472043,69.3572617"/>
<path class="st24" d="M67.1713104,101.0790329c0,0-0.5259933,7.2307053-10.53125,11.3627548
	c0,0,5.1837082-10.0487518,0.525753-14.9788895C54.3705711,94.5041122,67.1713104,101.0790329,67.1713104,101.0790329z"/>
<polyline class="st25" points="32.4645767,68.612236 72.6516113,68.612236 72.6516113,71.6442871 32.4645767,71.6442871 "/>
<polyline class="st25" points="32.4645767,76.1925812 72.6516113,76.1925812 72.6516113,79.2241898 32.4645767,79.2241898 "/>
<polyline class="st25" points="32.4645767,83.7724915 72.6516113,83.7724915 72.6516113,86.8058777 32.4645767,86.8058777 "/>
<path class="st16" d="M40.3585052,242.1464844c18.4494133,1.2649384,75.6045151,5.489563,110.1528625,10.5091705
	c64.0606842,9.307724,117.17836,2.7230377,83.2474213-10.0329895c-9.4818726-3.5650635,19.381485-20.1876373-48.539032-28.0676727
	c-59.622879-6.9163666-121.0405502-2.583847-150.7445374-0.9099731"/>
<g>
	<g>
		<path class="st26" d="M125.0110397,85.6514893l-0.596283-7.4882278c-1.2889786-1.5217972-3.0148849-2.4017944-4.8405533-2.262825
			c-3.5204773,0.2697296-6.0775375,4.2237396-5.7123108,8.8313141c0.3671265,4.6069031,3.5157242,8.1231308,7.0395203,7.8545151
			c2.4623184-0.1891403,4.4518204-2.1820221,5.3005371-4.9394608
			C125.5329971,87.1826096,125.0756302,86.4744339,125.0110397,85.6514893z"/>
		<path class="st26" d="M110.8721695,89.0365143c-0.2127762,1.1768112,0.9850159,2.368721,2.6784058,2.6626511l3.8553009,0.6726532
			c1.6933899,0.2939224,3.2359848-0.4215775,3.449707-1.5983887l1.9401169-10.7313919
			c0.2139587-1.1781464-0.9840698-2.3691711-2.6757889-2.665535l-3.859108-0.6699905
			c-1.6893539-0.2963715-3.2345581,0.4211273-3.4477997,1.5968323L110.8721695,89.0365143z"/>
		<path class="st27" d="M120.6926804,94.3338394c2.2371902,1.1266403,3.410759,0.8953171,1.6026688,1.5098038
			c-0.9151993,0.9621429-11.6373825-1.1526108-12.1379623-2.5076904c-0.0835876-0.2273254,4.3501892-0.5760803,4.3865204-0.7383652
			c0.3987045-1.8923111,0.6117172-3.501358,0.2118225-5.6698303c0.0339584-0.1660614,0.1726379-0.2903748,0.307991-0.2779465
			c0.8195038,0.0748138,1.6425705,0.1358643,2.4670639,0.212677c0.1348801,0.0155411,1.7233047,0.4684143,1.3132019,1.2034531
			C118.5276794,90.134964,118.3234558,93.1414871,120.6926804,94.3338394z"/>
		<path class="st27" d="M121.8453522,88.1194382c0.0437012-0.0719223,0.0840683-0.1465149,0.1258545-0.2213287
			c0.0109253-0.0224228,0.0239868-0.0437317,0.0358582-0.0685959c0.0503464-0.0916901,0.0985489-0.1873703,0.1458054-0.2872696
			c0.0116501-0.0268631,0.0230331-0.0521698,0.0360947-0.0776978c0.0327682-0.0745926,0.0660172-0.1498489,0.0985489-0.2259979
			c0.0192337-0.0428391,0.0356216-0.085022,0.0534286-0.1263123c0.02565-0.0639343,0.0515442-0.1280975,0.0774155-0.1949158
			c0.0185242-0.0457306,0.0351486-0.0912399,0.0515366-0.1374207c0.0315781-0.085907,0.061264-0.1722641,0.0921326-0.2635117
			c0.0211334-0.0639343,0.0418091-0.1307526,0.063179-0.2013474c0.0199356-0.0592728,0.03965-0.1214371,0.0565109-0.1824875
			c0.0175705-0.0617142,0.0363312-0.1245346,0.0543747-0.1886978c0.0135345-0.0539398,0.0294495-0.1083298,0.0417938-0.1644974
			c0.013298-0.0441818,0.0235138-0.0870209,0.0365753-0.1300888c0,0,0-0.0042191,0-0.0059967
			c0.1849823-0.7574615,0.1624222-4.3973389-0.3445663-6.1682205c-0.0605545-0.2137833-0.2771301-0.3920517-0.5970001-0.3802872
			c-1.914711,0.0861359-7.6894684-0.5521088-6.5424957,4.7223511v0.0042191
			c0.0026169,0.0144272,0.0569916,0.4635315,0.0883408,0.6715393c0.0026093,0.0179825,0.0056992,0.0355225,0.0083084,0.0532837
			c0.0339584,0.2082367,0.0691071,0.4144669,0.1116104,0.6140442c0.0023804,0.0144348,0.0056992,0.0277481,0.0085526,0.039299
			c0.0446396,0.2046814,0.090477,0.4042587,0.1420059,0.599617c0.0033264,0.0068817,0.0047455,0.0150909,0.0059357,0.020195
			c0.6668091,2.4945984,2.0094604,4.2008743,3.5546646,4.1957703c0.9016724-0.0042191,1.7306747-0.5894089,2.3927307-1.5704193l0,0
			c0.0054626-0.0091019,0.0114136-0.0173111,0.0149612-0.0246353c0.0482101-0.0750351,0.0990295-0.1516266,0.1458054-0.2313232
			C121.8197021,88.1669464,121.8332367,88.1420822,121.8453522,88.1194382z"/>
		<path class="st28" d="M142.7558746,94.8502045c0,0,0.3930054,0.2146759,0.579895-0.0748138
			c0.3091888-0.4795151,0.484436-1.6039352,0.5267029-2.0057526c0.050827-0.4502106-0.077652-2.6051483-0.077652-2.6051483
			s-0.4891815,0.6453476-0.4397888,1.5100327C143.4143829,92.9403534,142.7558746,94.8502045,142.7558746,94.8502045z"/>
		<path class="st28" d="M142.8171539,94.560051c0.4124756-0.7061768,0.2823334-1.6392365-0.1398773-2.7043839
			c-0.4034576-1.0074234-0.0244598-1.6001587-0.0244598-1.6001587s0.3286591,0.6227036,0.786499,2.2535019
			c0.1258698,0.455986,0.2398529,0.963028,0.1890259,1.4298935
			C143.4799194,95.3501434,141.7494812,96.3751144,142.8171539,94.560051z"/>
		<path class="st27" d="M120.7898026,215.5908356c0,0-0.8620148-0.3651886-3.2464218-0.8085175
			c-1.3967972-0.2595215-2.4559097-0.2526398-2.959816-0.7652283c-0.8259201-0.8478241-0.2970734-3.5222321-0.7024307-3.4316559
			c-1.9731293,0.4448853-2.7137833,5.043808-1.564209,5.6087799c1.1512451,0.5652161,7.65242,0.3643036,8.1850662,0.3236847
			C121.0379562,216.4763794,120.9567413,215.4671783,120.7898026,215.5908356z"/>
		<path class="st27" d="M106.462616,164.3545227c0.2754593-1.140625,0.5540085-2.2628326,0.8387451-3.3688202
			c0.9475021-1.6265869,1.7703171-2.4923706,2.3960571-2.3867035c2.3635178,0.4018097,4.4608383,9.4526825-3.0735626,31.3430481
			c-0.3799515,1.1008759-5.3487396,20.125473-5.4237823,19.6699219
			C100.2642136,203.9632263,102.4028549,181.2623596,106.462616,164.3545227z"/>
		<path class="st27" d="M108.9087753,131.1373749c1.883606-0.3008118,1.9007034,0.7645569,3.196579,3.4356384
			c2.5447006,5.2358246,3.8873596,12.9611511,2.7949982,21.1675415c-1.2780609,9.6131897-3.9683456,17.9838409-7.1276245,23.2330017
			c-1.8156815-4.5209961-2.6655731-9.9495239-3.3430786-15.9630127
			C102.3145218,144.303421,103.1214294,132.0604401,108.9087753,131.1373749z"/>
		<path class="st28" d="M110.8059158,152.5735168c-2.506485-0.6204834-4.9828033-0.870224-7.3199692-0.8267212
			c0.1489029,3.1543732,0.4367065,6.6144409,0.8418274,10.339798c2.8066406-2.945694,8.2337418-1.3320007,9.4600296,0.1360779
			c0.4412155-2.0792389,0.8157196-4.2459412,1.1125488-6.4821167c0.0871429-0.6442413,0.1526871-1.2847137,0.2094421-1.9209595
			C113.7270126,153.360733,112.2924652,152.9409332,110.8059158,152.5735168z"/>
		<path class="st27" d="M97.9992371,106.2378235c2.7914429,2.5019226,5.3183441,13.8933182,5.3183441,13.8933182
			s-0.3303223,4.5143356-6.5315704-9.7477188C94.9235458,106.0992966,97.3093872,105.6213379,97.9992371,106.2378235z"/>
		<path class="st27" d="M126.7334137,102.5431061c2.0058899,1.6569977,3.5192871,7.1356964,4.7446136,10.6217346
			c0.6898346,1.9666824,0.2975464,3.3914642,0.2975464,3.3914642s-1.0068665,4.4430695-5.6619568-8.1289062
			C124.947403,105.2812347,125.9808655,101.9224014,126.7334137,102.5431061z"/>
		<path class="st27" d="M130.0570068,116.2483902c0.3224792-4.5174408,9.3432007-15.9090576,9.3432007-15.9090576
			s4.5658112-3.317543-4.479599,13.6841965C132.2041931,119.1274872,129.9788818,117.3619385,130.0570068,116.2483902z"/>
		<path class="st27" d="M142.8582306,93.6687317l0.338623,0.2397537l0.146759,1.399704c0,0-0.7957611,2.4102325-1.4295654,3.2138672
			c-0.63237,0.8036346-1.7503815,4.5320969-2.0139618,4.9374619c-0.2621765,0.4064789-2.5387878,0.2399826-2.5387878,0.2399826
			s2.0638428-3.4760513,2.7622375-4.9230347c0.6981659-1.4445419,0.9700623-3.8445663,1.2215424-4.4215393
			c0.432663-0.9838943,0.5950928-1.5075912,0.5950928-1.5075912s0.5043793,0.2992554-0.0814514,1.8827667
			c-0.1536407,0.4175797,0.404892,0.3645248,0.404892,0.3645248L142.8582306,93.6687317z"/>
		<path class="st27" d="M120.4321747,138.5196991c-2.3511734,4.7054749-4.015358,11.8096466-3.8954315,19.5227509
			c0.13797,9.0344391,1.4407196,17.0037384,3.364212,22.099472c1.7439728-4.0885315,2.5786743-9.1398773,3.8633804-14.6407776
			C127.7236557,148.5486908,121.633049,136.1172333,120.4321747,138.5196991z"/>
		<path class="st28" d="M124.3299789,156.7415314c0.573967-3.022049,0.2094498-8.3455658-1.6321182-9.8778076
			c-0.4549789-0.5474396-0.7169189-0.2439728-1.5340424,0.0310822c-1.5801163,0.5343475-3.172348,2.1012115-4.2848892,4.6246643
			c-0.0940323,1.7196045-0.1398621,3.4920349-0.1220551,5.3022156c0.0175705,2.0004272,0.0755157,2.3056641,0.1612396,4.1806641
			C117.5507278,160.344574,120.2056274,157.3553619,124.3299789,156.7415314z"/>
		<path class="st27" d="M119.9009552,165.962677c-0.9208908-0.4635315-2.5976639,0.6782074-3.7603149,2.9490204
			c-2.2811203,4.4477386-2.995903,10.544693-3.4024429,18.0830994c-0.4279175,7.9732819-0.4447784,13.9161835-0.3307953,18.8309937
			c0.1118469,4.8519897-1.9740753,11.6313782,1.7582169,10.9866943c-0.440033-6.6745911,0.6912689-16.5623932,2.6912308-21.7440643
			C123.6797943,177.3693848,122.7254105,167.3830261,119.9009552,165.962677z"/>
		<polygon class="st24" points="122.2856293,110.0315552 107.8558426,109.0085831 107.1415329,92.699707 124.1725388,95.3670197 		
			"/>
		<path class="st24" d="M101.4503632,157.637085c8.2389755-0.6648865,16.4774704-1.3302155,24.7173843-1.9933319
			c0.9292145,0.0737-4.2912903-15.0823364-3.8377228-45.786911c-4.8450699-0.3916016-9.6941757-0.7832108-14.5411453-1.1734848
			C108.5131531,114.7543411,95.5668488,124.7906647,101.4503632,157.637085z"/>
		<path class="st24" d="M99.8125458,108.6112061l7.8965378-9.6933289l2.0301208-4.5520706
			c-0.1522141-0.4153595-0.4307709-0.7900925-0.8247299-1.0680389l-0.2659607-0.1891403
			c-1.0367889-0.7263794-2.476326-0.492836-3.2172241,0.5243607l-9.0485001,12.3983765L99.8125458,108.6112061z"/>
		<path class="st24" d="M127.7927475,114.3460922l-4.297226-10.6812286l-1.5243149-7.3685608
			c0.2802124-0.3432083,0.6658707-0.6122742,1.1301117-0.7490234l0.3151245-0.0965729
			c1.2170258-0.3629608,2.5031509,0.3112488,2.8762131,1.5047073l5.0497665,14.6587677L127.7927475,114.3460922z"/>
		<path class="st27" d="M103.3622284,123.1627502c-0.0809784,0.2568512-0.3573914,0.3984833-0.6188431,0.3201218
			l-0.6262054-0.1935806c-0.2588425-0.080368-0.4056015-0.3507614-0.3236694-0.6053925l0.8831406-2.773201
			c0.0826416-0.2579651,0.3597794-0.3991547,0.6212234-0.319458l0.626442,0.1946945
			c0.2607346,0.0796967,0.4055939,0.3514252,0.3246155,0.6073914L103.3622284,123.1627502z"/>
		<path class="st24" d="M100.9376755,211.5196075c-1.4768219,3.0444794-3.3388138,5.204071-4.1599731,4.8195801
			c-0.8216476-0.3825073-0.2878189-3.1623688,1.189949-6.2072906c1.4768219-3.0449371,3.3404694-5.2027588,4.1623535-4.8180389
			C102.9499817,205.6965942,102.4156723,208.4755707,100.9376755,211.5196075z"/>
		<path class="st27" d="M101.3777008,209.7227478c-0.7456512,2.3776093-2.377533,4.108963-3.1982269,3.727356
			c-0.8202133-0.3829498-0.5523529-2.4166718,0.6395111-4.6124573c1.5060196-2.7794189,2.0837784-3.5770569,2.1868439-5.554184
			C101.1022339,201.4300079,104.180542,200.7806549,101.3777008,209.7227478z"/>
		<path class="st27" d="M112.5615158,212.9650269c0,0.0444031,0.0403748,0.0825958,0.0850143,0.0825958h0.1659927
			c0.0444031,0,0.0819244-0.0381927,0.0819244-0.0825958l0,0c0-0.0441742-0.0375214-0.0805817-0.0819244-0.0805817h-0.1659927
			C112.6018906,212.8844452,112.5615158,212.9208527,112.5615158,212.9650269L112.5615158,212.9650269z"/>
		<path class="st24" d="M119.4355164,215.1776886c0.3683167,1.5253448-4.4045563,0.9099731-5.6370163,0.5128174
			c-1.1804657-0.3791656-1.9327621-0.4994965-1.9327621-0.4994965c-0.0508194,0-0.0971298-0.0055542-0.1481857-0.0064392
			c-0.0033188,0.03508-0.0166168,0.0721588-0.0166168,0.1083374c0,0.8376007-0.3763885,1.9500275,0.9866791,1.9500275h8.5559921
			C128.2358704,217.2429352,119.4272079,215.1419525,119.4355164,215.1776886z"/>
		<path class="st27" d="M142.8487244,95.4280624c0,0,0.4787445-1.2070007,0.3177338-1.8383636
			c-0.1118317-0.4377823-0.9892883-2.4184494-0.9892883-2.4184494s-0.2301178,0.7703323,0.1194458,1.5666428
			C142.8064575,93.9027176,142.8487244,95.4280624,142.8487244,95.4280624z"/>
		<path class="st28" d="M142.2636108,95.0946274c0,0-0.3733063,0.0599365-0.4872894-0.0617218
			c-0.0125885,0.1212158,0.0097351,0.2462006,0.0154266,0.3409958c0.0092621,0.214447-0.2068329,1.6576614-0.2068329,1.6576614
			s0.3621368-1.0118713,0.5302734-1.2842636c0.1071014-0.1711578,0.2372284-0.5971756,0.3502655-0.9537048
			c0.0140076-0.0452881,0.0023804-0.1236496,0.0109253-0.209343L142.2636108,95.0946274z"/>
		<path class="st28" d="M141.8587189,94.7301025c0.3937225-1.0649261,0.2939911-1.5475464,0.1859436-1.7524567
			c-0.0902405,0.2521973-0.2436523,0.6546783-0.4880066,1.2116699c-0.0883179,0.1995773-0.1785583,0.6198196-0.2892303,1.1464005
			c-0.0211334,0.0990067,0.362381,0.21978,0.4585571,1.1024399c0.0166168,0.1598434,0.3749542-0.7707748,0.4623413-1.3435287
			C142.0410919,95.0912933,141.7402191,95.0508881,141.8587189,94.7301025z"/>
		<path class="st26" d="M118.3711853,86.4184875c-0.6675262-0.4653091-1.1239395-1.1719284-1.1911316-1.9957657l-0.595108-7.4871063
			c-0.0605545-0.0732651-0.1282349-0.1363068-0.1902084-0.2051315l-0.133934-0.0239716
			c-1.6893539-0.2963715-3.2345581,0.4211273-3.4477997,1.5968323l-1.940834,10.7331696
			c-0.1643295,0.9081955,0.5174408,1.8203888,1.6105118,2.326767c0.1954346,0.0088806,0.3901596,0.0102081,0.586792-0.0059967
			C115.5327225,91.167923,117.5224762,89.1750412,118.3711853,86.4184875z"/>
	</g>
</g>
<path class="st29" d="M38.9218216,214.6484528l19.8630524,6.2414703c0,0,1.326973-1.2447357-3.5463524-3.7440033
	c-5.6757355-2.9119415-13.9522247-6.033905-13.9522247-6.033905L38.9218216,214.6484528"/>
<polyline class="st29" points="37.4473801,200.5886383 41.5980911,200.5886383 41.5980911,215.0826721 37.4473801,215.0826721 "/>
<path class="st30" d="M39.5276031,215.2329712l17.003933,5.9553223c0,0,1.1358109-1.187912-3.0348473-3.5735016
	c-4.8593178-2.7796478-11.9458542-5.7575226-11.9458542-5.7575226L39.5276031,215.2329712"/>
<path class="st31" d="M57.3852348,222.528717c0,0.781662-0.6471024,1.4145813-1.4426193,1.4145813
	c-0.797184,0-1.4416733-0.6329193-1.4416733-1.4145813c0-0.7805481,0.6444893-1.4150085,1.4416733-1.4150085
	C56.7381325,221.1137085,57.3852348,221.7481689,57.3852348,222.528717z"/>
<path class="st32" d="M60.8762703,222.528717c0,0.781662-0.6454506,1.4145813-1.4428711,1.4145813
	c-0.7948036,0-1.441433-0.6329193-1.441433-1.4145813c0-0.7805481,0.6466293-1.4150085,1.441433-1.4150085
	C60.2308197,221.1137085,60.8762703,221.7481689,60.8762703,222.528717z"/>
<polyline class="st32" points="37.950573,195.2762146 40.9866104,195.2762146 40.9866104,200.4893951 37.950573,200.4893951 "/>
<path class="st32" d="M40.3041267,189.6190338c1.6347313,0,2.959568,1.2980194,2.959568,2.9021759l0,0
	c0,1.6043854-1.3248367,2.9046326-2.959568,2.9046326"/>
<path class="st4" d="M16.9039783,189.8658905h45.1301804c0.0731392-0.3414307,0.1154099-2.4854889,0.1154099-2.8531189
	c0-2.3458557-1.545208-4.2452698-3.4511299-4.2452698h-38.45755"/>
<path class="st32" d="M17.3893642,192.3154297h44.1591721c0.5281296,0,0.9562836-0.5818634,0.9562836-1.2998047l0,0
	c0-0.7172699-0.428154-1.2991333-0.9562836-1.2991333H17.3893642"/>
<path class="st4" d="M39.2015572,165.5395508c1.3027534-6.624649,1.3616562-13.417572,0.170742-20.04422"/>
<path class="st33" d="M38.8572311,136.644928c5.4028816,15.8155975,9.0005302,13.8999786,9.0005302,13.8999786l4.4658318-0.424469
	l8.5657272-9.962616l-4.6118774-3.9551239l-0.9308739,0.3636475c0,0-1.1920929-0.483078-1.3300629-1.5713043
	c-0.1384354-1.0886841-1.9880867-3.797287-5.6481895-12.517601c-2.0369949-4.8508835-8.2059593-4.0072861-9.2878685-3.6203461"/>
<path class="st28" d="M59.3498116,140.9548035c0,0,8.9456749,10.0582886,15.0566902,15.1944427
	c2.9370117,2.4706116,5.298645,1.6203613,1.7446823,2.7825317c-1.3086929,0.4284515-13.902832-4.0929871-20.7279129-7.9186859
	c-4.5824203-2.5680695-3.2217293-5.5974579-0.6554146-7.2759857
	C57.3864212,142.0246124,59.3498116,140.9548035,59.3498116,140.9548035z"/>
<path class="st34" d="M50.1317596,137.817749l2.8137627-1.788208l1.1676445-0.6522217
	c0.323658,0.8207245,1.2334023,1.1903534,1.2334023,1.1903534l-2.3492775,0.9474792l-2.5608597,1.6143799l-2.645401,3.1164093
	L50.1317596,137.817749z"/>
<path class="st34" d="M32.2399406,117.3128738c8.8537674-0.5838547,14.8185005,1.8827667,14.8185005,1.8827667
	s8.5476799,4.3715897,2.4065056,45.0965042l-21.0228481-0.4466705"/>
<path class="st26" d="M84.0814438,225.250412c0,0-2.0434189,3.0933228-3.0882797,1.1967926
	c-3.1336288-5.6882629-5.9604568-23.6470184-6.1368942-31.0149231c-0.2374725-9.828537-0.6945953-15.8202667-0.6945953-15.8202667
	l10.0798264-3.5839386L84.0814438,225.250412z"/>
<path class="st26" d="M37.6247673,174.0922546c-0.54879-11.2342224,11.0971413-10.0076752,11.0971413-10.0076752
	l35.5675583,11.9446106l-9.3282394,5.1057434C74.9612274,181.1349335,38.2785187,187.4458923,37.6247673,174.0922546"/>
<path class="st35" d="M71.4443207,225.5325775c0,0-1.8422775,1.6549988-2.8864288-0.2410889
	c-3.1336365-5.6887054-8.274353-20.803009-8.4519806-28.1724701c-0.236042-9.8267517,1.4181633-16.6616364,1.4181633-16.6616364
	l10.2999611-3.507782L71.4443207,225.5325775z"/>
<path class="st35" d="M37.6952972,164.4681854l33.9121704,12.5511169l-9.2885857,4.9596558
	c0,0-34.4179764,6.3091888-35.0833588-7.0426636"/>
<path class="st35" d="M28.1374264,180.9118195c3.2100983,3.8041534,10.8147907,2.529007,16.8790226,2.529007
	c0.3322182,0,2.022995-4.640213,2.022995-4.640213l2.531414-15.1773529l-21.2615051,0.3551941"/>
<path class="st27" d="M61.1761818,154.7857361l7.7849312-1.3708344c0,0,1.2113266-0.1274414,1.2673721,0.6937408
	c0.0729065,1.0853424-0.1256256,4.6235504-0.1256256,4.6235504l-1.3982162-0.8478088l-2.0058899,1.2005615l-2.325531-3.0205078
	c0,0-1.2042046,0.2244415-2.2037086-0.0206451C61.83564,155.9600983,61.1761818,154.7857361,61.1761818,154.7857361z"/>
<path class="st27" d="M36.7537346,159.3329163l5.3202438-6.7125549l20.6106033,2.2424011
	c0,0-11.0558205,5.5406342-16.1198349,5.5757141C41.5002556,160.4764404,36.7537346,159.3329163,36.7537346,159.3329163"/>
<path class="st33" d="M31.9093761,131.6619568l10.297823,19.1131592l-0.5905838,1.5517578l1.5851021,0.2881622l-4.8101654,7.5068665
	"/>
<path class="st34" d="M34.5246162,157.2980804c0,0,4.8745155-3.6540833,7.3498878-5.6471863l-0.2578888,0.6759796
	l1.5851021,0.2870483l-1.6838837,2.5829468l-2.9206314,3.3317566"/>
<path class="st35" d="M74.749176,228.5859375c0.1776199,0.2912598,0.0375137,1.066925,0.0375137,1.066925
	s-3.1780396,0.5137024-4.1948776,0.2057953c-0.2633591-0.0790405-0.7090836-0.3782806-1.1275024-0.6979675
	c-0.0705261-0.0521698-0.1918793-0.3765106-0.2605057-0.4297791c-0.1287079-0.0992432-0.1956711,0.0701447-0.3039551-0.0197601
	c-0.2809296-0.2346497-0.4775543-0.4175873-0.4799271-0.4417877c-0.260025-1.9433594,0.1189728-2.7314606,0.1189728-2.7314606
	s2.7140274-1.2358704,3.2108078-0.4049225C72.9211349,227.0878906,74.3580627,227.9470367,74.749176,228.5859375z"/>
<path class="st26" d="M80.6531143,226.1341858l0.4514236,2.8196106h2.4057922c0,0,0.1325073-0.398941,0.3362656-0.398941
	c0.1704941,0,0.3925247,0.398941,0.6252441,0.398941c0.5069962,0,1.0686111,0,1.292305,0c0.4502411,0,4.8255997,0,4.8255997,0
	s0.1090012-0.5927429-0.0235062-0.7967529c-0.0698166-0.1056824-0.470192-0.2883759-0.738533-0.377182
	c-1.2426682-0.4186859-5.0029831-1.3286591-5.8403015-2.6364441
	C83.3398285,224.1284332,80.6531143,226.1341858,80.6531143,226.1341858z"/>
<path class="st26" d="M37.6625252,101.3518677c1.3896675-0.2146759,2.6938438,0.7161636,2.9135017,2.0792313l0,0
	c0.218708,1.362854-0.729969,2.6435623-2.1210709,2.8584518"/>
<path class="st27" d="M33.8015251,116.3487396l10.6243401-1.6416779l-2.2918091-14.2611694
	c-0.3647499-2.272377-1.876236,0.2890396-4.1924973,0.6471252"/>
<path class="st27" d="M42.4950104,110.4260483c0.0928497,0.578743,0.6302414,0.9767914,1.2001648,0.8886566l0.8612976-0.1327591
	c0.568737-0.0887985,0.9541512-0.6278076,0.8617744-1.2081146c0,0-2.7548714-5.1221619-3.3266983-5.0340271
	c0,0-0.3911095,0.5421219-0.2982521,1.1199799L42.4950104,110.4260483z"/>
<path class="st26" d="M39.6990547,122.7449493l5.8718834-0.9064178l-1.0275269-6.3973236l-0.2436409-1.5126953l-5.8704605,0.9064178
	"/>
<path class="st26" d="M38.3739815,115.6423416l6.0518837-0.9352798l-0.5502129-3.4283218l-3.3568573,0.5185852
	c-1.5437813,0.2379837-2.5964775,1.6598816-2.3542595,3.1747971"/>
<path class="st27" d="M40.1504822,115.742012c0.0396576,0.2526398,0.2818756,0.4255753,0.5388184,0.3865051l2.7180634-0.4204712
	c0.2576523-0.0388489,0.4350433-0.2774963,0.3949165-0.5294647l-0.1481857-0.9144058l-3.6503677,0.564537"/>
<polyline class="st26" points="30.7956486,104.6614151 41.0747108,103.0736847 40.2810898,98.1357803 "/>
<path class="st26" d="M37.2509918,98.5782242l5.8236771-0.8999863c1.3979797-0.2164459,2.710228,0.7194977,2.9313202,2.0923386l0,0
	c0.221077,1.372612-0.7337761,2.6608658-2.1329498,2.8775406l-5.8236771,0.8997574"/>
<path class="st27" d="M39.3687439,103.3320923c1.9101906-0.2959213,3.1792221,1.0673676,3.4803314,2.9414749l0,0
	c0.3006363,1.8756638-1.0040169,3.6352234-2.9173012,3.930481"/>
<g>
	<path class="st36" d="M61.4723129,158.9364319c-0.0057068-0.0110931-0.0128288-0.022644-0.0178185-0.0317383l0.0178185-0.9890137
		h41.76548v0.9890137c0,0,0.0059357,0.0206451,0,0.0317383l-0.107338,0.1840363
		c-0.5369186,0.8564758-1.5000839,1.0118713-2.6016922,1.0118713h-36.345993c-1.1032791,0-2.0650253-0.1553955-2.6033669-1.0118713
		L61.4723129,158.9364319z"/>
	<path class="st37" d="M71.5371704,159.1029358c0,0,0.0068893,0.0175323,0,0.0277405l-0.1035385,0.1476288
		c-0.164566,0.2217865-0.3725891,0.3862762-0.6102905,0.5046082h-6.3501434c-1.0619621,0-1.9871407-0.1247559-2.5045738-0.8178406
		l-0.0999832-0.1505127c-0.0059357-0.008667-0.0142479-0.0162048-0.0189972-0.0233154l0.010685-0.4892883h9.6768417V159.1029358z"/>
	<g>
		<rect x="77.174202" y="158.1439056" class="st38" width="20.8687325" height="0.6988505"/>
	</g>
	<g>
		<path class="st39" d="M71.7696533,157.8781738l5.4147568-20.1294708c0.1434326-0.5323486,0.6976852-0.9623718,1.2367325-0.9623718
			h29.3033829c0.5400009,0,0.8641434,0.4300232,0.7204742,0.9623718l-5.4147568,20.1294708H71.7696533z"/>
		<path class="st36" d="M88.3392563,147.3328094c-0.2766495,1.0278473,0.3490753,1.8610077,1.3955994,1.8610077
			c1.0488968,0,2.1217804-0.8331604,2.3984375-1.8610077c0.2761688-1.0278473-0.3464737-1.8623505-1.3967972-1.8623505
			C89.6880798,145.470459,88.6156693,146.3049622,88.3392563,147.3328094z"/>
	</g>
</g>
<g>
	<polygon class="st40" points="155.8999939,230.4229736 151.5555115,230.4229736 158.7230225,162.3367767 165.02211,162.3367767 	
		"/>
	<polygon class="st41" points="164.6013184,165.4745026 156.1718903,186.4868622 158.5610657,163.8725586 158.7230225,162.3367767 
		164.2282562,162.3367767 	"/>
</g>
<polygon class="st40" points="201.5077209,230.4229736 205.8524475,230.4229736 198.6849365,162.3367767 192.3860779,162.3367767 
	"/>
<polygon class="st41" points="192.8056946,165.4745026 195.568634,186.0939178 198.8461761,163.8725586 198.6849365,162.3367767 
	193.1797028,162.3367767 "/>
<polygon class="st40" points="49.8662682,230.4229736 54.2093315,230.4229736 47.0415802,162.3367767 40.7443924,162.3367767 "/>
<polygon class="st41" points="41.164238,165.4745026 43.925766,186.0939178 47.20401,163.8725586 47.0415802,162.3367767 
	41.5368309,162.3367767 "/>
<polyline class="st32" points="1,160.1259003 134.4385376,160.1259003 134.4385376,164.1054382 1,164.1054382 "/>
<radialGradient id="SVGID_9_" cx="10480.6279297" cy="4463.7011719" r="512.399292" gradientTransform="matrix(-0.2726139 0 0 0.2675079 3053.7885742 -1089.4587402)" gradientUnits="userSpaceOnUse">
	<stop  offset="0.001574" style="stop-color:#D8F6F0"/>
	<stop  offset="1" style="stop-color:#88CDC8"/>
</radialGradient>
<rect x="50.9514999" y="160.1259003" class="st42" width="152.9128571" height="3.9795403"/>
<g>
	<path class="st43" d="M129.6568756,218.6128845l-0.7002869,3.572403h-3.7128296c0,0-0.2056427-0.5066071-0.5183945-0.5066071
		c-0.2659607,0-0.6067276,0.5066071-0.9676819,0.5066071c-0.7819824,0-1.6461334,0-1.9940262,0c-0.698616,0-7.4538956,0-7.4538956,0
		s-0.1662292-0.7514648,0.0391846-1.0109863c0.1023483-0.1336365,0.7268906-0.3627319,1.1393738-0.4786224
		c1.9187469-0.5281372,7.4087753-2.1795807,8.3615036-3.9777679
		C125.0141373,214.5310059,129.6568756,218.6128845,129.6568756,218.6128845z"/>
	<path class="st26" d="M128.596344,173.8742523c0,0,1.062439,5.8334503,1.9455719,13.2883759
		c0.6516113,5.4740295,0.6677704,21.1075897-0.3611908,31.9681854c-0.0631561,0.6642151-7.1014862-1.3586273-7.1014862-1.3586273
		s-2.5689392-30.3951111-3.1583328-37.2000275C119.3317413,173.7659149,124.3712997,169.6325378,128.596344,173.8742523z"/>
	<path class="st43" d="M140.4609833,212.1722717c-0.2814026-0.3314362-0.0762329-1.2056732-0.0762329-1.2056732
		s4.8885345-0.5352325,6.4608154-0.1707153c0.4091492,0.0939178,1.0992279,0.4377899,1.74823,0.8063049
		c0.1094818,0.0610504,0.302063,0.428894,0.4115448,0.4906158c0.1954346,0.1147766,0.2984924-0.0785828,0.4654388,0.0235291
		c0.4362183,0.270401,0.7423248,0.4808502,0.7480164,0.5068207c0.4302979,2.1988983-0.1410522,3.0866699-0.1410522,3.0866699
		s-4.0248566,1.2272034-4.9417267,0.4118042C142.8026581,214.0528259,141.0722198,212.8999939,140.4609833,212.1722717z"/>
	<path class="st26" d="M140.8112488,178.9713287c0,0-3.8951874-2.2317505-2.9028168,3.7550964
		c2.3951111,14.4456482,4.5969086,25.0356293,5.628479,29.8323517c0.3991852,1.8630066,1.0132751,1.5681915,1.0132751,1.5681915
		l4.4762878,0.713501l2.2588043-1.5102539l-4.1811218-32.6519318L140.8112488,178.9713287z"/>
	<g>
		<path class="st35" d="M123.0626144,179.9059448c0.5877304,0.7499084,20.6314926,10.6854401,21.5569229,10.6854401h16.4776917
			c0.925415,0,7.6239319-0.9608154,9.0769958-5.2786713c1.5354767-4.5658417,0-12.6989746,0-12.6989746
			c0-0.9454803-0.7510986-1.7115936-1.6767578-1.7115936h-20.5267792c-0.925415,0-2.7923889,0.7661133-2.7923889,1.7115936
			l-19.9331131-0.6266937C125.2451859,171.9870453,118.6996002,174.3406677,123.0626144,179.9059448z"/>
		<path class="st26" d="M160.9922638,184.7417297h-18.8618774c-0.199707,0-16.4855423-4.3569336-16.6676788-4.4077759
			l1.9648132,6.2064056c0,0.9457092,16.2665863,4.0510254,17.1920166,4.0510254h16.4776917
			c0.925415,0,7.6239319-0.9608154,9.0769958-5.2786713c0.4678192-1.3943787,0.6499634-3.1212921,0.6772614-4.8480072
			C168.4938965,183.9309998,161.9639893,184.7417297,160.9922638,184.7417297z"/>
		<path class="st27" d="M153.9928894,126.4392242l-0.8900299-3.9451294c0,0-3.1345825,0.2155533-3.7422791-1.2933655
			c-1.2324524-3.0265045-0.2025604-7.8625107,0.5385895-9.2182541c2.1151428-3.858551,3.009903-10.6150665,12.8947754-5.2422638
			c3.7588806,2.0446014-2.0457916,11.9523849-2.4789276,14.0986633c-0.4288788,2.1429443,0.8539276,4.6133423,0.8539276,4.6133423
			l-2.3129425,1.5506592L153.9928894,126.4392242z"/>
		<path class="st27" d="M137.6894836,153.532547l16.9514465,5.9013824c0,0-19.9884338,1.4092407-20.0651245,0.2688446
			C134.1549988,153.4419708,137.6894836,153.532547,137.6894836,153.532547z"/>
		<path class="st44" d="M171.6605377,130.2860107c0,0,3.3720551,1.5670776,5.7987518,14.2989044
			c2.4259796,12.7282715,0.8795776,12.2454224,0.8795776,12.2454224l-0.4407349,2.9004059l-6.3024139,0.5152588l-3.40625-10.9904633
			L171.6605377,130.2860107z"/>
		<path class="st45" d="M171.8673706,130.315094l-8.3023682-3.3677216l-2.2906189-1.9360428l-8.8250427-0.1904755
			l-1.5447388,2.2748184l-6.8414612,2.6515503c0,0-1.6881714,2.3715973-0.2182312,11.1787109
			c1.6247711,9.7590485-0.0282593,35.0075684-0.0282593,35.0075684l27.9284363,0.3905029
			C171.7450867,176.3240051,169.4416351,135.0511932,171.8673706,130.315094z"/>
		<path class="st45" d="M146.2644806,129.7656403c0,0-1.5388031-1.5340118-5.2881927,2.6333466
			c-6.3955078,7.1046143-9.4901886,15.9159393-10.151062,17.6217804c-0.6620636,1.7062683-1.4086609,5.9135895,1.2084808,8.7476196
			c1.9992371,2.1700287,3.9286652,1.3650665,3.9286652,1.3650665l6.1079254-4.6812744l-1.9633789-0.9748077l-1.3395691-0.0976715
			c0,0,3.0901794-6.0647736,6.4004974-11.5607758C148.4784088,137.3262329,146.2644806,129.7656403,146.2644806,129.7656403z"/>
		<path class="st35" d="M152.6880035,113.1166611c0,0,1.1189423-0.6147079,1.289917,0.1522903
			c0.1738281,0.7681198-0.4305267,2.4581909-0.9453583,2.6133652c-0.5153046,0.153183-0.6843872,2.2261963-0.6843872,2.2261963
			l1.373291,2.3061218h6.9592438c0,0,2.1495667-0.8453674,2.3226776-2.2277527
			c0.1702728-1.3843842,1.8892975-11.1398697,1.8892975-11.1398697l-4.8970642-2.3050079
			c0,0-2.5801086-1.1541672-4.3851013-1.6134872c-2.7686462-0.7090607-3.3504486,0.6129379-3.2623444,1.30513
			c0.084549,0.6895294-0.7751007,0.7683334-1.8919067,0.7683334c-1.1194305,0-2.4941254,0.7670059-1.8923798,1.2296524
			c0.2509918,0.1895828-0.8601227,0.7974167-0.4219818,1.530899c0.6326141,1.0478287,2.7422791,1.389267,2.9151611,3.0797806
			C151.1335297,111.8082047,151.4873505,114.3436508,152.6880035,113.1166611z"/>
	</g>
	<g>
		<path class="st46" d="M132.2922974,196.7100983c-0.0657806-0.3096924-0.1030579-2.2488403-0.1030579-2.5827179
			c0-2.1220856,1.3977356-3.8416901,3.1227112-3.8416901h34.7995911c1.7249603,0,3.1234131,1.7196045,3.1234131,3.8416901
			c0,0.3338776-0.0377502,2.2730255-0.103775,2.5827179H132.2922974z"/>
		<path class="st47" d="M173.5557861,197.7503815c0,0.6486816-0.3866119,1.1752625-0.8639221,1.1752625h-39.9597778
			c-0.4773102,0-0.8636627-0.5265808-0.8636627-1.1752625l0,0c0-0.6500092,0.3863525-1.1763611,0.8636627-1.1763611h39.9597778
			C173.1691742,196.5740204,173.5557861,197.1003723,173.5557861,197.7503815L173.5557861,197.7503815z"/>
		<g>
			<g>
				<path class="st29" d="M157.3143616,215.9349213l-2.1398315,3.2001038l17.974472,5.6478577
					c0,0,1.2006378-1.1261902-3.2098694-3.3883514C164.8045959,218.7594147,157.3143616,215.9349213,157.3143616,215.9349213z"/>
				<path class="st29" d="M154.1222992,215.9349213l2.1398315,3.2001038l-17.9742279,5.6478577
					c0,0-1.2003937-1.1261902,3.2100983-3.3883514C146.6334991,218.7594147,154.1222992,215.9349213,154.1222992,215.9349213z"/>
			</g>
			<rect x="153.8416138" y="206.4109802" class="st29" width="3.7550895" height="13.1174316"/>
			<g>
				<path class="st30" d="M157.5556335,216.6089172l-1.8320618,3.0540314l15.3855743,5.3905487
					c0,0,1.0284729-1.0755768-2.7467957-3.2351685C163.9672699,219.3037567,157.5556335,216.6089172,157.5556335,216.6089172z"/>
				<path class="st30" d="M153.8822327,216.6089172l1.8308716,3.0540314l-15.3865356,5.3905487
					c0,0-1.0277557-1.0755768,2.7470551-3.2351685C147.470108,219.3037567,153.8822327,216.6089172,153.8822327,216.6089172z"/>
			</g>
			<path class="st31" d="M169.3675537,226.2656097c0,0.7068481,0.5843964,1.2793732,1.3053589,1.2793732
				c0.7204742,0,1.3048859-0.572525,1.3048859-1.2793732c0-0.7070618-0.5844116-1.2800446-1.3048859-1.2800446
				C169.9519501,224.9855652,169.3675537,225.558548,169.3675537,226.2656097z"/>
			<path class="st31" d="M139.5555115,226.2656097c0,0.7068481,0.5844116,1.2793732,1.3053589,1.2793732
				c0.7202454,0,1.3049011-0.572525,1.3049011-1.2793732c0-0.7070618-0.5846558-1.2800446-1.3049011-1.2800446
				C140.1399231,224.9855652,139.5555115,225.558548,139.5555115,226.2656097z"/>
			<path class="st32" d="M172.5268402,226.2656097c0,0.7068481,0.5855865,1.2793732,1.3053589,1.2793732
				c0.7207031,0,1.306076-0.572525,1.306076-1.2793732c0-0.7070618-0.5853729-1.2800446-1.306076-1.2800446
				C173.1124268,224.9855652,172.5268402,225.558548,172.5268402,226.2656097z"/>
			<path class="st32" d="M136.396225,226.2656097c0,0.7068481,0.5844116,1.2793732,1.304657,1.2793732
				c0.7200012,0,1.3053589-0.572525,1.3053589-1.2793732c0-0.7070618-0.5853577-1.2800446-1.3053589-1.2800446
				C136.9806366,224.9855652,136.396225,225.558548,136.396225,226.2656097z"/>
		</g>
		<rect x="154.3939667" y="201.6051636" class="st47" width="2.7465608" height="4.7170186"/>
		<path class="st47" d="M152.3329773,199.1125641c0,1.4512024,1.1992188,2.6271362,2.6784058,2.6271362h1.5107727
			c1.4789581,0,2.6793671-1.1759338,2.6793671-2.6271362l0,0c0-1.451416-1.2004089-2.6273499-2.6793671-2.6273499h-1.5107727
			C153.532196,196.4852142,152.3329773,197.6611481,152.3329773,199.1125641L152.3329773,199.1125641z"/>
		<path class="st4" d="M137.9658966,196.7100983c-0.0657806-0.3096924-0.103302-2.2488403-0.103302-2.5827179
			c0-2.1220856,1.3975067-3.8416901,3.1224823-3.8416901h34.8000641c1.7249603,0,3.1224823,1.7196045,3.1224823,3.8416901
			c0,0.3338776-0.0384827,2.2730255-0.1028442,2.5827179H137.9658966z"/>
		<path class="st32" d="M179.2288971,197.7503815c0,0.6486816-0.3868256,1.1752625-0.8641357,1.1752625h-39.959549
			c-0.4768372,0-0.8646088-0.5265808-0.8646088-1.1752625l0,0c0-0.6500092,0.3877716-1.1763611,0.8646088-1.1763611h39.959549
			C178.8420715,196.5740204,179.2288971,197.1003723,179.2288971,197.7503815L179.2288971,197.7503815z"/>
	</g>
	<g>
		<path class="st48" d="M174.9290619,165.3381958c0.0068817,0.9446106-0.7663116,1.7127228-1.729248,1.7116089
			c-10.9601135,0-21.9216614,0-32.8825073,0c-0.960556,0.0006714-1.9073486-0.7579041-2.0776062-1.6976166
			c-1.261673-6.97052-1.261673-14.1033325,0-21.0736389c0.1702576-0.94104,1.1146698-1.6958313,2.0776062-1.6976166
			c10.9608459,0,21.9216766,0,32.8825073,0c0.9629364-0.0006561,1.7361298,0.7658997,1.729248,1.7116089
			C174.8670807,151.3050232,174.8670807,158.3257141,174.9290619,165.3381958z"/>
		<path class="st4" d="M176.8409119,165.3370819c-0.0021362,0.9468231-0.7819824,1.7133942-1.7458649,1.7127228
			c-10.9608307,0-21.9214325,0-32.8822632,0c-0.9608002,0-1.8988037-0.7587891-2.0624084-1.698288
			c-1.1980286-6.9720764-1.1968384-14.0995483,0-21.0718536c0.1636047-0.9379425,1.1016083-1.6993866,2.0624084-1.6987305
			c10.9608307,0,21.9214325,0,32.8822632,0c0.9629517,0,1.7437286,0.7658997,1.7458649,1.7124939
			C176.8409119,151.3079071,176.8409119,158.3235016,176.8409119,165.3370819z"/>
	</g>
	<path class="st32" d="M146.8726349,199.0097809c5.0616302-17.8582001-4.5928802-35.7168579-0.4419403-53.5752869
		c0.2196655-0.9461517-0.3400421-1.7124939-1.3041687-1.7124939c-0.1966248,0-0.3939667,0-0.5903473,0
		c-0.9631805,0.0013428-1.9686127,0.7663422-2.1868439,1.7124939c-4.1509399,17.858429,5.5037994,35.7170868,0.440979,53.5752869
		C144.1502838,199.0097809,145.5109863,199.0097809,146.8726349,199.0097809z"/>
	<path class="st32" d="M175.6730499,199.0097809c5.0618744-17.8582001-4.5921631-35.7168579-0.4407501-53.5752869
		c0.2187195-0.9461517-0.3393402-1.7124939-1.3048859-1.7124939c-0.1961517,0-0.3941956,0-0.5901031,0
		c-0.9631805,0.0013428-1.9674225,0.7663422-2.1868439,1.7124939c-4.149765,17.858429,5.5035706,35.7170868,0.4421539,53.5752869
		C172.9526062,199.0097809,174.3128357,199.0097809,175.6730499,199.0097809z"/>
</g>
<g>
	<path class="st49" d="M221.7193756,247.4151611c9.6454926,4.1797791,16.0125122,12.6525574,17.8516998,22.1794128
		c-8.4192047,5.0819702-19.0919952,6.1701965-28.7381897,1.9899902
		c-9.6459656-4.1800232-16.0129852-12.6523438-17.8512268-22.1794128
		C201.4006348,244.3236237,212.0741272,243.2362671,221.7193756,247.4151611z"/>
	<g>
		<g>
			<polygon class="st25" points="237.7534943,268.9396667 196.6040039,251.1063232 196.8331604,250.5975037 237.982666,268.4308472 
							"/>
		</g>
		<g>
			<polygon class="st25" points="198.4021149,258.0278015 198.1598969,257.5247498 205.0640564,254.3277435 
				205.3062744,254.8307953 			"/>
		</g>
		<g>
			<polygon class="st25" points="203.8121185,261.8113098 203.5703735,261.3082581 212.0805359,257.3684692 
				212.3222809,257.8714905 			"/>
		</g>
		<g>
			<polygon class="st25" points="205.1129761,267.499115 204.8707581,266.9958496 219.0955963,260.4087219 219.3378143,260.9119873 
							"/>
		</g>
		<g>
			<polygon class="st25" points="212.5160522,270.3622437 212.2735901,269.8591919 226.1125488,263.4492188 
				226.3549957,263.9522705 			"/>
		</g>
		<g>
			<polygon class="st25" points="225.6651764,270.5613708 225.4229584,270.0583191 233.1295013,266.4896851 
				233.3717194,266.9927368 			"/>
		</g>
		<g>
			<polygon class="st25" points="204.1213074,254.1727905 201.8824463,247.0137939 202.4245911,246.8506165 
				204.6634521,254.0096283 			"/>
		</g>
		<g>
			<polygon class="st25" points="211.1373138,257.2141724 207.6477051,246.0523224 208.1898651,245.8893738 
				211.6794434,257.0512085 			"/>
		</g>
		<g>
			<polygon class="st25" points="218.1535492,260.2548828 213.7846222,246.2827454 214.3267517,246.119812 218.695694,260.0919189 
							"/>
		</g>
		<g>
			<polygon class="st25" points="225.1697998,263.2951355 220.6825867,248.9431763 221.2249756,248.7802277 
				225.7121735,263.1322021 			"/>
		</g>
		<g>
			<polygon class="st25" points="232.1867523,266.3356323 228.3307343,254.006958 228.872879,253.8435669 232.7288971,266.1722412 
							"/>
		</g>
	</g>
</g>
<path class="st33" d="M261.9249268,236.2266693c-8.2952423-4.9203644-16.7626495-7.9504242-21.9138184-4.9847412
	c-8.9577789,5.1574554-10.2875977,9.785675-4.7367859,14.6385651c-8.7131958-0.0779266-15.3540039,2.2654877-4.2217255,8.9798279
	c-10.2958984-1.4405518-17.7108765-0.7436981-13.5072021,5.1681213C226.917572,273.2077942,273.1859436,277.2113342,308,272.7595825
	"/>
<path class="st49" d="M252.1944275,270.5091858c-10.9223633-0.0082092-21.6027527-5.0535583-28.2046051-14.4700623
	c-6.6009216-9.4156036-7.5818939-21.0048065-3.6807709-31.0107117c10.9218903,0.0079956,21.6032257,5.054245,28.2039032,14.4702911"
	/>
<polyline class="st25" points="250.8722076,268.8588562 222.7108154,228.6891632 223.2268372,228.3410797 251.3882141,268.5107727 
	"/>
<g>
	<polygon class="st25" points="228.6933594,237.1390839 220.3109589,236.2200165 220.3807678,235.6092987 228.7631683,236.5283661 	
		"/>
</g>
<g>
	<polygon class="st25" points="233.4956818,243.9884033 223.1636658,242.8557587 223.2332458,242.2450409 233.5654907,243.3776855 	
		"/>
</g>
<g>
	<polygon class="st25" points="238.297287,250.8374939 221.0240784,248.9438477 221.0939026,248.3331299 238.3671112,250.2267761 	
		"/>
</g>
<g>
	<polygon class="st25" points="243.0996246,257.6874695 226.2949219,255.845993 226.3647461,255.2352753 243.1694336,257.0767517 	
		"/>
</g>
<polyline class="st25" points="247.9012299,264.5361023 238.5447388,263.5109253 238.6145477,262.9002075 247.9710541,263.9253845 
	"/>
<g>
	<polygon class="st25" points="228.5746155,236.0020142 227.9683685,235.8470612 230.0944214,227.8411407 230.7004395,227.9958649 	
		"/>
</g>
<g>
	<polygon class="st25" points="233.3755188,242.8515472 232.7695007,242.6965942 236.083847,230.2140808 236.6898651,230.3688049 	
		"/>
</g>
<g>
	<polygon class="st25" points="238.1778412,249.7013092 237.5715942,249.5465698 241.7204132,233.9205627 242.326416,234.0755157 	
		"/>
</g>
<polyline class="st25" points="247.2408295,240.5003662 242.9794617,256.5501709 242.3734589,256.3952026 246.6348114,240.3454132 
	"/>
<path class="st24" d="M284.4509583,274.5038452h-77.0084229c-1.2547913-1.8918762,0.3056335-3.5007019,6.2656097-4.3562927
	c6.5045013-0.9332581,12.7197571-0.2981262,17.8320007,0.8582458
	c-12.0584259-5.7306519-26.1179962-13.7789917-13.2816162-14.7102661c4.0025177-0.289917,10.1576996,1.6108398,17.0029602,4.5802612
	c-7.6360321-6.0958405-11.8375549-11.1065521-7.210968-12.0373993c4.295105-0.8651276,13.0543671,4.0929871,22.3769073,10.6745758"
	/>
<path class="st24" d="M256.8571167,266.6406555c-10.729538-35.2426605-26.9968414-49.2234497-27.159729-49.3606415
	l0.2961121-0.3389893c0.0410919,0.0344086,4.1737366,3.5444183,9.5761566,11.3794098
	c4.9797058,7.2211609,12.096405,19.7092285,17.7236786,38.1923523"/>
<path class="st24" d="M250.9994812,264.6824036c-0.8729248-10.0698395-5.2112274-16.4447327-8.6965637-20.019577
	c-3.7795563-3.8763123-7.4007111-5.3903351-7.4368134-5.405426l0.1757355-0.4118042
	c0.0368042,0.0150909,3.7303925,1.5561981,7.5740509,5.4922333c3.5428162,3.6281128,7.9518738,10.0960388,8.8374023,20.3066101"/>
<path class="st24" d="M227.817337,214.2837067c-2.9819031,2.0583649-4.7092438,4.6877136-3.8583984,5.8725128
	c0.8494263,1.1843567,3.9559937,0.4759674,6.9374084-1.5821838c2.9809418-2.0583649,4.7080536-4.6868134,3.8581543-5.8722839
	C233.9043579,211.5171661,230.7985077,212.2255554,227.817337,214.2837067z"/>
<path class="st50" d="M228.8671875,215.7480011c-0.9460602,0.6533508-1.4944,1.4882812-1.2251129,1.864563
	c0.2707214,0.376297,1.2569275,0.1511841,2.2032471-0.5021515c0.9463043-0.6542358,1.4953461-1.4885101,1.2253265-1.864563
	C230.8006439,214.8695526,229.8144379,215.094223,228.8671875,215.7480011z"/>
<path class="st24" d="M233.8504639,238.1513977c-1.2512207,1.4765167-1.7710419,3.0762329-1.1609802,3.5737305
	c0.6093292,0.4963837,2.118454-0.2970276,3.3684845-1.7733154c1.2512207-1.4765167,1.7710419-3.0762329,1.1607361-3.5735168
	C236.6086578,235.8814697,235.1004944,236.6753387,233.8504639,238.1513977z"/>
<path class="st50" d="M234.603241,238.7656708c-0.3963318,0.4688568-0.5618591,0.9772339-0.3685608,1.1348572
	c0.1940155,0.1578369,0.6722717-0.094574,1.0705109-0.5629883c0.3965759-0.4686432,0.5618439-0.9765778,0.3685455-1.1348572
	C235.478775,238.0450592,235.0005188,238.2972565,234.603241,238.7656708z"/>
<path class="st25" d="M243.8858795,263.2194519c0.2507629-0.3083801-0.0329895-0.938385-0.6333313-1.4081421
	c-0.0513-0.0406189-0.102829-0.0770264-0.1550598-0.1132202c0.0270691-0.009552,0.0543671-0.0184326,0.0814514-0.0288696
	c0.7152557-0.2750549,1.176651-0.7945251,1.029892-1.1608276"/>
<path class="st25" d="M244.2088318,260.5083923c-0.146759-0.3660583-0.8456268-0.4408875-1.5594482-0.1665039
	c-0.0615082,0.0233154-0.1204071,0.0497437-0.1769257,0.0763855c0.0045166-0.0275269,0.0106964-0.0557251,0.0144958-0.084137
	c0.1149292-0.7443542-0.1130371-1.3957214-0.5100708-1.4549866c-0.3965759-0.0585938-0.811203,0.4970703-0.9261322,1.2418518
	c-0.0097504,0.0637207-0.0166168,0.1265564-0.0218506,0.1887207c-0.0218506-0.0184326-0.043457-0.0375366-0.0660095-0.0552979
	c-0.5998535-0.4699707-1.2894592-0.6020508-1.5407104-0.2939148c-0.2498016,0.3067932,0.0330048,0.9377136,0.6333313,1.4076843
	c0.0510559,0.0401917,0.1030579,0.0772705,0.155777,0.1125488c-0.027298,0.009552-0.0543823,0.0184326-0.0812073,0.0288696
	c-0.7147827,0.2748413-1.175705,0.7943115-1.0299072,1.160614c0.1460419,0.3667297,0.8446808,0.4411011,1.5587616,0.1667175
	c0.0621948-0.0235291,0.1203766-0.0490723,0.1773682-0.0770264c-0.0045013,0.0279541-0.0104523,0.056366-0.0142517,0.0847778
	c-0.1156311,0.7452698,0.1135101,1.3957214,0.5100861,1.4547729c0.3965759,0.0588379,0.811676-0.4970703,0.9258881-1.2414246
	c0.0106964-0.0643616,0.0166321-0.1263123,0.0211334-0.1889038c0.0225677,0.0188599,0.0444336,0.0375061,0.0669708,0.0552673
	c0.6003265,0.4699707,1.2892151,0.6025085,1.5397491,0.2950439"/>
<path class="st25" d="M241.5411072,262.318573c-0.4089203-0.0612793-0.6929321-0.4368896-0.6311798-0.8391418
	c0.0634003-0.4029236,0.4469147-0.6804504,0.8570251-0.6195984c0.4098663,0.0610352,0.692688,0.438446,0.6311798,0.8404846
	C242.3356781,262.1025696,241.952652,262.3798523,241.5411072,262.318573z"/>
<polyline class="st51" points="265.7914124,275 187.9798584,275 187.9798584,194.4665833 265.7914124,194.4665833 "/>
</svg>
