<?xml version="1.0" encoding="utf-8"?>
<!-- Generator: Adobe Illustrator 23.0.3, SVG Export Plug-In . SVG Version: 6.00 Build 0)  -->
<svg version="1.1" id="Слой_1" xmlns="http://www.w3.org/2000/svg" xmlns:xlink="http://www.w3.org/1999/xlink" x="0px" y="0px"
	 width="300px" height="300px" viewBox="0 0 300 300" style="enable-background:new 0 0 300 300;" xml:space="preserve">
<style type="text/css">
	.st0{opacity:0.1;fill:#2B4159;}
	.st1{fill:#7DC2DD;}
	.st2{opacity:0.3;}
	.st3{fill:#2B4159;}
	.st4{opacity:0.5;}
	.st5{fill:#8BCFEC;}
	.st6{fill:#DBF4FC;}
	.st7{fill:#6DB4D6;}
	.st8{fill:#FFFFFF;}
	.st9{opacity:0.35;}
	.st10{opacity:0.2;}
	.st11{fill:#D2D9E8;}
	.st12{fill:#B2BDDB;}
	.st13{fill:#304965;}
	.st14{fill:#DFE5EA;}
	.st15{fill:#ECECEE;}
	.st16{fill:#1D1D18;}
	.st17{fill:#E5ECF1;}
	.st18{fill:#995C4B;}
	.st19{fill:#C5CFDE;}
	.st20{fill:#2E3136;}
	.st21{filter:url(#Adobe_OpacityMaskFilter);}
	.st22{filter:url(#Adobe_OpacityMaskFilter_1_);}
	.st23{mask:url(#SVGID_1_);fill:url(#SVGID_2_);}
	.st24{fill:url(#SVGID_3_);}
	.st25{fill:#513747;}
	.st26{fill:#151E35;}
	.st27{fill:#D9D8C5;}
	.st28{fill:#C6C6B4;}
	.st29{fill:none;}
	.st30{fill:#35393F;}
	.st31{opacity:0.2;fill:#FFFFFF;}
	.st32{fill:#4B5059;}
	.st33{fill:#76483B;}
	.st34{fill:#E4E6EA;}
	.st35{fill:#CDD3D5;}
	.st36{fill:#2C2B28;}
</style>
<g>
	<g>
		<rect x="86.0803757" y="155.1057129" class="st0" width="165.302887" height="118.212326"/>
		<rect x="86.0803757" y="155.1057129" class="st1" width="165.302887" height="11.1962271"/>
		<g>
			<g class="st2">
				<rect x="89.2313232" y="159.2373199" class="st3" width="2.8236482" height="2.7008207"/>
			</g>
			<g class="st2">
				<rect x="94.7356033" y="159.2373199" class="st3" width="2.8238149" height="2.7008207"/>
			</g>
			<g class="st2">
				<rect x="100.241066" y="159.2373199" class="st3" width="2.8248336" height="2.7008207"/>
			</g>
		</g>
	</g>
	<g class="st4">
		<g>
			<rect x="211.6027832" y="175.4385529" class="st5" width="27.1927872" height="18.2576542"/>
		</g>
		<g>
			<rect x="211.6027832" y="193.9483337" class="st6" width="27.1927872" height="18.2325096"/>
		</g>
		<g>
			<rect x="214.1799774" y="196.5004578" class="st7" width="15.5986214" height="1.1989491"/>
		</g>
		<g>
			<rect x="214.1799774" y="199.0705261" class="st5" width="17.794405" height="0.8998824"/>
		</g>
		<g>
			<rect x="214.1060333" y="201.1715393" class="st5" width="15.5370941" height="0.9010559"/>
		</g>
		<g>
			<rect x="213.9266052" y="204.7180939" class="st7" width="10.1714916" height="3.2015562"/>
		</g>
		<g>
			<rect x="216.2283325" y="205.8675842" class="st8" width="5.569344" height="0.9005529"/>
		</g>
	</g>
	<g class="st9">
		<g>
			<rect x="242.2052155" y="175.4385529" class="st5" width="27.192934" height="18.2576542"/>
		</g>
		<g>
			<rect x="242.2052155" y="193.9483337" class="st6" width="27.192934" height="18.2325096"/>
		</g>
		<g>
			<rect x="244.7825317" y="196.5004578" class="st7" width="15.5986452" height="1.1989491"/>
		</g>
		<g>
			<rect x="244.7825317" y="199.0705261" class="st5" width="17.7937012" height="0.8998824"/>
		</g>
		<g>
			<rect x="244.7084808" y="201.1715393" class="st5" width="15.5372143" height="0.9010559"/>
		</g>
		<g>
			<rect x="244.5291901" y="204.7180939" class="st7" width="10.1713219" height="3.2015562"/>
		</g>
		<g>
			<rect x="246.8309021" y="205.8675842" class="st8" width="5.5686169" height="0.9005529"/>
		</g>
	</g>
	<g class="st10">
		<g>
			<rect x="272.8078003" y="175.4385529" class="st5" width="27.1922054" height="18.2576542"/>
		</g>
		<g>
			<rect x="272.8078003" y="193.9483337" class="st6" width="27.1922054" height="18.2325096"/>
		</g>
		<g>
			<rect x="275.3849792" y="196.5004578" class="st7" width="15.5980635" height="1.1989491"/>
		</g>
		<g>
			<rect x="275.3849792" y="199.0705261" class="st5" width="17.7937279" height="0.8998824"/>
		</g>
		<g>
			<rect x="275.3110352" y="201.1715393" class="st5" width="15.5370941" height="0.9010559"/>
		</g>
		<g>
			<rect x="275.1310425" y="204.7180939" class="st7" width="10.1713219" height="3.2015562"/>
		</g>
		<g>
			<rect x="277.4333496" y="205.8675842" class="st8" width="5.5687623" height="0.9005529"/>
		</g>
	</g>
	<g class="st2">
		<g>
			<g>
				<rect x="128.6573181" y="230.9777985" class="st8" width="29.0934715" height="1.1575425"/>
			</g>
			<g>
				<rect x="128.6573181" y="234.543457" class="st8" width="18.6721592" height="1.1575425"/>
			</g>
			<g>
				<rect x="149.1022644" y="234.543457" class="st8" width="6.4411092" height="1.1575425"/>
			</g>
			<g>
				<rect x="157.0271606" y="234.543457" class="st8" width="6.4397998" height="1.1575425"/>
			</g>
			<g>
				<rect x="164.9519196" y="234.543457" class="st8" width="6.440382" height="1.1575425"/>
			</g>
			<g>
				<rect x="128.5305786" y="238.3838806" class="st8" width="6.4411316" height="1.1575425"/>
			</g>
			<g>
				<rect x="136.4557648" y="238.3838806" class="st8" width="3.3464956" height="1.1575425"/>
			</g>
			<g>
				<rect x="142.9501648" y="238.3838806" class="st8" width="15.1441879" height="1.1575425"/>
			</g>
			<g>
				<rect x="188.9242249" y="238.3838806" class="st8" width="10.2584839" height="1.1575425"/>
			</g>
			<g>
				<rect x="167.213028" y="238.3838806" class="st8" width="4.2342906" height="1.1575425"/>
			</g>
			<g>
				<rect x="159.5056763" y="238.3838806" class="st8" width="6.2414665" height="1.1575425"/>
			</g>
			<g>
				<rect x="172.2071686" y="238.3838806" class="st8" width="4.2335396" height="1.1575425"/>
			</g>
			<g>
				<rect x="178.2312317" y="238.3838806" class="st8" width="4.2336855" height="1.1575425"/>
			</g>
			<g>
				<rect x="183.5513153" y="238.3838806" class="st8" width="4.2335396" height="1.1575425"/>
			</g>
			<g>
				<rect x="128.5305786" y="242.0870209" class="st8" width="9.1009321" height="1.1575425"/>
			</g>
			<g>
				<rect x="138.4992065" y="242.0870209" class="st8" width="5.1571074" height="1.1575425"/>
			</g>
			<g>
				<rect x="144.8681335" y="242.0870209" class="st8" width="3.2389846" height="1.1575425"/>
			</g>
			<g>
				<rect x="149.3195038" y="242.0870209" class="st8" width="3.2386711" height="1.1575425"/>
			</g>
			<g>
				<rect x="153.7701569" y="242.0870209" class="st8" width="8.2325134" height="1.1575425"/>
			</g>
		</g>
		<g>
			<rect x="128.6573181" y="201.1489105" class="st8" width="29.0934715" height="1.1575425"/>
		</g>
		<g>
			<rect x="128.6573181" y="204.7150726" class="st8" width="18.6721592" height="1.1573749"/>
		</g>
		<g>
			<rect x="149.1022644" y="204.7150726" class="st8" width="6.4411092" height="1.1573749"/>
		</g>
		<g>
			<rect x="157.0271606" y="204.7150726" class="st8" width="6.4397998" height="1.1573749"/>
		</g>
		<g>
			<rect x="164.9519196" y="204.7150726" class="st8" width="6.440382" height="1.1573749"/>
		</g>
		<g>
			<rect x="128.5305786" y="208.5549927" class="st8" width="6.4411316" height="1.1575425"/>
		</g>
		<g>
			<rect x="128.5305786" y="194.4740601" class="st8" width="21.5479221" height="1.1575425"/>
		</g>
		<g>
			<rect x="128.5305786" y="216.8291168" class="st8" width="13.5220375" height="1.1575425"/>
		</g>
		<g>
			<rect x="144.3384705" y="216.8291168" class="st8" width="13.5226192" height="1.1575425"/>
		</g>
		<g>
			<rect x="160.1466522" y="216.8291168" class="st8" width="13.5224733" height="1.1575425"/>
		</g>
		<g>
			<rect x="175.9544067" y="216.8291168" class="st8" width="13.5221825" height="1.1575425"/>
		</g>
		<g>
			<rect x="136.4557648" y="208.5549927" class="st8" width="3.3464956" height="1.1575425"/>
		</g>
		<g>
			<rect x="142.9501648" y="208.5549927" class="st8" width="15.1441879" height="1.1575425"/>
		</g>
		<g>
			<rect x="188.9242249" y="208.5549927" class="st8" width="10.2584839" height="1.1575425"/>
		</g>
		<g>
			<rect x="167.213028" y="208.5549927" class="st8" width="4.2342906" height="1.1575425"/>
		</g>
		<g>
			<rect x="159.5056763" y="208.5549927" class="st8" width="6.2414665" height="1.1575425"/>
		</g>
		<g>
			<rect x="172.2071686" y="208.5549927" class="st8" width="4.2335396" height="1.1575425"/>
		</g>
		<g>
			<rect x="178.2312317" y="208.5549927" class="st8" width="4.2336855" height="1.1575425"/>
		</g>
		<g>
			<rect x="183.5513153" y="208.5549927" class="st8" width="4.2335396" height="1.1575425"/>
		</g>
		<g>
			<rect x="128.5305786" y="212.2574615" class="st8" width="9.1009321" height="1.1575425"/>
		</g>
		<g>
			<rect x="138.4992065" y="212.2574615" class="st8" width="5.1571074" height="1.1575425"/>
		</g>
		<g>
			<rect x="144.8681335" y="212.2574615" class="st8" width="3.2389846" height="1.1575425"/>
		</g>
		<g>
			<rect x="149.3195038" y="212.2574615" class="st8" width="3.2386711" height="1.1575425"/>
		</g>
		<g>
			<rect x="153.7701569" y="212.2574615" class="st8" width="8.2325134" height="1.1575425"/>
		</g>
		<g>
			<g>
				<rect x="128.6573181" y="251.824295" class="st8" width="29.0934715" height="1.1575425"/>
			</g>
			<g>
				<rect x="128.6573181" y="255.3902893" class="st8" width="18.6721592" height="1.1575425"/>
			</g>
			<g>
				<rect x="149.1022644" y="255.3902893" class="st8" width="6.4411092" height="1.1575425"/>
			</g>
			<g>
				<rect x="157.0271606" y="255.3902893" class="st8" width="6.4397998" height="1.1575425"/>
			</g>
			<g>
				<rect x="164.9519196" y="255.3902893" class="st8" width="6.440382" height="1.1575425"/>
			</g>
			<g>
				<rect x="128.5305786" y="259.2302246" class="st8" width="6.4411316" height="1.1575425"/>
			</g>
			<g>
				<rect x="136.4557648" y="259.2302246" class="st8" width="3.3464956" height="1.1575425"/>
			</g>
			<g>
				<rect x="142.9501648" y="259.2302246" class="st8" width="15.1441879" height="1.1575425"/>
			</g>
			<g>
				<rect x="188.9242249" y="259.2302246" class="st8" width="10.2584839" height="1.1575425"/>
			</g>
			<g>
				<rect x="167.213028" y="259.2302246" class="st8" width="4.2342906" height="1.1575425"/>
			</g>
			<g>
				<rect x="159.5056763" y="259.2302246" class="st8" width="6.2414665" height="1.1575425"/>
			</g>
			<g>
				<rect x="172.2071686" y="259.2302246" class="st8" width="4.2335396" height="1.1575425"/>
			</g>
			<g>
				<rect x="178.2312317" y="259.2302246" class="st8" width="4.2336855" height="1.1575425"/>
			</g>
			<g>
				<rect x="183.5513153" y="259.2302246" class="st8" width="4.2335396" height="1.1575425"/>
			</g>
			<g>
				<rect x="128.5305786" y="262.9326782" class="st8" width="9.1009321" height="1.1575425"/>
			</g>
			<g>
				<rect x="138.4992065" y="262.9326782" class="st8" width="5.1571074" height="1.1575425"/>
			</g>
			<g>
				<rect x="144.8681335" y="262.9326782" class="st8" width="3.2389846" height="1.1575425"/>
			</g>
			<g>
				<rect x="149.3195038" y="262.9326782" class="st8" width="3.2386711" height="1.1575425"/>
			</g>
			<g>
				<rect x="153.7701569" y="262.9326782" class="st8" width="8.2325134" height="1.1575425"/>
			</g>
		</g>
	</g>
	<g>
		<path class="st8" d="M134.1186981,222.8367767c0,0,2.6088867-4.3312683-0.9355011-6.730011
			c-1.0556946-0.7136383,0.237915-0.4620056,1.4516296-0.1129913c1.2131348,0.3491974,3.7332764,2.779953,3.5106354,5.7377625
			c-0.219574,2.9552917-0.535614,4.098587-1.5793915,4.7149963
			C135.5205688,227.0641174,134.1186981,222.8367767,134.1186981,222.8367767z"/>
		<path class="st3" d="M120.1164703,277.4125977c0.10215,0.1552429,0.0272064,0.5656128,0.0272064,0.5656128
			s-1.7902374,0.249939-2.3661728,0.0799561c-0.1498795-0.0445862-0.4027786-0.2061768-0.6412582-0.3771667
			c-0.040329-0.0295105-0.1110458-0.201355-0.1500397-0.2298584c-0.0721741-0.0539551-0.1098633,0.0357056-0.1712723-0.0129089
			c-0.1594772-0.1262207-0.2716675-0.2241211-0.2735596-0.2373657c-0.156868-1.0304565,0.0522385-1.4453735,0.0522385-1.4453735
			s1.5240936-0.6356812,1.810318-0.1929626C119.0760574,276.6067505,119.8923798,277.0712891,120.1164703,277.4125977z"/>
		<g>
			<path class="st11" d="M127.1154938,231.8226929c0,0,0.7172089,1.9710846,6.2277679-1.3369141
				c5.5107269-3.3078461,4.8209991-4.5151672,4.8209991-4.5151672l-0.1715851-1.657608l-3.530426-2.4450073l-1.3621368,2.0607758
				l0.1325531,0.3240509c0,0-0.1629639,0.489502-0.5436249,0.6287994c-0.3805237,0.1386414-1.962677,1.3203278-5.2070236,2.6810455
				C125.9839706,228.1906433,126.974762,231.4428253,127.1154938,231.8226929z"/>
			<path class="st12" d="M133.6962738,226.1261749l-0.639389-0.9220123l-0.2342682-0.3907623
				c0.2856445-0.1860809,0.4100494-0.5605774,0.4100494-0.5605774l0.3441467,0.8130341l0.5775299,0.8403778l1.1047363,0.7508545
				L133.6962738,226.1261749z"/>
		</g>
		<path class="st3" d="M112.1323471,238.9486542l4.6492691,2.8683014l6.6406021,11.9948578l-1.4517746,4.4667206
			c0,0-4.3126984-1.9503174-7.9161453-6.3147736C110.4521103,247.5991364,112.1323471,238.9486542,112.1323471,238.9486542z"/>
		<path class="st3" d="M126.3148651,276.3301697c-1.5000916-3.5479126-4.4077225-9.6452637-5.0118866-12.036438
			c-1.1191406-4.4284973-1.2237625-7.7157288-1.2237625-7.7157288l3.3018265-2.8139648l5.2518311,21.8543396
			L126.3148651,276.3301697z"/>
		<path class="st13" d="M110.9385605,235.256424l7.5817795,17.7109833l-2.401825,3.8845215
			c0,0-3.7309418-3.1636658-6.2355042-8.4501495C107.3784485,243.1161499,110.9385605,235.256424,110.9385605,235.256424z"/>
		<path class="st13" d="M116.2768326,275.5833435c-0.6556778-3.8731384-2.1000366-10.6276245-2.1490784-13.1175537
			c-0.0903625-4.6105347,0.5437851-7.8177948,0.5437851-7.8177948l3.9868927-1.6039734l0.0168839,22.5393219H116.2768326z"/>
		<path class="st3" d="M126.498642,276.1982117l0.2552338,1.6733704h1.3606873c0,0,0.0752258-0.23703,0.1903229-0.23703
			c0.0969391,0,0.2221985,0.23703,0.3544922,0.23703c0.2862091,0,0.6034241,0,0.7303162,0c0.2552185,0,2.7303925,0,2.7303925,0
			s0.0618439-0.351532-0.0136871-0.4729004c-0.0384064-0.0625305-0.2661133-0.17099-0.4176178-0.2241211
			c-0.7032623-0.248291-2.7142487-1.0216064-3.0644836-1.8648071
			C128.1995697,274.2853088,126.498642,276.1982117,126.498642,276.1982117z"/>
		<path class="st12" d="M115.7641907,243.6356659l-6.1678391-5.763916c0,0,1.0095673-6.4733429,6.9662628-11.9403687
			c1.2722168-1.1681061,6.6557465-5.8230896,8.445549-2.4434967c2.1054153,3.9745331,4.6744385,8.449646,4.6744385,8.449646
			S130.0791321,236.4572144,115.7641907,243.6356659z"/>
		<path class="st3" d="M125.8953476,229.2454224c0,0,1.8977737,7.8339081-0.7706299,15.0797272
			c-0.2101212,0.5709839-0.9203644,0.8128815-0.9203644,0.8128815l-0.652626-1.100708
			C123.5517273,244.037323,125.5379715,235.5276642,125.8953476,229.2454224z"/>
		<g>
			<path class="st8" d="M123.2129745,240.7685394l7.9627304,7.0056c0,0-0.4983826,0.6792755-1.0648651,0.5783539
				c-1.538208-0.2747498-4.7656708-1.7340393-6.1956253-2.7861481c-1.9553909-1.4381561-3.6341705-3.3138733-3.6341705-3.3138733
				L123.2129745,240.7685394z"/>
			<g>
				<g>
					<path class="st8" d="M129.3821259,248.1568604l0.9464111,0.8968658c0,0,0.4328918,0.4506226,1.0854034,0.7662811
						c0.6524506,0.3154907,1.180954-0.0507965,1.5598907-0.7121277c0.3786011-0.6616669,0.3650665-1.0968628,0.3650665-1.0968628
						s-0.4927063-0.839859-1.1828461-0.5775146c-0.688446,0.2633667-2.3801727-0.2366943-2.4440613,0.0985718
						C129.6485596,247.8678589,129.3821259,248.1568604,129.3821259,248.1568604z"/>
					<polygon class="st8" points="133.1373596,247.6482544 134.2879333,248.4983368 135.3261566,249.34375 135.0895844,249.5276489 
						134.280365,249.0461884 132.7401123,249.0181885 132.8732605,248.5615387 					"/>
					<polygon class="st8" points="133.9711456,249.4843903 134.6621857,250.5096741 134.4776764,250.7601166 133.6370544,249.88974 
						132.5225677,249.3638611 132.8732605,248.5615387 					"/>
					<polygon class="st8" points="134.0654449,251.0662231 133.5608063,250.2089233 133.2927704,249.5864868 
						132.6986389,249.242157 132.243042,249.7710571 132.8942108,250.118576 133.7262421,251.1178589 					"/>
					<polygon class="st8" points="133.2280121,251.4524689 132.5537109,249.7519379 132.118042,249.5408936 
						131.7881622,249.8830414 132.3360291,250.5153656 132.9531403,251.3770294 					"/>
				</g>
				<path class="st8" d="M129.235611,247.0868225c0.598465,0.4720764,1.3343506,0.1887665,1.3343506,0.1887665
					s1.8494568-0.6522827,2.2110443-0.3974762c0.3618774,0.2558289,1.2003326,0.2878418,1.2003326,0.2878418
					s0.3432617,0.2098846-0.4021759,0.4844818c-0.4882202,0.1786957-0.9532776,0.1620941-0.9532776,0.1620941
					s-0.938385,0.8006439-1.2806549,0.8262939c-0.7032623,0.0519714-2.1364136-1.1261902-2.1364136-1.1261902
					S129.1593475,247.0258026,129.235611,247.0868225z"/>
			</g>
			<path class="st11" d="M123.5451813,230.3444519l-0.0429306,9.630661l-0.4717484,0.4665375l0.4685516,0.4615021
				l-2.9191284,1.8217316l-2.1708984-2.320282l0.2662888-13.1520691c0,0,0.6964188-3.0047455,3.7002335-4.5978088
				C124.5524139,221.5007019,123.5200043,229.5535431,123.5451813,230.3444519z"/>
			<path class="st12" d="M119.8168564,240.782959c0,0,2.2522659-0.3267212,3.419838-0.5448303l-0.206192,0.2035217
				l0.4688416,0.4618378l-1.0146637,0.6199341l-1.5523224,0.6340027l-0.4416351-0.6019897l0.4176254-0.3097992
				L119.8168564,240.782959z"/>
		</g>
		<g>
			<path class="st8" d="M134.4354706,223.8251648c0,0-2.9428406,5.5075989-4.3422241,5.2303162
				c-0.0608368-0.0113983-0.7990112-0.6013184-1.42836-0.5414581c-0.5935364,0.0568237-0.880928,0.4547882-1.112587,0.5079346
				c-0.0752258,0.0172729-0.2162323,0.0184479-0.3602905,0.0772858c-0.6485443,0.2640228-1.0332794-0.4239655-1.0228043-0.7646027
				c0.0136795-0.4155731-0.2494049-1.4613037-0.1616669-1.785675c0.0605392-0.2229614,0.0440903-0.4170837,0.3118362-0.5315857
				c0.5717163-0.2439117,1.5143509-0.832489,1.7396011-1.2400208c0.6609192-1.1925812,0.9779968-4.1892853,3.5123749-3.9602814
				C132.3114319,220.8837891,134.5323944,223.3894806,134.4354706,223.8251648z"/>
			<path class="st14" d="M130.1531982,228.9887695c0,0-0.0808868-0.2098846-0.2038727-0.6194305
				c-0.0410309-0.136795-0.1650085-0.530899-0.2696381-0.6993866c-0.4621429-0.7429657-0.4899292-0.6601562-0.6930695-1.1736298
				c-0.2326508-0.5848846-0.5069733-1.9300232-0.5069733-1.9300232s-0.1053467,0.7335815-0.1517639,1.0264435
				c-0.0874481,0.5455017,0.0507812,0.9676208,0.2120056,1.2886505c0.6988983,1.3970947,0.5733337,1.4257507,0.7098236,1.5550079
				C129.2591553,228.4442749,129.3648071,228.4653931,130.1531982,228.9887695z"/>
			<path class="st8" d="M132.994751,225.8733826c-0.0654755,0.0905151-0.319397,1.162735-0.3668365,1.3613892
				c-0.0467072,0.1986542-0.0998077,0.4551392-0.1590118,0.4879913c-0.0599823,0.0320129-0.2984772,0.0680542-0.3956757,0.071579
				c-0.0964813,0.0033569-0.4828033,0.0362091-0.2628021-0.3895874
				C132.0291443,226.9786224,132.994751,225.8733826,132.994751,225.8733826z"/>
			<path class="st3" d="M131.6432343,220.5337677c1.3174896-0.0218048,2.8446198,1.634964,3.1512146,3.8734436
				c0,0-0.2470703,0.2642059-0.8032227,0.1663055c0,0-0.0106201-1.5570374-1.1745605-2.3585052
				c-1.2217407-0.8395386-0.8636322,0.4672089-1.3350983,0.5523682c-0.3954926,0.0724182-0.7499695,0.1168365-0.7499695,0.1168365
				l-0.6472321,0.5716553l-0.3199921-0.2227936c0,0,0.3553467-0.9117889,0.0542908-0.8145599
				c-0.365097,0.1180115-0.6687775,0.7691193-0.7192688,0.8557892c-0.0505066,0.0861664-0.1315308,0.2323456-0.1811676,0.2241364
				c-0.0392914-0.0053558-0.254364,0.5101318-0.8361206,1.1898956c-0.1396866-0.1193542-0.1658783-0.4898376,0.0670929-1.0403595
				C128.6723175,222.4094696,130.0350342,220.5600739,131.6432343,220.5337677z"/>
			<path class="st15" d="M129.9103241,222.4242249c-0.2444611-0.2346954-0.6066284-0.1971436-0.8102112,0.0843201
				c-0.2035522,0.2814636-0.1714172,0.6987152,0.0726166,0.9337463L129.9103241,222.4242249z"/>
			<path class="st14" d="M131.6654968,226.9920197c0,0,0.6335602,0.3185272,0.6773682,0.3832245
				c0.0442352,0.0655518,0.1669006,0.205368,0.1286316,0.2709045c-0.0376892,0.0657196-0.2261353,0.1515503-0.6043091,0.0878448
				C131.7752228,227.7189026,131.9168091,227.5953522,131.6654968,226.9920197z"/>
		</g>
		<polygon class="st11" points="126.3896561,228.8323669 125.1423416,229.4653625 125.5788803,225.7821808 126.1587296,225.7558594 
					"/>
		<polygon class="st11" points="127.5140305,229.0132446 127.8615112,228.6665649 127.4414444,229.586731 126.2389069,230.4788971 
			126.4456787,229 		"/>
	</g>
	<g>
		<path class="st16" d="M150.5965271,291.6100464l-0.1497345,2.0188599l-0.3208466,1.6748962l-0.5903473,0.4511108
			l-0.4432373,0.1532288l-0.1278992,0.2826233l-1.5309448,1.1677856c-0.4122314,0.2075195-0.9968719,0.3146362-1.7020569,0.1190186
			c-0.240387-0.0670776,0.0953217-0.8214417,0.178833-0.9356079c0.4819489-0.6567993,1.2210083-1.3707581,1.2210083-1.3707581
			l1.193634-1.6926575l1.3508148-2.1194458L150.5965271,291.6100464z"/>
		<path class="st16" d="M164.240509,295.0808411l-0.3831177,0.8081665l-0.2070923,0.9111328l0.027359,1.451416l0.6799774,0.1174927
			l0.5157013-0.1253662l0.3358612,0.2727356c0,0,1.9286041,0.4442444,2.6531067,0.4740906
			c1.2012177,0.0486145,1.8599396-0.092041,2.0964203-0.3591003c0.131958-0.1485291-0.4269562-0.443573-0.6121826-0.4759216
			c-1.0660248-0.1911011-2.1872101-0.9811707-2.1872101-0.9811707l-0.8775787-1.1466675l-0.1682129-0.8108521
			L164.240509,295.0808411z"/>
		<path class="st8" d="M173.4728546,228.2902222l4.5309448-8.7096558c0,0-5.5604706,4.151062-6.478653,7.2178345
			C170.607254,229.8660126,173.4728546,228.2902222,173.4728546,228.2902222z"/>
		<polygon class="st12" points="163.0356598,230.701355 169.4172516,228.4119263 170.6586456,226.9118958 170.2647247,226.6646271 
			171.6626892,225.3552094 174.463623,227.6065826 173.0795135,230.3873749 172.6325073,230.167099 171.6370544,231.6478424 
			170.8786316,231.6116333 164.3903809,237.5010986 		"/>
		<path class="st11" d="M155.7504272,230.9823151l8.7937927-1.162735c0,0,7.2943573,2.1082153,5.9750061,19.486618
			c-0.0064087,0.0812988-11.6869812,2.9698792-11.4569244-0.3181763
			C159.6372223,240.77005,155.7504272,230.9823151,155.7504272,230.9823151z"/>
		<path class="st8" d="M149.0888672,226.5836639l-6.7538147-5.4692078c0,0,3.381134,6.8046112,5.0529327,8.0853729
			C149.060791,230.4805756,149.0888672,226.5836639,149.0888672,226.5836639z"/>
		<polygon class="st11" points="158.1733551,231.5871582 150.6017609,226.4453583 150.8132019,226.0908051 148.8836975,225.3240204 
			146.1243439,228.937973 148.1693878,230.8031158 148.5138092,230.1665955 149.1549377,229.2412262 148.5986481,230.3888855 
			150.4894257,232.7944946 152.2172394,233.2092285 158.303299,239.2123566 		"/>
		<g>
			<polygon class="st3" points="159.0199585,248.7861786 147.8040009,293.4205322 150.6116638,293.6002502 156.0280762,279.3908997 
				157.3420563,275.1073914 163.7811279,258.2969666 165.0415497,249.061615 			"/>
			<polygon class="st3" points="163.7101135,295.2265015 164.503006,276.79953 163.8052826,268.3555908 162.9588318,256.7667542 
				164.2399292,249.0096436 170.4250793,249.2398071 169.1276855,262.3147583 168.8549957,274.1669617 168.6384735,278.6326599 
				166.9813843,296.2209473 			"/>
		</g>
		<g>
			<path class="st8" d="M143.6250305,222.3095551c0,0,0.5818939-1.5895538,0.3765869-2.0222168
				c-0.2047424-0.4321747-1.0487061-1.9566803-1.0487061-1.9566803l-0.247818-0.3662872c0,0-0.5050659,0.0851593,0.0723267,1.10289
				c0.5778198,1.0180664,0.0580597,0.6960297,0.0580597,0.6960297l-0.8301544-0.696701l-1.0767975-0.7624207l-0.4391479-0.4080353
				c0,0-0.2341156-0.2527924-0.3348236-0.2584839c-0.2910309-0.0172729-0.1942596,0.2418976-0.1942596,0.2418976
				l1.5910339,1.7494659l-1.8525238-1.160553c0,0-0.2585754-0.1031036-0.351532,0.0211182
				c-0.0870361,0.1180267-0.013092,0.1723328-0.013092,0.1723328l1.8249817,1.8730316l-1.0137787-0.4762726
				c0,0-0.2555237-0.0942078-0.3522797,0.0218048c-0.1049194,0.1277313-0.1367798,0.1585846-0.1367798,0.1585846
				l3.6869812,2.4500275L143.6250305,222.3095551z"/>
			<path class="st8" d="M141.2553558,219.9300995l-1.3452606-0.7309113c0,0-0.2848969-0.2011566-0.4679718-0.2004852
				c-0.2099762,0.0008392-0.2160797,0.2087097-0.2160797,0.2087097l1.9331207,1.3275299L141.2553558,219.9300995z"/>
		</g>
		<g>
			<path class="st8" d="M176.6848755,221.1604004c0,0-0.5007019-1.6262665-0.274292-2.0433502
				c0.2264252-0.4182587,1.1453552-1.884079,1.1453552-1.884079l0.265686-0.3497009c0,0,0.4992523,0.1191864-0.1276245,1.0961914
				c-0.627594,0.9781647-0.0929565,0.69133-0.0929565,0.69133l0.8638916-0.6403656l1.1131592-0.6900024l0.4595337-0.3783569
				c0,0,0.2459106-0.2365417,0.346756-0.2353668c0.2911682,0.0025177,0.1815948,0.254303,0.1815948,0.254303l-1.6760101,1.6413422
				l1.9073792-1.0358276c0,0,0.2636719-0.0863342,0.3500977,0.0450897c0.0817871,0.1225433,0.0046692,0.1718292,0.0046692,0.1718292
				l-1.9162598,1.7488098l1.0366364-0.4085388c0,0,0.2591705-0.0764465,0.3500977,0.0460968
				c0.0985107,0.1341095,0.1289215,0.1676331,0.1289215,0.1676331l-3.8035431,2.2012634L176.6848755,221.1604004z"/>
			<path class="st8" d="M179.1711273,218.941864l1.3785553-0.6398773c0,0,0.2948303-0.1823883,0.4774323-0.1691437
				c0.2099762,0.0147552,0.2054596,0.2226257,0.2054596,0.2226257l-1.9967194,1.1967773L179.1711273,218.941864z"/>
		</g>
		<g>
			<path class="st8" d="M162.0579681,227.1891632c0.2937775,2.2704926,0.3553314,3.4307251,0.308197,3.5844421
				c-0.3258057,1.0572968-2.8869781,0.5269012-2.8673248-0.0963898c0.0205078-0.6242828-0.682312-3.2510071-0.8602753-3.6179657
				C158.4601746,226.6921234,161.8842468,225.842865,162.0579681,227.1891632z"/>
			<path class="st17" d="M160.4480438,226.4634705c-0.6525116,0.0685577-1.2696228,0.225296-1.5885925,0.377182
				c0.2568359,0.6562958,0.5238495,1.2998657,0.7345428,1.7120819c0.5867157,1.1493378,1.6118469,1.3030548,2.2846985,1.4884644
				c0.1452484,0.0390625,0.3160553,0.0444183,0.4973907,0.0263214c-0.0164795-0.4023285-0.1061096-1.2438812-0.3181152-2.8783569
				C161.9790955,226.5769501,161.2267914,226.4197083,160.4480438,226.4634705z"/>
			<path class="st8" d="M161.3001404,221.0680237l2.2184753,5.6225891c0,0,0.5261688,1.3338928,0.1603546,1.7563477
				c-0.3661041,0.4212799-1.5895538,0.9464874-2.2617035,0.7622528c-0.6723785-0.1850739-1.6979828-0.3391418-2.284668-1.4879608
				c-0.5861359-1.1493225-1.616806-4.0980835-1.616806-4.0980835s-0.0172882-1.1406097,1.7529907-1.3768158
				C161.0396729,222.0096436,161.3001404,221.0680237,161.3001404,221.0680237z"/>
			<path class="st13" d="M160.5955658,219.7892761c0.2399445-0.0437469,0.6741638-0.039566,0.9254608,0.3356171
				c0.2581329,0.3870697,0.164856,1.2121887-0.1257019,1.4740448c-0.2898865,0.2611847-2.3804626,1.3737946-2.6787567,1.4017944
				c-0.2968597,0.0278168-0.830307,0.162262-1.2340698-0.1793823c-0.2626801-0.22229,0.2767334-1.2800751,0.8084412-1.3662415
				C159.6430359,221.235321,159.7032776,219.9523926,160.5955658,219.7892761z"/>
			<path class="st13" d="M158.0310669,222.5677185l0.959198,2.4299164l0.3419647,1.3734589l-0.2486877,0.1295929
				l-0.4548645,0.238205c0,0-2.0608978-2.9454041-1.5078125-3.6949158
				C157.6741028,222.2949677,157.9141998,222.3989105,158.0310669,222.5677185z"/>
			<path class="st8" d="M159.1503296,226.7543182c0.0830841,0.2102203,0.0026398,0.4578247-0.1804352,0.5538788
				l-0.1929474,0.1014099c-0.1833496,0.0952301-0.3989868,0.002182-0.4817963-0.2080383l-0.3509674-0.8891449
				c-0.0826569-0.2113953-0.002182-0.4593353,0.1805725-0.5550537l0.1933899-0.1005859
				c0.1823273-0.0965576,0.3978271-0.0026855,0.4816437,0.2075348L159.1503296,226.7543182z"/>
		</g>
		<path class="st18" d="M162.0383148,231.2733459c0,0,4.6003876,6.6602631,5.2663879,15.1454468
			c0.0516663,0.6690369-0.4293823,1.2780762-0.4293823,1.2780762l-0.959671-0.7332458
			C165.9156494,246.963623,164.2022552,237.601181,162.0383148,231.2733459z"/>
		<polygon class="st12" points="161.9735718,231.2223816 162.0658264,232.6613922 159.3898468,230.9462738 159.4896698,230.5697632 
					"/>
		<polygon class="st12" points="162.4172363,230.349823 163.0922699,231.8734894 161.9961243,231.1908569 		"/>
	</g>
	<rect x="125.4250565" y="176.5429535" class="st8" width="72.847908" height="12.6531715"/>
	<rect x="186.8777313" y="176.5429535" class="st19" width="11.3952265" height="12.6531715"/>
	<g>
		<g>
			<path class="st20" d="M191.7815094,185.8007812c-0.8016357,0-1.5555267-0.3594208-2.1222992-1.0120239
				c-1.1702118-1.3478241-1.1702118-3.5403595-0.0002899-4.8878326c0.5670624-0.6529541,1.3209534-1.0123749,2.1225891-1.0123749
				c0.8017731,0,1.5553741,0.3594208,2.1224365,1.0120392c0.5667725,0.6529541,0.878891,1.5206451,0.878891,2.4443359
				c0,0.9226685-0.3121185,1.7908783-0.878891,2.4434967C193.3368835,185.4413605,192.5832825,185.8007812,191.7815094,185.8007812z
				 M191.7815094,179.5911255c-0.6386566,0-1.2391968,0.286499-1.6910095,0.806839
				c-0.9320068,1.0733948-0.9320068,2.8200226,0.0002899,3.8937378c0.4515228,0.5196838,1.052063,0.8059998,1.6907196,0.8059998
				c0.6387939,0,1.2388916-0.2863159,1.6904144-0.8063354c0.4516754-0.5200195,0.7003479-1.2113495,0.7006378-1.9469452
				c0-0.7350922-0.2486725-1.4264374-0.7006378-1.9464569C193.020401,179.8776245,192.4200439,179.5911255,191.7815094,179.5911255z
				"/>
		</g>
		<g>
			<polygon class="st20" points="195.6303101,187.273819 193.4719238,184.7887573 193.9039459,184.2913666 196.0623322,186.7764435 
							"/>
		</g>
	</g>
	<g>
		<g>
			<path class="st14" d="M107.6918869,191.2825623c0,0-0.1989136-0.0400696-0.1802902-0.2197876
				c0.0301208-0.2960358,0.2945175-0.8118591,0.3959427-0.9905701c0.1126251-0.1993256,0.778801-1.0368347,0.778801-1.0368347
				s-0.0157394,0.4222717-0.2830429,0.759903C108.0136108,190.2881317,107.6918869,191.2825623,107.6918869,191.2825623z"/>
			<path class="st14" d="M107.7544556,191.1445923c0.0596619-0.4224548,0.3749847-0.7614136,0.8288422-1.0572968
				c0.4308624-0.2807922,0.4701462-0.6462402,0.4701462-0.6462402s-0.2945175,0.1466827-0.9237137,0.6643372
				c-0.1762161,0.1450195-0.3615723,0.3150024-0.4784393,0.5215302
				C107.2956543,191.2508698,107.6009445,192.2332306,107.7544556,191.1445923z"/>
			<path class="st8" d="M105.9324951,204.1565094c1.1913071-1.9483032,1.3424988-9.5401306,1.3424988-9.5401306
				s-0.629921-2.8418121-2.3916473,7.0470123C104.3538284,204.6320953,105.6379776,204.6378021,105.9324951,204.1565094z"/>
			<path class="st8" d="M107.9958649,190.7677307l-0.1858215-0.0127258l-0.4548721,0.5233612
				c0,0-0.4187851,1.2433777-0.4305725,1.777298c-0.0117874,0.5347748-0.6983109,2.4210358-0.7245102,2.6723175
				c-0.0267487,0.2518005,0.8128586,0.925705,0.8128586,0.925705s0.2856216-2.0914612,0.4600906-2.9095306
				c0.1740341-0.8177338,0.7729568-1.8859253,0.8516846-2.2039337c0.1344528-0.5418091,0.2288895-0.808197,0.2288895-0.808197
				s-0.2616119-0.042572-0.5152588,0.794281c-0.0670853,0.2204437-0.2459183,0.0165863-0.2459183,0.0165863L107.9958649,190.7677307
				z"/>
			<path class="st8" d="M107.4920959,191.4894257c0,0,0.1817474-0.6489258,0.4201202-0.8549652
				c0.1658783-0.1416473,1.042717-0.6650085,1.042717-0.6650085s-0.1423111,0.3902588-0.493721,0.6013184
				C107.9478455,190.879715,107.4920959,191.4894257,107.4920959,191.4894257z"/>
		</g>
		<g>
			<path class="st12" d="M105.0479279,198.3870697l-1.0324173,3.8952332c0,0-4.3933105,7.368042-4.1517563,8.4509888
				c0.287384,1.2847748,1.3196487,2.9946899,1.3196487,2.9946899l5.1943588-9.0303345l1.7176285-4.1921387L105.0479279,198.3870697z
				"/>
		</g>
	</g>
	<g>
		<defs>
			
				<filter id="Adobe_OpacityMaskFilter" filterUnits="userSpaceOnUse" x="0" y="257.2796326" width="107.3875656" height="16.1180954">
				<feFlood  style="flood-color:white;flood-opacity:1" result="back"/>
				<feBlend  in="SourceGraphic" in2="back" mode="normal"/>
			</filter>
		</defs>
		<mask maskUnits="userSpaceOnUse" x="0" y="257.2796326" width="107.3875656" height="16.1180954" id="SVGID_1_">
			<g class="st21">
				<defs>
					
						<filter id="Adobe_OpacityMaskFilter_1_" filterUnits="userSpaceOnUse" x="0" y="257.2796326" width="107.3875656" height="16.1180954">
						<feFlood  style="flood-color:white;flood-opacity:1" result="back"/>
						<feBlend  in="SourceGraphic" in2="back" mode="normal"/>
					</filter>
				</defs>
				<mask maskUnits="userSpaceOnUse" x="0" y="257.2796326" width="107.3875656" height="16.1180954" id="SVGID_1_">
					<g class="st22">
					</g>
				</mask>
				
					<linearGradient id="SVGID_2_" gradientUnits="userSpaceOnUse" x1="53.6937828" y1="238.682724" x2="53.6937828" y2="274.7561646">
					<stop  offset="0" style="stop-color:#FFFFFF"/>
					<stop  offset="1" style="stop-color:#000000"/>
				</linearGradient>
				<path class="st23" d="M0,273.302948c0,0,2.4852076-0.7314148,6.0431328-4.0456238
					c3.4352579-3.1998596,5.0517569-5.1106262,8.6069174-5.1106262c3.5451193,0,8.4813395,5.1106262,15.150176,1.9167786
					c6.6686916-3.1941833,10.638998-6.1749573,16.2544689-6.6007385c5.6160545-0.4261475,16.8800278,5.7488098,21.8812943,7.4523621
					c5.0017014,1.7035217,8.0162811-7.3774414,13.9626465-9.1559143c8.5440598-2.5549774,11.4615784,5.7493286,15.6293488,9.5816956
					c5.1141815,4.7027588,6.6688385,5.7488403,9.7944489,5.9620667C110.4487686,273.5161743,0,273.302948,0,273.302948z"/>
			</g>
		</mask>
		<linearGradient id="SVGID_3_" gradientUnits="userSpaceOnUse" x1="53.6937828" y1="238.682724" x2="53.6937828" y2="274.7561646">
			<stop  offset="0" style="stop-color:#FFFFFF"/>
			<stop  offset="1" style="stop-color:#FFFFFF"/>
		</linearGradient>
		<path class="st24" d="M0,273.302948c0,0,2.4852076-0.7314148,6.0431328-4.0456238
			c3.4352579-3.1998596,5.0517569-5.1106262,8.6069174-5.1106262c3.5451193,0,8.4813395,5.1106262,15.150176,1.9167786
			c6.6686916-3.1941833,10.638998-6.1749573,16.2544689-6.6007385c5.6160545-0.4261475,16.8800278,5.7488098,21.8812943,7.4523621
			c5.0017014,1.7035217,8.0162811-7.3774414,13.9626465-9.1559143c8.5440598-2.5549774,11.4615784,5.7493286,15.6293488,9.5816956
			c5.1141815,4.7027588,6.6688385,5.7488403,9.7944489,5.9620667C110.4487686,273.5161743,0,273.302948,0,273.302948z"/>
		<path class="st14" d="M35.3109283,274.2754211c-0.0068398-0.0979004-0.0110588-0.1966553-0.0110588-0.2969055
			c0-2.0237122,1.4247322-3.6643982,3.1822128-3.6643982c0.0163155,0,0.0327415,0.0011902,0.0490379,0.0015259
			c0.2010956-1.8007812,1.5366096-3.1925049,3.1549988-3.1925049c1.397377,0,2.5834312,1.0376587,3.011528,2.4797058
			c1.2480812,0.1227112,2.2368164,1.2871094,2.3095741,2.7350159c0.1293602-0.0187988,0.2610474-0.0293579,0.3946304-0.0293579
			c1.2253609,0,2.2881813,0.7981262,2.8198853,1.9669189H35.3109283z"/>
		<g>
			<path class="st14" d="M37.1669617,255.9704895c-0.6116104-1.3977661-1.7506828-0.1513824-2.6204109-0.0670624
				c-0.9608192,0.0935516-0.6844902-0.6526184-0.5095634-1.7700958c0.1747398-1.1183014,1.4700928-1.397934,2.6931229-2.7958679
				c1.222744-1.3975983-0.2620659-4.0999298-1.397644-3.9135132c-1.1357269,0.1862488-0.9603844,1.4443665-1.7467346,1.4911499
				c-1.0500183,0.0620117-1.0044708-0.6060181-0.9606705-1.4911499c0.0929794-1.8824158,0.6112976-3.4476471,0.2620659-4.8455811
				c-0.2243805-0.896698-1.0536556-1.7068939-1.8539734-2.0312805c-0.0055294-0.0063629-0.0117874-0.0154266-0.0173168-0.0187683
				c-0.1692314-0.1029358-0.372366-0.1425018-0.5929623-0.1300964c-0.2201405-0.0124054-0.4234428,0.0271606-0.5929642,0.1300964
				c-0.0053844,0.0033417-0.0113297,0.0124054-0.017025,0.0187683c-0.8003178,0.3243866-1.6298656,1.1345825-1.8539543,2.0312805
				c-0.3492298,1.397934,0.1692104,2.9631653,0.2620487,4.8455811c0.0439434,0.8851318,0.089344,1.5531616-0.9611111,1.4911499
				c-0.7860584-0.0467834-0.6108608-1.3049011-1.746294-1.4911499c-1.13587-0.1864166-2.6208248,2.5159149-1.3976288,3.9135132
				c1.222868,1.397934,2.5183659,1.6775665,2.6928349,2.7958679c0.1749058,1.1174774,0.451088,1.8636475-0.5092945,1.7700958
				c-0.870018-0.0843201-2.0087986-1.3307037-2.620388,0.0670624c-0.6117344,1.3979187,0.1747608,5.4177246,3.4937553,6.2564392
				c1.8688164,0.4720459,2.6302834,1.7028503,3.250021,1.5939026c0.6200275,0.1089478,1.3814945-1.1218567,3.2503319-1.5939026
				C36.9921799,261.3882141,37.7785301,257.3684082,37.1669617,255.9704895z"/>
			<g>
				<rect x="30.3278732" y="245.5769043" class="st13" width="0.1895831" height="28.6985035"/>
				<polygon class="st13" points="30.5083084,255.1076508 30.3806744,254.9463806 34.2192955,250.909317 34.3469276,251.070755 				
					"/>
				<polygon class="st13" points="30.5083084,261.5144653 30.3806744,261.3535156 33.6152725,257.9518127 33.7428856,258.1130676 
									"/>
				<polygon class="st13" points="30.3371677,255.1076508 30.4647808,254.9463806 26.6261616,250.909317 26.4985485,251.070755 				
					"/>
				<polygon class="st13" points="30.3371677,261.5144653 30.4647808,261.3535156 27.2301846,257.9518127 27.1024246,258.1130676 
									"/>
			</g>
		</g>
		<g>
			<path class="st8" d="M50.2901268,243.8760529c-0.7224693-1.7821655-2.0680237-1.1771545-3.0957756-1.0693665
				c-1.1348534,0.1190186-0.412674-0.8314819-0.206192-2.2574158c0.2064819-1.425766,1.3413353-1.7821655,2.7860031-3.5648346
				c1.4446259-1.7823181-0.3095284-5.2276306-1.6511536-4.9902496c-1.3416214,0.2377167-1.1348495,1.8420105-2.0635109,1.9011841
				c-1.2404938,0.0791321-1.1867981-0.7723083-1.1351433-1.9011841c0.1100082-2.3995819,0.7221794-4.3961487,0.3096504-6.1781464
				c-0.2648315-1.1439667-1.2444229-2.1771088-2.1901054-2.5903473c-0.0065498-0.0087128-0.0141182-0.0196075-0.0203743-0.0238037
				c-0.2002258-0.1319275-0.4400291-0.1820526-0.7004967-0.1661224c-0.2604675-0.0159302-0.5004158,0.0341949-0.7007866,0.1661224
				c-0.0061111,0.0041962-0.0138245,0.0154266-0.0197906,0.0238037c-0.9459763,0.4137421-1.9253998,1.4463806-2.1903992,2.5903473
				c-0.412674,1.7819977,0.1993523,3.7785645,0.3095055,6.1781464c0.0516548,1.1288757,0.1053696,1.9803162-1.1351433,1.9011841
				c-0.9288063-0.0591736-0.7218857-1.6634674-2.0635109-1.9011841c-1.3414803-0.237381-3.0963631,3.2079315-1.6511307,4.9902496
				c1.4446487,1.7826691,2.5794983,2.1390686,2.7858353,3.5648346c0.2066269,1.4259338,0.9288063,2.3764343-0.2060471,2.2574158
				c-1.0277519-0.1077881-2.3733063-0.7127991-3.0957756,1.0693665c-0.7226143,1.7823334,0.206501,6.4165192,4.1276054,7.4855499
				c2.2077141,0.6021576,3.1072731,0.6958771,3.8396378,0.5569c0.7326546,0.1389771,1.6317787,0.0452576,3.8396378-0.5569
				C50.0837898,250.292572,51.0127411,245.6583862,50.2901268,243.8760529z"/>
			<g>
				<rect x="42.2198601" y="229.3807068" class="st13" width="0.2064822" height="44.8947105"/>
				<g>
					<polygon class="st13" points="42.4163017,239.7670746 42.2771912,239.591217 46.4606743,235.1915588 46.5997849,235.367569 
											"/>
					<polygon class="st13" points="42.4163017,249.2726593 42.2771912,249.0969849 45.8023758,245.3899994 45.9413605,245.5653381 
											"/>
					<polygon class="st13" points="42.2297554,239.7670746 42.368866,239.591217 38.1852379,235.1915588 38.0461273,235.367569 
											"/>
					<polygon class="st13" points="42.2297554,249.2726593 42.368866,249.0969849 38.8435364,245.3899994 38.7044258,245.5653381 
											"/>
				</g>
			</g>
		</g>
	</g>
	<g>
		<g>
			<path class="st15" d="M83.5733414,204.9259644l-0.7189789-1.1210022c0,0-0.3199844-0.5523682-0.8788986-1.0349884
				c-0.5586166-0.483139-1.1409607-0.279129-1.642395,0.2494354c-0.5012894,0.5278931-0.5791397,0.9488373-0.5791397,0.9488373
				s0.2958298,0.9411163,1.0111694,0.8800964c0.715332-0.0601807,2.2299728,0.8881531,2.3612289,0.5845642
				C83.2578659,205.1288147,83.5733414,204.9259644,83.5733414,204.9259644z"/>
			<polygon class="st15" points="79.8705063,204.370575 78.9470596,203.2380219 78.12957,202.1399841 78.3944092,202.0295105 
				79.0687332,202.7153168 80.5369492,203.169281 80.3144455,203.5699463 			"/>
			<polygon class="st15" points="79.4559174,202.3810425 79.0091934,201.2085876 79.2382355,201.0198212 79.8613205,202.0856628 
				80.8187866,202.8992157 80.3144455,203.5699463 			"/>
			<polygon class="st15" points="79.6970367,200.8407898 80.001297,201.8011932 80.1276016,202.4719086 80.624382,202.9666138 
				81.170784,202.5857391 80.6210403,202.072937 80.0327301,200.8855438 			"/>
			<polygon class="st15" points="80.579277,200.7031555 80.8701782,202.5190125 81.2422333,202.841217 81.6303101,202.6060181 
				81.2383194,201.8482971 80.82798,200.8516846 			"/>
		</g>
		<path class="st15" d="M83.4892349,205.9919739c-0.4734955-0.6179047-1.237587-0.5511932-1.237587-0.5511932
			s-1.907959,0.1114807-2.2005844-0.2328491c-0.2932053-0.3456726-1.089592-0.6093597-1.089592-0.6093597
			s-0.2847748-0.2962189,0.4862976-0.3518829c0.5052185-0.0362091,0.9475784,0.1091461,0.9475784,0.1091461
			s1.0657349-0.5066071,1.3985214-0.4358673c0.6849289,0.1450043,1.810173,1.6706848,1.810173,1.6706848
			S83.5500565,206.071106,83.4892349,205.9919739z"/>
		<g>
			<rect x="73.3851395" y="273.9848938" class="st25" width="1.989301" height="3.4898942"/>
			<rect x="59.2704277" y="273.9848938" class="st25" width="1.610698" height="3.4898942"/>
			<path class="st26" d="M73.479866,278.4933472h1.452507v-0.5090942l0.6312332,0.5090942h3.6625519
				c0,0-0.0631561-0.6906433-2.5255203-0.7999573c-0.631813-0.0274963-1.0738754-1.0177307-1.0738754-1.0177307
				s-0.3156204-0.3270569-0.7892609,0.4360352c-0.1231079,0.1984863-1.4523621-0.1820679-1.4523621-0.1820679
				S73.2586899,277.9480286,73.479866,278.4933472z"/>
			<path class="st3" d="M75.3149261,235.4780426l0.1734467,18.90625l-3.4706116,2.2076263
				c0,0-2.0827255-4.5109711-2.3426056-10.2693481C69.4146881,240.5640259,75.3149261,235.4780426,75.3149261,235.4780426z"/>
			<path class="st13" d="M75.3149261,235.4780426l-7.6357651,20.7299957l-1.3884811,2.2079468l-5.2675514,18.3802185
				l-1.9895935-1.0395508c0,0,0.7536087-13.0625305,2.7215195-17.1700134
				c1.3403168-2.7973633,1.7586632-3.3383331,1.7586632-3.3383331l4.5993805-20.3464355L75.3149261,235.4780426z"/>
			<path class="st3" d="M73.2079086,276.3527832c-0.6278915-3.7096558-2.0108414-10.5628967-2.0579681-12.9465332
				c-0.0867462-4.4152527,0.5206223-7.4862213,0.5206223-7.4862213l3.8178101-1.5357361l0.0155716,21.9684906H73.2079086z"/>
			<path class="st26" d="M61.0964851,279.1297302h-0.9831009l-0.3102341-0.3567505l-0.13414-0.8745728l-0.312439,0.3597717
				l-1.0268784-1.1827087c0.1783981-0.5652771,0.8927193-1.1825256,0.8927193-1.1825256s0.7064629,1.3510132,0.9152718,1.3109436
				c0.8042488-0.1543884,0.8265114,0.3345947,0.8265114,0.3345947S60.6699677,278.5942688,61.0964851,279.1297302z"/>
			<path class="st26" d="M60.07584,277.8489685c0.1887321,0.2438965,0.4503632,0.4852905,0.7578316,0.4992065
				c2.4629631,0.1089783,2.5260963,0.7993164,2.5260963,0.7993164H60.07584V277.8489685z"/>
			<path class="st27" d="M73.4057999,220.2180939c0,0,0.4346695,2.4954681,6.9423981,1.0556183
				c6.508194-1.4396667,5.9731445-3.0708008,5.9731445-3.0708008l0.1014252-1.9194489l-3.3844528-4.175705l-1.8227158,1.7449493
				l0.0867462,0.415741c0,0-0.2600479,0.47995-0.6939697,0.47995c-0.4336243,0-2.3426056,0.671051-6.0742722,0.8631744
				C72.8135681,215.7005768,73.3195343,219.7379761,73.4057999,220.2180939z"/>
			<g>
				<path class="st28" d="M74.5341034,215.6115723c0.0746689-0.0033569,0.1472626-0.0078888,0.2201843-0.0127411
					c-0.3016663,1.1620636-0.2802811,2.6014099-0.2620926,2.8791809c0,0,0.1472626,2.5358582,6.7672043,2.0109863
					c1.1937866-0.0938721,2.1541672-0.2276459,2.9290237-0.3822174c-0.8618698,0.3792114-2.0902863,0.780365-3.8402252,1.1669312
					c-6.5077286,1.4398499-6.9423981-1.0556183-6.9423981-1.0556183
					C73.3195343,219.7379761,72.8135681,215.7005768,74.5341034,215.6115723z"/>
			</g>
			<path class="st15" d="M83.0383148,212.6364899c0,0,2.839653-4.4145813-0.9553146-7.9654999
				c-1.1274261-1.0557861,0.2609024-0.4804535,1.5626602,0.1912689c1.3013153,0.6722412,3.9916992,4.0310364,3.7309418,7.3906708
				c-0.2601776,3.3586426-0.6069336,4.606369-1.7349472,5.0856476
				C84.5133514,217.8188629,83.0383148,212.6364899,83.0383148,212.6364899z"/>
			<path class="st28" d="M81.4799957,216.5498352l-0.5309753-1.2916565l-0.1852341-0.530899
				c0.3403549-0.0927124,0.5392685-0.4588318,0.5392685-0.4588318l0.2300568,1.0482483l0.4774246,1.1748047l1.0620956,1.2913208
				L81.4799957,216.5498352z"/>
			<path class="st27" d="M75.5753937,235.7658844l-8.0576096,0.5795288l-2.8759079-13.1522369
				c0,0-2.082428-7.4853821,1.9092712-7.581604c3.9915543-0.0960693,8.5903244-0.0960693,8.5903244-0.0960693
				S77.8315659,218.2029114,75.5753937,235.7658844z"/>
			<path class="st15" d="M68.5465622,206.2251587c0,0,4.0618286,4.3483734,3.5579453,5.8551025
				c-0.0219955,0.0652161-0.661377,0.7739868-0.7326813,1.4879608c-0.0670776,0.6725616,0.2115784,1.0693665,0.2115784,1.3384247
				c0,0.0866699,0.20401,0.6640167,0.2255402,0.8358459c0.0957489,0.773819-0.2473679,1.4128571-0.5317001,1.3345642
				c-0.3469009-0.0960541-1.8162842-0.766098-2.0722427-0.9270325c-0.1766281-0.1114807-0.342247-0.1295929-0.3867722-0.4509583
				c-0.0935669-0.6834564-0.4064178-1.8493805-0.7051315-2.1794586c-0.8751297-0.968277-3.3334198-1.9020233-2.6499481-4.6839752
				C65.6624985,208.0229187,68.1997986,206.0333862,68.5465622,206.2251587z"/>
			<path class="st3" d="M71.2864151,217.2549286c0,0,3.4989929,6.9462585,2.5055771,14.6336517
				c-0.0781174,0.6060028-0.7048645,1.0396881-0.7048645,1.0396881l-0.8608475-0.8660278
				C72.2262802,232.0622406,72.2953949,223.3613129,71.2864151,217.2549286z"/>
			<polygon class="st28" points="71.1614151,217.070694 70.9709625,218.6049194 68.5184708,216.2589874 68.8025131,215.6858368 			
				"/>
			<polygon class="st28" points="71.8809738,216.0799408 71.809967,215.5634613 72.2598877,216.449585 72.2817154,218.0766907 
				71.3129196,217.1045532 			"/>
			<path class="st14" d="M72.0589371,212.0001373c0,0-0.1910553,0.0496216-0.559761,0.1072845
				c-0.1226883,0.0192719-0.4781799,0.0812988-0.6404266,0.1654663c-0.7142944,0.3714752-0.6505814,0.4182587-1.1210251,0.5456543
				c-0.5366516,0.14534-1.7205429,0.1909485-1.7205429,0.1909485s0.5961685,0.2593231,0.8324814,0.3681335
				c0.4423523,0.2038422,0.8238907,0.1307526,1.1252441,0.0132446c1.3101959-0.5082855,1.3104858-0.3632812,1.4443588-0.4901886
				C71.4284363,212.8919678,71.4667053,212.7778015,72.0589371,212.0001373z"/>
			<path class="st15" d="M69.9903336,208.2282715c0.063446,0.0908661,0.9161453,0.5813751,1.0738831,0.6725616
				c0.1574402,0.0912018,0.3631973,0.2001648,0.3789139,0.2729187c0.0157166,0.0725861-0.0002899,0.3455048-0.0162964,0.4542999
				c-0.0157166,0.108963-0.0628662,0.5453339-0.378624,0.2182617
				C70.7323227,209.5192566,69.9903336,208.2282715,69.9903336,208.2282715z"/>
			<path class="st3" d="M65.2387695,208.7008514c0.2364578-1.4725342,1.9257126-2.8543854,3.8677216-2.7631836
				c0,0,0.1736145,0.3267212-0.0160065,0.9270325c0,0-1.3115082-0.2886658-2.2100449,0.8544617
				c-0.9430618,1.1994476,0.2243805,1.0529327,0.2051697,1.5950775c-0.0157089,0.4548035-0.0475769,0.8591461-0.0475769,0.8591461
				l0.3557739,0.8318176l-0.24897,0.3136444c0,0-0.6984558-0.5728149-0.6751785-0.2182617
				c0.0288162,0.429657,0.5174408,0.8948517,0.580307,0.9681091c0.0634613,0.0730896,0.170105,0.1909485,0.1543884,0.2455902
				c-0.0128098,0.0422516,0.378624,0.3813782,0.8372803,1.1620789c-0.127182,0.1329346-0.4439621,0.0893402-0.861145-0.2757721
				C66.2400436,212.3768158,64.9494934,210.4989319,65.2387695,208.7008514z"/>
			<path class="st15" d="M66.4923553,210.9996643c-0.2441635,0.2264862-0.283165,0.6381989-0.0861206,0.920166
				c0.1972961,0.2814636,0.5549622,0.3255615,0.7994232,0.0987396L66.4923553,210.9996643z"/>
			<path class="st14" d="M70.6732254,209.9279633c0,0,0.3909912-0.6454163,0.4538498-0.6816254
				c0.0638809-0.0365448,0.2053223-0.1461792,0.2528992-0.0911865c0.0474396,0.0546417,0.0832367,0.2819672-0.0435028,0.6911621
				C71.3057632,209.9460602,71.229805,209.7641754,70.6732254,209.9279633z"/>
			<path class="st15" d="M62.3846893,242.0335388c0.210701,0.4499359,1.5491257,0.8891602,1.5491257,0.8891602l0.9547272-1.2346649
				l-0.2725677-1.1575317l-0.7688866,0.0335236l-1.301754,0.5765076
				C62.5453339,241.1405334,62.2560539,241.7587891,62.3846893,242.0335388z"/>
			<path class="st27" d="M65.1623764,222.8099518l-4.5123444,7.9651642l-0.6073685,0.0965576l0.1734734,0.671402
				l-3.2686691-0.2878418l-0.7227402-3.2630768l6.3347206-10.7489624c0,0,1.973877-2.0648041,5.2064362-1.5354004
				C70.1090698,216.0916748,65.5097122,222.1378937,65.1623764,222.8099518z"/>
			<path class="st15" d="M60.0426636,231.2552338l3.3505707,10.7214813c0,0-0.7287254,0.2561493-1.1526031-0.1772003
				c-1.1480942-1.1759796-3.1487465-4.3765259-3.8464775-6.1296844c-0.9543953-2.3990784-1.4750595-4.9904327-1.4750595-4.9904327
				L60.0426636,231.2552338z"/>
			<path class="st28" d="M57.2173958,229.1745148c0,0,2.0197105,1.1164703,3.090683,1.6549225l-0.2654152,0.0422363
				l0.1741791,0.671402l-1.129612-0.1099701l-1.5834465-0.4306641l-0.0863113-0.7713013h0.4900856L57.2173958,229.1745148z"/>
		</g>
	</g>
	<g>
		<g>
			<g>
				<path class="st13" d="M232.1804199,230.0983582c0,1.7231598,1.2121277,3.1199188,2.7091522,3.1199188l0.677063-1.4825897
					c1.4968872,0,2.7095947-2.595871,2.7095947-4.3188629v-1.1699524c0-1.7228088-1.2127075-3.1195831-2.7095947-3.1195831
					h-0.677063c-1.4970245,0-2.7091522,1.3967743-2.7091522,3.1195831V230.0983582z"/>
				<path class="st13" d="M237.8407135,226.2007751c0.1485596,0,0.29422,0.0132446,0.4372559,0.0328522
					c-0.0282288,0.2057037-0.0474243,0.4159088-0.0474243,0.6318359c0,2.0753632,1.3827972,3.7849274,3.1651764,4.0288544
					c-0.2696228,1.942749-1.7561798,3.4310455-3.5550079,3.4310455c-1.9901733,0-3.6030426-1.8188782-3.6030426-4.0618744
					C234.2376709,228.0193176,235.8505402,226.2007751,237.8407135,226.2007751z"/>
				<path class="st8" d="M233.2628937,224.3114929c0.0033417,0.286499,0.0238647,0.5807037,0.0651855,0.8787537
					c0.2738495,2.0031128,1.3307037,3.5245972,2.4865112,3.7121887c0.0359497,0.9065857,0.1947021,1.7231445,0.3841553,2.4168396
					c0.2156525,0.7894135,1.0190277,1.6244202,1.0190277,1.6244202c0.1959991,1.3997803-3.9388733,3.4533386-3.8409424,3.2275391
					c0.0974884-0.225647,1.116806-1.8730316,1.45047-3.3854523c0.2313538-1.0531158-0.0670929-1.9221497-0.4161682-2.5219574
					c-0.6459351-0.8755798-1.5837402-0.8628387-1.5837402-0.8628387c-0.0896606,0-0.1708527-0.0452576-0.2284546-0.1149902
					c-0.0545959-0.2063751-0.0843964-0.4253082-0.0843964-0.6526184v-2.5719147
					C232.5145416,225.3481598,232.8084717,224.7154999,233.2628937,224.3114929z"/>
				<path class="st27" d="M235.0800476,244.8674622c0.4567871,1.2904816,2.9178162,1.2904816,3.374588,0l2.6125183-9.3156586
					c0.4575195-1.2913208-0.0424805-2.3474426-1.1096497-2.3474426h-2.8788452l-1.3096161,0.7247009l-1.1527405-0.7247009
					h-0.6962738c-1.0677795,0-1.5674591,1.0561218-1.1096802,2.3474426L235.0800476,244.8674622z"/>
				<path class="st27" d="M232.7249298,234.0536194l-2.5938873,9.0055389c0,0-0.1772461,0.6232758,0.3668213,0.2117157
					c0.7630615-0.5780182,2.4794159-2.6760101,4.0055237-6.8550568
					C235.6228027,233.3505554,233.4143677,233.881958,232.7249298,234.0536194z"/>
				<path class="st8" d="M232.1389465,268.259552c0.122406-0.5012512,0.2086639-1.0061646,0.3181-1.4986877
					c0.4243164-0.7667847,0.8102112-1.1981201,1.1239319-1.1996155c1.1888428-0.0078735,1.8209381,4.6725769-0.6123199,13.5989685
					c-0.1347351,0.497406-2.2635803,9.4754333-2.2662048,9.113678
					C230.6503601,281.0153198,231.6982117,270.0722046,232.1389465,268.259552z"/>
				<path class="st8" d="M239.4212646,268.3577881c-0.094574-0.5089417-0.2218781-1.002655-0.3251953-1.4966736
					c0.0647278-0.9065857,0.2319183-1.4943237,0.5086823-1.664978c1.0491486-0.6450806,3.5029297,3.157135,4.9650421,12.3598022
					c0.0817719,0.5119629,1.8334503,9.5977783,1.6851807,9.2792664
					C243.2700653,280.4413147,239.7667084,270.1981201,239.4212646,268.3577881z"/>
				<polygon class="st28" points="236.1293335,233.6117249 236.9033203,234.584198 237.6764221,233.3004303 
					237.2125397,232.5095062 				"/>
				<polygon class="st28" points="234.5014954,232.5408478 235.9115143,233.7706451 235.1471252,234.6784058 
					234.0895386,233.0657349 				"/>
				<path class="st28" d="M236.0263214,245.128479c-0.1522064-0.048111-0.3052826-0.0952148-0.4567719-0.1434937
					c-0.7709198-3.8184662-0.6841888-7.6964417,0.2022705-11.2896118c0.14711-0.0383759,0.2940826-0.0772705,0.4416504-0.1159973
					C235.3138885,237.2511597,235.2318115,241.2193146,236.0263214,245.128479z"/>
				<path class="st18" d="M231.5787354,270.871521c-0.0542908-0.3049316-0.0827789-0.655304-0.0841064-1.0282898
					c0.062851-2.0879517-0.0107727-4.2077332,0.2827301-8.1732178c0.2892761-3.8513184,0.9467163-9.5485077,2.3631134-16.1363525
					c0.1367798-0.672226,0.3047028-1.2510834,0.4957581-1.7228241c1.2866211-0.2056885,2.5949249,0.8018188,3.9289856,1.2366791
					c0.4878998,1.0463867,0.9145508,2.2996521,1.2121277,3.8109131c1.4491577,6.8220367,2.1739502,10.7652283,2.5575256,14.074585
					c0.3883667,3.2072449,0.434494,5.7804871,0.6315155,7.4912415
					C239.286377,277.4762878,235.4935913,264.3508911,231.5787354,270.871521z"/>
				<g>
					<path class="st8" d="M230.4648285,242.8271332c0,0,0.5422058-0.1874084-0.2398071-3.5495605
						c-0.7814026-3.3616486-2.5876465-8.0962677-2.5876465-8.0962677l1.2316132,7.9328156
						C228.868988,239.1141205,229.4554138,242.125412,230.4648285,242.8271332z"/>
					<path class="st8" d="M228.447876,233.7661285c-0.3335114-1.6103363,0.1612396-2.470993,0.2280426-3.1616669
						c0.0650177-0.6918335,0.2349854-1.4133606,0.2306213-1.4076538c-0.4704437,0.5037537-0.3789215,1.0277863-0.5012665,1.3348999
						c-0.122406,0.3079529-0.0474701,0.2170868-0.2005463-0.3473511c-0.0864258-0.3206787,0.2496948-1.0155487,0.4159088-1.495163
						c0.1440582-0.4152374,0.1152191-0.6435547,0.1152191-0.6435547s-0.3733826,0.5381165-0.6325531,1.1684265
						c-0.3131409,0.7615814-0.5242767,1.6540985-0.5436249,1.857605c-0.0349274,0.371994,0.1587677,1.4564514,0.3979797,2.2024384
						C228.228302,234.1148071,228.687973,234.9263458,228.447876,233.7661285z"/>
					<path class="st8" d="M227.60289,231.1501312c0,0-0.0071259-1.2981873,0.0766907-1.548645
						c0.0584869-0.1748505,0.4507904-0.943634,0.4507904-0.943634s0.0356598,0.4774323-0.1066589,0.7959442
						C227.8816986,229.7728119,227.60289,231.1501312,227.60289,231.1501312z"/>
				</g>
				<path class="st27" d="M228.3444214,235.3883514c-0.0084381,1.677063,0.4624634,4.2189636,1.3573608,6.9372101
					c0.1043091,0.3198547,0.2130127,0.6330109,0.3235931,0.9389496c0.1690979,0.4677124,0.8765717-0.1751862,0.839325-1.034668
					c-0.0726166-1.6613007-0.6448822-3.5753937-1.4574585-6.0408478c-0.138382-0.421936-0.28302-0.8319855-0.4309998-1.2297974
					C228.7610168,235.0827484,228.5511932,235.226593,228.3444214,235.3883514z"/>
			</g>
			<path class="st8" d="M226.9501495,288.2294617c0,0,0.4319916-0.0030212,1.5229034,0.2667236
				c0.6390991,0.1567383,1.0863953,0.3783569,1.3919678,0.2256165c0.5052185-0.2519531,0.890686-2.7987061,0.9601288-4.6492615
				c0.0078278-0.20755,1.0984497-0.6925354,1.0483856-0.4630127c-0.6558228,2.9873047-0.6923523,4.878418-0.7552032,5.2946777
				c-0.1071014,0.7057495-0.388092,1.3432922-0.6878357,1.3659058c-0.5906372,0.0452576-3.3079376-1.3892212-3.5270844-1.5187988
				C226.6838531,288.6205444,226.9021301,288.1359253,226.9501495,288.2294617z"/>
			<path class="st13" d="M247.48703,288.7585144c0.2574005,1.7954102,0.1321259,3.3153992-0.2800903,3.3933411
				c-0.4127045,0.0779419-0.9553223-1.3137817-1.2131653-3.1100159c-0.2568359-1.795929-0.1321259-3.3147278,0.2805481-3.393158
				C246.686264,285.5700378,247.2294617,286.962616,247.48703,288.7585144z"/>
			<path class="st8" d="M247.1708221,287.8296509c0.3557739,1.2792358,0.2035675,2.5397034-0.2083435,2.6176758
				c-0.4124146,0.0782776-0.8560791-0.9032593-0.9941711-2.2362976c-0.1750488-1.6862793-0.083374-2.3960571-0.5576019-3.3140564
				c-0.489212-0.9456482-0.5602264-1.8887634-0.4538574-2.0312805c0.105072-0.1424866,0.6600494,0.2125854,0.7329559,0.7039185
				c0.1050568,0.7034302,0.3723602,1.3258667,0.4764099,1.5191345
				C246.4588318,285.6325684,246.8020935,286.5010986,247.1708221,287.8296509z"/>
			<path class="st13" d="M227.5999756,288.3032227c-0.4342041,0.6828003,1.699585,1.3562012,2.2948761,1.4135132
				c0.5676575,0.0526428,0.909317,0.1477051,0.909317,0.1477051c0.0212402,0.0108948,0.0424805,0.0169373,0.0641632,0.0259705
				c-0.0049438,0.019104-0.0059662,0.039917-0.0128021,0.0586853c-0.1527863,0.416748-0.1949921,1.0467224-0.7735443,0.7667847
				l-3.6247101-1.7561951C223.494339,287.5243835,227.609436,288.288147,227.5999756,288.3032227z"/>
		</g>
		<path class="st27" d="M241.085495,243.6670074c0,0,0.602417-0.0603485,1.0491486,2.84935
			c0.1903534,1.2415314,0.2951202,2.670639,0.3524323,3.9021149c0.0771179,1.6522369-0.7543182-0.0606842-0.7543182-0.0606842
			l-0.8752747-3.1987C240.8574829,247.1590881,240.3442535,244.5960541,241.085495,243.6670074z"/>
		<path class="st27" d="M240.9997864,233.6177673c1.0984802,2.6406403,0.7028198,12.3924866,0.7028198,12.3924866
			s-0.8625946,3.5690155-1.975769-9.3196869C239.3930359,232.8211517,240.7291412,232.9658203,240.9997864,233.6177673z"/>
		<path class="st8" d="M242.6113434,256.7151489l0.4430847-0.6767578l0.2188416-0.6454163l-0.0149841-1.1243591
			c0,0-0.144928-1.1865387-0.3390503-1.6123352c-0.194397-0.4251404-0.4331818-2.1963959-0.5081177-2.4069519
			c-0.0752411-0.2110596-0.6535034-0.194458-0.6535034-0.194458s0.295105,1.6073151,0.4692841,2.3375397
			c0.1740265,0.7295685,0.1108704,1.8705139,0.1703949,2.1595154c0.1005402,0.4935303,0.2981567,0.8685455,0.2981567,0.8685455
			s-0.0372314-0.7946167-0.0681-1.0019836c-0.0311432-0.2065277,0.1865692-0.1371307,0.1865692-0.1371307
			s0.1508636,1.085968,0.0873108,1.3865356c-0.0640259,0.3007507-0.2129211,0.5426483-0.2129211,0.5426483L242.6113434,256.7151489z
			"/>
	</g>
	<g>
		<g>
			<g>
				<path class="st29" d="M163.2785187,201.1730499"/>
			</g>
			<g>
				<path class="st30" d="M157.7011719,149.7592163c-7.4679871-5.8504028-16.4587708-8.0042267-25.3102875-6.0644836
					c-8.8739166,1.9358978-16.5642471,7.7567902-21.6423645,16.3854675
					c-5.0529175,8.5936432-6.9147491,18.9300537-5.2380142,29.0877686
					c3.4800797,21.0655975,21.1979675,34.9592896,39.4934006,30.947876
					c8.8810577-1.9412537,16.5695038-7.7728882,21.6535645-16.39888c5.0552521-8.5923004,6.9068909-18.914978,5.2316132-29.0765381
					C170.2068024,164.4473572,165.1712036,155.6098022,157.7011719,149.7592163z M161.4342957,199.632782
					c-4.1423035,7.0335999-10.3917694,11.7655334-17.6090393,13.3468628
					c-14.8846283,3.263916-29.2902069-8.0261841-32.1131516-25.1673737
					c-1.3633041-8.2685852,0.1507721-16.6662598,4.2640991-23.651413
					c4.130806-7.0235443,10.3833313-11.7571411,17.5907059-13.3341217c7.2028656-1.5776367,14.508194,0.168808,20.5865326,4.9403076
					c6.0710602,4.7558899,10.1716003,11.9489136,11.5445099,20.2305908
					C167.0595245,184.257843,165.5501099,192.6503143,161.4342957,199.632782z"/>
				<path class="st31" d="M116.0523071,164.223053c-4.0979233,6.9591675-5.6086349,15.3308563-4.2496948,23.5733032
					c2.8131943,17.0769653,17.1729431,28.3300323,32.0051727,25.0763397
					c7.1915283-1.5719452,13.4212036-6.2909698,17.5505524-13.2972412l0,0
					c4.1027222-6.9631958,5.6028442-15.3213043,4.2473602-23.5578766
					c-1.3665009-8.2575226-5.4521942-15.4212189-11.5062408-20.1628571
					c-6.0555115-4.7510376-13.3405914-6.4951477-20.5153656-4.9232025
					C126.3982391,152.5054626,120.1704559,157.2221375,116.0523071,164.223053L116.0523071,164.223053z"/>
				<path class="st31" d="M130.5001221,209.0569153c-5.8496094-4.5857544-9.8004379-11.5066986-11.1132507-19.4881287
					c-1.3135223-7.9661713,0.1450729-16.0587463,4.1050491-22.7860718
					c3.9757156-6.7496185,9.9802628-11.3055267,16.908699-12.8397522l0.0372467-0.0110626
					c2.6953278-0.5892487,5.4076843-0.6921692,8.0597839-0.3289032c-4.6448975-2.1477814-9.72052-2.73703-14.7454987-1.6386566
					l-0.0327454,0.0102234c-6.9335175,1.5323792-12.9391098,6.0934753-16.9155273,12.8424377
					c-3.9557571,6.7254791-5.4164124,14.8167114-4.1002502,22.7872314
					c1.3131027,7.9812622,5.2583847,14.899353,11.1100235,19.483429c3.5759659,2.8049164,7.5961838,4.5196991,11.7694778,5.084137
					C133.8155975,211.3553925,132.1107635,210.3195648,130.5001221,209.0569153z"/>
				<path class="st32" d="M144.1168518,214.7495728c-15.7301788,3.4484863-30.9582062-8.4824982-33.9415054-26.5956573
					c-1.4415894-8.7431641,0.1588974-17.6233063,4.5061111-25.001236
					c4.3675308-7.4196625,10.9735031-12.4226685,18.5937042-14.0950317l0,0l-0.527771-3.2023926
					c-0.0241547,0.0026855-0.040451,0.008728-0.0596619,0.0102234c-8.3505249,1.8451996-15.5772552,7.331665-20.3560333,15.4468689
					c-4.7662582,8.1022949-6.5217209,17.8534851-4.9429092,27.4440613
					c3.2786865,19.8750305,19.9929962,32.977478,37.2581711,29.1952209l-0.525589-3.2050781L144.1168518,214.7495728z"/>
			</g>
			<path class="st30" d="M173.8235474,203.4911499c-2.0955505-1.6948242-4.1963196-3.3914948-6.3075562-5.0889893
				c-0.9776917-0.7676239-2.1369934-1.0276337-3.1935577-0.7872314c-0.4784546,1.0170593-1.0053558,2.0106506-1.5773621,2.9785919
				c-0.5935364,1.005661-1.2269592,1.9729309-1.8995209,2.8942719c0.1925201,1.2133636,0.8256378,2.3658905,1.7962036,3.1304779
				c2.1092072,1.703537,4.2185516,3.4074249,6.3411407,5.1201782c2.0308075,1.5959167,3.9302979,0.4846497,5.2778931-1.8688354
				l0.0110626-0.0087128C175.647522,207.5198364,175.8451233,205.0635986,173.8235474,203.4911499z"/>
			<polygon class="st33" points="210.5307922,228.6130829 202.7650757,241.7430267 167.1757812,213.8396301 
				174.9407654,200.7085266 			"/>
			<polygon class="st18" points="209.9106293,229.6616669 206.7026367,235.0882874 171.113205,207.1827087 174.318985,201.758606 
							"/>
			<polygon class="st34" points="177.6788788,202.8532867 169.9133148,215.985733 167.1757812,213.8396301 174.9407654,200.7085266 
							"/>
			<polygon class="st35" points="176.7266388,203.8976746 173.2947235,209.6999664 171.414566,208.2249146 174.844574,202.4241333 
							"/>
			<path class="st34" d="M213.2688904,230.7600403c1.0040436,6.0921326-2.471817,11.9698639-7.7658234,13.1299286
				c-0.9134064-0.7163239-1.8237305-1.4302979-2.7379913-2.1469421c2.590271-4.3777161,5.1780548-8.7537384,7.7657166-13.1299438
				C211.4411163,229.3270569,212.3546448,230.043045,213.2688904,230.7600403z"/>
			<polygon class="st35" points="212.5029144,231.9499359 209.0733337,237.7520599 206.7205353,235.907196 210.1505585,230.1074219 
							"/>
		</g>
	</g>
	<g>
		<path class="st36" d="M99.8160248,210.9517212c0,2.2597656-1.6250839,4.0920563-3.6289368,4.0920563
			c-2.0035629,0-3.6289368-1.8322906-3.6289368-4.0920563c0-2.2595978,1.6253738-4.091217,3.6289368-4.091217
			C98.1909409,206.8605042,99.8160248,208.6921234,99.8160248,210.9517212z"/>
		<path class="st36" d="M99.8624649,216.6346588c0,2.359848-1.696991,4.2732697-3.7907715,4.2732697
			c-2.0927582,0-3.7897263-1.9134216-3.7897263-4.2732697c0-2.3603363,1.6969681-4.2736053,3.7897263-4.2736053
			C98.1654739,212.3610535,99.8624649,214.2743225,99.8624649,216.6346588z"/>
		<path class="st36" d="M102.6468201,207.9000397c0,1.7355499-1.2221527,3.1425476-2.7293777,3.1425476l-0.6820145-1.4928284
			c-1.5070724,0-2.7293777-1.406311-2.7293777-3.1422119v-1.1786652c0-1.7350464,1.2223053-3.1423798,2.7293777-3.1423798h0.6820145
			c1.507225,0,2.7293777,1.4073334,2.7293777,3.1423798V207.9000397z"/>
		<path class="st8" d="M101.5557709,203.2794189c-0.0034943,0.2893524-0.0242767,0.5852356-0.0653381,0.8854675
			c-0.2758865,2.0177002-1.3406067,3.5502472-2.5049973,3.738678c-0.0356445,0.91362-0.1962967,1.7353821-0.3867722,2.434433
			c-0.217247,0.7954407-1.0267334,1.6368256-1.0267334,1.6368256c-0.1970215,1.4091644,3.9681244,3.4774933,3.8690338,3.2501678
			c-0.0988083-0.227478-1.1248169-1.8865967-1.4603653-3.4099274c-0.233696-1.0606537,0.0670776-1.9360504,0.4184952-2.5400543
			c0.6511688-0.8821106,1.5949631-0.8692017,1.5949631-0.8692017c0.0909424,0,0.1727219-0.0449371,0.2299042-0.1156769
			c0.0557327-0.2077026,0.0861435-0.4281464,0.0861435-0.657135v-2.5913544
			C102.3101044,204.3238068,102.0139923,203.6867828,101.5557709,203.2794189z"/>
		<path class="st13" d="M102.418663,231.6139832l1.9545212,1.1027222c0,0-1.273819-6.3990936-1.6288681-8.8990784
			c-0.3550491-2.5004883-0.3160553-3.3192444-0.1973114-4.0917206c0.1181564-0.7731476,0.4342041-1.6824188,0-2.5460815
			c-0.4342117-0.8631744-1.1115494-2.2961426-1.3819351-2.4091339c-0.4342117-0.1820526-0.9079971-0.4092102-1.2633209-0.8184052
			C99.7067642,213.7273102,102.418663,231.6139832,102.418663,231.6139832z"/>
		<polygon class="st8" points="96.6773224,270.1733093 96.9409866,276.4770203 100.2045441,277.4484863 101.9416733,277.5076599 
			98.5729141,275.5690918 98.6779938,269.8092041 		"/>
		<path class="st16" d="M96.8880234,277.4484863l0.6839066,0.0591736l0.3690186-0.5456848l2.6185226,0.848938l2.2244263,0.1217041
			c0,0-0.0039062-0.1984863-0.0919647-0.2878418c-0.3288574-0.3334351-1.9610748-0.8938599-1.9610748-0.8938599
			s0.0654831,0.5751953-0.144928,0.6365356c-0.210701,0.0610352-2.2243042-0.6365356-2.6976547-0.8492432
			c-0.8154526-0.3651428-1.0031662-0.6576538-1.0526352-0.6060181
			C96.703804,276.0689697,96.8880234,277.4484863,96.8880234,277.4484863z"/>
		<polygon class="st8" points="105.7711182,270.7045593 106.7190094,276.6297302 109.982399,277.5991821 111.7196732,277.6595154 
			108.3506241,275.720459 107.5871201,270.6737061 		"/>
		<path class="st16" d="M106.6663132,277.5991821l0.6843491,0.0603333l0.3684311-0.5453186l2.8952866,0.9853821l1.842186,0.1669617
			c0,0-0.1378174-0.3351135-0.2502823-0.4396973c-0.3354263-0.3150024-1.6710815-0.8941956-1.6710815-0.8941956
			s0.0260468,0.4849854-0.1846542,0.54599c-0.2099762,0.059845-2.2103348-0.5758362-2.6841278-0.7887268
			c-0.8160324-0.364624-1.0030136-0.6581421-1.053215-0.6061707
			C106.4818268,276.2208557,106.6663132,277.5991821,106.6663132,277.5991821z"/>
		<path class="st33" d="M104.1752853,232.5943298l1.6696091,19.857254l1.8987961,18.9971161l-2.5186768,0.3614197
			c0,0-3.1187515-19.078064-3.4640732-20.7247772c-0.3461685-1.6465454-3.8635025-14.813858-2.6017609-18.2871704
			C100.4210663,229.3255463,104.1752853,232.5943298,104.1752853,232.5943298z"/>
		<path class="st18" d="M96.3088837,232.864563l0.4740753,17.3663177c0,0-0.6259918,4.7099762-0.677063,6.2792206
			c-0.1145248,3.5354919,0.0167313,14.1416321,0.0167313,14.1416321l2.7257385,0.1280823
			c0,0,1.9214935-19.1726227,2.1694641-20.8339081c0.2476425-1.661972,3.0366821-15.0187225,1.4251328-18.3421478
			C100.8319931,228.2803345,96.3088837,232.864563,96.3088837,232.864563z"/>
		<path class="st11" d="M103.0993652,232.6519928c0,0-0.9477234-6.000946-1.3685226-9.0315094
			c-0.4207001-3.030899-1.5791245-8.7891083-1.6838913-9.5168304c-0.1059113-0.7272034-0.4743729-1.696991-0.4743729-1.696991
			s-0.9996643-0.848587-1.8951492-0.667038c-0.8944702,0.1823883-1.9542313,1.229126-2.0002136,4.7280731
			c-0.029686,2.2823944,2.3161163,8.4858551,2.3161163,9.0315094c0,0.5460052-1.8950043,5.152359-1.8950043,6.4862671
			c0,1.3338928,0,1.5154419,0,1.5154419S100.7832489,230.8943176,103.0993652,232.6519928z"/>
		<polygon class="st12" points="97.8091125,210.860199 98.5729141,211.4088745 99.6648331,212.2698669 99.4560242,213.6047668 
			97.4141922,211.4973907 		"/>
		<g>
			<path class="st8" d="M114.0806122,214.3490753c1.6204224-0.5144806,2.107605-1.5814972,2.6848526-2.0487061
				c0.5772476-0.4665375,1.1243744-1.0735474,1.1223373-1.0651703c-0.1842194,0.8383636-0.7022476,1.0259552-0.9077072,1.3432922
				c-0.2034302,0.3171692-0.1642838,0.1770172,0.423439,0.0402222c0.3351364-0.0787811,0.7627792-0.8658447,1.0955658-1.3308716
				c0.2884064-0.402832,0.5081253-0.4992371,0.5081253-0.4992371s-0.2686157,0.7438202-0.6835938,1.4051514
				c-0.5005646,0.797287-1.1759109,1.5478058-1.3467407,1.6849365c-0.310524,0.2517853-1.3835297,0.6338348-2.1826859,0.7713013
				C113.8947906,214.8042145,112.913475,214.7178802,114.0806122,214.3490753z"/>
			<path class="st8" d="M104.2884979,217.3995972c0,0-0.1375122-0.7456512,3.2930908-1.7156067
				c3.4300385-0.9691162,8.6576996-1.5045624,8.6576996-1.5045624l-7.7499924,3.0121307
				C108.489296,217.1915588,105.481987,218.1941986,104.2884979,217.3995972z"/>
			<path class="st12" d="M106.4498138,215.1282654c0,0-3.192131,0.9241943-2.6508255,2.8820343
				c0.3071823,1.112793,1.107933,1.3451385,2.0683136,1.0475769c1.7873535-0.5532074,3.7961349-1.2829437,3.7961349-1.2829437
				l0.4200897-3.3204041L106.4498138,215.1282654z"/>
			<path class="st12" d="M104.6440048,215.3366394l-6.9042969-1.9436035c0,0-0.9190598,0.0999146-1.1501312,0.8455658
				c-0.335556,1.0769196-0.176651,1.6914825,0.3089218,2.0674896c0.9614029,0.7441406,0.4040909,0.5622559,4.3634796,1.7732849
				c3.6190414,1.1084137,5.1003571,1.6141815,5.6348267-0.3275757
				C107.3948975,215.9403076,104.6440048,215.3366394,104.6440048,215.3366394z"/>
			<path class="st14" d="M117.3885422,213.3975677c0,0,1.1189957-0.7987976,1.2826996-1.0509186
				c0.1142273-0.1743469,0.5296631-1.099884,0.5296631-1.099884s-0.4311523,0.2554779-0.616684,0.6150665
				C118.3982544,212.2237701,117.3885422,213.3975677,117.3885422,213.3975677z"/>
		</g>
	</g>
	<g>
		<g>
			<path class="st8" d="M196.6787262,236.5323181c-1.3788757,1.1376038-2.1180725,1.6416931-2.2375183,1.6604614
				c-0.8213043,0.126236-1.4679565-2.3130798-1.0497589-2.5377045c0.417923-0.2249756,1.872757-1.8579407,2.0451813-2.1553345
				C195.6080475,233.201355,197.4965057,235.8574066,196.6787262,236.5323181z"/>
			<path class="st17" d="M196.5305939,234.8460541c-0.2981262-0.5414734-0.640686-1.019577-0.8644867-1.2388458
				c-0.3322144,0.4784393-0.6515808,0.9618988-0.8410645,1.3055573c-0.527771,0.9578857-0.2310486,1.9115906-0.0912323,2.5702362
				c0.0296783,0.1416473,0.0935669,0.2926941,0.1756287,0.4437408c0.2581329-0.1701508,0.776886-0.5753326,1.7692871-1.3944244
				C197.0507965,236.2252045,196.8620758,235.5080566,196.5305939,234.8460541z"/>
			<path class="st8" d="M200.4098053,233.4942169l-2.8360291,4.1183624c0,0-0.6728516,0.9763336-1.0926514,0.8210907
				c-0.41922-0.1553955-1.2402039-1.0189056-1.3796082-1.6760406c-0.1391144-0.6579742-0.4360962-1.6123505,0.0913849-2.5702362
				c0.5280609-0.9577179,2.0670013-3.0015564,2.0670013-3.0015564s0.743866-0.457489,1.5866699,0.9944305
				C199.6898346,233.6325226,200.4098053,233.4942169,200.4098053,233.4942169z"/>
			<path class="st13" d="M200.9771576,232.3829346c0.1217957,0.1922913,0.2879791,0.5728302,0.1388245,0.937439
				c-0.1542358,0.3756714-0.7330933,0.614563-1.0184326,0.4628448c-0.2836151-0.151535-1.8277893-1.5426025-1.9619446-1.7913818
				c-0.1331482-0.2479401-0.4297028-0.6608276-0.3613129-1.1457977c0.0445251-0.315506,0.9496155-0.2558289,1.2127228,0.1744995
				C199.6562042,232.1138763,200.5236206,231.6681366,200.9771576,232.3829346z"/>
			<path class="st13" d="M198.1542206,231.2259064l-1.2257996,1.7799835l-0.7698975,0.8314819l-0.1826172-0.1661377
				l-0.3327637-0.3040924c0,0,1.1370087-2.9417114,1.8444824-2.7502747
				C198.1951141,230.8086548,198.2200012,231.0580902,198.1542206,231.2259064z"/>
			<path class="st8" d="M195.8359222,233.8279877c-0.1060791,0.1540527-0.3007812,0.1797028-0.4346466,0.0573273
				l-0.1412964-0.1289215c-0.1341553-0.1225433-0.1564178-0.3466644-0.0504608-0.5007324l0.448288-0.651947
				c0.1066589-0.153717,0.3013611-0.1797028,0.4352264-0.057663l0.1417389,0.1292572
				c0.133728,0.1222076,0.1557007,0.3463287,0.0500793,0.5009003L195.8359222,233.8279877z"/>
		</g>
		<g>
			<path class="st3" d="M186.7010803,253.6344452l11.2898712,14.8631439l-1.4516296,4.4665527
				c0,0-4.3126984-1.9502869-7.9161682-6.3147583C185.0211334,262.2849121,186.7010803,253.6344452,186.7010803,253.6344452z"/>
			<polygon class="st25" points="201.4942017,291.7030945 203.1544952,291.3949585 202.6512909,287.7964478 
				200.9909821,288.1047363 			"/>
			<path class="st3" d="M200.883606,291.0159302c-1.4999542-3.5480652-4.4077301-9.6453857-5.0117493-12.0365906
				c-1.1191406-4.4284973-1.2237549-7.7157288-1.2237549-7.7157288l3.4933167-2.7324829l5.0601959,21.7730103
				L200.883606,291.0159302z"/>
			<path class="st26" d="M204.5831146,291.8500977l-0.7093811,0.8553162l-0.457489,0.0120544l-0.6708069-0.5139771l0.0112,0.5309143
				l-1.5163879,0.040741c-0.2421265-0.5641174-0.131546-1.6304626-0.131546-1.6304626s1.3959045,0.3605957,1.5203247,0.1507263
				c0.4784393-0.8112183,0.8154449-0.4777832,0.8154449-0.4777832S203.9240875,291.835022,204.5831146,291.8500977z"/>
			<path class="st26" d="M203.1610107,291.553894c0.253952,0.1760254,0.5804596,0.3233643,0.8901062,0.2264709
				c2.4862213-0.773468,2.7349091-0.1069336,2.7349091-0.1069336l-3.2741852,1.1759644L203.1610107,291.553894z"/>
		</g>
		<path class="st13" d="M182.408905,277.4883728c-0.8006134,6.2036133-0.7565308,11.8273926-0.0349274,15.4371338
			c2.0531769-2.5826416,4.0935516-9.04776,5.0954132-16.8067322c0.8007507-6.2036438,0.7559357-11.8277283,0.0343323-15.4374695
			C185.4508362,263.2642517,183.410614,269.7290649,182.408905,277.4883728z"/>
		<path class="st13" d="M179.2731018,252.1069336c0.2137909,2.3492737,0.537384,4.8096924,0.9768372,7.3343506
			c1.4845123,8.5277405,3.9426575,15.824707,6.5202637,20.1172485c1.8631439-4.5200195,2.0552216-14.0866394,0.1986237-24.7537994
			c-0.2552338-1.4661713-0.5397034-2.894104-0.8479004-4.2784729L179.2731018,252.1069336z"/>
		<path class="st26" d="M182.0420837,292.5516663l0.1131897,1.3832092l1.0920715,0.0968933l0.0957489-0.4114075
			c0,0,0.7226105,0.4841614,0.927063,0.5017395c0.2044373,0.0181274,2.7974701,0.2487793,2.7974701,0.2487793l0.0333252-0.5015564
			c0,0-3.0195312-1.0241089-3.3048859-1.8899536C183.5110168,291.1134949,182.0420837,292.5516663,182.0420837,292.5516663z"/>
		<path class="st12" d="M184.9150543,256.6469116c1.4319916-0.947998,2.4271545-2.4232178,3.9771576-3.7592926
			c5.5673065-4.7808838,8.0461121-12.0319061,5.6995697-15.6119843c-2.3564301-3.5871277-7.4397583-0.2489471-11.5430603,6.8984833
			c-1.8299713,3.1971893-3.4012146,6.2398224-4.5020142,8.7409973L184.9150543,256.6469116z"/>
		<path class="st18" d="M195.1798096,242.1274261c0.0173035-0.2073822-0.5887299,3.9676514-2.3648682,7.5117035
			c-1.6649628,3.6082458-4.5007019,6.5849915-6.3805847,5.4482422c-0.2984467-0.1413269-0.3144531-0.8666992-0.3183746-0.8591461
			c0.2421265-0.2670593,0.4823608-0.560257,0.7192841-0.8794403c-0.010498-0.1273956,1.1832886,0.2358704,2.9874878-1.4232483
			C191.5799713,250.4052277,193.9484711,246.8630371,195.1798096,242.1274261z"/>
		<g>
			<path class="st8" d="M204.778244,239.6076508c-1.9879913,0.1180115-3.7646942,0.552536-4.9826355,1.146637
				c-0.2834625,0.3563995-0.421524,0.7136383-0.380661,1.0531158c0.1676331,1.4009399,3.2919312,1.971756,6.9764404,1.2770691
				c2.0562439-0.3885956,3.8527374-1.0889893,5.0097046-1.8760529
				C210.6825562,240.1092224,207.9798126,239.4173737,204.778244,239.6076508z"/>
			<path class="st11" d="M197.9104919,237.9136658c4.3653717,0.9416199,7.7194366,2.835434,7.4920044,4.2306824
				c-0.2264252,1.3955841-3.9481964,1.7645569-8.3134308,0.8232727c-4.3647919-0.9407806-8.3964996-0.7743225-7.4927216-4.2306824
				C189.9516907,237.3777161,193.54599,236.9732056,197.9104919,237.9136658z"/>
			<path class="st11" d="M205.1902161,239.44487c0.1972809,0.0068665,0.3513794,0.2031708,0.342804,0.4393768l-0.1164093,3.4216614
				c-0.0078583,0.2367096-0.174469,0.4232941-0.3723755,0.4160919l-2.2640228-0.0704193
				c-0.1975861-0.0060272-0.3514099-0.2016602-0.3429718-0.4390411l0.1165466-3.42099
				c0.0078583-0.2362061,0.1743469-0.4234619,0.3716431-0.416748L205.1902161,239.44487z"/>
		</g>
		<polygon class="st11" points="193.60289,235.212677 192.605835,235.6052856 194.0829315,240.3040161 195.3957672,238.6155701 		
			"/>
	</g>
</g>
</svg>
