<?xml version="1.0" encoding="utf-8"?>
<!-- Generator: Adobe Illustrator 23.0.3, SVG Export Plug-In . SVG Version: 6.00 Build 0)  -->
<svg version="1.1" id="Слой_1" xmlns="http://www.w3.org/2000/svg" xmlns:xlink="http://www.w3.org/1999/xlink" x="0px" y="0px"
	 width="360px" height="244px" viewBox="0 0 360 244" style="enable-background:new 0 0 360 244;" xml:space="preserve">
<style type="text/css">
	.st0{fill:#8CD3AC;}
	.st1{fill:#4DF3AC;}
	.st2{fill:#D57E70;}
	.st3{fill:#EAAD8C;}
	.st4{fill:#AE5955;}
	.st5{fill:#6AECBF;}
	.st6{fill:#FCB0A3;}
	.st7{fill:#B3F3AC;}
	.st8{fill:#B5D3AC;}
	.st9{fill:#FFFFFF;}
	.st10{fill:#2ED3AC;}
</style>
<g>
	<path class="st0" d="M330.6410828,151.4716034c-2.138916,6.7876434-23.3917847,23.6938477-28.1622009,31.5762329
		c-7.2133484,11.9128113-16.743988,23.0471344-28.0060425,31.3917999
		c-17.1616516,12.7196655-38.3456116,18.95784-61.4738007,11.5904083c-1.9198761-0.6122589-3.8540344-1.3177948-5.8023529-2.1206207
		c-14.9741058-6.1855011-14.7855835-20.9589233-25.7515717-28.3810883
		c-13.1231384-8.8778381-28.9041595-0.9326019-44.7115784-3.9959412
		c-16.68116-3.2316132-23.2417297-10.0071106-33.6583176-21.8226166
		c-11.3349991-12.8575592-19.2154083-23.1058807-24.5453262-31.4566193
		c-26.7997665-41.9888,10.8666458-35.9958649-1.8651657-72.1579971
		c-6.5098724-18.4896164,22.074646-23.7762947,27.7262421-19.0430603c2.8102188,2.3535385,6.7977524,2.5909615,9.3907547,0
		l1.6361008-1.6462631l2.7511063-2.7511063c1.9442444-1.0217934,3.4161682-2.3740425,4.2088394-4.2067909
		c0.2878799-0.6629562,0.4865723-1.3908005,0.5879669-2.1875C128.2652283-5.8439374,201.8951416,1.5640316,225.343689,23.112896
		c32.7763977,30.1206131,14.3334503,39.026844,45.1433716,28.3811378
		c17.7901306-6.147007,30.3476257-2.1510582,31.7424927,16.8919983c1.7151184,23.4201584-8.3588562,15.6087341,9.4211426,37.9929047
		C320.3744812,117.3611755,335.5614624,135.8567963,330.6410828,151.4716034z"/>
	<path class="st1" d="M178.6197968,131.341507l2.2470856,12.8879242c0,0,0.7961578,4.788559,0.602951,6.3625946
		c-0.6069794,4.9443817-4.2439117,16.0041962-4.2439117,16.0041962h0.0000763c0,0,0.021286-0.0551453,0.0605469-0.1576843
		c-2.742981,7.5314331-5.5864716,14.4195862-5.5864716,14.4195862l-7.2115479,18.2940369
		c0,0,8.7492676,2.8782959,15.0744629,2.1341553c0.1351929-0.0159302,0.706192-0.990036,1.5758362-2.6612549
		c3.2577057-6.2604828,10.7335663-22.3711243,15.4562378-35.178299c2.4000092-6.5084229,4.089447-12.1635742,4.1495972-15.2339478
		c0.0799713-4.0807495-0.036026-8.4383087-0.2632294-12.7555084
		C193.1550751,134.280838,185.8260651,133.0693054,178.6197968,131.341507z"/>
	<path class="st2" d="M257.0851746,144.2204132c0.1221008-0.5786438,4.2561646,14.3758545,4.4178162,17.8814392
		c0.4385376,9.5108032-5.0687866,37.8773193-5.0687866,37.8773193l-14.6968079,0.2478333l-11.7167053-0.3905334
		c2.0336761-2.3428345,18.8784637-41.8323822,19.3401489-45.6708374
		C249.3608398,154.1656342,256.3269043,147.8130798,257.0851746,144.2204132z"/>
	<path class="st0" d="M328.4555664,227.1471558c1.6177673,1.1316681,0.832489,3.6727142-1.1416626,3.6944275l-2.1629639,0.0237579
		l-8.1966553,0.0891724l-11.1768494,0.1216583l-34.2625122,0.3750763l-191.0849915,2.0883331
		c-1.5609894,0.0170898-2.5566254-1.6603241-1.7939606-3.0225067l15.72155-28.078949
		c0.3560104-0.6359406,1.0255814-1.0322571,1.7543259-1.0385132l192.5075378-1.6528168
		c0.4222717-0.0036621,0.8351135,0.1244354,1.1812134,0.3664856l7.6808167,5.3714142l19.9412231,13.9462891l6.5058289,4.5493927
		L328.4555664,227.1471558L328.4555664,227.1471558z"/>
	<path class="st3" d="M204.7618256,90.107254c-0.091217,1.3948288-1.5083466,3.7769852-3.7424469,6.6741104
		c-2.3132629,3.0004959-4.2676697,4.2899017-5.5226135,4.7338943c-0.3486786,0.1216583-1.2833405,0.1946106-2.3152313,0.2331543
		c-1.7982941,0.0689163-3.8905334,0.0324173-3.6816711-0.030426c4.973053-1.4941788,6.1935425-9.9746399,5.7901459-15.2458038
		c-0.2696533-3.5154495-0.4500732-7.8682022-0.531189-8.2391891c-0.0101013-0.036499-0.0384979-1.0907135-0.0384979-1.1860275
		c0.1499939,1.8530121,2.4895782,1.4637451,2.6132812,0.8170242c0.1418762-0.7339172-0.1155853-4.1155624-0.068985-8.0810852
		c0.012207-1.0846405,0.7582703-2.9335632,1.6158295-3.5215302c2.5504303-1.7536621,3.8966064-1.0441055,4.4297943-0.6751022
		c0.8109436,0.5636139,0.7623138,1.6847534,0.8413696,3.2336502c0.1743469,3.4526138,0.0730133,5.8287048-0.1439667,6.7916794
		c-1.1819305,5.2792282-2.4247437,5.2833176-2.5463409,5.8205872c-0.1358337,0.5960159,0.2696686,1.1433868,0.7845612,1.8793488
		c0.1865387,0.2655716,0.3933563,0.5007706,0.6061859,0.7156372c0.7521973,0.7603226,1.5753021,1.2752151,1.7820435,2.0416107
		C204.9423065,87.2121735,204.8469849,88.8503189,204.7618256,90.107254z"/>
	<path class="st3" d="M165.2112579,72.3894424c0.0409546-0.4453812,0.3961945-3.8429031,2.6978149-6.1529617
		c1.2720947-1.2767792,2.4842834-1.564415,2.8936462-1.6424713c0.5130768-0.097847,1.2463379-0.2273788,1.8779602,0.1552124
		c0.7809448,0.4729233,0.4758148,1.4035492,1.1632996,1.8485641c1.2932587,0.8371124,4.257019,0.758934,5.3876495-0.2771683
		c1.9052124-1.7459717,1.3695068-3.5450439,3.3950043-4.8594093c1.9330597-1.254406,4.2627106-0.4219246,4.7921753-0.2790985
		c2.4038696,0.6484642,3.69104,2.4062805,4.2754669,3.2297401c1.1672668,1.6448212,1.4970093,3.2527161,1.71698,4.3848648
		c1.6861267,8.678009,1.674881,13.1139221,1.8785095,15.6137772c0.5116577,6.2786484-0.2236481,15.7198639-5.7905121,17.3080368
		c-7.0410004,2.0087051-11.8272858-3.9833221-13.9657745-6.6973267c-1.3656616-1.733223-2.6410522-3.6327209-6.4211121-11.4015732
		C165.4786224,76.1517029,165.0135193,74.5391159,165.2112579,72.3894424z"/>
	<path class="st4" d="M165.3121796,74.5205307c-1.1185608-4.1210938-4.4995575-25.7820549,19.4057922-27.1773033
		c11.837204-0.6908607,17.0531158,10.3234901,17.1028442,17.8321266c0,0-2.0031281-0.1898499-3.7471619,2.0735397
		c-1.3381805,1.7366486-0.5903168,7.0072784-0.6508179,10.5943527c-0.0101013,0.5985489-2.2101593,0.9134293-2.4613647,0.3700256
		c-0.5797729-1.2542267-1.2337646-11.141304-3.4189301-14.0129852c-1.3578339-1.7843361-4.0689545-4.1020927-8.4961548-2.8734856
		c-1.5746918,0.4369583-2.60672,4.3028908-3.9842834,5.1821022c-1.0550537,0.6734161-3.7388458,1.1430359-5.3433838,0.0500946
		c-0.5049133-0.3439255-0.4615021-1.5197296-1.0147705-1.778801c-1.0053101-0.4707565-4.4111938-0.4303436-6.6824036,4.4995422
		C165.0164032,71.4616394,165.3243713,74.5655136,165.3121796,74.5205307z"/>
	<path class="st5" d="M177.2493286,97.0165634c0,0-5.3354645,3.5427551-5.8458405,4.3624878
		c-1.6002045,2.5702744-1.6876373,5.2129517-1.6881256,7.2010956c-0.003067,12.464447,9.3772278,29.8142166,10.3179626,32.9079819
		c0.8335571,2.7413025,0.2273102,14.8368073,0.2273102,14.8368073l11.5777893-15.6552734
		c-0.1490784-1.4750519,3.7110748,1.8907166,3.2881927-3.3131561c-0.9374847-11.53508-1.6482544-23.5501785-1.8544006-23.6602325
		c-1.786026-0.953537-4.9016876-6.8212662-4.9016876-6.6288223c0.000061,1.4596558-1.6591797,6.0010529-2.2516632,5.9777145
		c-0.6422577-0.0253143-2.9762573-11.6355667-3.1555939-11.7085114
		C182.4117584,101.1124039,179.459198,99.52285,177.2493286,97.0165634z"/>
	<path class="st1" d="M249.0648956,154.8699646c-0.3068848,0.6168365,7.7411957-7.0063629,8.1638947-10.2554169
		l-9.2813721-35.1402206C249.3367157,121.5909958,252.6435547,147.677536,249.0648956,154.8699646z"/>
	<path class="st2" d="M204.5423889,169.3854065c0,0,12.4114075,3.4068909,22.6378326-2.8409576
		c0.3751984-0.229187-3.2873535,8.9786377-6.8150177,17.9563751c-2.9136505,7.4151154-5.470932,14.8533325-6.4748077,15.8884277
		l-7.2234039,0.0612183l-6.9496002-0.0612183L204.5423889,169.3854065z"/>
	<path class="st6" d="M230.1736298,200.3892517l11.5637665-0.1622467l4.8468323-36.7802429
		c-4.7226562,12.8071747-12.1985779,28.9178162-15.4562225,35.178299L230.1736298,200.3892517z"/>
	<path class="st6" d="M205.4251556,200.4611206l8.6413269-30.1792603c-4.1082306,0.3100128-9.5240936-0.8964539-9.5240936-0.8964539
		c-1.0045319,6.4546661-4.8438263,31.1248932-4.8438263,31.1248932L205.4251556,200.4611206z"/>
	<path class="st1" d="M190.0399475,101.5269852c-0.9811401,0.3287125-3.5953674,1.2660141-7.1663971-0.2222672
		c0,0,1.9860382,12.3808517,3.3171844,11.7756348c1.5826416-0.7196045,2.3099365-8.5006714,4.2827454-11.6088715
		C190.480896,101.459816,190.0744629,101.5539322,190.0399475,101.5269852z"/>
	<path class="st1" d="M209.9255371,85.480217l-7.4110413-1.7966614c0,0,1.9346771,1.9245758,2.1189423,2.3857651
		c0.0590515,0.1478806,0.3622284,3.8291931,0,4.5851212c-1.7183075,3.5856323-4.2886353,7.693985-8.1377411,10.3443604
		c-0.5869293,0.4041824-2.0198822,0.6286163-3.3132019,0.6721573c-0.0019836,0.0241699,10.8607025,7.8942413,11.9294586,7.6448441
		c1.1020966-0.2571411,4.4734344-3.5036011,6.3369141-15.9524078
		C211.738739,91.4267883,209.9255371,85.480217,209.9255371,85.480217z"/>
	<path class="st7" d="M198.3499146,105.3258057l-5.1674194-3.6548462c0,0-2.2046967-0.5378723-2.7904968-0.1568985
		c-1.2510986,0.8134766-2.0721588,5.6577301-2.0721588,5.6577301s2.9674225,5.8234024,4.8626556,6.6011047
		c1.0009766,0.410675,3.6976166,0.1751175,4.3718109-0.6710739
		C199.259613,110.961525,198.3499146,105.3258057,198.3499146,105.3258057z"/>
	<path class="st1" d="M181.076889,113.9854202c-2.628006,1.1670227,15.6726532,36.3913803,15.6726532,36.3913803
		l3.3789368,0.0246582C200.128479,150.4014587,182.4311829,113.3839874,181.076889,113.9854202z"/>
	<path class="st5" d="M248.04039,109.4742661c-0.6603699-5.2294235-2.5823517-14.3822861-6.1660156-19.0147858
		c-2.2344055-2.8884048-11.0503693-6.7703323-13.0664062-6.5295486c-0.0409546,0.0048752-0.0974274,0.036026-0.1643677,0.0859375
		c0.0454712-0.0552673,0.0713959-0.0859375,0.0713959-0.0859375s-17.6422272,2.139389-18.7894592,1.5502853
		c-0.2100677-0.1078873,1.6557007,5.5978928,1.4914093,7.5033493c-0.3770599,4.3751144-3.6233521,15.3073196-6.3374023,16.2335587
		c-0.7535858,0.2572021-6.7718964-4.1738434-6.7718964-4.1738434s0.5488739,6.6676788-0.8463135,7.9707947
		c-0.1127014,0.1052399,7.9066162,33.1558151,7.9066162,33.1558151l3.9995117,16.2374573
		c-2.1147308,2.8607941-3.2556,4.5557098-4.1902618,5.6685638c-0.6574249,0.7828674-0.4690704,1.4831696-0.4690704,1.4831696
		c12.9293671,3.0075836,22.5069733-2.9628601,22.5069733-2.9628601s0.021347-0.0551453,0.0605621-0.1576233
		c-2.7429962,7.5313721-5.5864105,14.4195251-5.5864105,14.4195251l-7.2116241,18.2940369
		c0,0,8.7493439,2.8782959,15.0745392,2.1341553c0.1351166-0.0159302,0.706192-0.990036,1.5758362-2.6612549
		c3.2577057-6.2604828,10.7335663-22.3711243,15.4562225-35.178299c2.4000244-6.5084229,4.0894165-12.1635742,4.1495972-15.2339478
		C251.0056458,134.3390503,249.0236969,117.2609863,248.04039,109.4742661z"/>
	<path class="st1" d="M224.0148926,105.0432816l6.8411102,39.1861496c0,0,0.7961731,4.78862,0.6029968,6.3625946
		c-0.6069641,4.9443817-4.2438965,16.0041962-4.2438965,16.0041962s-7.1598358,5.9978638-22.6091309,3.1364746
		c-0.8509521-0.1575623,3.9943237-10.1529999,4.0420074-10.309967
		C218.2384491,127.8777618,215.6925964,107.6220398,224.0148926,105.0432816z"/>
	<path class="st7" d="M197.4613342,168.3629456l5.4879608,2.7269287l6.4181671-8.6825256l-11.9061279-49.3932724
		c-2.2324829,1.487381-4.2788391,0.6502686-4.2788391,0.6502686L197.4613342,168.3629456z"/>
	<polygon class="st7" points="203.7864685,202.8625793 196.546524,203.3216705 188.5401764,206.3715973 188.8211517,209.5648346 	
		"/>
	<polygon class="st7" points="188.0651703,203.525177 196.546524,203.3216705 188.5401764,206.3715973 	"/>
	<polygon class="st8" points="317.4226379,219.4309845 305.7774353,231.0761719 271.5149231,231.4512482 297.4814148,205.4846954 	
		"/>
	<path class="st8" d="M328.4555664,227.1471558c-1.0177612,1.2467651-2.120636,2.4875793-3.3046265,3.7181854l-8.1966553,0.0891724
		l6.9741821-6.9741364L328.4555664,227.1471558z"/>
	<g>
		<g>
			<path class="st9" d="M123.5567017,33.5894966l-0.084671-1.010067c0.3983536-0.0334358,0.7951965-0.0781784,1.1795349-0.1329651
				l0.1431274,1.0034523C124.3911133,33.5075302,123.9745407,33.5544968,123.5567017,33.5894966z"/>
		</g>
		<g>
			<path class="st9" d="M297.6500244,91.4008713c-0.8790283-0.1101151-1.712738-0.2635269-2.4778137-0.4559631l0.2472229-0.9830704
				c0.7253723,0.1823959,1.51828,0.3281708,2.35672,0.4332352L297.6500244,91.4008713z M292.7615356,90.1111603
				c-0.8722534-0.4052658-1.605011-0.8922577-2.177887-1.4475708l0.7055969-0.7278366
				c0.4911499,0.4761047,1.1302795,0.8988113,1.8994446,1.2560883L292.7615356,90.1111603z M289.18927,86.3618927
				c-0.1228943-0.4449539-0.1851807-0.9190216-0.1851807-1.4089584c0-0.2393494,0.0148315-0.4865723,0.0439453-0.734642
				c0.0179749-0.1545486,0.0343933-0.3125305,0.0488892-0.4734573l1.0096436,0.0915833
				c-0.0154419,0.1696472-0.0326538,0.3363495-0.0516968,0.4996262c-0.0245972,0.2094574-0.0371094,0.4168701-0.0371094,0.61689
				c0,0.3987732,0.0499573,0.7821426,0.1486511,1.139183L289.18927,86.3618927z M289.1802979,81.3425827
				c-0.0118103-0.7850952-0.0586548-1.5970688-0.1394653-2.4133759l1.008606-0.099884
				c0.0837097,0.8443222,0.1322632,1.6848068,0.1444092,2.4981689L289.1802979,81.3425827z M288.707428,76.5323715
				c-0.144043-0.8027191-0.320343-1.5966492-0.5241089-2.3596725l0.9794006-0.2615356
				c0.210968,0.7900848,0.3934937,1.6118622,0.542511,2.4422379L288.707428,76.5323715z M287.4538574,71.8756866
				c-0.2897339-0.7775726-0.6141663-1.516304-0.9640503-2.1955566l0.9012756-0.4641418
				c0.3681641,0.714798,0.7088928,1.4905701,1.0126953,2.3056717L287.4538574,71.8756866z M285.2479553,67.6533203
				c-0.4871216-0.6654205-1.0147095-1.2520599-1.5680237-1.7434464l0.6728821-0.7579727
				c0.6073303,0.5390778,1.1836853,1.1792374,1.7130737,1.9026871L285.2479553,67.6533203z M262.779541,66.6875153
				c-0.8252258-0.0241776-1.6631775-0.081131-2.4904175-0.1691666l0.1073914-1.0080261
				c0.8015747,0.0853958,1.6133728,0.14048,2.4127197,0.1638718L262.779541,66.6875153z M265.2772827,66.6624374
				l-0.0503235-1.0124741c0.8043823-0.0399323,1.6144409-0.1129379,2.4074097-0.2169189l0.1317749,1.0050812
				C266.946228,66.5455856,266.1088562,66.6210632,265.2772827,66.6624374z M257.819519,66.1611862
				c-0.8095703-0.1481171-1.6289978-0.3288879-2.4352722-0.537323l0.2539062-0.9813843
				c0.7826843,0.2023621,1.5780029,0.3779068,2.3637085,0.5215149L257.819519,66.1611862z M270.229126,66.0117493
				l-0.2140808-0.9908218c0.7869568-0.1700134,1.5733032-0.3748398,2.3371582-0.6085968l0.2966614,0.9692993
				C271.8578186,65.6237411,271.0437317,65.8356628,270.229126,66.0117493z M252.994751,64.9154434
				c-0.7781219-0.2600937-1.5635681-0.5526047-2.3347168-0.8692245l0.3851318-0.9377251
				c0.7502747,0.3080826,1.5143127,0.5925941,2.2710876,0.8456535L252.994751,64.9154434z M281.76651,64.6232986
				c-0.690979-0.3312378-1.4275208-0.5518265-2.1889038-0.6555023l0.1369324-1.0044746
				c0.8660889,0.1179886,1.7039185,0.3690033,2.4901123,0.7458229L281.76651,64.6232986z M274.9910278,64.5618362
				l-0.3421021-0.9542007c0.8463135-0.3033943,1.680603-0.5139351,2.4797058-0.6259727l0.1407166,1.0038757
				C276.5386658,64.0879517,275.7722168,64.2818985,274.9910278,64.5618362z M248.3887634,63.0268288
				c-0.7357178-0.3586006-1.4767151-0.7483521-2.2021027-1.1583099l0.4986725-0.882515
				c0.7076721,0.3998528,1.4302368,0.7799835,2.1475525,1.1296196L248.3887634,63.0268288z M244.0582733,60.5824203
				c-0.6870728-0.4426689-1.3773346-0.9146881-2.0512238-1.4028244l0.5947571-0.8209381
				c0.6590424,0.4773712,1.333847,0.9388657,2.0055237,1.3714943L244.0582733,60.5824203z M240.0343628,57.6706886
				c-0.6342163-0.5114098-1.2711334-1.051384-1.8932495-1.60495l0.6739044-0.7571907
				c0.609848,0.5426826,1.2341461,1.0718918,1.8556519,1.5729561L240.0343628,57.6706886z M236.3269501,54.374073
				c-0.5828552-0.5685387-1.167099-1.1639595-1.7365265-1.769722l0.7385559-0.6942863
				c0.5595093,0.5951767,1.1333923,1.1800766,1.70578,1.7383919L236.3269501,54.374073z M232.9303894,50.7645645
				c-0.5319824-0.6139412-1.0654602-1.2541046-1.5855865-1.9028664l0.7908783-0.6340904
				c0.5120544,0.6387215,1.0372925,1.268898,1.56073,1.8731613L232.9303894,50.7645645z M229.8168335,46.9431343
				c-0.5091248-0.6214027-1.0412292-1.2474327-1.5818024-1.8604736l0.760437-0.6703529
				c0.5485229,0.6221848,1.0887299,1.2575951,1.6056061,1.8884964L229.8168335,46.9431343z M226.5871429,43.277935
				c-0.5527191-0.5848961-1.1274567-1.1731606-1.7084961-1.7486153l0.7132263-0.7202034
				c0.5890045,0.58321,1.1717377,1.1795959,1.7320709,1.7725487L226.5871429,43.277935z M223.1136627,39.8363304
				c-0.5912018-0.5494156-1.2025452-1.1005135-1.8169861-1.6380806l0.6672211-0.7630234
				c0.6221924,0.5441818,1.2413025,1.1022568,1.8398438,1.6586494L223.1136627,39.8363304z M219.4311523,36.614109
				c-0.6203156-0.5118294-1.2627563-1.0269089-1.9095459-1.5308571l0.6230316-0.7995872
				c0.6542358,0.5097847,1.3040771,1.0307541,1.9316864,1.5485382L219.4311523,36.614109z M215.5708313,33.6044121
				c-0.6473999-0.4774933-1.3164825-0.9578094-1.9888306-1.427784l0.5807495-0.8307991
				c0.6793213,0.4748459,1.3555603,0.9602737,2.0096741,1.4428787L215.5708313,33.6044121z M127.2639923,32.9351425
				l-0.2721176-0.9764519c0.7663269-0.2136097,1.5204086-0.4816418,2.2411423-0.7965813l0.4059296,0.9288826
				C128.8749084,32.4248161,128.0758514,32.7087822,127.2639923,32.9351425z M131.8729248,30.924387l-0.5287781-0.8648376
				c0.655365-0.4007549,1.3149567-0.8622494,1.9605255-1.3717346l0.6279602,0.7957382
				C133.2555542,30.0179348,132.5625763,30.5026417,131.8729248,30.924387z M211.5583191,30.7989388
				c-0.6748505-0.447422-1.366684-0.8945427-2.0563354-1.3289757l0.5402222-0.8577404
				c0.6963806,0.4386425,1.3948822,0.8900948,2.0762329,1.3418465L211.5583191,30.7989388z M207.4156342,28.1888542
				c-0.6942291-0.4154892-1.4054565-0.8307972-2.1141357-1.2343807l0.5016174-0.8808327
				c0.7149658,0.4071312,1.4327087,0.8261681,2.1330719,1.2453861L207.4156342,28.1888542z M135.8191528,27.8411407
				l-0.6980286-0.7351208c0.539917-0.5127316,1.0970917-1.0778427,1.7032776-1.7275066l0.7411957,0.6914597
				C136.945343,26.7347927,136.3740997,27.3140965,135.8191528,27.8411407z M203.1615753,25.7659187
				c-0.7095642-0.3843994-1.4375305-0.7691593-2.1637421-1.1436348l0.4644928-0.9009781
				c0.7323608,0.3775425,1.4665222,0.7656097,2.1822205,1.1533146L203.1615753,25.7659187z M139.2209473,24.2330761
				l-0.7614136-0.6692104c0.2763977-0.3143978,0.5521393-0.6304798,0.8283386-0.9471645
				c0.2624359-0.300808,0.5253601-0.6022167,0.7897186-0.903204l0.7616577,0.6689682
				c-0.2636566,0.3001461-0.5257874,0.6006527-0.7875061,0.9006195
				C139.7746277,23.60079,139.4980469,23.9177742,139.2209473,24.2330761z M198.8117828,23.5227928
				c-0.7272491-0.3567963-1.4697113-0.7121487-2.2067566-1.0561943l0.4288483-0.9186001
				c0.7428131,0.3468742,1.4912262,0.7049923,2.2244873,1.0647335L198.8117828,23.5227928z M194.3790436,21.453043
				c-0.7373962-0.3275089-1.4923096-0.6542969-2.2439728-0.9714603l0.394104-0.9339352
				c0.7574158,0.3195705,1.518219,0.6489429,2.2613373,0.9789772L194.3790436,21.453043z M142.4733582,20.5651741
				l-0.7427673-0.6898975c0.614502-0.6615124,1.1824188-1.2430401,1.7363586-1.7776623l0.7040253,0.7293472
				C143.6304016,19.3486538,143.0751648,19.9171925,142.4733582,20.5651741z M189.8742065,19.5516777
				c-0.7523804-0.3014698-1.5201416-0.6011333-2.2819672-0.8906364l0.3600464-0.9475842
				c0.7675323,0.291666,1.5409546,0.5934963,2.2989349,0.8973103L189.8742065,19.5516777z M185.294632,17.8112392
				c-0.7658539-0.2754288-1.5438538-0.5475502-2.3125916-0.8089676l0.3262634-0.959734
				c0.7743683,0.2632828,1.5580902,0.5373878,2.3294067,0.8148632L185.294632,17.8112392z M145.9712524,17.2164803
				l-0.6437225-0.7831097c0.6616974-0.5438824,1.3381805-1.0466309,2.0106354-1.4942942l0.5617523,0.8437881
				C147.255661,16.2117043,146.60672,16.6941261,145.9712524,17.2164803z M180.6555634,16.2343159
				c-0.7761993-0.2486677-1.563385-0.493187-2.3397675-0.726881l0.2922668-0.9706774
				c0.7819672,0.2354374,1.5748901,0.48176,2.3566742,0.732173L180.6555634,16.2343159z M175.9637146,14.8220491
				c-0.7851715-0.2211256-1.5804901-0.4373798-2.3639526-0.6429291l0.2572021-0.9804811
				c0.7893066,0.2070532,1.5905762,0.4249315,2.3815002,0.6477404L175.9637146,14.8220491z M149.9647369,14.5703135
				l-0.4618073-0.9023018c0.7422791-0.3799486,1.5159454-0.7196045,2.2993774-1.0095272l0.3517914,0.9506531
				C151.4081421,13.8851681,150.671524,14.2086468,149.9647369,14.5703135z M171.2272949,13.5823154
				c-0.8074799-0.1910563-1.6091156-0.3645525-2.3827209-0.5156174l0.1943207-0.994854
				c0.7865906,0.1535912,1.6014557,0.3299141,2.4219055,0.5240974L171.2272949,13.5823154z M154.442337,12.9088974
				l-0.2416992-0.9843903c0.791214-0.1943636,1.6184082-0.3521042,2.4583588-0.468771l0.1395264,1.003994
				C155.9927826,12.5717068,155.200058,12.7228317,154.442337,12.9088974z M166.4454498,12.6539745
				c-0.8205109-0.1210566-1.6322479-0.2190809-2.4127045-0.2912455l0.0932617-1.009347
				c0.7987518,0.0738487,1.628891,0.1739779,2.4674988,0.297801L166.4454498,12.6539745z M159.1941986,12.238184
				l-0.0492554-1.012413c0.8053741-0.0392704,1.6477051-0.0471478,2.4954071-0.023694l-0.0280151,1.0133152
				C160.7901306,12.1927805,159.973938,12.2002974,159.1941986,12.238184z"/>
		</g>
		<g>
			<path class="st9" d="M301.1265869,91.609787c-0.3079529,0-0.6170044-0.0046921-0.9226379-0.0140762l0.0312195-1.0131912
				c0.3958435,0.012085,0.7977905,0.0162354,1.1957092,0.0119629l0.0105896,1.0137405
				C301.3367004,91.6092453,301.2318115,91.609787,301.1265869,91.609787z"/>
		</g>
	</g>
	<g>
		<g>
			<g>
				<path class="st10" d="M335.183136,118.1267242c0.0255737-1.1181335,2.7168884-2.038063,6.7372131-2.4931793
					c0.963501-0.1090927,1.6516113-0.9928665,1.514679-1.9527817c-1.7659912-12.3818741-2.7234497-23.1613922-5.9290161-29.2305222
					c-0.8839722-1.6680298-14.9352112,7.5602417-19.4295044,13.8935547
					c-0.4748535,0.6692047-0.4048462,1.5795059,0.1565247,2.1779327c3.7636108,4.0121307,5.8903503,7.5155563,4.974823,8.5220795
					c-0.8648987,0.9468002-4.1968689-0.6052856-8.222229-3.6372375c-0.7552185-0.56884-1.8206177-0.4338913-2.4048462,0.3094101
					c-2.2100525,2.8119049-4.5473633,5.5974121-6.9620972,8.2118225c-0.992157,1.0728531-0.8300781,2.77005,0.3601379,3.6142654
					c2.5377502,1.8061676,3.885498,3.352356,3.5038452,4.2748032c-0.5220337,1.2752762-4.1558533,1.0919189-9.2836304-0.2257538
					c-0.8940125-0.2303238-1.8361816,0.0540009-2.4407959,0.7431183c-3.7447205,4.2736664-6.5202942,8.0901108-7.5474548,10.8920975
					c-0.4819336,1.3173065-0.9706726,2.7303009-1.4472656,4.2119598c-0.3585205,1.1101379,0.1249695,2.3216705,1.1531982,2.8700562
					c5.8262329,3.113739,9.4740601,6.0817566,8.879364,7.5379944c-0.5462341,1.3340759-4.5612793,1.0597992-10.1364746-0.4597626
					c-1.3517761-0.3686371-2.7402649,0.46698-3.0225525,1.8344421c-2.2702026,11.0674438-2.5447083,22.4860992,3.4744263,26.9507599
					c4.9194946,3.6453552,15.4795837-2.052002,25.2501526-9.154953c1.3460388-0.9825897,1.3144226-2.9917145-0.0513-3.9494629
					c-2.6416626-1.8542175-4.0523071-3.4429321-3.6609192-4.3925629c0.5943909-1.4425812,5.2356262-1.0033417,11.5287476,0.8566589
					c0.7799377,0.2277985,1.6328735,0.0509949,2.2520447-0.4780426c4.1474304-3.5204315,7.5150146-6.6706696,9.3041687-8.4646912
					c0.4951782-0.4954224,0.9547424-1.0326233,1.3831482-1.6026001c0.899292-1.2027588,0.4322205-2.9342957-0.9176941-3.5904541
					c-7.3765259-3.5872498-12.2863159-7.2551575-11.6046753-8.9239044
					c0.6766052-1.6460266,8.6669006,0.2526855,16.6966553,3.0196075c1.3903503,0.479126,2.8840637-0.3677979,3.1725464-1.8082123
					c0.9147339-4.5783234,1.4977722-9.7050934,1.5355835-14.9135361c0.0063171-0.8712692-0.6288452-1.6083755-1.491333-1.7319565
					C338.118042,120.4084549,335.1560974,119.3114319,335.183136,118.1267242z"/>
			</g>
		</g>
	</g>
	<g>
		<g>
			<g>
				<path class="st9" d="M294.8997803,178.2375031c0.2509155-0.0052338,0.473938-0.1835938,0.5259705-0.4408569
					c0.1728821-0.850769,4.1643372-20.9470673-0.6734924-30.0705872
					c-3.1904602-6.0149384-5.7539978-10.1371765-8.4676514-14.5014191
					c-1.4211121-2.2845612-2.8895569-4.6469421-4.5653381-7.4583588c-5.0433655-8.461998-8.21698-16.8487625-7.7182617-20.3953094
					c0.5831299-4.1562195-1.9295654-5.5575409-2.0368042-5.6149673c-0.2687073-0.1422882-0.600769-0.0434189-0.7438965,0.2238922
					c-0.1438293,0.267189-0.043396,0.5999908,0.2238159,0.7438354c0.0752563,0.0425797,1.9410706,1.1313629,1.468689,4.4947357
					c-0.5383606,3.8314133,2.6210938,12.3157806,7.862793,21.1107025c1.6810608,2.8194199,3.1525879,5.1868515,4.5759583,7.4750748
					c2.8210449,4.5371857,5.2574158,8.4552612,8.4295349,14.4366608c4.6546326,8.7762756,0.6097412,29.1335144,0.5683594,29.3382721
					c-0.060791,0.2971497,0.1314697,0.5868225,0.4293823,0.6468506
					C294.8194885,178.2348022,294.8600769,178.2383575,294.8997803,178.2375031z"/>
			</g>
			<path class="st9" d="M310.751709,142.3123169c-7.0256348,4.9446106-14.9143982,15.9662476-14.0704956,17.1652679
				c0.8439331,1.1990662,10.8465881-0.5929565,17.8721313-5.5375214c3.8616028-2.7178497,7.953064-9.2623138,6.5350647-12.1565399
				C319.9266357,139.4123077,313.9155884,140.0855408,310.751709,142.3123169z"/>
			<path class="st9" d="M294.3728638,123.9687119c-3.1866455,6.5591354-4.5174866,17.9866867-3.3979492,18.530571
				c1.1194458,0.5438843,7.812561-4.8969879,10.999176-11.4561768c1.7515259-3.6052475,2.1014404-10.1472397-0.1408997-11.7142334
				C299.9959412,118.0449371,295.8079224,121.0147629,294.3728638,123.9687119z"/>
			<path class="st9" d="M283.4587708,105.3033142c-3.1866455,6.5591965-4.5174866,17.9867477-3.3979797,18.530632
				c1.1194763,0.5438232,7.8125916-4.8969955,10.9992065-11.4561844c1.7514954-3.6052933,2.1014404-10.1472244-0.1408997-11.7142868
				C289.0818481,99.3795395,284.8937988,102.3493652,283.4587708,105.3033142z"/>
			<path class="st9" d="M266.3512268,90.52388c0.055481,9.2162476,5.893219,19.2830124,7.2409058,19.1608124
				c1.3476562-0.1222,4.5243225-8.9459229,3.8083801-16.8420868c-0.3935547-4.3401794-3.7409668-10.6274872-6.7085876-10.827446
				C268.2604675,81.8512878,266.3296204,86.9533463,266.3512268,90.52388z"/>
			<path class="st9" d="M277.2006836,148.211853c8.3292236,2.1051636,19.6377563,9.576767,19.2784729,10.9983521
				c-0.359314,1.4215851-10.3413391,3.325119-18.6705627,1.2199554c-4.578125-1.1571045-10.7394104-5.8056793-10.4501953-9.015564
				C267.5953369,148.784668,273.449646,147.2637939,277.2006836,148.211853z"/>
			<path class="st9" d="M274.4644165,132.0927429c7.0106506,2.006958,16.4066467,8.6459503,16.0641174,9.842453
				c-0.3425598,1.1965485-8.8618164,2.5466919-15.8725281,0.5396729c-3.8534241-1.1031647-8.9572754-5.210495-8.626709-7.9260559
				C266.3001099,132.3237915,271.3071899,131.1888123,274.4644165,132.0927429z"/>
			<path class="st9" d="M265.3762207,112.1197128c6.6913147,2.8990479,15.1471558,10.7001953,14.6523438,11.8422012
				c-0.494751,1.1420135-9.1171875,1.3762512-15.8083496-1.5227966c-3.6779175-1.593399-8.2062073-6.3277817-7.5263977-8.9776154
				C257.2507935,111.2904205,262.362793,110.8141937,265.3762207,112.1197128z"/>
		</g>
	</g>
	<g>
		<g>
			<path class="st10" d="M60.4920387,53.4810944c0.074379-1.6495705-3.7975082-3.2741241-9.6733551-4.3472137
				c-1.4082375-0.2570877-2.33321-1.6278-2.0353508-3.0279808c3.8414574-18.0601711,6.3314476-33.8412552,11.6608276-42.4593086
				c1.4690971-2.3681517,21.2406006,12.6315651,27.2257156,22.4099102c0.6324615,1.0332222,0.4381027,2.3670101-0.4487457,3.192215
				c-5.9452438,5.5324039-9.4287033,10.4795475-8.1809082,12.0536442c1.1789246,1.4812469,6.2420197-0.4710541,12.4746628-4.5335197
				c1.1693726-0.7621803,2.7250748-0.4567413,3.5111237,0.6966934c2.9733734,4.3629684,6.137085,8.6998405,9.4317703,12.7924919
				c1.3538742,1.6795197,0.9451218,4.1630135-0.8925629,5.2872238c-3.9187317,2.4060402-6.0587234,4.5484352-5.5889206,5.9453659
				c0.6411743,1.9306526,6.0116882,2.0245285,13.6963501,0.5975266c1.3398132-0.249752,2.6990891,0.263401,3.5205078,1.3388977
				c5.0874405,6.6697235,8.7932892,12.5689621,10.0254517,16.798912c0.577919,1.9885025,1.1562576,4.1185074,1.7097626,6.3487091
				c0.4168701,1.6710358-0.4166336,3.4070206-1.9860382,4.1117172c-8.8933029,4.0025024-14.5634232,8.0087357-13.8334122,10.2131348
				c0.6709518,2.0197144,6.6123047,2.0178528,14.9760208,0.3383331c2.0279617-0.407547,3.9892807,0.9621429,4.268013,3.0045853
				c2.2352448,16.5284119,1.4956818,33.3744659-7.8170776,39.3474426
				c-7.6110458,4.876358-22.5941162-4.5729675-36.2734528-16.0135803c-1.884285-1.5821533-1.6363373-4.538147,0.4711838-5.8120956
				c4.0765305-2.466362,6.3134003-4.6651077,5.8321304-6.1029282c-0.7309799-2.1841965-7.6110611-2.0022812-17.0663528,0.106926
				c-1.171524,0.2573242-2.4101868-0.0885239-3.269249-0.9297256c-5.7559967-5.6007233-10.4004059-10.5778732-12.855938-13.3996429
				c-0.6796646-0.7791977-1.3027573-1.6164932-1.876709-2.4988937c-1.204071-1.8616104-0.3426018-4.3650742,1.7112694-5.1963501
				c11.2241669-4.5447083,18.8231964-9.4552917,17.9863205-11.9814224
				c-0.8316956-2.492218-12.7906876-0.4960709-24.8947258,2.7749786c-2.0958519,0.5663147-4.2110023-0.8306122-4.4916649-2.9810715
				c-0.888649-6.8350372-1.2339592-14.4445877-0.7678337-22.1197472c0.0779381-1.2839317,1.0872841-2.3060303,2.3700142-2.4015884
				C55.9407692,56.5476799,60.4131889,55.2285652,60.4920387,53.4810944z"/>
		</g>
	</g>
	<g>
		<path class="st7" d="M19.3796196,113.0135345c6.9868336,8.1126633,17.517189,8.5541306,25.2494202,5.361618
			c7.7295227-3.1842194,13.9994507-2.8410721,16.003952,1.517746c2.007206,4.3504028,5.7411995,12.9706268,18.456234,13.0959473
			c12.7149811,0.1252594,17.1446381,4.1846619,25.1565704,12.008728c8.0118637,7.8239899,14.2616501,8.5921936,14.2616501,8.5921936
			s3.2183762-6.3231506,0.5171814-18.8765411c-1.6194992-7.529808-5.3726196-17.3068924-13.2348633-29.3052673
			c-5.3240891-8.1321487-24.3862076-25.7234268-29.867012-24.54702c-5.4835129,1.1847687-9.3855286,9.9893112-17.7443924,12.4150772
			c-7.417408,2.1520157-22.3286018-1.9944611-31.4493465,0.2893143c-1.1592083,0.2873993-2.2167244,0.6770325-3.1581154,1.1966782
			C15.1791401,99.3904266,12.389967,104.8952866,19.3796196,113.0135345z"/>
	</g>
	<polygon class="st10" points="178.5428162,145.9412384 125.1510696,146.3143921 135.9384003,202.5707397 188.5401764,206.3715973 	
		"/>
	<polygon class="st10" points="125.1510696,146.3143921 135.9384003,202.5707397 188.5401764,206.3715973 	"/>
	<g>
		<path class="st9" d="M103.7843018,231.0385284c-0.8733139-0.0075226-1.7016525-0.0383606-2.4618454-0.0915833l0.0707779-1.0110931
			c0.7396927,0.0517731,1.5470352,0.0817261,2.3997879,0.0891266L103.7843018,231.0385284z M106.2399521,231.0058136
			l-0.0335541-1.0130768c0.7647629-0.0253143,1.578064-0.0653687,2.41716-0.1188354l0.0645294,1.0116425
			C107.838707,230.9397278,107.0149994,230.9801331,106.2399521,231.0058136z M111.1284637,230.7005615l-0.0879822-1.0098267
			c0.7694016-0.0670013,1.5819778-0.1454163,2.4152374-0.2331543l0.1060867,1.0081329
			C112.7225266,230.5541229,111.9038162,230.6331482,111.1284637,230.7005615z M98.8571777,230.6634521
			c-0.3751984-0.0636292-0.7370377-0.1363983-1.0753174-0.2164917c-0.4549332-0.1078949-0.8989334-0.2132568-1.3321609-0.316452
			l0.234848-0.9860077c0.4328537,0.102951,0.8764877,0.208252,1.3310089,0.3160248
			c0.3170471,0.0751038,0.6572418,0.1435394,1.0109711,0.2033844L98.8571777,230.6634521z M115.9891281,230.1917419
			l-0.1207428-1.0064697c0.7693863-0.0924225,1.5803375-0.1946564,2.4102402-0.3041077l0.1325989,1.0049591
			C117.5773621,229.996109,116.7624969,230.098938,115.9891281,230.1917419z M94.0820312,229.5619202
			c-0.8902664-0.2163849-1.6641235-0.4076233-2.3659286-0.5845337l0.2478867-0.9828949
			c0.6989746,0.1762695,1.4700546,0.3667145,2.3574448,0.5823669L94.0820312,229.5619202z M120.8286896,229.5548248
			l-0.1422882-1.0037537c0.7692795-0.1089783,1.5786743-0.2272034,2.4056168-0.3512115l0.1502838,1.0024872
			C122.4127121,229.3267212,121.6006165,229.4453125,120.8286896,229.5548248z M125.6525497,228.8328705l-0.1568375-1.0015259
			c0.7930374-0.1242523,1.5940018-0.2520447,2.4019623-0.3830719l0.1622467,1.0005646
			C127.2501068,228.5801697,126.4473877,228.7083893,125.6525497,228.8328705z M89.3535995,228.3625336
			c-0.9055481-0.244873-1.6761475-0.4663086-2.3556976-0.6770935l0.3002625-0.9680786
			c0.6675873,0.2069244,1.4263992,0.4250488,2.3199844,0.6665497L89.3535995,228.3625336z M130.4648132,228.0532532
			l-0.1665802-0.9997864c0.7941132-0.1324921,1.5941162-0.2674408,2.399292-0.404541l0.1701965,0.9992981
			C132.0614014,227.7856293,131.2601929,227.920639,130.4648132,228.0532532z M135.2687683,227.235672l-0.1728973-0.9988098
			c0.7953186-0.1377258,1.5948486-0.2770538,2.3978577-0.4177856l0.1748199,0.9985809
			C136.8649292,226.9583282,136.0648041,227.0979614,135.2687683,227.235672z M84.6579514,226.8518219
			c-1.3974686-0.5996857-2.0523071-1.1791077-2.1233902-1.8784485l1.0085602-0.102478
			c0.0099258,0.0980835,0.1485443,0.4631195,1.5145645,1.0494537L84.6579514,226.8518219z M140.0673065,226.3951416
			l-0.1764984-0.9981689c0.7966461-0.1407166,1.595871-0.2823944,2.3971558-0.4246826l0.1772156,0.9980316
			C141.6636658,226.1126709,140.8641357,226.254364,140.0673065,226.3951416z M144.8573761,225.5451508l-0.1774597-0.9980927
			l2.3955078-0.4255371l0.1770477,0.9981079L144.8573761,225.5451508z M149.6507568,224.6951752l-0.1762085-0.9983368
			c0.8012695-0.141449,1.6026001-0.2825317,2.4031525-0.4224701l0.1746368,0.9985809
			C151.2523346,224.4127655,150.4515381,224.5537262,149.6507568,224.6951752z M154.4500732,223.8554688l-0.17276-0.9988098
			c0.8019257-0.1387482,1.602478-0.2760925,2.4010468-0.4120026l0.1699982,0.9992981
			C156.050705,223.5796204,155.2510529,223.71698,154.4500732,223.8554688z M84.8958588,223.701889l-0.4893417-0.8877563
			c0.5770187-0.3180084,1.3126221-0.6639099,2.2489624-1.0573883l0.3927536,0.9344025
			C86.1452103,223.0707397,85.441124,223.4013214,84.8958588,223.701889z M213.5779724,223.4713135
			c-0.5238495,0-1.0588989-0.0143738-1.5901337-0.0428772l0.0542908-1.0122833
			c0.5135803,0.0276031,1.0305176,0.0416107,1.5368042,0.0416107c0.2836151-0.002594,0.5702362-0.0042725,0.8524628-0.0128784
			l0.0307159,1.0133209C214.1693115,223.467041,213.8778229,223.4708405,213.5779724,223.4713135z M216.9326324,223.2731018
			l-0.1214294-1.0063934c0.7970734-0.0962219,1.5874481-0.2302704,2.3489685-0.3985291l0.2187195,0.9897308
			C218.5853271,223.0332794,217.7622375,223.1729736,216.9326324,223.2731018z M209.5265198,223.1980591
			c-0.8039703-0.1068115-1.6229248-0.246994-2.4341888-0.4164581l0.207428-0.9922028
			c0.7868347,0.1644135,1.5810089,0.3002014,2.3605042,0.4038239L209.5265198,223.1980591z M159.2477264,223.0394135
			l-0.1667633-0.9997864c0.8043365-0.1342316,1.6060486-0.2665863,2.4042969-0.3965454l0.1629639,1.0005035
			C160.851181,222.7733612,160.0508575,222.905426,159.2477264,223.0394135z M164.0498962,222.2581024l-0.1581268-1.0012817
			c0.8074188-0.1275482,1.6105499-0.2522736,2.4087524-0.3739319l0.1526947,1.0019989
			C165.6568756,222.0063019,164.855484,222.1307983,164.0498962,222.2581024z M221.7749481,222.1945343l-0.3237152-0.9606934
			c0.7686768-0.2587738,1.5073395-0.558136,2.1954956-0.8895569l0.4399109,0.9132538
			C223.3607788,221.6070557,222.5830231,221.9223633,221.7749481,222.1945343z M204.6962891,222.1933289
			c-0.7794495-0.2199707-1.5699005-0.470871-2.3493347-0.74617l0.3374329-0.9557648
			c0.7590485,0.2678528,1.5284576,0.5122986,2.2871399,0.7262115L204.6962891,222.1933289z M89.2928619,221.7998505
			l-0.3601608-0.947464c0.6642761-0.2525177,1.4126892-0.5299835,2.2878647-0.8484192l0.3465729,0.9526367
			C90.6965332,221.2733002,89.9525757,221.5491486,89.2928619,221.7998505z M168.8582916,221.526413l-0.1462555-1.0029755
			c0.8186493-0.1194305,1.6309814-0.2348328,2.4145203-0.3430786l0.1387939,1.0042267
			C170.4842834,221.2924805,169.674469,221.4074554,168.8582916,221.526413z M173.6742859,220.8622589l-0.1298981-1.0052643
			c0.8283234-0.1071014,1.6430664-0.2081299,2.4216614-0.3005676l0.1194305,1.0066986
			C175.3103638,220.655014,174.499115,220.7556915,173.6742859,220.8622589z M200.0795898,220.6309662
			c-0.6950073-0.2111359-1.4715576-0.3937225-2.308136-0.5424347l0.1774139-0.9980469
			c0.8760834,0.1558228,1.6921539,0.3477783,2.4253998,0.5706482L200.0795898,220.6309662z M178.4991608,220.2905884
			l-0.1075287-1.0079041c0.8326569-0.0888824,1.6502838-0.1703033,2.4303284-0.2422333l0.0930328,1.0094147
			C180.1398315,220.1213684,179.3270111,220.2023621,178.4991608,220.2905884z M93.8577194,220.0181122l-0.4280624-0.9188995
			c0.7735519-0.3601685,1.4700623-0.7405396,2.0702896-1.1304169l0.552124,0.8501129
			C95.4122696,219.2345123,94.6739578,219.6379242,93.8577194,220.0181122z M226.2604828,220.0042725l-0.5760651-0.8340454
			c0.6961517-0.4809723,1.2844238-0.9878693,1.7483826-1.5065613l0.7555084,0.6758881
			C227.6711273,218.9177094,227.0225372,219.477829,226.2604828,220.0042725z M183.3331909,219.8465881l-0.0760803-1.010849
			c0.8381958-0.0630188,1.659256-0.1167297,2.4403839-0.1594238l0.0553131,1.0121155
			C184.9785461,219.730835,184.1645203,219.7840576,183.3331909,219.8465881z M195.4007263,219.7679291
			c-0.7526855-0.0738373-1.5597839-0.1295319-2.3991852-0.1654968l0.0434723-1.0128326
			c0.8578644,0.0368652,1.68367,0.0938721,2.4545135,0.1694641L195.4007263,219.7679291z M188.1729889,219.5854797
			l-0.030014-1.0133209c0.7956848-0.0235138,1.5727081-0.0354156,2.3092804-0.0354156l0.1400604,0.0001221l-0.0027161,1.0136719
			l-0.1373444-0.0002441C189.7256165,219.550293,188.9586792,219.5622101,188.1729889,219.5854797z M98.0222931,217.1994019
			l-0.7438431-0.6886902c0.5484543-0.5924225,0.9305801-1.2220612,1.1356506-1.8712921l0.9666367,0.3052521
			C99.1302032,215.7377625,98.6731567,216.4963379,98.0222931,217.1994019z M229.4682159,215.984024l-0.9993744-0.1695862
			c0.0163574-0.0964661,0.0245972-0.1906891,0.0245972-0.2801819c0-0.3243713-0.1044464-0.5942078-0.3192596-0.8251495
			c-0.168335-0.1807709-0.3463898-0.3670654-0.5290985-0.5534973l0.7237549-0.7095032
			c0.1888885,0.1925659,0.3729706,0.3851166,0.5473785,0.5722656c0.3865662,0.4156189,0.5909119,0.9397125,0.5909119,1.5158844
			C229.5071259,215.6803894,229.4941254,215.8318176,229.4682159,215.984024z M225.9077148,212.4912415
			c-0.5631866-0.5115204-1.1759338-1.0451202-1.8211975-1.5860596l0.6512909-0.7768555
			c0.6554871,0.54953,1.2783966,1.092041,1.8513947,1.6125793L225.9077148,212.4912415z M98.5086823,212.4872131
			c-0.1310959-0.6658936-0.39534-1.3604889-0.8079453-2.1234436l0.891655-0.482254
			c0.4619217,0.8540802,0.759903,1.6424255,0.9109039,2.41008L98.5086823,212.4872131z M222.2076416,209.3811798
			c-0.9255676-0.7267609-1.5525665-1.1847687-1.5588074-1.1893463l0.5973206-0.8188782
			c0.0260468,0.0189362,0.6464844,0.4720154,1.5874634,1.2109222L222.2076416,209.3811798z M96.4144592,208.3825989
			c-0.2711487-0.3685303-0.5400925-0.7169037-0.8001328-1.0540314c-0.2090378-0.2707977-0.4064026-0.5266876-0.5871201-0.7700043
			c-0.0555649-0.0748138-0.0999451-0.1524506-0.1322403-0.2311096l0.9379044-0.3846283l-0.0012054-0.002594
			c0,0,0.002533,0.0049286,0.0094452,0.0142517c0.1749954,0.2354431,0.3696594,0.4877167,0.5757523,0.7549133
			c0.2635803,0.3414612,0.5360641,0.6946411,0.8140793,1.0725403L96.4144592,208.3825989z M97.3891678,205.5387573
			l-0.2028427-0.9931641c0.6567612-0.1341705,1.4825668-0.256073,2.454628-0.3622742l0.1101074,1.0076599
			C98.8100357,205.2938843,98.0154343,205.4108429,97.3891678,205.5387573z M138.4476318,205.2303162
			c-0.045639-0.0113068-0.3703918-0.072464-2.2840729-0.1737366l0.0535736-1.0123596
			c2.453064,0.1298981,2.5469971,0.1958771,2.6893005,0.2958221l-0.5826263,0.8294678
			C138.3889923,205.215332,138.4446259,205.2295837,138.4476318,205.2303162z M102.15728,204.97966l-0.0713806-1.0111542
			c0.7501526-0.0529175,1.5716934-0.1010895,2.4418793-0.1428833l0.0487137,1.0125885
			C103.7138214,204.8795929,102.8998566,204.9271545,102.15728,204.97966z M133.7370148,204.946228
			c-0.7625427-0.0304871-1.5800629-0.0600891-2.4298553-0.0878601l0.0331879-1.0130768
			c0.8522034,0.0278931,1.6722412,0.0574951,2.4372559,0.0881042L133.7370148,204.946228z M128.8762817,204.7860718
			c-0.7823944-0.0211029-1.5950851-0.0410156-2.4312973-0.0593567l0.0223083-1.0134277
			c0.8379593,0.0184631,1.6522903,0.0383606,2.436409,0.0594788L128.8762817,204.7860718z M107.0013504,204.7410889
			l-0.033432-1.0130157c0.7672882-0.0253143,1.5880432-0.0474396,2.4393539-0.0657806l0.0217667,1.0135498
			C108.5815811,204.6940613,107.7647934,204.7159576,107.0013504,204.7410889z M124.0134506,204.6792755
			c-0.7978439-0.0135956-1.6101227-0.0256805-2.4316025-0.0355988l0.0122681-1.0135651
			c0.8232346,0.0099335,1.6371841,0.0220184,2.4366531,0.0356598L124.0134506,204.6792755z M111.8583527,204.6349487
			l-0.0125122-1.0135498c0.7884598-0.0098724,1.6086807-0.0168457,2.437851-0.0209351l0.0050507,1.0136261
			C113.4620972,204.6182404,112.6443481,204.6252747,111.8583527,204.6349487z M119.1512833,204.6201019
			c-0.8078918-0.005661-1.6199265-0.0092621-2.4313507-0.0103455l0.0013123-1.0136719
			c0.8134155,0.0010681,1.6273193,0.0048065,2.4371262,0.0103912L119.1512833,204.6201019z"/>
	</g>
	<path class="st3" d="M214.5244751,199.0334473c0,0-0.7826843,1.4436646-1.1545105,1.5496826
		c-2.4698486,0.7044525-12.0078125,3.5293427-11.4904022,4.8889313c0.7906952,2.0773926,9.4788055-2.3335724,9.6272888-1.0009308
		c0.1969452,1.7673187-12.3611908,4.4059753-13.2440033,7.2020721c-0.3569794,1.1305237,3.8074188,6.7282257,11.9580841,4.2167664
		c3.8016968-1.1714172,16.6027374-8.0546875,17.8119202-11.9681854c0.4813538-1.5577393,0.9916687-2.5643158,0.877655-2.5643158
		c-4.033905,0-7.4178467-0.5336609-9.7762451-1.071106C216.2311859,199.6248474,214.5244751,199.0334473,214.5244751,199.0334473z"
		/>
	<polygon class="st7" points="136.6133881,205.3480682 135.9384003,202.5707397 188.5401764,206.3715973 188.8211517,209.5648346 	
		"/>
</g>
</svg>
