<?xml version="1.0" encoding="utf-8"?>
<!-- Generator: Adobe Illustrator 23.0.3, SVG Export Plug-In . SVG Version: 6.00 Build 0)  -->
<svg version="1.1" id="Слой_1" xmlns="http://www.w3.org/2000/svg" xmlns:xlink="http://www.w3.org/1999/xlink" x="0px" y="0px"
	 width="146px" height="39.2999992px" viewBox="0 0 146 39.2999992" style="enable-background:new 0 0 146 39.2999992;"
	 xml:space="preserve">
<style type="text/css">
	.st0{opacity:0.99;fill-rule:evenodd;clip-rule:evenodd;fill:#FFFFFF;enable-background:new    ;}
	.st1{fill:#FFFFFF;}
	.st2{font-family:'TTLakes-Regular';}
	.st3{font-size:32px;}
</style>
<rect x="11.1999998" y="0.3" class="st0" width="4.8000002" height="25.2999992"/>
<ellipse class="st0" cx="13.6000004" cy="28.6000004" rx="2.5" ry="1.8999996"/>
<path class="st0" d="M5.6999998,30.5H3.2c-0.6000001,0-1.1000001-0.5-1.1000001-1.1000004v-28c0-0.6,0.5-1.1,1.0999999-1.1
	h2.5999999c0.5999999,0,1.0999999,0.5,1.0999999,1.1v28C6.8000002,30,6.3000002,30.5,5.6999998,30.5z"/>
<path class="st0" d="M24.2999992,30.5h-2.6000004c-0.6000004,0-1.1000004-0.5-1.1000004-1.1000004v-28c0-0.6,0.5-1.1,1.1000004-1.1
	h2.6000004c0.6000004,0,1.1000004,0.5,1.1000004,1.1v28C25.3999996,30,24.8999996,30.5,24.2999992,30.5z"/>
<text transform="matrix(1 0 0 1 35.9721069 30.460907)" class="st1 st2 st3">lilaxxx</text>
</svg>
